<svg xmlns="http://www.w3.org/2000/svg" xmlns:xlink="http://www.w3.org/1999/xlink" id="body_1" preserveAspectRatio="xMinYMin meet" viewBox="0 0 816 1056"><defs><clipPath id="1"><path clip-rule="evenodd" d="M0 792L0 0L0 0L612 0L612 0L612 792L612 792L0 792z" /></clipPath><clipPath id="2"><path clip-rule="evenodd" d="M121.2 99.35999L127.2 99.35999L127.2 99.35999L127.2 85.67999L127.2 85.67999L121.2 85.67999z" /></clipPath><clipPath id="3"><path clip-rule="evenodd" d="M132.72 260.16L148.32 260.16L148.32 260.16L148.32 246.48L148.32 246.48L132.72 246.48z" /></clipPath><clipPath id="4"><path clip-rule="evenodd" d="M148.32 260.16L203.76 260.16L203.76 260.16L203.76 246.48L203.76 246.48L148.32 246.48z" /></clipPath><clipPath id="5"><path clip-rule="evenodd" d="M203.52 260.16L231.84 260.16L231.84 260.16L231.84 246.48L231.84 246.48L203.52 246.48z" /></clipPath><clipPath id="6"><path clip-rule="evenodd" d="M231.6 260.16L284.64 260.16L284.64 260.16L284.64 246.48L284.64 246.48L231.6 246.48z" /></clipPath><clipPath id="7"><path clip-rule="evenodd" d="M284.64 260.16L294.24 260.16L294.24 260.16L294.24 246.48L294.24 246.48L284.64 246.48z" /></clipPath><clipPath id="8"><path clip-rule="evenodd" d="M294.24 260.16L316.8 260.16L316.8 260.16L316.8 246.48L316.8 246.48L294.24 246.48z" /></clipPath><clipPath id="9"><path clip-rule="evenodd" d="M520.08 260.16L526.56 260.16L526.56 260.16L526.56 246.48L526.56 246.48L520.08 246.48z" /></clipPath><clipPath id="10"><path clip-rule="evenodd" d="M300.48 289.2L306.96 289.2L306.96 289.2L306.96 275.52L306.96 275.52L300.48 275.52z" /></clipPath><clipPath id="11"><path clip-rule="evenodd" d="M121.2 407.76L127.2 407.76L127.2 407.76L127.2 394.08L127.2 394.08L121.2 394.08z" /></clipPath><clipPath id="12"><path clip-rule="evenodd" d="M501.6 450.48L570.72 450.48L570.72 450.48L570.72 436.8L570.72 436.8L501.6 436.8z" /></clipPath><clipPath id="13"><path clip-rule="evenodd" d="M399.84 451.2L415.2 451.2L415.2 451.2L415.2 437.52L415.2 437.52L399.84 437.52z" /></clipPath><clipPath id="14"><path clip-rule="evenodd" d="M399.84 465.6L415.9199 465.6L415.9199 465.6L415.9199 451.92L415.9199 451.92L399.84 451.92z" /></clipPath><clipPath id="15"><path clip-rule="evenodd" d="M399.84 522.96L406.08 522.96L406.08 522.96L406.08 509.28L406.08 509.28L399.84 509.28z" /></clipPath><clipPath id="16"><path clip-rule="evenodd" d="M399.84 551.76L406.08 551.76L406.08 551.76L406.08 538.08L406.08 538.08L399.84 538.08z" /></clipPath><clipPath id="17"><path clip-rule="evenodd" d="M399.84 580.32L406.08 580.32L406.08 580.32L406.08 566.64L406.08 566.64L399.84 566.64z" /></clipPath><clipPath id="18"><path clip-rule="evenodd" d="M399.84 623.52L406.08 623.52L406.08 623.52L406.08 609.84L406.08 609.84L399.84 609.84z" /></clipPath></defs><g transform="matrix(1.333333 0 0 1.333333 0 0)"><g><g clip-path="url(#1)"><g clip-path="url(#2)"></g><path transform="matrix(1 0 0 -1 0 792)" d="M99.6 706.8L100.08 706.8L100.08 707.28L99.6 707.28z" stroke="none" fill="#000000" fill-rule="nonzero" /><path transform="matrix(1 0 0 -1 0 792)" d="M99.6 706.8L100.08 706.8L100.08 707.28L99.6 707.28z" stroke="none" fill="#000000" fill-rule="nonzero" /><path transform="matrix(1 0 0 -1 0 792)" d="M100.08 706.8L127.44 706.8L127.44 707.28L100.08 707.28z" stroke="none" fill="#000000" fill-rule="nonzero" /><path transform="matrix(1 0 0 -1 0 792)" d="M127.44 706.8L127.92 706.8L127.92 707.28L127.44 707.28z" stroke="none" fill="#000000" fill-rule="nonzero" /><path transform="matrix(1 0 0 -1 0 792)" d="M127.92 706.8L370.8 706.8L370.8 707.28L127.92 707.28z" stroke="none" fill="#000000" fill-rule="nonzero" /><path transform="matrix(1 0 0 -1 0 792)" d="M370.8 706.8L371.28 706.8L371.28 707.28L370.8 707.28z" stroke="none" fill="#000000" fill-rule="nonzero" /><path transform="matrix(1 0 0 -1 0 792)" d="M371.28 706.8L472.32 706.8L472.32 707.28L371.28 707.28z" stroke="none" fill="#000000" fill-rule="nonzero" /><path transform="matrix(1 0 0 -1 0 792)" d="M472.32 706.8L472.8 706.8L472.8 707.28L472.32 707.28z" stroke="none" fill="#000000" fill-rule="nonzero" /><path transform="matrix(1 0 0 -1 0 792)" d="M472.8 706.8L531.84 706.8L531.84 707.28L472.8 707.28z" stroke="none" fill="#000000" fill-rule="nonzero" /><path transform="matrix(1 0 0 -1 0 792)" d="M531.84 706.8L532.32 706.8L532.32 707.28L531.84 707.28z" stroke="none" fill="#000000" fill-rule="nonzero" /><path transform="matrix(1 0 0 -1 0 792)" d="M531.84 706.8L532.32 706.8L532.32 707.28L531.84 707.28z" stroke="none" fill="#000000" fill-rule="nonzero" /><path transform="matrix(1 0 0 -1 0 792)" d="M99.6 691.44L100.08 691.44L100.08 706.8L99.6 706.8z" stroke="none" fill="#000000" fill-rule="nonzero" /><path transform="matrix(1 0 0 -1 0 792)" d="M127.44 691.44L127.92 691.44L127.92 706.8L127.44 706.8z" stroke="none" fill="#000000" fill-rule="nonzero" /><path transform="matrix(1 0 0 -1 0 792)" d="M370.8 691.44L371.28 691.44L371.28 706.8L370.8 706.8z" stroke="none" fill="#000000" fill-rule="nonzero" /><path transform="matrix(1 0 0 -1 0 792)" d="M472.32 691.44L472.8 691.44L472.8 706.8L472.32 706.8z" stroke="none" fill="#000000" fill-rule="nonzero" /><path transform="matrix(1 0 0 -1 0 792)" d="M531.84 691.44L532.32 691.44L532.32 706.8L531.84 706.8z" stroke="none" fill="#000000" fill-rule="nonzero" /><path transform="matrix(1 0 0 -1 0 792)" d="M99.6 690.96L100.08 690.96L100.08 691.44L99.6 691.44z" stroke="none" fill="#000000" fill-rule="nonzero" /><path transform="matrix(1 0 0 -1 0 792)" d="M100.08 690.96L127.44 690.96L127.44 691.44L100.08 691.44z" stroke="none" fill="#000000" fill-rule="nonzero" /><path transform="matrix(1 0 0 -1 0 792)" d="M127.44 690.96L127.92 690.96L127.92 691.44L127.44 691.44z" stroke="none" fill="#000000" fill-rule="nonzero" /><path transform="matrix(1 0 0 -1 0 792)" d="M127.92 690.96L370.8 690.96L370.8 691.44L127.92 691.44z" stroke="none" fill="#000000" fill-rule="nonzero" /><path transform="matrix(1 0 0 -1 0 792)" d="M370.8 690.96L371.28 690.96L371.28 691.44L370.8 691.44z" stroke="none" fill="#000000" fill-rule="nonzero" /><path transform="matrix(1 0 0 -1 0 792)" d="M371.28 690.96L472.32 690.96L472.32 691.44L371.28 691.44z" stroke="none" fill="#000000" fill-rule="nonzero" /><path transform="matrix(1 0 0 -1 0 792)" d="M472.32 690.96L472.8 690.96L472.8 691.44L472.32 691.44z" stroke="none" fill="#000000" fill-rule="nonzero" /><path transform="matrix(1 0 0 -1 0 792)" d="M472.8 690.96L531.84 690.96L531.84 691.44L472.8 691.44z" stroke="none" fill="#000000" fill-rule="nonzero" /><path transform="matrix(1 0 0 -1 0 792)" d="M531.84 690.96L532.32 690.96L532.32 691.44L531.84 691.44z" stroke="none" fill="#000000" fill-rule="nonzero" /><path transform="matrix(1 0 0 -1 0 792)" d="M99.6 675.84L100.08 675.84L100.08 690.96L99.6 690.96z" stroke="none" fill="#000000" fill-rule="nonzero" /><path transform="matrix(1 0 0 -1 0 792)" d="M127.44 675.84L127.92 675.84L127.92 690.96L127.44 690.96z" stroke="none" fill="#000000" fill-rule="nonzero" /><path transform="matrix(1 0 0 -1 0 792)" d="M370.8 675.84L371.28 675.84L371.28 690.96L370.8 690.96z" stroke="none" fill="#000000" fill-rule="nonzero" /><path transform="matrix(1 0 0 -1 0 792)" d="M472.32 675.84L472.8 675.84L472.8 690.96L472.32 690.96z" stroke="none" fill="#000000" fill-rule="nonzero" /><path transform="matrix(1 0 0 -1 0 792)" d="M531.84 675.84L532.32 675.84L532.32 690.96L531.84 690.96z" stroke="none" fill="#000000" fill-rule="nonzero" /><path transform="matrix(1 0 0 -1 0 792)" d="M99.6 675.36L100.08 675.36L100.08 675.84L99.6 675.84z" stroke="none" fill="#000000" fill-rule="nonzero" /><path transform="matrix(1 0 0 -1 0 792)" d="M100.08 675.36L127.44 675.36L127.44 675.84L100.08 675.84z" stroke="none" fill="#000000" fill-rule="nonzero" /><path transform="matrix(1 0 0 -1 0 792)" d="M127.44 675.36L127.92 675.36L127.92 675.84L127.44 675.84z" stroke="none" fill="#000000" fill-rule="nonzero" /><path transform="matrix(1 0 0 -1 0 792)" d="M127.92 675.36L370.8 675.36L370.8 675.84L127.92 675.84z" stroke="none" fill="#000000" fill-rule="nonzero" /><path transform="matrix(1 0 0 -1 0 792)" d="M370.8 675.36L371.28 675.36L371.28 675.84L370.8 675.84z" stroke="none" fill="#000000" fill-rule="nonzero" /><path transform="matrix(1 0 0 -1 0 792)" d="M371.28 675.36L472.32 675.36L472.32 675.84L371.28 675.84z" stroke="none" fill="#000000" fill-rule="nonzero" /><path transform="matrix(1 0 0 -1 0 792)" d="M472.32 675.36L472.8 675.36L472.8 675.84L472.32 675.84z" stroke="none" fill="#000000" fill-rule="nonzero" /><path transform="matrix(1 0 0 -1 0 792)" d="M472.8 675.36L531.84 675.36L531.84 675.84L472.8 675.84z" stroke="none" fill="#000000" fill-rule="nonzero" /><path transform="matrix(1 0 0 -1 0 792)" d="M531.84 675.36L532.32 675.36L532.32 675.84L531.84 675.84z" stroke="none" fill="#000000" fill-rule="nonzero" /><path transform="matrix(1 0 0 -1 0 792)" d="M99.6 661.44L100.08 661.44L100.08 675.36L99.6 675.36z" stroke="none" fill="#000000" fill-rule="nonzero" /><path transform="matrix(1 0 0 -1 0 792)" d="M127.44 661.44L127.92 661.44L127.92 675.36L127.44 675.36z" stroke="none" fill="#000000" fill-rule="nonzero" /><path transform="matrix(1 0 0 -1 0 792)" d="M370.8 661.44L371.28 661.44L371.28 675.36L370.8 675.36z" stroke="none" fill="#000000" fill-rule="nonzero" /><path transform="matrix(1 0 0 -1 0 792)" d="M472.32 661.44L472.8 661.44L472.8 675.36L472.32 675.36z" stroke="none" fill="#000000" fill-rule="nonzero" /><path transform="matrix(1 0 0 -1 0 792)" d="M531.84 661.44L532.32 661.44L532.32 675.36L531.84 675.36z" stroke="none" fill="#000000" fill-rule="nonzero" /><path transform="matrix(1 0 0 -1 0 792)" d="M99.6 660.96L100.08 660.96L100.08 661.44L99.6 661.44z" stroke="none" fill="#000000" fill-rule="nonzero" /><path transform="matrix(1 0 0 -1 0 792)" d="M100.08 660.96L127.44 660.96L127.44 661.44L100.08 661.44z" stroke="none" fill="#000000" fill-rule="nonzero" /><path transform="matrix(1 0 0 -1 0 792)" d="M127.44 660.96L127.92 660.96L127.92 661.44L127.44 661.44z" stroke="none" fill="#000000" fill-rule="nonzero" /><path transform="matrix(1 0 0 -1 0 792)" d="M127.92 660.96L370.8 660.96L370.8 661.44L127.92 661.44z" stroke="none" fill="#000000" fill-rule="nonzero" /><path transform="matrix(1 0 0 -1 0 792)" d="M370.8 660.96L371.28 660.96L371.28 661.44L370.8 661.44z" stroke="none" fill="#000000" fill-rule="nonzero" /><path transform="matrix(1 0 0 -1 0 792)" d="M371.28 660.96L472.32 660.96L472.32 661.44L371.28 661.44z" stroke="none" fill="#000000" fill-rule="nonzero" /><path transform="matrix(1 0 0 -1 0 792)" d="M472.32 660.96L472.8 660.96L472.8 661.44L472.32 661.44z" stroke="none" fill="#000000" fill-rule="nonzero" /><path transform="matrix(1 0 0 -1 0 792)" d="M531.84 660.96L532.32 660.96L532.32 661.44L531.84 661.44z" stroke="none" fill="#000000" fill-rule="nonzero" /><path transform="matrix(1 0 0 -1 0 792)" d="M99.6 646.8L100.08 646.8L100.08 660.96L99.6 660.96z" stroke="none" fill="#000000" fill-rule="nonzero" /><path transform="matrix(1 0 0 -1 0 792)" d="M127.44 646.8L127.92 646.8L127.92 660.96L127.44 660.96z" stroke="none" fill="#000000" fill-rule="nonzero" /><path transform="matrix(1 0 0 -1 0 792)" d="M370.8 646.8L371.28 646.8L371.28 660.96L370.8 660.96z" stroke="none" fill="#000000" fill-rule="nonzero" /><path transform="matrix(1 0 0 -1 0 792)" d="M472.32 646.8L472.8 646.8L472.8 660.96L472.32 660.96z" stroke="none" fill="#000000" fill-rule="nonzero" /><path transform="matrix(1 0 0 -1 0 792)" d="M531.84 646.8L532.32 646.8L532.32 660.96L531.84 660.96z" stroke="none" fill="#000000" fill-rule="nonzero" /><path transform="matrix(1 0 0 -1 0 792)" d="M99.6 646.32L100.08 646.32L100.08 646.8L99.6 646.8z" stroke="none" fill="#000000" fill-rule="nonzero" /><path transform="matrix(1 0 0 -1 0 792)" d="M100.08 646.32L127.44 646.32L127.44 646.8L100.08 646.8z" stroke="none" fill="#000000" fill-rule="nonzero" /><path transform="matrix(1 0 0 -1 0 792)" d="M127.44 646.32L127.92 646.32L127.92 646.8L127.44 646.8z" stroke="none" fill="#000000" fill-rule="nonzero" /><path transform="matrix(1 0 0 -1 0 792)" d="M127.92 646.32L370.8 646.32L370.8 646.8L127.92 646.8z" stroke="none" fill="#000000" fill-rule="nonzero" /><path transform="matrix(1 0 0 -1 0 792)" d="M370.8 646.32L371.28 646.32L371.28 646.8L370.8 646.8z" stroke="none" fill="#000000" fill-rule="nonzero" /><path transform="matrix(1 0 0 -1 0 792)" d="M371.28 646.32L472.32 646.32L472.32 646.8L371.28 646.8z" stroke="none" fill="#000000" fill-rule="nonzero" /><path transform="matrix(1 0 0 -1 0 792)" d="M472.32 646.32L472.8 646.32L472.8 646.8L472.32 646.8z" stroke="none" fill="#000000" fill-rule="nonzero" /><path transform="matrix(1 0 0 -1 0 792)" d="M531.84 646.32L532.32 646.32L532.32 646.8L531.84 646.8z" stroke="none" fill="#000000" fill-rule="nonzero" /><path transform="matrix(1 0 0 -1 0 792)" d="M99.6 632.16L100.08 632.16L100.08 646.3199L99.6 646.3199z" stroke="none" fill="#000000" fill-rule="nonzero" /><path transform="matrix(1 0 0 -1 0 792)" d="M127.44 632.16L127.92 632.16L127.92 646.3199L127.44 646.3199z" stroke="none" fill="#000000" fill-rule="nonzero" /><path transform="matrix(1 0 0 -1 0 792)" d="M370.8 632.16L371.28 632.16L371.28 646.3199L370.8 646.3199z" stroke="none" fill="#000000" fill-rule="nonzero" /><path transform="matrix(1 0 0 -1 0 792)" d="M472.32 632.16L472.8 632.16L472.8 646.3199L472.32 646.3199z" stroke="none" fill="#000000" fill-rule="nonzero" /><path transform="matrix(1 0 0 -1 0 792)" d="M531.84 632.16L532.32 632.16L532.32 646.3199L531.84 646.3199z" stroke="none" fill="#000000" fill-rule="nonzero" /><path transform="matrix(1 0 0 -1 0 792)" d="M99.6 631.92L100.08 631.92L100.08 632.16L99.6 632.16z" stroke="none" fill="#000000" fill-rule="nonzero" /><path transform="matrix(1 0 0 -1 0 792)" d="M100.08 631.92L127.44 631.92L127.44 632.16L100.08 632.16z" stroke="none" fill="#000000" fill-rule="nonzero" /><path transform="matrix(1 0 0 -1 0 792)" d="M127.44 631.92L127.92 631.92L127.92 632.16L127.44 632.16z" stroke="none" fill="#000000" fill-rule="nonzero" /><path transform="matrix(1 0 0 -1 0 792)" d="M127.92 631.92L370.8 631.92L370.8 632.16L127.92 632.16z" stroke="none" fill="#000000" fill-rule="nonzero" /><path transform="matrix(1 0 0 -1 0 792)" d="M370.8 631.92L371.28 631.92L371.28 632.16L370.8 632.16z" stroke="none" fill="#000000" fill-rule="nonzero" /><path transform="matrix(1 0 0 -1 0 792)" d="M371.28 631.92L472.32 631.92L472.32 632.16L371.28 632.16z" stroke="none" fill="#000000" fill-rule="nonzero" /><path transform="matrix(1 0 0 -1 0 792)" d="M472.32 631.92L472.8 631.92L472.8 632.16L472.32 632.16z" stroke="none" fill="#000000" fill-rule="nonzero" /><path transform="matrix(1 0 0 -1 0 792)" d="M531.84 631.92L532.32 631.92L532.32 632.16L531.84 632.16z" stroke="none" fill="#000000" fill-rule="nonzero" /><path transform="matrix(1 0 0 -1 0 792)" d="M99.6 617.76L100.08 617.76L100.08 631.92L99.6 631.92z" stroke="none" fill="#000000" fill-rule="nonzero" /><path transform="matrix(1 0 0 -1 0 792)" d="M127.44 617.76L127.92 617.76L127.92 631.92L127.44 631.92z" stroke="none" fill="#000000" fill-rule="nonzero" /><path transform="matrix(1 0 0 -1 0 792)" d="M370.8 617.76L371.28 617.76L371.28 631.92L370.8 631.92z" stroke="none" fill="#000000" fill-rule="nonzero" /><path transform="matrix(1 0 0 -1 0 792)" d="M472.32 617.76L472.8 617.76L472.8 631.92L472.32 631.92z" stroke="none" fill="#000000" fill-rule="nonzero" /><path transform="matrix(1 0 0 -1 0 792)" d="M531.84 617.76L532.32 617.76L532.32 631.92L531.84 631.92z" stroke="none" fill="#000000" fill-rule="nonzero" /><path transform="matrix(1 0 0 -1 0 792)" d="M99.6 617.28L100.08 617.28L100.08 617.76L99.6 617.76z" stroke="none" fill="#000000" fill-rule="nonzero" /><path transform="matrix(1 0 0 -1 0 792)" d="M100.08 617.28L127.44 617.28L127.44 617.76L100.08 617.76z" stroke="none" fill="#000000" fill-rule="nonzero" /><path transform="matrix(1 0 0 -1 0 792)" d="M127.44 617.28L127.92 617.28L127.92 617.76L127.44 617.76z" stroke="none" fill="#000000" fill-rule="nonzero" /><path transform="matrix(1 0 0 -1 0 792)" d="M127.92 617.28L370.8 617.28L370.8 617.76L127.92 617.76z" stroke="none" fill="#000000" fill-rule="nonzero" /><path transform="matrix(1 0 0 -1 0 792)" d="M370.8 617.28L371.28 617.28L371.28 617.76L370.8 617.76z" stroke="none" fill="#000000" fill-rule="nonzero" /><path transform="matrix(1 0 0 -1 0 792)" d="M371.28 617.28L472.32 617.28L472.32 617.76L371.28 617.76z" stroke="none" fill="#000000" fill-rule="nonzero" /><path transform="matrix(1 0 0 -1 0 792)" d="M472.32 617.28L472.8 617.28L472.8 617.76L472.32 617.76z" stroke="none" fill="#000000" fill-rule="nonzero" /><path transform="matrix(1 0 0 -1 0 792)" d="M531.84 617.28L532.32 617.28L532.32 617.76L531.84 617.76z" stroke="none" fill="#000000" fill-rule="nonzero" /><path transform="matrix(1 0 0 -1 0 792)" d="M99.6 589.2L100.08 589.2L100.08 617.28L99.6 617.28z" stroke="none" fill="#000000" fill-rule="nonzero" /><path transform="matrix(1 0 0 -1 0 792)" d="M127.44 589.2L127.92 589.2L127.92 617.28L127.44 617.28z" stroke="none" fill="#000000" fill-rule="nonzero" /><path transform="matrix(1 0 0 -1 0 792)" d="M370.8 589.2L371.28 589.2L371.28 617.28L370.8 617.28z" stroke="none" fill="#000000" fill-rule="nonzero" /><path transform="matrix(1 0 0 -1 0 792)" d="M472.32 589.2L472.8 589.2L472.8 617.28L472.32 617.28z" stroke="none" fill="#000000" fill-rule="nonzero" /><path transform="matrix(1 0 0 -1 0 792)" d="M531.84 589.2L532.32 589.2L532.32 617.28L531.84 617.28z" stroke="none" fill="#000000" fill-rule="nonzero" /><path transform="matrix(1 0 0 -1 0 792)" d="M99.6 588.72L100.08 588.72L100.08 589.2L99.6 589.2z" stroke="none" fill="#000000" fill-rule="nonzero" /><path transform="matrix(1 0 0 -1 0 792)" d="M100.08 588.72L127.44 588.72L127.44 589.2L100.08 589.2z" stroke="none" fill="#000000" fill-rule="nonzero" /><path transform="matrix(1 0 0 -1 0 792)" d="M127.44 588.72L127.92 588.72L127.92 589.2L127.44 589.2z" stroke="none" fill="#000000" fill-rule="nonzero" /><path transform="matrix(1 0 0 -1 0 792)" d="M127.92 588.72L370.8 588.72L370.8 589.2L127.92 589.2z" stroke="none" fill="#000000" fill-rule="nonzero" /><path transform="matrix(1 0 0 -1 0 792)" d="M370.8 588.72L371.28 588.72L371.28 589.2L370.8 589.2z" stroke="none" fill="#000000" fill-rule="nonzero" /><path transform="matrix(1 0 0 -1 0 792)" d="M371.28 588.72L472.32 588.72L472.32 589.2L371.28 589.2z" stroke="none" fill="#000000" fill-rule="nonzero" /><path transform="matrix(1 0 0 -1 0 792)" d="M472.32 588.72L472.8 588.72L472.8 589.2L472.32 589.2z" stroke="none" fill="#000000" fill-rule="nonzero" /><path transform="matrix(1 0 0 -1 0 792)" d="M531.84 588.72L532.32 588.72L532.32 589.2L531.84 589.2z" stroke="none" fill="#000000" fill-rule="nonzero" /><path transform="matrix(1 0 0 -1 0 792)" d="M99.6 560.64L100.08 560.64L100.08 588.72L99.6 588.72z" stroke="none" fill="#000000" fill-rule="nonzero" /><path transform="matrix(1 0 0 -1 0 792)" d="M127.44 560.64L127.92 560.64L127.92 588.72L127.44 588.72z" stroke="none" fill="#000000" fill-rule="nonzero" /><path transform="matrix(1 0 0 -1 0 792)" d="M370.8 560.64L371.28 560.64L371.28 588.72L370.8 588.72z" stroke="none" fill="#000000" fill-rule="nonzero" /><path transform="matrix(1 0 0 -1 0 792)" d="M472.32 560.64L472.8 560.64L472.8 588.72L472.32 588.72z" stroke="none" fill="#000000" fill-rule="nonzero" /><path transform="matrix(1 0 0 -1 0 792)" d="M531.84 560.64L532.32 560.64L532.32 588.72L531.84 588.72z" stroke="none" fill="#000000" fill-rule="nonzero" /><path transform="matrix(1 0 0 -1 0 792)" d="M99.6 560.16L100.08 560.16L100.08 560.64L99.6 560.64z" stroke="none" fill="#000000" fill-rule="nonzero" /><path transform="matrix(1 0 0 -1 0 792)" d="M100.08 560.16L127.44 560.16L127.44 560.64L100.08 560.64z" stroke="none" fill="#000000" fill-rule="nonzero" /><path transform="matrix(1 0 0 -1 0 792)" d="M127.44 560.16L127.92 560.16L127.92 560.64L127.44 560.64z" stroke="none" fill="#000000" fill-rule="nonzero" /><path transform="matrix(1 0 0 -1 0 792)" d="M127.92 560.16L370.8 560.16L370.8 560.64L127.92 560.64z" stroke="none" fill="#000000" fill-rule="nonzero" /><path transform="matrix(1 0 0 -1 0 792)" d="M370.8 560.16L371.28 560.16L371.28 560.64L370.8 560.64z" stroke="none" fill="#000000" fill-rule="nonzero" /><path transform="matrix(1 0 0 -1 0 792)" d="M371.28 560.16L472.32 560.16L472.32 560.64L371.28 560.64z" stroke="none" fill="#000000" fill-rule="nonzero" /><path transform="matrix(1 0 0 -1 0 792)" d="M472.32 560.16L472.8 560.16L472.8 560.64L472.32 560.64z" stroke="none" fill="#000000" fill-rule="nonzero" /><path transform="matrix(1 0 0 -1 0 792)" d="M531.84 560.16L532.32 560.16L532.32 560.64L531.84 560.64z" stroke="none" fill="#000000" fill-rule="nonzero" /><path transform="matrix(1 0 0 -1 0 792)" d="M99.6 546L100.08 546L100.08 560.16L99.6 560.16z" stroke="none" fill="#000000" fill-rule="nonzero" /><path transform="matrix(1 0 0 -1 0 792)" d="M127.44 546L127.92 546L127.92 560.16L127.44 560.16z" stroke="none" fill="#000000" fill-rule="nonzero" /><path transform="matrix(1 0 0 -1 0 792)" d="M370.8 546L371.28 546L371.28 560.16L370.8 560.16z" stroke="none" fill="#000000" fill-rule="nonzero" /><path transform="matrix(1 0 0 -1 0 792)" d="M472.32 546L472.8 546L472.8 560.16L472.32 560.16z" stroke="none" fill="#000000" fill-rule="nonzero" /><path transform="matrix(1 0 0 -1 0 792)" d="M531.84 546L532.32 546L532.32 560.16L531.84 560.16z" stroke="none" fill="#000000" fill-rule="nonzero" /><g clip-path="url(#3)"></g><g clip-path="url(#4)"></g><g clip-path="url(#5)"></g><g clip-path="url(#6)"></g><g clip-path="url(#7)"></g><g clip-path="url(#8)"></g><g clip-path="url(#9)"></g><path transform="matrix(1 0 0 -1 0 792)" d="M99.6 545.76L100.08 545.76L100.08 546L99.6 546z" stroke="none" fill="#000000" fill-rule="nonzero" /><path transform="matrix(1 0 0 -1 0 792)" d="M100.08 545.76L127.44 545.76L127.44 546L100.08 546z" stroke="none" fill="#000000" fill-rule="nonzero" /><path transform="matrix(1 0 0 -1 0 792)" d="M127.44 545.76L127.92 545.76L127.92 546L127.44 546z" stroke="none" fill="#000000" fill-rule="nonzero" /><path transform="matrix(1 0 0 -1 0 792)" d="M127.92 545.76L370.8 545.76L370.8 546L127.92 546z" stroke="none" fill="#000000" fill-rule="nonzero" /><path transform="matrix(1 0 0 -1 0 792)" d="M370.8 545.76L371.28 545.76L371.28 546L370.8 546z" stroke="none" fill="#000000" fill-rule="nonzero" /><path transform="matrix(1 0 0 -1 0 792)" d="M371.28 545.76L472.32 545.76L472.32 546L371.28 546z" stroke="none" fill="#000000" fill-rule="nonzero" /><path transform="matrix(1 0 0 -1 0 792)" d="M472.32 545.76L472.8 545.76L472.8 546L472.32 546z" stroke="none" fill="#000000" fill-rule="nonzero" /><path transform="matrix(1 0 0 -1 0 792)" d="M472.8 545.76L531.84 545.76L531.84 546L472.8 546z" stroke="none" fill="#000000" fill-rule="nonzero" /><path transform="matrix(1 0 0 -1 0 792)" d="M531.84 545.76L532.32 545.76L532.32 546L531.84 546z" stroke="none" fill="#000000" fill-rule="nonzero" /><path transform="matrix(1 0 0 -1 0 792)" d="M99.6 531.6L100.08 531.6L100.08 545.7599L99.6 545.7599z" stroke="none" fill="#000000" fill-rule="nonzero" /><path transform="matrix(1 0 0 -1 0 792)" d="M127.44 531.6L127.92 531.6L127.92 545.7599L127.44 545.7599z" stroke="none" fill="#000000" fill-rule="nonzero" /><path transform="matrix(1 0 0 -1 0 792)" d="M531.84 531.6L532.32 531.6L532.32 545.7599L531.84 545.7599z" stroke="none" fill="#000000" fill-rule="nonzero" /><path transform="matrix(1 0 0 -1 0 792)" d="M99.6 531.12L100.08 531.12L100.08 531.6L99.6 531.6z" stroke="none" fill="#000000" fill-rule="nonzero" /><path transform="matrix(1 0 0 -1 0 792)" d="M100.08 531.12L127.44 531.12L127.44 531.6L100.08 531.6z" stroke="none" fill="#000000" fill-rule="nonzero" /><path transform="matrix(1 0 0 -1 0 792)" d="M127.44 531.12L127.92 531.12L127.92 531.6L127.44 531.6z" stroke="none" fill="#000000" fill-rule="nonzero" /><path transform="matrix(1 0 0 -1 0 792)" d="M127.92 531.12L370.8 531.12L370.8 531.6L127.92 531.6z" stroke="none" fill="#000000" fill-rule="nonzero" /><path transform="matrix(1 0 0 -1 0 792)" d="M370.8 531.12L371.28 531.12L371.28 531.6L370.8 531.6z" stroke="none" fill="#000000" fill-rule="nonzero" /><path transform="matrix(1 0 0 -1 0 792)" d="M371.28 531.12L472.32 531.12L472.32 531.6L371.28 531.6z" stroke="none" fill="#000000" fill-rule="nonzero" /><path transform="matrix(1 0 0 -1 0 792)" d="M472.32 531.12L472.8 531.12L472.8 531.6L472.32 531.6z" stroke="none" fill="#000000" fill-rule="nonzero" /><path transform="matrix(1 0 0 -1 0 792)" d="M472.8 531.12L531.84 531.12L531.84 531.6L472.8 531.6z" stroke="none" fill="#000000" fill-rule="nonzero" /><path transform="matrix(1 0 0 -1 0 792)" d="M531.84 531.12L532.32 531.12L532.32 531.6L531.84 531.6z" stroke="none" fill="#000000" fill-rule="nonzero" /><path transform="matrix(1 0 0 -1 0 792)" d="M99.6 516.96L100.08 516.96L100.08 531.12L99.6 531.12z" stroke="none" fill="#000000" fill-rule="nonzero" /><path transform="matrix(1 0 0 -1 0 792)" d="M127.44 516.96L127.92 516.96L127.92 531.12L127.44 531.12z" stroke="none" fill="#000000" fill-rule="nonzero" /><path transform="matrix(1 0 0 -1 0 792)" d="M370.8 516.96L371.28 516.96L371.28 531.12L370.8 531.12z" stroke="none" fill="#000000" fill-rule="nonzero" /><path transform="matrix(1 0 0 -1 0 792)" d="M472.32 516.96L472.8 516.96L472.8 531.12L472.32 531.12z" stroke="none" fill="#000000" fill-rule="nonzero" /><path transform="matrix(1 0 0 -1 0 792)" d="M531.84 516.96L532.32 516.96L532.32 531.12L531.84 531.12z" stroke="none" fill="#000000" fill-rule="nonzero" /><g clip-path="url(#10)"></g><path transform="matrix(1 0 0 -1 0 792)" d="M99.6 516.48L100.08 516.48L100.08 516.96L99.6 516.96z" stroke="none" fill="#000000" fill-rule="nonzero" /><path transform="matrix(1 0 0 -1 0 792)" d="M100.08 516.48L127.44 516.48L127.44 516.96L100.08 516.96z" stroke="none" fill="#000000" fill-rule="nonzero" /><path transform="matrix(1 0 0 -1 0 792)" d="M127.44 516.48L127.92 516.48L127.92 516.96L127.44 516.96z" stroke="none" fill="#000000" fill-rule="nonzero" /><path transform="matrix(1 0 0 -1 0 792)" d="M127.92 516.48L370.8 516.48L370.8 516.96L127.92 516.96z" stroke="none" fill="#000000" fill-rule="nonzero" /><path transform="matrix(1 0 0 -1 0 792)" d="M370.8 516.48L371.28 516.48L371.28 516.96L370.8 516.96z" stroke="none" fill="#000000" fill-rule="nonzero" /><path transform="matrix(1 0 0 -1 0 792)" d="M371.28 516.48L472.32 516.48L472.32 516.96L371.28 516.96z" stroke="none" fill="#000000" fill-rule="nonzero" /><path transform="matrix(1 0 0 -1 0 792)" d="M472.32 516.48L472.8 516.48L472.8 516.96L472.32 516.96z" stroke="none" fill="#000000" fill-rule="nonzero" /><path transform="matrix(1 0 0 -1 0 792)" d="M531.84 516.48L532.32 516.48L532.32 516.96L531.84 516.96z" stroke="none" fill="#000000" fill-rule="nonzero" /><path transform="matrix(1 0 0 -1 0 792)" d="M99.6 502.56L100.08 502.56L100.08 516.48L99.6 516.48z" stroke="none" fill="#000000" fill-rule="nonzero" /><path transform="matrix(1 0 0 -1 0 792)" d="M127.44 502.56L127.92 502.56L127.92 516.48L127.44 516.48z" stroke="none" fill="#000000" fill-rule="nonzero" /><path transform="matrix(1 0 0 -1 0 792)" d="M370.8 502.56L371.28 502.56L371.28 516.48L370.8 516.48z" stroke="none" fill="#000000" fill-rule="nonzero" /><path transform="matrix(1 0 0 -1 0 792)" d="M472.32 502.56L472.8 502.56L472.8 516.48L472.32 516.48z" stroke="none" fill="#000000" fill-rule="nonzero" /><path transform="matrix(1 0 0 -1 0 792)" d="M531.84 502.56L532.32 502.56L532.32 516.48L531.84 516.48z" stroke="none" fill="#000000" fill-rule="nonzero" /><path transform="matrix(1 0 0 -1 0 792)" d="M99.6 502.08L100.08 502.08L100.08 502.56L99.6 502.56z" stroke="none" fill="#000000" fill-rule="nonzero" /><path transform="matrix(1 0 0 -1 0 792)" d="M100.08 502.08L127.44 502.08L127.44 502.56L100.08 502.56z" stroke="none" fill="#000000" fill-rule="nonzero" /><path transform="matrix(1 0 0 -1 0 792)" d="M127.44 502.08L127.92 502.08L127.92 502.56L127.44 502.56z" stroke="none" fill="#000000" fill-rule="nonzero" /><path transform="matrix(1 0 0 -1 0 792)" d="M127.92 502.08L370.8 502.08L370.8 502.56L127.92 502.56z" stroke="none" fill="#000000" fill-rule="nonzero" /><path transform="matrix(1 0 0 -1 0 792)" d="M370.8 502.08L371.28 502.08L371.28 502.56L370.8 502.56z" stroke="none" fill="#000000" fill-rule="nonzero" /><path transform="matrix(1 0 0 -1 0 792)" d="M371.28 502.08L472.32 502.08L472.32 502.56L371.28 502.56z" stroke="none" fill="#000000" fill-rule="nonzero" /><path transform="matrix(1 0 0 -1 0 792)" d="M472.32 502.08L472.8 502.08L472.8 502.56L472.32 502.56z" stroke="none" fill="#000000" fill-rule="nonzero" /><path transform="matrix(1 0 0 -1 0 792)" d="M531.84 502.08L532.32 502.08L532.32 502.56L531.84 502.56z" stroke="none" fill="#000000" fill-rule="nonzero" /><path transform="matrix(1 0 0 -1 0 792)" d="M99.6 488.16L100.08 488.16L100.08 502.08L99.6 502.08z" stroke="none" fill="#000000" fill-rule="nonzero" /><path transform="matrix(1 0 0 -1 0 792)" d="M127.44 488.16L127.92 488.16L127.92 502.08L127.44 502.08z" stroke="none" fill="#000000" fill-rule="nonzero" /><path transform="matrix(1 0 0 -1 0 792)" d="M370.8 488.16L371.28 488.16L371.28 502.08L370.8 502.08z" stroke="none" fill="#000000" fill-rule="nonzero" /><path transform="matrix(1 0 0 -1 0 792)" d="M472.32 488.16L472.8 488.16L472.8 502.08L472.32 502.08z" stroke="none" fill="#000000" fill-rule="nonzero" /><path transform="matrix(1 0 0 -1 0 792)" d="M531.84 488.16L532.32 488.16L532.32 502.08L531.84 502.08z" stroke="none" fill="#000000" fill-rule="nonzero" /><path transform="matrix(1 0 0 -1 0 792)" d="M99.6 487.68L100.08 487.68L100.08 488.16L99.6 488.16z" stroke="none" fill="#000000" fill-rule="nonzero" /><path transform="matrix(1 0 0 -1 0 792)" d="M100.08 487.68L127.44 487.68L127.44 488.16L100.08 488.16z" stroke="none" fill="#000000" fill-rule="nonzero" /><path transform="matrix(1 0 0 -1 0 792)" d="M127.44 487.68L127.92 487.68L127.92 488.16L127.44 488.16z" stroke="none" fill="#000000" fill-rule="nonzero" /><path transform="matrix(1 0 0 -1 0 792)" d="M127.92 487.68L370.8 487.68L370.8 488.16L127.92 488.16z" stroke="none" fill="#000000" fill-rule="nonzero" /><path transform="matrix(1 0 0 -1 0 792)" d="M370.8 487.68L371.28 487.68L371.28 488.16L370.8 488.16z" stroke="none" fill="#000000" fill-rule="nonzero" /><path transform="matrix(1 0 0 -1 0 792)" d="M371.28 487.68L472.32 487.68L472.32 488.16L371.28 488.16z" stroke="none" fill="#000000" fill-rule="nonzero" /><path transform="matrix(1 0 0 -1 0 792)" d="M472.32 487.68L472.8 487.68L472.8 488.16L472.32 488.16z" stroke="none" fill="#000000" fill-rule="nonzero" /><path transform="matrix(1 0 0 -1 0 792)" d="M531.84 487.68L532.32 487.68L532.32 488.16L531.84 488.16z" stroke="none" fill="#000000" fill-rule="nonzero" /><path transform="matrix(1 0 0 -1 0 792)" d="M99.6 473.52L100.08 473.52L100.08 487.68L99.6 487.68z" stroke="none" fill="#000000" fill-rule="nonzero" /><path transform="matrix(1 0 0 -1 0 792)" d="M127.44 473.52L127.92 473.52L127.92 487.68L127.44 487.68z" stroke="none" fill="#000000" fill-rule="nonzero" /><path transform="matrix(1 0 0 -1 0 792)" d="M370.8 473.52L371.28 473.52L371.28 487.68L370.8 487.68z" stroke="none" fill="#000000" fill-rule="nonzero" /><path transform="matrix(1 0 0 -1 0 792)" d="M472.32 473.52L472.8 473.52L472.8 487.68L472.32 487.68z" stroke="none" fill="#000000" fill-rule="nonzero" /><path transform="matrix(1 0 0 -1 0 792)" d="M531.84 473.52L532.32 473.52L532.32 487.68L531.84 487.68z" stroke="none" fill="#000000" fill-rule="nonzero" /><path transform="matrix(1 0 0 -1 0 792)" d="M99.6 473.04L100.08 473.04L100.08 473.52L99.6 473.52z" stroke="none" fill="#000000" fill-rule="nonzero" /><path transform="matrix(1 0 0 -1 0 792)" d="M100.08 473.04L127.44 473.04L127.44 473.52L100.08 473.52z" stroke="none" fill="#000000" fill-rule="nonzero" /><path transform="matrix(1 0 0 -1 0 792)" d="M127.44 473.04L127.92 473.04L127.92 473.52L127.44 473.52z" stroke="none" fill="#000000" fill-rule="nonzero" /><path transform="matrix(1 0 0 -1 0 792)" d="M127.92 473.04L370.8 473.04L370.8 473.52L127.92 473.52z" stroke="none" fill="#000000" fill-rule="nonzero" /><path transform="matrix(1 0 0 -1 0 792)" d="M370.8 473.04L371.28 473.04L371.28 473.52L370.8 473.52z" stroke="none" fill="#000000" fill-rule="nonzero" /><path transform="matrix(1 0 0 -1 0 792)" d="M371.28 473.04L472.32 473.04L472.32 473.52L371.28 473.52z" stroke="none" fill="#000000" fill-rule="nonzero" /><path transform="matrix(1 0 0 -1 0 792)" d="M472.32 473.04L472.8 473.04L472.8 473.52L472.32 473.52z" stroke="none" fill="#000000" fill-rule="nonzero" /><path transform="matrix(1 0 0 -1 0 792)" d="M531.84 473.04L532.32 473.04L532.32 473.52L531.84 473.52z" stroke="none" fill="#000000" fill-rule="nonzero" /><path transform="matrix(1 0 0 -1 0 792)" d="M99.6 444.96L100.08 444.96L100.08 473.04L99.6 473.04z" stroke="none" fill="#000000" fill-rule="nonzero" /><path transform="matrix(1 0 0 -1 0 792)" d="M127.44 444.96L127.92 444.96L127.92 473.04L127.44 473.04z" stroke="none" fill="#000000" fill-rule="nonzero" /><path transform="matrix(1 0 0 -1 0 792)" d="M370.8 444.96L371.28 444.96L371.28 473.04L370.8 473.04z" stroke="none" fill="#000000" fill-rule="nonzero" /><path transform="matrix(1 0 0 -1 0 792)" d="M472.32 444.96L472.8 444.96L472.8 473.04L472.32 473.04z" stroke="none" fill="#000000" fill-rule="nonzero" /><path transform="matrix(1 0 0 -1 0 792)" d="M531.84 444.96L532.32 444.96L532.32 473.04L531.84 473.04z" stroke="none" fill="#000000" fill-rule="nonzero" /><path transform="matrix(1 0 0 -1 0 792)" d="M99.6 444.48L100.08 444.48L100.08 444.96L99.6 444.96z" stroke="none" fill="#000000" fill-rule="nonzero" /><path transform="matrix(1 0 0 -1 0 792)" d="M100.08 444.48L127.44 444.48L127.44 444.96L100.08 444.96z" stroke="none" fill="#000000" fill-rule="nonzero" /><path transform="matrix(1 0 0 -1 0 792)" d="M127.44 444.48L127.92 444.48L127.92 444.96L127.44 444.96z" stroke="none" fill="#000000" fill-rule="nonzero" /><path transform="matrix(1 0 0 -1 0 792)" d="M127.92 444.48L370.8 444.48L370.8 444.96L127.92 444.96z" stroke="none" fill="#000000" fill-rule="nonzero" /><path transform="matrix(1 0 0 -1 0 792)" d="M370.8 444.48L371.28 444.48L371.28 444.96L370.8 444.96z" stroke="none" fill="#000000" fill-rule="nonzero" /><path transform="matrix(1 0 0 -1 0 792)" d="M371.28 444.48L472.32 444.48L472.32 444.96L371.28 444.96z" stroke="none" fill="#000000" fill-rule="nonzero" /><path transform="matrix(1 0 0 -1 0 792)" d="M472.32 444.48L472.8 444.48L472.8 444.96L472.32 444.96z" stroke="none" fill="#000000" fill-rule="nonzero" /><path transform="matrix(1 0 0 -1 0 792)" d="M472.8 444.48L531.84 444.48L531.84 444.96L472.8 444.96z" stroke="none" fill="#000000" fill-rule="nonzero" /><path transform="matrix(1 0 0 -1 0 792)" d="M531.84 444.48L532.32 444.48L532.32 444.96L531.84 444.96z" stroke="none" fill="#000000" fill-rule="nonzero" /><path transform="matrix(1 0 0 -1 0 792)" d="M99.6 429.12L100.08 429.12L100.08 444.48L99.6 444.48z" stroke="none" fill="#000000" fill-rule="nonzero" /><path transform="matrix(1 0 0 -1 0 792)" d="M99.6 428.88L100.08 428.88L100.08 429.12L99.6 429.12z" stroke="none" fill="#000000" fill-rule="nonzero" /><path transform="matrix(1 0 0 -1 0 792)" d="M99.6 428.88L100.08 428.88L100.08 429.12L99.6 429.12z" stroke="none" fill="#000000" fill-rule="nonzero" /><path transform="matrix(1 0 0 -1 0 792)" d="M100.08 428.88L127.44 428.88L127.44 429.12L100.08 429.12z" stroke="none" fill="#000000" fill-rule="nonzero" /><path transform="matrix(1 0 0 -1 0 792)" d="M127.44 429.12L127.92 429.12L127.92 444.48L127.44 444.48z" stroke="none" fill="#000000" fill-rule="nonzero" /><path transform="matrix(1 0 0 -1 0 792)" d="M127.44 428.88L127.92 428.88L127.92 429.12L127.44 429.12z" stroke="none" fill="#000000" fill-rule="nonzero" /><path transform="matrix(1 0 0 -1 0 792)" d="M127.92 428.88L370.8 428.88L370.8 429.12L127.92 429.12z" stroke="none" fill="#000000" fill-rule="nonzero" /><path transform="matrix(1 0 0 -1 0 792)" d="M370.8 429.12L371.28 429.12L371.28 444.48L370.8 444.48z" stroke="none" fill="#000000" fill-rule="nonzero" /><path transform="matrix(1 0 0 -1 0 792)" d="M370.8 428.88L371.28 428.88L371.28 429.12L370.8 429.12z" stroke="none" fill="#000000" fill-rule="nonzero" /><path transform="matrix(1 0 0 -1 0 792)" d="M371.28 428.88L472.32 428.88L472.32 429.12L371.28 429.12z" stroke="none" fill="#000000" fill-rule="nonzero" /><path transform="matrix(1 0 0 -1 0 792)" d="M472.32 429.12L472.8 429.12L472.8 444.48L472.32 444.48z" stroke="none" fill="#000000" fill-rule="nonzero" /><path transform="matrix(1 0 0 -1 0 792)" d="M472.32 428.88L472.8 428.88L472.8 429.12L472.32 429.12z" stroke="none" fill="#000000" fill-rule="nonzero" /><path transform="matrix(1 0 0 -1 0 792)" d="M472.8 428.88L531.84 428.88L531.84 429.12L472.8 429.12z" stroke="none" fill="#000000" fill-rule="nonzero" /><path transform="matrix(1 0 0 -1 0 792)" d="M531.84 429.12L532.32 429.12L532.32 444.48L531.84 444.48z" stroke="none" fill="#000000" fill-rule="nonzero" /><path transform="matrix(1 0 0 -1 0 792)" d="M531.84 428.88L532.32 428.88L532.32 429.12L531.84 429.12z" stroke="none" fill="#000000" fill-rule="nonzero" /><path transform="matrix(1 0 0 -1 0 792)" d="M531.84 428.88L532.32 428.88L532.32 429.12L531.84 429.12z" stroke="none" fill="#000000" fill-rule="nonzero" /><g clip-path="url(#11)"></g><path transform="matrix(1 0 0 -1 0 792)" d="M99.6 398.16L100.08 398.16L100.08 398.64L99.6 398.64z" stroke="none" fill="#000000" fill-rule="nonzero" /><path transform="matrix(1 0 0 -1 0 792)" d="M99.6 398.16L100.08 398.16L100.08 398.64L99.6 398.64z" stroke="none" fill="#000000" fill-rule="nonzero" /><path transform="matrix(1 0 0 -1 0 792)" d="M100.08 398.16L127.44 398.16L127.44 398.64L100.08 398.64z" stroke="none" fill="#000000" fill-rule="nonzero" /><path transform="matrix(1 0 0 -1 0 792)" d="M127.44 398.16L127.92 398.16L127.92 398.64L127.44 398.64z" stroke="none" fill="#000000" fill-rule="nonzero" /><path transform="matrix(1 0 0 -1 0 792)" d="M127.92 398.16L365.76 398.16L365.76 398.64L127.92 398.64z" stroke="none" fill="#000000" fill-rule="nonzero" /><path transform="matrix(1 0 0 -1 0 792)" d="M365.76 398.16L366.24 398.16L366.24 398.64L365.76 398.64z" stroke="none" fill="#000000" fill-rule="nonzero" /><path transform="matrix(1 0 0 -1 0 792)" d="M366.24 398.16L482.64 398.16L482.64 398.64L366.24 398.64z" stroke="none" fill="#000000" fill-rule="nonzero" /><path transform="matrix(1 0 0 -1 0 792)" d="M482.64 398.16L483.12 398.16L483.12 398.64L482.64 398.64z" stroke="none" fill="#000000" fill-rule="nonzero" /><path transform="matrix(1 0 0 -1 0 792)" d="M483.12 398.16L570.96 398.16L570.96 398.64L483.12 398.64z" stroke="none" fill="#000000" fill-rule="nonzero" /><path transform="matrix(1 0 0 -1 0 792)" d="M570.96 398.16L571.44 398.16L571.44 398.64L570.96 398.64z" stroke="none" fill="#000000" fill-rule="nonzero" /><path transform="matrix(1 0 0 -1 0 792)" d="M570.96 398.16L571.44 398.16L571.44 398.64L570.96 398.64z" stroke="none" fill="#000000" fill-rule="nonzero" /><path transform="matrix(1 0 0 -1 0 792)" d="M99.6 384L100.08 384L100.08 398.16L99.6 398.16z" stroke="none" fill="#000000" fill-rule="nonzero" /><path transform="matrix(1 0 0 -1 0 792)" d="M127.44 384L127.92 384L127.92 398.16L127.44 398.16z" stroke="none" fill="#000000" fill-rule="nonzero" /><path transform="matrix(1 0 0 -1 0 792)" d="M365.76 384L366.24 384L366.24 398.16L365.76 398.16z" stroke="none" fill="#000000" fill-rule="nonzero" /><path transform="matrix(1 0 0 -1 0 792)" d="M482.64 384L483.12 384L483.12 398.16L482.64 398.16z" stroke="none" fill="#000000" fill-rule="nonzero" /><path transform="matrix(1 0 0 -1 0 792)" d="M570.96 384L571.44 384L571.44 398.16L570.96 398.16z" stroke="none" fill="#000000" fill-rule="nonzero" /><g clip-path="url(#12)"></g><path transform="matrix(1 0 0 -1 0 792)" d="M99.6 383.76L100.08 383.76L100.08 384L99.6 384z" stroke="none" fill="#000000" fill-rule="nonzero" /><path transform="matrix(1 0 0 -1 0 792)" d="M100.08 383.76L127.44 383.76L127.44 384L100.08 384z" stroke="none" fill="#000000" fill-rule="nonzero" /><path transform="matrix(1 0 0 -1 0 792)" d="M127.44 383.76L127.92 383.76L127.92 384L127.44 384z" stroke="none" fill="#000000" fill-rule="nonzero" /><path transform="matrix(1 0 0 -1 0 792)" d="M127.92 383.76L365.76 383.76L365.76 384L127.92 384z" stroke="none" fill="#000000" fill-rule="nonzero" /><path transform="matrix(1 0 0 -1 0 792)" d="M365.76 383.76L366.24 383.76L366.24 384L365.76 384z" stroke="none" fill="#000000" fill-rule="nonzero" /><path transform="matrix(1 0 0 -1 0 792)" d="M366.24 383.76L482.64 383.76L482.64 384L366.24 384z" stroke="none" fill="#000000" fill-rule="nonzero" /><path transform="matrix(1 0 0 -1 0 792)" d="M482.64 383.76L483.12 383.76L483.12 384L482.64 384z" stroke="none" fill="#000000" fill-rule="nonzero" /><path transform="matrix(1 0 0 -1 0 792)" d="M483.12 383.76L570.96 383.76L570.96 384L483.12 384z" stroke="none" fill="#000000" fill-rule="nonzero" /><path transform="matrix(1 0 0 -1 0 792)" d="M570.96 383.76L571.44 383.76L571.44 384L570.96 384z" stroke="none" fill="#000000" fill-rule="nonzero" /><path transform="matrix(1 0 0 -1 0 792)" d="M99.6 369.36L100.08 369.36L100.08 383.76L99.6 383.76z" stroke="none" fill="#000000" fill-rule="nonzero" /><path transform="matrix(1 0 0 -1 0 792)" d="M127.44 369.36L127.92 369.36L127.92 383.76L127.44 383.76z" stroke="none" fill="#000000" fill-rule="nonzero" /><path transform="matrix(1 0 0 -1 0 792)" d="M365.76 369.36L366.24 369.36L366.24 383.76L365.76 383.76z" stroke="none" fill="#000000" fill-rule="nonzero" /><path transform="matrix(1 0 0 -1 0 792)" d="M482.64 369.36L483.12 369.36L483.12 383.76L482.64 383.76z" stroke="none" fill="#000000" fill-rule="nonzero" /><path transform="matrix(1 0 0 -1 0 792)" d="M570.96 369.36L571.44 369.36L571.44 383.76L570.96 383.76z" stroke="none" fill="#000000" fill-rule="nonzero" /><path transform="matrix(1 0 0 -1 0 792)" d="M99.6 369.12L100.08 369.12L100.08 369.36L99.6 369.36z" stroke="none" fill="#000000" fill-rule="nonzero" /><path transform="matrix(1 0 0 -1 0 792)" d="M100.08 369.12L127.44 369.12L127.44 369.36L100.08 369.36z" stroke="none" fill="#000000" fill-rule="nonzero" /><path transform="matrix(1 0 0 -1 0 792)" d="M127.44 369.12L127.92 369.12L127.92 369.36L127.44 369.36z" stroke="none" fill="#000000" fill-rule="nonzero" /><path transform="matrix(1 0 0 -1 0 792)" d="M127.92 369.12L365.76 369.12L365.76 369.36L127.92 369.36z" stroke="none" fill="#000000" fill-rule="nonzero" /><path transform="matrix(1 0 0 -1 0 792)" d="M365.76 369.12L366.24 369.12L366.24 369.36L365.76 369.36z" stroke="none" fill="#000000" fill-rule="nonzero" /><path transform="matrix(1 0 0 -1 0 792)" d="M366.24 369.12L482.64 369.12L482.64 369.36L366.24 369.36z" stroke="none" fill="#000000" fill-rule="nonzero" /><path transform="matrix(1 0 0 -1 0 792)" d="M482.64 369.12L483.12 369.12L483.12 369.36L482.64 369.36z" stroke="none" fill="#000000" fill-rule="nonzero" /><path transform="matrix(1 0 0 -1 0 792)" d="M570.96 369.12L571.44 369.12L571.44 369.36L570.96 369.36z" stroke="none" fill="#000000" fill-rule="nonzero" /><path transform="matrix(1 0 0 -1 0 792)" d="M99.6 354.96L100.08 354.96L100.08 369.12L99.6 369.12z" stroke="none" fill="#000000" fill-rule="nonzero" /><path transform="matrix(1 0 0 -1 0 792)" d="M127.44 354.96L127.92 354.96L127.92 369.12L127.44 369.12z" stroke="none" fill="#000000" fill-rule="nonzero" /><path transform="matrix(1 0 0 -1 0 792)" d="M365.76 354.96L366.24 354.96L366.24 369.12L365.76 369.12z" stroke="none" fill="#000000" fill-rule="nonzero" /><path transform="matrix(1 0 0 -1 0 792)" d="M482.64 354.96L483.12 354.96L483.12 369.12L482.64 369.12z" stroke="none" fill="#000000" fill-rule="nonzero" /><path transform="matrix(1 0 0 -1 0 792)" d="M570.96 354.96L571.44 354.96L571.44 369.12L570.96 369.12z" stroke="none" fill="#000000" fill-rule="nonzero" /><g clip-path="url(#13)"></g><path transform="matrix(1 0 0 -1 0 792)" d="M99.6 354.48L100.08 354.48L100.08 354.96L99.6 354.96z" stroke="none" fill="#000000" fill-rule="nonzero" /><path transform="matrix(1 0 0 -1 0 792)" d="M100.08 354.48L127.44 354.48L127.44 354.96L100.08 354.96z" stroke="none" fill="#000000" fill-rule="nonzero" /><path transform="matrix(1 0 0 -1 0 792)" d="M127.44 354.48L127.92 354.48L127.92 354.96L127.44 354.96z" stroke="none" fill="#000000" fill-rule="nonzero" /><path transform="matrix(1 0 0 -1 0 792)" d="M127.92 354.48L365.76 354.48L365.76 354.96L127.92 354.96z" stroke="none" fill="#000000" fill-rule="nonzero" /><path transform="matrix(1 0 0 -1 0 792)" d="M365.76 354.48L366.24 354.48L366.24 354.96L365.76 354.96z" stroke="none" fill="#000000" fill-rule="nonzero" /><path transform="matrix(1 0 0 -1 0 792)" d="M366.24 354.48L482.64 354.48L482.64 354.96L366.24 354.96z" stroke="none" fill="#000000" fill-rule="nonzero" /><path transform="matrix(1 0 0 -1 0 792)" d="M482.64 354.48L483.12 354.48L483.12 354.96L482.64 354.96z" stroke="none" fill="#000000" fill-rule="nonzero" /><path transform="matrix(1 0 0 -1 0 792)" d="M570.96 354.48L571.44 354.48L571.44 354.96L570.96 354.96z" stroke="none" fill="#000000" fill-rule="nonzero" /><path transform="matrix(1 0 0 -1 0 792)" d="M99.6 340.56L100.08 340.56L100.08 354.48L99.6 354.48z" stroke="none" fill="#000000" fill-rule="nonzero" /><path transform="matrix(1 0 0 -1 0 792)" d="M127.44 340.56L127.92 340.56L127.92 354.48L127.44 354.48z" stroke="none" fill="#000000" fill-rule="nonzero" /><path transform="matrix(1 0 0 -1 0 792)" d="M365.76 340.56L366.24 340.56L366.24 354.48L365.76 354.48z" stroke="none" fill="#000000" fill-rule="nonzero" /><path transform="matrix(1 0 0 -1 0 792)" d="M482.64 340.56L483.12 340.56L483.12 354.48L482.64 354.48z" stroke="none" fill="#000000" fill-rule="nonzero" /><path transform="matrix(1 0 0 -1 0 792)" d="M570.96 340.56L571.44 340.56L571.44 354.48L570.96 354.48z" stroke="none" fill="#000000" fill-rule="nonzero" /><g clip-path="url(#14)"></g><path transform="matrix(1 0 0 -1 0 792)" d="M99.6 340.08L100.08 340.08L100.08 340.56L99.6 340.56z" stroke="none" fill="#000000" fill-rule="nonzero" /><path transform="matrix(1 0 0 -1 0 792)" d="M100.08 340.08L127.44 340.08L127.44 340.56L100.08 340.56z" stroke="none" fill="#000000" fill-rule="nonzero" /><path transform="matrix(1 0 0 -1 0 792)" d="M127.44 340.08L127.92 340.08L127.92 340.56L127.44 340.56z" stroke="none" fill="#000000" fill-rule="nonzero" /><path transform="matrix(1 0 0 -1 0 792)" d="M127.92 340.08L365.76 340.08L365.76 340.56L127.92 340.56z" stroke="none" fill="#000000" fill-rule="nonzero" /><path transform="matrix(1 0 0 -1 0 792)" d="M365.76 340.08L366.24 340.08L366.24 340.56L365.76 340.56z" stroke="none" fill="#000000" fill-rule="nonzero" /><path transform="matrix(1 0 0 -1 0 792)" d="M366.24 340.08L482.64 340.08L482.64 340.56L366.24 340.56z" stroke="none" fill="#000000" fill-rule="nonzero" /><path transform="matrix(1 0 0 -1 0 792)" d="M482.64 340.08L483.12 340.08L483.12 340.56L482.64 340.56z" stroke="none" fill="#000000" fill-rule="nonzero" /><path transform="matrix(1 0 0 -1 0 792)" d="M570.96 340.08L571.44 340.08L571.44 340.56L570.96 340.56z" stroke="none" fill="#000000" fill-rule="nonzero" /><path transform="matrix(1 0 0 -1 0 792)" d="M99.6 297.84L100.08 297.84L100.08 340.08L99.6 340.08z" stroke="none" fill="#000000" fill-rule="nonzero" /><path transform="matrix(1 0 0 -1 0 792)" d="M127.44 297.84L127.92 297.84L127.92 340.08L127.44 340.08z" stroke="none" fill="#000000" fill-rule="nonzero" /><path transform="matrix(1 0 0 -1 0 792)" d="M365.76 297.84L366.24 297.84L366.24 340.08L365.76 340.08z" stroke="none" fill="#000000" fill-rule="nonzero" /><path transform="matrix(1 0 0 -1 0 792)" d="M482.64 297.84L483.12 297.84L483.12 340.08L482.64 340.08z" stroke="none" fill="#000000" fill-rule="nonzero" /><path transform="matrix(1 0 0 -1 0 792)" d="M570.96 297.84L571.44 297.84L571.44 340.08L570.96 340.08z" stroke="none" fill="#000000" fill-rule="nonzero" /><path transform="matrix(1 0 0 -1 0 792)" d="M99.6 297.6L100.08 297.6L100.08 297.84L99.6 297.84z" stroke="none" fill="#000000" fill-rule="nonzero" /><path transform="matrix(1 0 0 -1 0 792)" d="M100.08 297.6L127.44 297.6L127.44 297.84L100.08 297.84z" stroke="none" fill="#000000" fill-rule="nonzero" /><path transform="matrix(1 0 0 -1 0 792)" d="M127.44 297.6L127.92 297.6L127.92 297.84L127.44 297.84z" stroke="none" fill="#000000" fill-rule="nonzero" /><path transform="matrix(1 0 0 -1 0 792)" d="M127.92 297.6L365.76 297.6L365.76 297.84L127.92 297.84z" stroke="none" fill="#000000" fill-rule="nonzero" /><path transform="matrix(1 0 0 -1 0 792)" d="M365.76 297.6L366.24 297.6L366.24 297.84L365.76 297.84z" stroke="none" fill="#000000" fill-rule="nonzero" /><path transform="matrix(1 0 0 -1 0 792)" d="M366.24 297.6L482.64 297.6L482.64 297.84L366.24 297.84z" stroke="none" fill="#000000" fill-rule="nonzero" /><path transform="matrix(1 0 0 -1 0 792)" d="M482.64 297.6L483.12 297.6L483.12 297.84L482.64 297.84z" stroke="none" fill="#000000" fill-rule="nonzero" /><path transform="matrix(1 0 0 -1 0 792)" d="M483.12 297.6L570.96 297.6L570.96 297.84L483.12 297.84z" stroke="none" fill="#000000" fill-rule="nonzero" /><path transform="matrix(1 0 0 -1 0 792)" d="M570.96 297.6L571.44 297.6L571.44 297.84L570.96 297.84z" stroke="none" fill="#000000" fill-rule="nonzero" /><path transform="matrix(1 0 0 -1 0 792)" d="M99.6 283.2L100.08 283.2L100.08 297.6L99.6 297.6z" stroke="none" fill="#000000" fill-rule="nonzero" /><path transform="matrix(1 0 0 -1 0 792)" d="M127.44 283.2L127.92 283.2L127.92 297.6L127.44 297.6z" stroke="none" fill="#000000" fill-rule="nonzero" /><path transform="matrix(1 0 0 -1 0 792)" d="M365.76 283.2L366.24 283.2L366.24 297.6L365.76 297.6z" stroke="none" fill="#000000" fill-rule="nonzero" /><path transform="matrix(1 0 0 -1 0 792)" d="M482.64 283.2L483.12 283.2L483.12 297.6L482.64 297.6z" stroke="none" fill="#000000" fill-rule="nonzero" /><path transform="matrix(1 0 0 -1 0 792)" d="M570.96 283.2L571.44 283.2L571.44 297.6L570.96 297.6z" stroke="none" fill="#000000" fill-rule="nonzero" /><g clip-path="url(#15)"></g><path transform="matrix(1 0 0 -1 0 792)" d="M99.6 282.72L100.08 282.72L100.08 283.2L99.6 283.2z" stroke="none" fill="#000000" fill-rule="nonzero" /><path transform="matrix(1 0 0 -1 0 792)" d="M100.08 282.72L127.44 282.72L127.44 283.2L100.08 283.2z" stroke="none" fill="#000000" fill-rule="nonzero" /><path transform="matrix(1 0 0 -1 0 792)" d="M127.44 282.72L127.92 282.72L127.92 283.2L127.44 283.2z" stroke="none" fill="#000000" fill-rule="nonzero" /><path transform="matrix(1 0 0 -1 0 792)" d="M127.92 282.72L365.76 282.72L365.76 283.2L127.92 283.2z" stroke="none" fill="#000000" fill-rule="nonzero" /><path transform="matrix(1 0 0 -1 0 792)" d="M365.76 282.72L366.24 282.72L366.24 283.2L365.76 283.2z" stroke="none" fill="#000000" fill-rule="nonzero" /><path transform="matrix(1 0 0 -1 0 792)" d="M366.24 282.72L482.64 282.72L482.64 283.2L366.24 283.2z" stroke="none" fill="#000000" fill-rule="nonzero" /><path transform="matrix(1 0 0 -1 0 792)" d="M482.64 282.72L483.12 282.72L483.12 283.2L482.64 283.2z" stroke="none" fill="#000000" fill-rule="nonzero" /><path transform="matrix(1 0 0 -1 0 792)" d="M483.12 282.72L570.96 282.72L570.96 283.2L483.12 283.2z" stroke="none" fill="#000000" fill-rule="nonzero" /><path transform="matrix(1 0 0 -1 0 792)" d="M570.96 282.72L571.44 282.72L571.44 283.2L570.96 283.2z" stroke="none" fill="#000000" fill-rule="nonzero" /><path transform="matrix(1 0 0 -1 0 792)" d="M99.6 268.8L100.08 268.8L100.08 282.72L99.6 282.72z" stroke="none" fill="#000000" fill-rule="nonzero" /><path transform="matrix(1 0 0 -1 0 792)" d="M127.44 268.8L127.92 268.8L127.92 282.72L127.44 282.72z" stroke="none" fill="#000000" fill-rule="nonzero" /><path transform="matrix(1 0 0 -1 0 792)" d="M365.76 268.8L366.24 268.8L366.24 282.72L365.76 282.72z" stroke="none" fill="#000000" fill-rule="nonzero" /><path transform="matrix(1 0 0 -1 0 792)" d="M482.64 268.8L483.12 268.8L483.12 282.72L482.64 282.72z" stroke="none" fill="#000000" fill-rule="nonzero" /><path transform="matrix(1 0 0 -1 0 792)" d="M570.96 268.8L571.44 268.8L571.44 282.72L570.96 282.72z" stroke="none" fill="#000000" fill-rule="nonzero" /><path transform="matrix(1 0 0 -1 0 792)" d="M99.6 268.32L100.08 268.32L100.08 268.8L99.6 268.8z" stroke="none" fill="#000000" fill-rule="nonzero" /><path transform="matrix(1 0 0 -1 0 792)" d="M100.08 268.32L127.44 268.32L127.44 268.8L100.08 268.8z" stroke="none" fill="#000000" fill-rule="nonzero" /><path transform="matrix(1 0 0 -1 0 792)" d="M127.44 268.32L127.92 268.32L127.92 268.8L127.44 268.8z" stroke="none" fill="#000000" fill-rule="nonzero" /><path transform="matrix(1 0 0 -1 0 792)" d="M127.92 268.32L365.76 268.32L365.76 268.8L127.92 268.8z" stroke="none" fill="#000000" fill-rule="nonzero" /><path transform="matrix(1 0 0 -1 0 792)" d="M365.76 268.32L366.24 268.32L366.24 268.8L365.76 268.8z" stroke="none" fill="#000000" fill-rule="nonzero" /><path transform="matrix(1 0 0 -1 0 792)" d="M366.24 268.32L482.64 268.32L482.64 268.8L366.24 268.8z" stroke="none" fill="#000000" fill-rule="nonzero" /><path transform="matrix(1 0 0 -1 0 792)" d="M482.64 268.32L483.12 268.32L483.12 268.8L482.64 268.8z" stroke="none" fill="#000000" fill-rule="nonzero" /><path transform="matrix(1 0 0 -1 0 792)" d="M570.96 268.32L571.44 268.32L571.44 268.8L570.96 268.8z" stroke="none" fill="#000000" fill-rule="nonzero" /><path transform="matrix(1 0 0 -1 0 792)" d="M99.6 254.4L100.08 254.4L100.08 268.32L99.6 268.32z" stroke="none" fill="#000000" fill-rule="nonzero" /><path transform="matrix(1 0 0 -1 0 792)" d="M127.44 254.4L127.92 254.4L127.92 268.32L127.44 268.32z" stroke="none" fill="#000000" fill-rule="nonzero" /><path transform="matrix(1 0 0 -1 0 792)" d="M365.76 254.4L366.24 254.4L366.24 268.32L365.76 268.32z" stroke="none" fill="#000000" fill-rule="nonzero" /><path transform="matrix(1 0 0 -1 0 792)" d="M482.64 254.4L483.12 254.4L483.12 268.32L482.64 268.32z" stroke="none" fill="#000000" fill-rule="nonzero" /><path transform="matrix(1 0 0 -1 0 792)" d="M570.96 254.4L571.44 254.4L571.44 268.32L570.96 268.32z" stroke="none" fill="#000000" fill-rule="nonzero" /><g clip-path="url(#16)"></g><path transform="matrix(1 0 0 -1 0 792)" d="M99.6 253.92L100.08 253.92L100.08 254.4L99.6 254.4z" stroke="none" fill="#000000" fill-rule="nonzero" /><path transform="matrix(1 0 0 -1 0 792)" d="M100.08 253.92L127.44 253.92L127.44 254.4L100.08 254.4z" stroke="none" fill="#000000" fill-rule="nonzero" /><path transform="matrix(1 0 0 -1 0 792)" d="M127.44 253.92L127.92 253.92L127.92 254.4L127.44 254.4z" stroke="none" fill="#000000" fill-rule="nonzero" /><path transform="matrix(1 0 0 -1 0 792)" d="M127.92 253.92L365.76 253.92L365.76 254.4L127.92 254.4z" stroke="none" fill="#000000" fill-rule="nonzero" /><path transform="matrix(1 0 0 -1 0 792)" d="M365.76 253.92L366.24 253.92L366.24 254.4L365.76 254.4z" stroke="none" fill="#000000" fill-rule="nonzero" /><path transform="matrix(1 0 0 -1 0 792)" d="M366.24 253.92L482.64 253.92L482.64 254.4L366.24 254.4z" stroke="none" fill="#000000" fill-rule="nonzero" /><path transform="matrix(1 0 0 -1 0 792)" d="M482.64 253.92L483.12 253.92L483.12 254.4L482.64 254.4z" stroke="none" fill="#000000" fill-rule="nonzero" /><path transform="matrix(1 0 0 -1 0 792)" d="M570.96 253.92L571.44 253.92L571.44 254.4L570.96 254.4z" stroke="none" fill="#000000" fill-rule="nonzero" /><path transform="matrix(1 0 0 -1 0 792)" d="M99.6 225.84L100.08 225.84L100.08 253.92L99.6 253.92z" stroke="none" fill="#000000" fill-rule="nonzero" /><path transform="matrix(1 0 0 -1 0 792)" d="M127.44 225.84L127.92 225.84L127.92 253.92L127.44 253.92z" stroke="none" fill="#000000" fill-rule="nonzero" /><path transform="matrix(1 0 0 -1 0 792)" d="M365.76 225.84L366.24 225.84L366.24 253.92L365.76 253.92z" stroke="none" fill="#000000" fill-rule="nonzero" /><path transform="matrix(1 0 0 -1 0 792)" d="M482.64 225.84L483.12 225.84L483.12 253.92L482.64 253.92z" stroke="none" fill="#000000" fill-rule="nonzero" /><path transform="matrix(1 0 0 -1 0 792)" d="M570.96 225.84L571.44 225.84L571.44 253.92L570.96 253.92z" stroke="none" fill="#000000" fill-rule="nonzero" /><g clip-path="url(#17)"></g><path transform="matrix(1 0 0 -1 0 792)" d="M99.6 225.36L100.08 225.36L100.08 225.84L99.6 225.84z" stroke="none" fill="#000000" fill-rule="nonzero" /><path transform="matrix(1 0 0 -1 0 792)" d="M100.08 225.36L127.44 225.36L127.44 225.84L100.08 225.84z" stroke="none" fill="#000000" fill-rule="nonzero" /><path transform="matrix(1 0 0 -1 0 792)" d="M127.44 225.36L127.92 225.36L127.92 225.84L127.44 225.84z" stroke="none" fill="#000000" fill-rule="nonzero" /><path transform="matrix(1 0 0 -1 0 792)" d="M127.92 225.36L365.76 225.36L365.76 225.84L127.92 225.84z" stroke="none" fill="#000000" fill-rule="nonzero" /><path transform="matrix(1 0 0 -1 0 792)" d="M365.76 225.36L366.24 225.36L366.24 225.84L365.76 225.84z" stroke="none" fill="#000000" fill-rule="nonzero" /><path transform="matrix(1 0 0 -1 0 792)" d="M366.24 225.36L482.64 225.36L482.64 225.84L366.24 225.84z" stroke="none" fill="#000000" fill-rule="nonzero" /><path transform="matrix(1 0 0 -1 0 792)" d="M482.64 225.36L483.12 225.36L483.12 225.84L482.64 225.84z" stroke="none" fill="#000000" fill-rule="nonzero" /><path transform="matrix(1 0 0 -1 0 792)" d="M570.96 225.36L571.44 225.36L571.44 225.84L570.96 225.84z" stroke="none" fill="#000000" fill-rule="nonzero" /><path transform="matrix(1 0 0 -1 0 792)" d="M99.6 211.2L100.08 211.2L100.08 225.36L99.6 225.36z" stroke="none" fill="#000000" fill-rule="nonzero" /><path transform="matrix(1 0 0 -1 0 792)" d="M127.44 211.2L127.92 211.2L127.92 225.36L127.44 225.36z" stroke="none" fill="#000000" fill-rule="nonzero" /><path transform="matrix(1 0 0 -1 0 792)" d="M365.76 211.2L366.24 211.2L366.24 225.36L365.76 225.36z" stroke="none" fill="#000000" fill-rule="nonzero" /><path transform="matrix(1 0 0 -1 0 792)" d="M482.64 211.2L483.12 211.2L483.12 225.36L482.64 225.36z" stroke="none" fill="#000000" fill-rule="nonzero" /><path transform="matrix(1 0 0 -1 0 792)" d="M570.96 211.2L571.44 211.2L571.44 225.36L570.96 225.36z" stroke="none" fill="#000000" fill-rule="nonzero" /><path transform="matrix(1 0 0 -1 0 792)" d="M99.6 210.96L100.08 210.96L100.08 211.2L99.6 211.2z" stroke="none" fill="#000000" fill-rule="nonzero" /><path transform="matrix(1 0 0 -1 0 792)" d="M100.08 210.96L127.44 210.96L127.44 211.2L100.08 211.2z" stroke="none" fill="#000000" fill-rule="nonzero" /><path transform="matrix(1 0 0 -1 0 792)" d="M127.44 210.96L127.92 210.96L127.92 211.2L127.44 211.2z" stroke="none" fill="#000000" fill-rule="nonzero" /><path transform="matrix(1 0 0 -1 0 792)" d="M127.92 210.96L365.76 210.96L365.76 211.2L127.92 211.2z" stroke="none" fill="#000000" fill-rule="nonzero" /><path transform="matrix(1 0 0 -1 0 792)" d="M365.76 210.96L366.24 210.96L366.24 211.2L365.76 211.2z" stroke="none" fill="#000000" fill-rule="nonzero" /><path transform="matrix(1 0 0 -1 0 792)" d="M366.24 210.96L482.64 210.96L482.64 211.2L366.24 211.2z" stroke="none" fill="#000000" fill-rule="nonzero" /><path transform="matrix(1 0 0 -1 0 792)" d="M482.64 210.96L483.12 210.96L483.12 211.2L482.64 211.2z" stroke="none" fill="#000000" fill-rule="nonzero" /><path transform="matrix(1 0 0 -1 0 792)" d="M570.96 210.96L571.44 210.96L571.44 211.2L570.96 211.2z" stroke="none" fill="#000000" fill-rule="nonzero" /><path transform="matrix(1 0 0 -1 0 792)" d="M99.6 182.64L100.08 182.64L100.08 210.96L99.6 210.96z" stroke="none" fill="#000000" fill-rule="nonzero" /><path transform="matrix(1 0 0 -1 0 792)" d="M127.44 182.64L127.92 182.64L127.92 210.96L127.44 210.96z" stroke="none" fill="#000000" fill-rule="nonzero" /><path transform="matrix(1 0 0 -1 0 792)" d="M365.76 182.64L366.24 182.64L366.24 210.96L365.76 210.96z" stroke="none" fill="#000000" fill-rule="nonzero" /><path transform="matrix(1 0 0 -1 0 792)" d="M482.64 182.64L483.12 182.64L483.12 210.96L482.64 210.96z" stroke="none" fill="#000000" fill-rule="nonzero" /><path transform="matrix(1 0 0 -1 0 792)" d="M570.96 182.64L571.44 182.64L571.44 210.96L570.96 210.96z" stroke="none" fill="#000000" fill-rule="nonzero" /><g clip-path="url(#18)"></g><path transform="matrix(1 0 0 -1 0 792)" d="M99.6 182.16L100.08 182.16L100.08 182.64L99.6 182.64z" stroke="none" fill="#000000" fill-rule="nonzero" /><path transform="matrix(1 0 0 -1 0 792)" d="M100.08 182.16L127.44 182.16L127.44 182.64L100.08 182.64z" stroke="none" fill="#000000" fill-rule="nonzero" /><path transform="matrix(1 0 0 -1 0 792)" d="M127.44 182.16L127.92 182.16L127.92 182.64L127.44 182.64z" stroke="none" fill="#000000" fill-rule="nonzero" /><path transform="matrix(1 0 0 -1 0 792)" d="M127.92 182.16L365.76 182.16L365.76 182.64L127.92 182.64z" stroke="none" fill="#000000" fill-rule="nonzero" /><path transform="matrix(1 0 0 -1 0 792)" d="M365.76 182.16L366.24 182.16L366.24 182.64L365.76 182.64z" stroke="none" fill="#000000" fill-rule="nonzero" /><path transform="matrix(1 0 0 -1 0 792)" d="M366.24 182.16L482.64 182.16L482.64 182.64L366.24 182.64z" stroke="none" fill="#000000" fill-rule="nonzero" /><path transform="matrix(1 0 0 -1 0 792)" d="M482.64 182.16L483.12 182.16L483.12 182.64L482.64 182.64z" stroke="none" fill="#000000" fill-rule="nonzero" /><path transform="matrix(1 0 0 -1 0 792)" d="M570.96 182.16L571.44 182.16L571.44 182.64L570.96 182.64z" stroke="none" fill="#000000" fill-rule="nonzero" /><path transform="matrix(1 0 0 -1 0 792)" d="M99.6 154.08L100.08 154.08L100.08 182.16L99.6 182.16z" stroke="none" fill="#000000" fill-rule="nonzero" /><path transform="matrix(1 0 0 -1 0 792)" d="M127.44 154.08L127.92 154.08L127.92 182.16L127.44 182.16z" stroke="none" fill="#000000" fill-rule="nonzero" /><path transform="matrix(1 0 0 -1 0 792)" d="M365.76 154.08L366.24 154.08L366.24 182.16L365.76 182.16z" stroke="none" fill="#000000" fill-rule="nonzero" /><path transform="matrix(1 0 0 -1 0 792)" d="M482.64 154.08L483.12 154.08L483.12 182.16L482.64 182.16z" stroke="none" fill="#000000" fill-rule="nonzero" /><path transform="matrix(1 0 0 -1 0 792)" d="M570.96 154.08L571.44 154.08L571.44 182.16L570.96 182.16z" stroke="none" fill="#000000" fill-rule="nonzero" /><path transform="matrix(1 0 0 -1 0 792)" d="M99.6 153.6L100.08 153.6L100.08 154.08L99.6 154.08z" stroke="none" fill="#000000" fill-rule="nonzero" /><path transform="matrix(1 0 0 -1 0 792)" d="M100.08 153.6L127.44 153.6L127.44 154.08L100.08 154.08z" stroke="none" fill="#000000" fill-rule="nonzero" /><path transform="matrix(1 0 0 -1 0 792)" d="M127.44 153.6L127.92 153.6L127.92 154.08L127.44 154.08z" stroke="none" fill="#000000" fill-rule="nonzero" /><path transform="matrix(1 0 0 -1 0 792)" d="M127.92 153.6L365.76 153.6L365.76 154.08L127.92 154.08z" stroke="none" fill="#000000" fill-rule="nonzero" /><path transform="matrix(1 0 0 -1 0 792)" d="M365.76 153.6L366.24 153.6L366.24 154.08L365.76 154.08z" stroke="none" fill="#000000" fill-rule="nonzero" /><path transform="matrix(1 0 0 -1 0 792)" d="M366.24 153.6L482.64 153.6L482.64 154.08L366.24 154.08z" stroke="none" fill="#000000" fill-rule="nonzero" /><path transform="matrix(1 0 0 -1 0 792)" d="M482.64 153.6L483.12 153.6L483.12 154.08L482.64 154.08z" stroke="none" fill="#000000" fill-rule="nonzero" /><path transform="matrix(1 0 0 -1 0 792)" d="M483.12 153.6L570.96 153.6L570.96 154.08L483.12 154.08z" stroke="none" fill="#000000" fill-rule="nonzero" /><path transform="matrix(1 0 0 -1 0 792)" d="M570.96 153.6L571.44 153.6L571.44 154.08L570.96 154.08z" stroke="none" fill="#000000" fill-rule="nonzero" /><path transform="matrix(1 0 0 -1 0 792)" d="M99.6 139.68L100.08 139.68L100.08 153.6L99.6 153.6z" stroke="none" fill="#000000" fill-rule="nonzero" /><path transform="matrix(1 0 0 -1 0 792)" d="M99.6 139.2L100.08 139.2L100.08 139.68L99.6 139.68z" stroke="none" fill="#000000" fill-rule="nonzero" /><path transform="matrix(1 0 0 -1 0 792)" d="M99.6 139.2L100.08 139.2L100.08 139.68L99.6 139.68z" stroke="none" fill="#000000" fill-rule="nonzero" /><path transform="matrix(1 0 0 -1 0 792)" d="M100.08 139.2L127.44 139.2L127.44 139.68L100.08 139.68z" stroke="none" fill="#000000" fill-rule="nonzero" /><path transform="matrix(1 0 0 -1 0 792)" d="M127.44 139.68L127.92 139.68L127.92 153.6L127.44 153.6z" stroke="none" fill="#000000" fill-rule="nonzero" /><path transform="matrix(1 0 0 -1 0 792)" d="M127.44 139.2L127.92 139.2L127.92 139.68L127.44 139.68z" stroke="none" fill="#000000" fill-rule="nonzero" /><path transform="matrix(1 0 0 -1 0 792)" d="M127.92 139.2L365.76 139.2L365.76 139.68L127.92 139.68z" stroke="none" fill="#000000" fill-rule="nonzero" /><path transform="matrix(1 0 0 -1 0 792)" d="M365.76 139.68L366.24 139.68L366.24 153.6L365.76 153.6z" stroke="none" fill="#000000" fill-rule="nonzero" /><path transform="matrix(1 0 0 -1 0 792)" d="M365.76 139.2L366.24 139.2L366.24 139.68L365.76 139.68z" stroke="none" fill="#000000" fill-rule="nonzero" /><path transform="matrix(1 0 0 -1 0 792)" d="M366.24 139.2L482.64 139.2L482.64 139.68L366.24 139.68z" stroke="none" fill="#000000" fill-rule="nonzero" /><path transform="matrix(1 0 0 -1 0 792)" d="M482.64 139.68L483.12 139.68L483.12 153.6L482.64 153.6z" stroke="none" fill="#000000" fill-rule="nonzero" /><path transform="matrix(1 0 0 -1 0 792)" d="M482.64 139.2L483.12 139.2L483.12 139.68L482.64 139.68z" stroke="none" fill="#000000" fill-rule="nonzero" /><path transform="matrix(1 0 0 -1 0 792)" d="M483.12 139.2L570.96 139.2L570.96 139.68L483.12 139.68z" stroke="none" fill="#000000" fill-rule="nonzero" /><path transform="matrix(1 0 0 -1 0 792)" d="M570.96 139.68L571.44 139.68L571.44 153.6L570.96 153.6z" stroke="none" fill="#000000" fill-rule="nonzero" /><path transform="matrix(1 0 0 -1 0 792)" d="M570.96 139.2L571.44 139.2L571.44 139.68L570.96 139.68z" stroke="none" fill="#000000" fill-rule="nonzero" /><path transform="matrix(1 0 0 -1 0 792)" d="M570.96 139.2L571.44 139.2L571.44 139.68L570.96 139.68z" stroke="none" fill="#000000" fill-rule="nonzero" /></g></g></g></svg>