<svg xmlns="http://www.w3.org/2000/svg" xmlns:xlink="http://www.w3.org/1999/xlink" id="body_1" preserveAspectRatio="xMinYMin meet" viewBox="0 0 816 1056"><defs><clipPath id="1"><path clip-rule="evenodd" d="M0 792L0 0L0 0L612 0L612 0L612 792L612 792L0 792z" /></clipPath><clipPath id="2"><path clip-rule="evenodd" d="M105.36 62.15997L558 62.15997L558 62.15997L558 61.19995L558 61.19995L105.36 61.19995zM552.96 61.20001L558 61.20001L558 61.20001L558 41.28003L558 41.28003L552.96 41.28003zM105.36 61.20001L110.16 61.20001L110.16 61.20001L110.16 41.28003L110.16 41.28003L105.36 41.28003zM105.36 41.28003L558 41.28003L558 41.28003L558 39.84003L558 39.84003L105.36 39.84003z" /></clipPath><clipPath id="3"><path clip-rule="evenodd" d="M105.36 84.47998L189.36 84.47998L189.36 84.47998L189.36 82.32001L189.36 82.32001L105.36 82.32001zM184.56 82.32001L189.36 82.32001L189.36 82.32001L189.36 64.79999L189.36 64.79999L184.56 64.79999zM105.36 82.32001L110.16 82.32001L110.16 82.32001L110.16 64.79999L110.16 64.79999L105.36 64.79999zM105.36 64.79999L189.36 64.79999L189.36 64.79999L189.36 62.64001L189.36 62.64001L105.36 62.64001z" /></clipPath><clipPath id="4"><path clip-rule="evenodd" d="M189.84 84.47998L388.32 84.47998L388.32 84.47998L388.32 82.32001L388.32 82.32001L189.84 82.32001zM383.28 82.32001L388.32 82.32001L388.32 82.32001L388.32 64.79999L388.32 64.79999L383.28 64.79999zM189.84 82.32001L194.64 82.32001L194.64 82.32001L194.64 64.79999L194.64 64.79999L189.84 64.79999zM189.84 64.79999L388.32 64.79999L388.32 64.79999L388.32 62.64001L388.32 62.64001L189.84 62.64001z" /></clipPath><clipPath id="5"><path clip-rule="evenodd" d="M388.8 84.47998L558 84.47998L558 84.47998L558 82.32001L558 82.32001L388.8 82.32001zM552.96 82.32001L558 82.32001L558 82.32001L558 64.79999L558 64.79999L552.96 64.79999zM388.8 82.32001L393.3599 82.32001L393.3599 82.32001L393.3599 64.79999L393.3599 64.79999L388.8 64.79999zM388.8 64.79999L558 64.79999L558 64.79999L558 62.64001L558 62.64001L388.8 62.64001z" /></clipPath><clipPath id="6"><path clip-rule="evenodd" d="M553.92 175.68L558.72 175.68L558.72 175.68L558.72 153.6001L558.72 153.6001L553.92 153.6001zM106.32 175.68L111.12 175.68L111.12 175.68L111.12 153.6001L111.12 153.6001L106.32 153.6001z" /></clipPath><clipPath id="7"><path clip-rule="evenodd" d="M106.32 210L258 210L258 210L258 201.84L258 201.84L106.32 201.84zM253.2 201.84L258 201.84L258 201.84L258 184.32L258 184.32L253.2 184.32zM106.32 201.84L111.12 201.84L111.12 201.84L111.12 184.32L111.12 184.32L106.32 184.32zM106.32 184.32L258 184.32L258 184.32L258 176.16L258 176.16L106.32 176.16z" /></clipPath><clipPath id="8"><path clip-rule="evenodd" d="M258.48 210L558.72 210L558.72 210L558.72 201.84L558.72 201.84L258.48 201.84zM553.92 201.84L558.72 201.84L558.72 201.84L558.72 184.32L558.72 184.32L553.92 184.32zM258.48 201.84L263.28 201.84L263.28 201.84L263.28 184.32L263.28 184.32L258.48 184.32zM258.48 184.32L558.72 184.32L558.72 184.32L558.72 176.16L558.72 176.16L258.48 176.16z" /></clipPath><clipPath id="9"><path clip-rule="evenodd" d="M106.32 251.04L558.72 251.04L558.72 251.04L558.72 249.12L558.72 249.12L106.32 249.12zM553.92 249.12L558.72 249.12L558.72 249.12L558.72 231.36L558.72 231.36L553.92 231.36zM106.32 249.12L111.12 249.12L111.12 249.12L111.12 231.36L111.12 231.36L106.32 231.36zM106.32 231.36L558.72 231.36L558.72 231.36L558.72 229.44L558.72 229.44L106.32 229.44z" /></clipPath><clipPath id="10"><path clip-rule="evenodd" d="M106.32 296.4L158.16 296.4L158.16 296.4L158.16 289.2L158.16 289.2L106.32 289.2zM153.12 289.2L158.16 289.2L158.16 289.2L158.16 258.72L158.16 258.72L153.12 258.72zM106.32 289.2L111.12 289.2L111.12 289.2L111.12 258.72L111.12 258.72L106.32 258.72zM106.32 258.72L158.16 258.72L158.16 258.72L158.16 251.52L158.16 251.52L106.32 251.52z" /></clipPath><clipPath id="11"><path clip-rule="evenodd" d="M154.56 289.44L158.16 289.44L158.16 289.44L158.16 276.72L158.16 276.72L154.56 276.72z" /></clipPath><clipPath id="12"><path clip-rule="evenodd" d="M158.64 296.4L311.28 296.4L311.28 296.4L311.28 282.96L311.28 282.96L158.64 282.96zM306.48 282.96L311.28 282.96L311.28 282.96L311.28 264.96L311.28 264.96L306.48 264.96zM158.64 282.96L163.1999 282.96L163.1999 282.96L163.1999 264.96L163.1999 264.96L158.64 264.96zM158.64 264.96L311.28 264.96L311.28 264.96L311.28 251.52L311.28 251.52L158.64 251.52z" /></clipPath><clipPath id="13"><path clip-rule="evenodd" d="M439.68 296.4L444.72 296.4L444.72 296.4L444.72 251.52L444.72 251.52L439.68 251.52zM311.76 296.4L316.8 296.4L316.8 296.4L316.8 251.52L316.8 251.52L311.76 251.52z" /></clipPath><clipPath id="14"><path clip-rule="evenodd" d="M445.2 296.4L558.72 296.4L558.72 296.4L558.72 282.96L558.72 282.96L445.2 282.96zM553.92 282.96L558.72 282.96L558.72 282.96L558.72 264.96L558.72 264.96L553.92 264.96zM445.2 282.96L449.7599 282.96L449.7599 282.96L449.7599 264.96L449.7599 264.96L445.2 264.96zM445.2 264.96L558.72 264.96L558.72 264.96L558.72 251.52L558.72 251.52L445.2 251.52z" /></clipPath><clipPath id="15"><path clip-rule="evenodd" d="M133.2 332.64L139.2 332.64L139.2 332.64L139.2 320.16L139.2 320.16L133.2 320.16z" /></clipPath><clipPath id="16"><path clip-rule="evenodd" d="M165.12 332.64L171.12 332.64L171.12 332.64L171.12 320.16L171.12 320.16L165.12 320.16z" /></clipPath><clipPath id="17"><path clip-rule="evenodd" d="M378.96 332.64L384.96 332.64L384.96 332.64L384.96 320.16L384.96 320.16L378.96 320.16z" /></clipPath><clipPath id="18"><path clip-rule="evenodd" d="M450.72 332.64L456.72 332.64L456.72 332.64L456.72 320.16L456.72 320.16L450.72 320.16z" /></clipPath><clipPath id="19"><path clip-rule="evenodd" d="M133.2 387.12L139.2 387.12L139.2 387.12L139.2 374.64L139.2 374.64L133.2 374.64z" /></clipPath><clipPath id="20"><path clip-rule="evenodd" d="M165.12 387.12L171.12 387.12L171.12 387.12L171.12 374.64L171.12 374.64L165.12 374.64z" /></clipPath><clipPath id="21"><path clip-rule="evenodd" d="M378.96 387.12L384.96 387.12L384.96 387.12L384.96 374.64L384.96 374.64L378.96 374.64z" /></clipPath><clipPath id="22"><path clip-rule="evenodd" d="M450.72 387.12L456.72 387.12L456.72 387.12L456.72 374.64L456.72 374.64L450.72 374.64z" /></clipPath><clipPath id="23"><path clip-rule="evenodd" d="M133.2 423.36L139.2 423.36L139.2 423.36L139.2 410.88L139.2 410.88L133.2 410.88z" /></clipPath><clipPath id="24"><path clip-rule="evenodd" d="M165.12 423.36L171.12 423.36L171.12 423.36L171.12 410.88L171.12 410.88L165.12 410.88z" /></clipPath><clipPath id="25"><path clip-rule="evenodd" d="M378.96 423.36L384.96 423.36L384.96 423.36L384.96 410.88L384.96 410.88L378.96 410.88z" /></clipPath><clipPath id="26"><path clip-rule="evenodd" d="M450.72 423.36L456.72 423.36L456.72 423.36L456.72 410.88L456.72 410.88L450.72 410.88z" /></clipPath><clipPath id="27"><path clip-rule="evenodd" d="M106.32 481.92L558.72 481.92L558.72 481.92L558.72 479.76L558.72 479.76L106.32 479.76zM553.92 479.76L558.72 479.76L558.72 479.76L558.72 462.24L558.72 462.24L553.92 462.24zM106.32 479.76L111.12 479.76L111.12 479.76L111.12 462.24L111.12 462.24L106.32 462.24zM106.32 462.24L558.72 462.24L558.72 462.24L558.72 460.32L558.72 460.32L106.32 460.32z" /></clipPath><clipPath id="28"><path clip-rule="evenodd" d="M106.32 541.2L159.6 541.2L159.6 541.2L159.6 527.04L159.6 527.04L106.32 527.04zM155.04 527.04L159.5999 527.04L159.5999 527.04L159.5999 496.32L159.5999 496.32L155.04 496.32zM106.32 527.04L111.12 527.04L111.12 527.04L111.12 496.32L111.12 496.32L106.32 496.32zM106.32 496.32L159.6 496.32L159.6 496.32L159.6 482.4L159.6 482.4L106.32 482.4z" /></clipPath><clipPath id="29"><path clip-rule="evenodd" d="M160.08 541.2L371.28 541.2L371.28 541.2L371.28 520.56L371.28 520.56L160.08 520.56zM366.24 520.56L371.28 520.56L371.28 520.56L371.28 502.8L371.28 502.8L366.24 502.8zM160.08 520.56L165.12 520.56L165.12 520.56L165.12 502.8L165.12 502.8L160.08 502.8zM160.08 502.8L371.28 502.8L371.28 502.8L371.28 482.4L371.28 482.4L160.08 482.4z" /></clipPath><clipPath id="30"><path clip-rule="evenodd" d="M371.76 541.2L485.52 541.2L485.52 541.2L485.52 527.52L485.52 527.52L371.76 527.52zM480.72 527.52L485.52 527.52L485.52 527.52L485.52 495.84L485.52 495.84L480.72 495.84zM371.76 527.52L376.56 527.52L376.56 527.52L376.56 495.84L376.56 495.84L371.76 495.84zM371.76 495.84L485.52 495.84L485.52 495.84L485.52 482.4L485.52 482.4L371.76 482.4z" /></clipPath><clipPath id="31"><path clip-rule="evenodd" d="M553.92 541.2L558.72 541.2L558.72 541.2L558.72 482.4L558.72 482.4L553.92 482.4zM486 541.2L490.8 541.2L490.8 541.2L490.8 482.4L490.8 482.4L486 482.4z" /></clipPath><clipPath id="32"><path clip-rule="evenodd" d="M133.2 559.2L139.2 559.2L139.2 559.2L139.2 546.72L139.2 546.72L133.2 546.72z" /></clipPath><clipPath id="33"><path clip-rule="evenodd" d="M165.12 559.2L171.12 559.2L171.12 559.2L171.12 546.72L171.12 546.72L165.12 546.72z" /></clipPath><clipPath id="34"><path clip-rule="evenodd" d="M376.56 559.2L382.56 559.2L382.56 559.2L382.56 546.72L382.56 546.72L376.56 546.72z" /></clipPath><clipPath id="35"><path clip-rule="evenodd" d="M490.8 559.2L496.8 559.2L496.8 559.2L496.8 546.72L496.8 546.72L490.8 546.72z" /></clipPath><clipPath id="36"><path clip-rule="evenodd" d="M133.2 577.2L139.2 577.2L139.2 577.2L139.2 564.72L139.2 564.72L133.2 564.72z" /></clipPath><clipPath id="37"><path clip-rule="evenodd" d="M165.12 577.2L171.12 577.2L171.12 577.2L171.12 564.72L171.12 564.72L165.12 564.72z" /></clipPath><clipPath id="38"><path clip-rule="evenodd" d="M376.56 577.2L382.56 577.2L382.56 577.2L382.56 564.72L382.56 564.72L376.56 564.72z" /></clipPath><clipPath id="39"><path clip-rule="evenodd" d="M490.8 577.2L496.8 577.2L496.8 577.2L496.8 564.72L496.8 564.72L490.8 564.72z" /></clipPath><clipPath id="40"><path clip-rule="evenodd" d="M106.32 654L558.72 654L558.72 654L558.72 652.08L558.72 652.08L106.32 652.08zM553.92 652.08L558.72 652.08L558.72 652.08L558.72 634.32L558.72 634.32L553.92 634.32zM106.32 652.08L111.12 652.08L111.12 652.08L111.12 634.32L111.12 634.32L106.32 634.32zM106.32 634.32L558.72 634.32L558.72 634.32L558.72 632.4L558.72 632.4L106.32 632.4z" /></clipPath><clipPath id="41"><path clip-rule="evenodd" d="M106.32 689.52L158.16 689.52L158.16 689.52L158.16 687.12L158.16 687.12L106.32 687.12zM153.12 687.12L158.16 687.12L158.16 687.12L158.16 656.64L158.16 656.64L153.12 656.64zM106.32 687.12L111.12 687.12L111.12 687.12L111.12 656.64L111.12 656.64L106.32 656.64zM106.32 656.64L158.16 656.64L158.16 656.64L158.16 654.48L158.16 654.48L106.32 654.48z" /></clipPath><clipPath id="42"><path clip-rule="evenodd" d="M152.88 687.36L158.16 687.36L158.16 687.36L158.16 674.64L158.16 674.64L152.88 674.64z" /></clipPath><clipPath id="43"><path clip-rule="evenodd" d="M158.64 689.52L311.28 689.52L311.28 689.52L311.28 680.88L311.28 680.88L158.64 680.88zM306.48 680.88L311.28 680.88L311.28 680.88L311.28 663.12L311.28 663.12L306.48 663.12zM158.64 680.88L163.1999 680.88L163.1999 680.88L163.1999 663.12L163.1999 663.12L158.64 663.12zM158.64 663.12L311.28 663.12L311.28 663.12L311.28 654.48L311.28 654.48L158.64 654.48z" /></clipPath><clipPath id="44"><path clip-rule="evenodd" d="M311.76 689.52L444.72 689.52L444.72 689.52L444.72 687.6L444.72 687.6L311.76 687.6zM439.68 687.6L444.72 687.6L444.72 687.6L444.72 656.16L444.72 656.16L439.68 656.16zM311.76 687.6L316.8 687.6L316.8 687.6L316.8 656.16L316.8 656.16L311.76 656.16zM311.76 656.16L444.72 656.16L444.72 656.16L444.72 654.48L444.72 654.48L311.76 654.48z" /></clipPath><clipPath id="45"><path clip-rule="evenodd" d="M553.92 689.52L558.72 689.52L558.72 689.52L558.72 654.48L558.72 654.48L553.92 654.48zM445.2 689.52L449.7599 689.52L449.7599 689.52L449.7599 654.48L449.7599 654.48L445.2 654.48z" /></clipPath></defs><g transform="matrix(1.333333 0 0 1.333333 0 0)"><g><g clip-path="url(#1)"><g clip-path="url(#2)"><path transform="matrix(1 0 0 -1 0 792)" d="M105.36 729.84L558 729.84L558 752.16L105.36 752.16z" stroke="none" fill="#B2B2B2" fill-rule="nonzero" /></g><path transform="matrix(1 0 0 -1 0 792)" d="M110.16 730.8L552.96 730.8L552.96 750.72L110.16 750.72z" stroke="none" fill="#B2B2B2" fill-rule="nonzero" /><path transform="matrix(1 0 0 -1 0 792)" d="M104.88 752.16L105.36 752.16L105.36 752.64L104.88 752.64z" stroke="none" fill="#000000" fill-rule="nonzero" /><path transform="matrix(1 0 0 -1 0 792)" d="M104.88 752.16L105.36 752.16L105.36 752.64L104.88 752.64z" stroke="none" fill="#000000" fill-rule="nonzero" /><path transform="matrix(1 0 0 -1 0 792)" d="M105.36 752.16L558 752.16L558 752.64L105.36 752.64z" stroke="none" fill="#000000" fill-rule="nonzero" /><path transform="matrix(1 0 0 -1 0 792)" d="M558 752.16L558.24 752.16L558.24 752.64L558 752.64z" stroke="none" fill="#000000" fill-rule="nonzero" /><path transform="matrix(1 0 0 -1 0 792)" d="M558 752.16L558.24 752.16L558.24 752.64L558 752.64z" stroke="none" fill="#000000" fill-rule="nonzero" /><path transform="matrix(1 0 0 -1 0 792)" d="M104.88 729.84L105.36 729.84L105.36 752.16L104.88 752.16z" stroke="none" fill="#000000" fill-rule="nonzero" /><path transform="matrix(1 0 0 -1 0 792)" d="M558 729.84L558.24 729.84L558.24 752.16L558 752.16z" stroke="none" fill="#000000" fill-rule="nonzero" /><g clip-path="url(#3)"><path transform="matrix(1 0 0 -1 0 792)" d="M105.36 707.52L189.36 707.52L189.36 729.36L105.36 729.36z" stroke="none" fill="#E6E6E6" fill-rule="nonzero" /></g><path transform="matrix(1 0 0 -1 0 792)" d="M110.16 709.68L184.56 709.68L184.56 727.2L110.16 727.2z" stroke="none" fill="#E6E6E6" fill-rule="nonzero" /><g clip-path="url(#4)"><path transform="matrix(1 0 0 -1 0 792)" d="M189.84 707.52L388.32 707.52L388.32 729.36L189.84 729.36z" stroke="none" fill="#E6E6E6" fill-rule="nonzero" /></g><path transform="matrix(1 0 0 -1 0 792)" d="M194.64 709.68L383.28 709.68L383.28 727.2L194.64 727.2z" stroke="none" fill="#E6E6E6" fill-rule="nonzero" /><g clip-path="url(#5)"><path transform="matrix(1 0 0 -1 0 792)" d="M388.8 707.52L558 707.52L558 729.36L388.8 729.36z" stroke="none" fill="#E6E6E6" fill-rule="nonzero" /></g><path transform="matrix(1 0 0 -1 0 792)" d="M393.36 709.68L552.96 709.68L552.96 727.2L393.36 727.2z" stroke="none" fill="#E6E6E6" fill-rule="nonzero" /><path transform="matrix(1 0 0 -1 0 792)" d="M104.88 729.36L105.36 729.36L105.36 729.84L104.88 729.84z" stroke="none" fill="#000000" fill-rule="nonzero" /><path transform="matrix(1 0 0 -1 0 792)" d="M105.36 729.36L189.36 729.36L189.36 729.84L105.36 729.84z" stroke="none" fill="#000000" fill-rule="nonzero" /><path transform="matrix(1 0 0 -1 0 792)" d="M189.36 729.36L189.84 729.36L189.84 729.84L189.36 729.84z" stroke="none" fill="#000000" fill-rule="nonzero" /><path transform="matrix(1 0 0 -1 0 792)" d="M189.84 729.36L388.32 729.36L388.32 729.84L189.84 729.84z" stroke="none" fill="#000000" fill-rule="nonzero" /><path transform="matrix(1 0 0 -1 0 792)" d="M388.32 729.36L388.8 729.36L388.8 729.84L388.32 729.84z" stroke="none" fill="#000000" fill-rule="nonzero" /><path transform="matrix(1 0 0 -1 0 792)" d="M388.8 729.36L558 729.36L558 729.84L388.8 729.84z" stroke="none" fill="#000000" fill-rule="nonzero" /><path transform="matrix(1 0 0 -1 0 792)" d="M558 729.36L558.24 729.36L558.24 729.84L558 729.84z" stroke="none" fill="#000000" fill-rule="nonzero" /><path transform="matrix(1 0 0 -1 0 792)" d="M104.88 707.52L105.36 707.52L105.36 729.36L104.88 729.36z" stroke="none" fill="#000000" fill-rule="nonzero" /><path transform="matrix(1 0 0 -1 0 792)" d="M189.36 707.52L189.84 707.52L189.84 729.36L189.36 729.36z" stroke="none" fill="#000000" fill-rule="nonzero" /><path transform="matrix(1 0 0 -1 0 792)" d="M388.32 707.52L388.8 707.52L388.8 729.36L388.32 729.36z" stroke="none" fill="#000000" fill-rule="nonzero" /><path transform="matrix(1 0 0 -1 0 792)" d="M558 707.52L558.24 707.52L558.24 729.36L558 729.36z" stroke="none" fill="#000000" fill-rule="nonzero" /><path transform="matrix(1 0 0 -1 0 792)" d="M104.88 707.28L105.36 707.28L105.36 707.52L104.88 707.52z" stroke="none" fill="#000000" fill-rule="nonzero" /><path transform="matrix(1 0 0 -1 0 792)" d="M105.36 707.28L189.36 707.28L189.36 707.52L105.36 707.52z" stroke="none" fill="#000000" fill-rule="nonzero" /><path transform="matrix(1 0 0 -1 0 792)" d="M189.36 707.28L189.84 707.28L189.84 707.52L189.36 707.52z" stroke="none" fill="#000000" fill-rule="nonzero" /><path transform="matrix(1 0 0 -1 0 792)" d="M189.84 707.28L388.32 707.28L388.32 707.52L189.84 707.52z" stroke="none" fill="#000000" fill-rule="nonzero" /><path transform="matrix(1 0 0 -1 0 792)" d="M388.32 707.28L388.8 707.28L388.8 707.52L388.32 707.52z" stroke="none" fill="#000000" fill-rule="nonzero" /><path transform="matrix(1 0 0 -1 0 792)" d="M388.8 707.28L558 707.28L558 707.52L388.8 707.52z" stroke="none" fill="#000000" fill-rule="nonzero" /><path transform="matrix(1 0 0 -1 0 792)" d="M558 707.28L558.24 707.28L558.24 707.52L558 707.52z" stroke="none" fill="#000000" fill-rule="nonzero" /><path transform="matrix(1 0 0 -1 0 792)" d="M104.88 689.04L105.36 689.04L105.36 707.2799L104.88 707.2799z" stroke="none" fill="#000000" fill-rule="nonzero" /><path transform="matrix(1 0 0 -1 0 792)" d="M189.36 689.04L189.84 689.04L189.84 707.2799L189.36 707.2799z" stroke="none" fill="#000000" fill-rule="nonzero" /><path transform="matrix(1 0 0 -1 0 792)" d="M388.32 689.04L388.8 689.04L388.8 707.2799L388.32 707.2799z" stroke="none" fill="#000000" fill-rule="nonzero" /><path transform="matrix(1 0 0 -1 0 792)" d="M558 689.04L558.24 689.04L558.24 707.2799L558 707.2799z" stroke="none" fill="#000000" fill-rule="nonzero" /><path transform="matrix(1 0 0 -1 0 792)" d="M104.88 688.56L105.36 688.56L105.36 689.04L104.88 689.04z" stroke="none" fill="#000000" fill-rule="nonzero" /><path transform="matrix(1 0 0 -1 0 792)" d="M105.36 688.56L189.36 688.56L189.36 689.04L105.36 689.04z" stroke="none" fill="#000000" fill-rule="nonzero" /><path transform="matrix(1 0 0 -1 0 792)" d="M189.36 688.56L189.84 688.56L189.84 689.04L189.36 689.04z" stroke="none" fill="#000000" fill-rule="nonzero" /><path transform="matrix(1 0 0 -1 0 792)" d="M189.84 688.56L388.32 688.56L388.32 689.04L189.84 689.04z" stroke="none" fill="#000000" fill-rule="nonzero" /><path transform="matrix(1 0 0 -1 0 792)" d="M388.32 688.56L388.8 688.56L388.8 689.04L388.32 689.04z" stroke="none" fill="#000000" fill-rule="nonzero" /><path transform="matrix(1 0 0 -1 0 792)" d="M388.8 688.56L558 688.56L558 689.04L388.8 689.04z" stroke="none" fill="#000000" fill-rule="nonzero" /><path transform="matrix(1 0 0 -1 0 792)" d="M558 688.56L558.24 688.56L558.24 689.04L558 689.04z" stroke="none" fill="#000000" fill-rule="nonzero" /><path transform="matrix(1 0 0 -1 0 792)" d="M104.88 670.56L105.36 670.56L105.36 688.56L104.88 688.56z" stroke="none" fill="#000000" fill-rule="nonzero" /><path transform="matrix(1 0 0 -1 0 792)" d="M189.36 670.56L189.84 670.56L189.84 688.56L189.36 688.56z" stroke="none" fill="#000000" fill-rule="nonzero" /><path transform="matrix(1 0 0 -1 0 792)" d="M388.32 670.56L388.8 670.56L388.8 688.56L388.32 688.56z" stroke="none" fill="#000000" fill-rule="nonzero" /><path transform="matrix(1 0 0 -1 0 792)" d="M558 670.56L558.24 670.56L558.24 688.56L558 688.56z" stroke="none" fill="#000000" fill-rule="nonzero" /><path transform="matrix(1 0 0 -1 0 792)" d="M104.88 670.08L105.36 670.08L105.36 670.56L104.88 670.56z" stroke="none" fill="#000000" fill-rule="nonzero" /><path transform="matrix(1 0 0 -1 0 792)" d="M105.36 670.08L189.36 670.08L189.36 670.56L105.36 670.56z" stroke="none" fill="#000000" fill-rule="nonzero" /><path transform="matrix(1 0 0 -1 0 792)" d="M189.36 670.08L189.84 670.08L189.84 670.56L189.36 670.56z" stroke="none" fill="#000000" fill-rule="nonzero" /><path transform="matrix(1 0 0 -1 0 792)" d="M189.84 670.08L388.32 670.08L388.32 670.56L189.84 670.56z" stroke="none" fill="#000000" fill-rule="nonzero" /><path transform="matrix(1 0 0 -1 0 792)" d="M388.32 670.08L388.8 670.08L388.8 670.56L388.32 670.56z" stroke="none" fill="#000000" fill-rule="nonzero" /><path transform="matrix(1 0 0 -1 0 792)" d="M388.8 670.08L558 670.08L558 670.56L388.8 670.56z" stroke="none" fill="#000000" fill-rule="nonzero" /><path transform="matrix(1 0 0 -1 0 792)" d="M558 670.08L558.24 670.08L558.24 670.56L558 670.56z" stroke="none" fill="#000000" fill-rule="nonzero" /><path transform="matrix(1 0 0 -1 0 792)" d="M104.88 652.08L105.36 652.08L105.36 670.08L104.88 670.08z" stroke="none" fill="#000000" fill-rule="nonzero" /><path transform="matrix(1 0 0 -1 0 792)" d="M104.88 651.6L105.36 651.6L105.36 652.08L104.88 652.08z" stroke="none" fill="#000000" fill-rule="nonzero" /><path transform="matrix(1 0 0 -1 0 792)" d="M104.88 651.6L105.36 651.6L105.36 652.08L104.88 652.08z" stroke="none" fill="#000000" fill-rule="nonzero" /><path transform="matrix(1 0 0 -1 0 792)" d="M105.36 651.6L189.36 651.6L189.36 652.08L105.36 652.08z" stroke="none" fill="#000000" fill-rule="nonzero" /><path transform="matrix(1 0 0 -1 0 792)" d="M189.36 652.08L189.84 652.08L189.84 670.08L189.36 670.08z" stroke="none" fill="#000000" fill-rule="nonzero" /><path transform="matrix(1 0 0 -1 0 792)" d="M189.36 651.6L189.84 651.6L189.84 652.08L189.36 652.08z" stroke="none" fill="#000000" fill-rule="nonzero" /><path transform="matrix(1 0 0 -1 0 792)" d="M189.84 651.6L388.32 651.6L388.32 652.08L189.84 652.08z" stroke="none" fill="#000000" fill-rule="nonzero" /><path transform="matrix(1 0 0 -1 0 792)" d="M388.32 652.08L388.8 652.08L388.8 670.08L388.32 670.08z" stroke="none" fill="#000000" fill-rule="nonzero" /><path transform="matrix(1 0 0 -1 0 792)" d="M388.32 651.6L388.8 651.6L388.8 652.08L388.32 652.08z" stroke="none" fill="#000000" fill-rule="nonzero" /><path transform="matrix(1 0 0 -1 0 792)" d="M388.8 651.6L558 651.6L558 652.08L388.8 652.08z" stroke="none" fill="#000000" fill-rule="nonzero" /><path transform="matrix(1 0 0 -1 0 792)" d="M558 652.08L558.24 652.08L558.24 670.08L558 670.08z" stroke="none" fill="#000000" fill-rule="nonzero" /><path transform="matrix(1 0 0 -1 0 792)" d="M558 651.6L558.24 651.6L558.24 652.08L558 652.08z" stroke="none" fill="#000000" fill-rule="nonzero" /><path transform="matrix(1 0 0 -1 0 792)" d="M558 651.6L558.24 651.6L558.24 652.08L558 652.08z" stroke="none" fill="#000000" fill-rule="nonzero" /><g clip-path="url(#6)"><path transform="matrix(1 0 0 -1 0 792)" d="M106.32 616.32L558.72 616.32L558.72 638.3999L106.32 638.3999z" stroke="none" fill="#B2B2B2" fill-rule="nonzero" /></g><path transform="matrix(1 0 0 -1 0 792)" d="M111.12 616.32L553.92 616.32L553.92 638.3999L111.12 638.3999z" stroke="none" fill="#B2B2B2" fill-rule="nonzero" /><path transform="matrix(1 0 0 -1 0 792)" d="M106.08 638.4L106.56 638.4L106.56 638.88L106.08 638.88z" stroke="none" fill="#000000" fill-rule="nonzero" /><path transform="matrix(1 0 0 -1 0 792)" d="M106.08 638.4L106.56 638.4L106.56 638.88L106.08 638.88z" stroke="none" fill="#000000" fill-rule="nonzero" /><path transform="matrix(1 0 0 -1 0 792)" d="M106.56 638.4L558.72 638.4L558.72 638.88L106.56 638.88z" stroke="none" fill="#000000" fill-rule="nonzero" /><path transform="matrix(1 0 0 -1 0 792)" d="M558.72 638.4L559.2 638.4L559.2 638.88L558.72 638.88z" stroke="none" fill="#000000" fill-rule="nonzero" /><path transform="matrix(1 0 0 -1 0 792)" d="M558.72 638.4L559.2 638.4L559.2 638.88L558.72 638.88z" stroke="none" fill="#000000" fill-rule="nonzero" /><path transform="matrix(1 0 0 -1 0 792)" d="M106.08 616.32L106.56 616.32L106.56 638.3999L106.08 638.3999z" stroke="none" fill="#000000" fill-rule="nonzero" /><path transform="matrix(1 0 0 -1 0 792)" d="M558.72 616.32L559.2 616.32L559.2 638.3999L558.72 638.3999z" stroke="none" fill="#000000" fill-rule="nonzero" /><g clip-path="url(#7)"><path transform="matrix(1 0 0 -1 0 792)" d="M106.32 582L258 582L258 615.84L106.32 615.84z" stroke="none" fill="#E0E0E0" fill-rule="nonzero" /></g><path transform="matrix(1 0 0 -1 0 792)" d="M111.12 590.16L253.2 590.16L253.2 607.68L111.12 607.68z" stroke="none" fill="#E0E0E0" fill-rule="nonzero" /><g clip-path="url(#8)"><path transform="matrix(1 0 0 -1 0 792)" d="M258.48 582L558.72 582L558.72 615.84L258.48 615.84z" stroke="none" fill="#E0E0E0" fill-rule="nonzero" /></g><path transform="matrix(1 0 0 -1 0 792)" d="M263.28 590.16L553.92 590.16L553.92 607.68L263.28 607.68z" stroke="none" fill="#E0E0E0" fill-rule="nonzero" /><path transform="matrix(1 0 0 -1 0 792)" d="M106.08 615.84L106.56 615.84L106.56 616.32L106.08 616.32z" stroke="none" fill="#000000" fill-rule="nonzero" /><path transform="matrix(1 0 0 -1 0 792)" d="M106.56 615.84L258 615.84L258 616.32L106.56 616.32z" stroke="none" fill="#000000" fill-rule="nonzero" /><path transform="matrix(1 0 0 -1 0 792)" d="M258 615.84L258.48 615.84L258.48 616.32L258 616.32z" stroke="none" fill="#000000" fill-rule="nonzero" /><path transform="matrix(1 0 0 -1 0 792)" d="M258.48 615.84L558.72 615.84L558.72 616.32L258.48 616.32z" stroke="none" fill="#000000" fill-rule="nonzero" /><path transform="matrix(1 0 0 -1 0 792)" d="M558.72 615.84L559.2 615.84L559.2 616.32L558.72 616.32z" stroke="none" fill="#000000" fill-rule="nonzero" /><path transform="matrix(1 0 0 -1 0 792)" d="M106.08 582L106.56 582L106.56 615.84L106.08 615.84z" stroke="none" fill="#000000" fill-rule="nonzero" /><path transform="matrix(1 0 0 -1 0 792)" d="M258 582L258.48 582L258.48 615.84L258 615.84z" stroke="none" fill="#000000" fill-rule="nonzero" /><path transform="matrix(1 0 0 -1 0 792)" d="M558.72 582L559.2 582L559.2 615.84L558.72 615.84z" stroke="none" fill="#000000" fill-rule="nonzero" /><path transform="matrix(1 0 0 -1 0 792)" d="M106.08 581.52L106.56 581.52L106.56 582L106.08 582z" stroke="none" fill="#000000" fill-rule="nonzero" /><path transform="matrix(1 0 0 -1 0 792)" d="M106.56 581.52L258 581.52L258 582L106.56 582z" stroke="none" fill="#000000" fill-rule="nonzero" /><path transform="matrix(1 0 0 -1 0 792)" d="M258 581.52L258.48 581.52L258.48 582L258 582z" stroke="none" fill="#000000" fill-rule="nonzero" /><path transform="matrix(1 0 0 -1 0 792)" d="M258.48 581.52L558.72 581.52L558.72 582L258.48 582z" stroke="none" fill="#000000" fill-rule="nonzero" /><path transform="matrix(1 0 0 -1 0 792)" d="M558.72 581.52L559.2 581.52L559.2 582L558.72 582z" stroke="none" fill="#000000" fill-rule="nonzero" /><path transform="matrix(1 0 0 -1 0 792)" d="M106.08 563.04L106.56 563.04L106.56 581.52L106.08 581.52z" stroke="none" fill="#000000" fill-rule="nonzero" /><path transform="matrix(1 0 0 -1 0 792)" d="M558.72 563.04L559.2 563.04L559.2 581.52L558.72 581.52z" stroke="none" fill="#000000" fill-rule="nonzero" /><g clip-path="url(#9)"><path transform="matrix(1 0 0 -1 0 792)" d="M106.32 540.96L558.72 540.96L558.72 562.56L106.32 562.56z" stroke="none" fill="#CCCCCC" fill-rule="nonzero" /></g><path transform="matrix(1 0 0 -1 0 792)" d="M111.12 542.88L553.92 542.88L553.92 560.64L111.12 560.64z" stroke="none" fill="#CCCCCC" fill-rule="nonzero" /><path transform="matrix(1 0 0 -1 0 792)" d="M106.08 562.56L106.56 562.56L106.56 563.04L106.08 563.04z" stroke="none" fill="#000000" fill-rule="nonzero" /><path transform="matrix(1 0 0 -1 0 792)" d="M106.56 562.56L558.72 562.56L558.72 563.04L106.56 563.04z" stroke="none" fill="#000000" fill-rule="nonzero" /><path transform="matrix(1 0 0 -1 0 792)" d="M558.72 562.56L559.2 562.56L559.2 563.04L558.72 563.04z" stroke="none" fill="#000000" fill-rule="nonzero" /><path transform="matrix(1 0 0 -1 0 792)" d="M106.08 540.96L106.56 540.96L106.56 562.56L106.08 562.56z" stroke="none" fill="#000000" fill-rule="nonzero" /><path transform="matrix(1 0 0 -1 0 792)" d="M558.72 540.96L559.2 540.96L559.2 562.56L558.72 562.56z" stroke="none" fill="#000000" fill-rule="nonzero" /><g clip-path="url(#10)"><path transform="matrix(1 0 0 -1 0 792)" d="M106.32 495.6L158.16 495.6L158.16 540.48L106.32 540.48z" stroke="none" fill="#E6E6E6" fill-rule="nonzero" /></g><path transform="matrix(1 0 0 -1 0 792)" d="M111.12 515.76L153.12 515.76L153.12 533.28L111.12 533.28z" stroke="none" fill="#E6E6E6" fill-rule="nonzero" /><path transform="matrix(1 0 0 -1 0 792)" d="M111.12 502.8L153.12 502.8L153.12 515.76L111.12 515.76z" stroke="none" fill="#E6E6E6" fill-rule="nonzero" /><g clip-path="url(#11)"></g><g clip-path="url(#12)"><path transform="matrix(1 0 0 -1 0 792)" d="M158.64 495.6L311.28 495.6L311.28 540.48L158.64 540.48z" stroke="none" fill="#E6E6E6" fill-rule="nonzero" /></g><path transform="matrix(1 0 0 -1 0 792)" d="M163.2 509.04L306.48 509.04L306.48 527.04L163.2 527.04z" stroke="none" fill="#E6E6E6" fill-rule="nonzero" /><g clip-path="url(#13)"><path transform="matrix(1 0 0 -1 0 792)" d="M311.76 495.6L444.72 495.6L444.72 540.48L311.76 540.48z" stroke="none" fill="#E6E6E6" fill-rule="nonzero" /></g><path transform="matrix(1 0 0 -1 0 792)" d="M316.8 522.96L439.68 522.96L439.68 540.48L316.8 540.48z" stroke="none" fill="#E6E6E6" fill-rule="nonzero" /><path transform="matrix(1 0 0 -1 0 792)" d="M316.8 506.4L439.68 506.4L439.68 522.96L316.8 522.96z" stroke="none" fill="#E6E6E6" fill-rule="nonzero" /><path transform="matrix(1 0 0 -1 0 792)" d="M316.8 495.6L439.68 495.6L439.68 506.4L316.8 506.4z" stroke="none" fill="#E6E6E6" fill-rule="nonzero" /><g clip-path="url(#14)"><path transform="matrix(1 0 0 -1 0 792)" d="M445.2 495.6L558.72 495.6L558.72 540.48L445.2 540.48z" stroke="none" fill="#E6E6E6" fill-rule="nonzero" /></g><path transform="matrix(1 0 0 -1 0 792)" d="M449.76 509.04L553.92 509.04L553.92 527.04L449.76 527.04z" stroke="none" fill="#E6E6E6" fill-rule="nonzero" /><path transform="matrix(1 0 0 -1 0 792)" d="M106.08 540.48L106.56 540.48L106.56 540.96L106.08 540.96z" stroke="none" fill="#000000" fill-rule="nonzero" /><path transform="matrix(1 0 0 -1 0 792)" d="M106.56 540.48L158.16 540.48L158.16 540.96L106.56 540.96z" stroke="none" fill="#000000" fill-rule="nonzero" /><path transform="matrix(1 0 0 -1 0 792)" d="M158.16 540.48L158.64 540.48L158.64 540.96L158.16 540.96z" stroke="none" fill="#000000" fill-rule="nonzero" /><path transform="matrix(1 0 0 -1 0 792)" d="M158.64 540.48L311.52 540.48L311.52 540.96L158.64 540.96z" stroke="none" fill="#000000" fill-rule="nonzero" /><path transform="matrix(1 0 0 -1 0 792)" d="M311.52 540.48L312 540.48L312 540.96L311.52 540.96z" stroke="none" fill="#000000" fill-rule="nonzero" /><path transform="matrix(1 0 0 -1 0 792)" d="M312 540.48L444.72 540.48L444.72 540.96L312 540.96z" stroke="none" fill="#000000" fill-rule="nonzero" /><path transform="matrix(1 0 0 -1 0 792)" d="M444.72 540.48L445.2 540.48L445.2 540.96L444.72 540.96z" stroke="none" fill="#000000" fill-rule="nonzero" /><path transform="matrix(1 0 0 -1 0 792)" d="M445.2 540.48L558.72 540.48L558.72 540.96L445.2 540.96z" stroke="none" fill="#000000" fill-rule="nonzero" /><path transform="matrix(1 0 0 -1 0 792)" d="M558.72 540.48L559.2 540.48L559.2 540.96L558.72 540.96z" stroke="none" fill="#000000" fill-rule="nonzero" /><path transform="matrix(1 0 0 -1 0 792)" d="M106.08 495.6L106.56 495.6L106.56 540.48L106.08 540.48z" stroke="none" fill="#000000" fill-rule="nonzero" /><path transform="matrix(1 0 0 -1 0 792)" d="M158.16 495.6L158.64 495.6L158.64 540.48L158.16 540.48z" stroke="none" fill="#000000" fill-rule="nonzero" /><path transform="matrix(1 0 0 -1 0 792)" d="M311.52 495.6L312 495.6L312 540.48L311.52 540.48z" stroke="none" fill="#000000" fill-rule="nonzero" /><path transform="matrix(1 0 0 -1 0 792)" d="M444.72 495.6L445.2 495.6L445.2 540.48L444.72 540.48z" stroke="none" fill="#000000" fill-rule="nonzero" /><path transform="matrix(1 0 0 -1 0 792)" d="M558.72 495.6L559.2 495.6L559.2 540.48L558.72 540.48z" stroke="none" fill="#000000" fill-rule="nonzero" /><path transform="matrix(1 0 0 -1 0 792)" d="M106.08 495.12L106.56 495.12L106.56 495.6L106.08 495.6z" stroke="none" fill="#000000" fill-rule="nonzero" /><path transform="matrix(1 0 0 -1 0 792)" d="M106.56 495.12L158.16 495.12L158.16 495.6L106.56 495.6z" stroke="none" fill="#000000" fill-rule="nonzero" /><path transform="matrix(1 0 0 -1 0 792)" d="M158.16 495.12L158.64 495.12L158.64 495.6L158.16 495.6z" stroke="none" fill="#000000" fill-rule="nonzero" /><path transform="matrix(1 0 0 -1 0 792)" d="M158.64 495.12L159.84 495.12L159.84 495.6L158.64 495.6z" stroke="none" fill="#000000" fill-rule="nonzero" /><path transform="matrix(1 0 0 -1 0 792)" d="M159.84 495.12L160.32 495.12L160.32 495.6L159.84 495.6z" stroke="none" fill="#000000" fill-rule="nonzero" /><path transform="matrix(1 0 0 -1 0 792)" d="M160.32 495.12L311.52 495.12L311.52 495.6L160.32 495.6z" stroke="none" fill="#000000" fill-rule="nonzero" /><path transform="matrix(1 0 0 -1 0 792)" d="M311.52 495.12L312 495.12L312 495.6L311.52 495.6z" stroke="none" fill="#000000" fill-rule="nonzero" /><path transform="matrix(1 0 0 -1 0 792)" d="M312 495.12L312.24 495.12L312.24 495.6L312 495.6z" stroke="none" fill="#000000" fill-rule="nonzero" /><path transform="matrix(1 0 0 -1 0 792)" d="M312.24 495.12L312.72 495.12L312.72 495.6L312.24 495.6z" stroke="none" fill="#000000" fill-rule="nonzero" /><path transform="matrix(1 0 0 -1 0 792)" d="M312.72 495.12L444.72 495.12L444.72 495.6L312.72 495.6z" stroke="none" fill="#000000" fill-rule="nonzero" /><path transform="matrix(1 0 0 -1 0 792)" d="M444.72 495.12L445.2 495.12L445.2 495.6L444.72 495.6z" stroke="none" fill="#000000" fill-rule="nonzero" /><path transform="matrix(1 0 0 -1 0 792)" d="M445.2 495.12L445.44 495.12L445.44 495.6L445.2 495.6z" stroke="none" fill="#000000" fill-rule="nonzero" /><path transform="matrix(1 0 0 -1 0 792)" d="M445.44 495.12L445.92 495.12L445.92 495.6L445.44 495.6z" stroke="none" fill="#000000" fill-rule="nonzero" /><path transform="matrix(1 0 0 -1 0 792)" d="M445.92 495.12L558.72 495.12L558.72 495.6L445.92 495.6z" stroke="none" fill="#000000" fill-rule="nonzero" /><path transform="matrix(1 0 0 -1 0 792)" d="M558.72 495.12L559.2 495.12L559.2 495.6L558.72 495.6z" stroke="none" fill="#000000" fill-rule="nonzero" /><path transform="matrix(1 0 0 -1 0 792)" d="M106.08 477.36L106.56 477.36L106.56 495.12L106.08 495.12z" stroke="none" fill="#000000" fill-rule="nonzero" /><path transform="matrix(1 0 0 -1 0 792)" d="M159.84 477.36L160.32 477.36L160.32 495.12L159.84 495.12z" stroke="none" fill="#000000" fill-rule="nonzero" /><path transform="matrix(1 0 0 -1 0 792)" d="M312.24 477.36L312.72 477.36L312.72 495.12L312.24 495.12z" stroke="none" fill="#000000" fill-rule="nonzero" /><path transform="matrix(1 0 0 -1 0 792)" d="M445.44 477.36L445.92 477.36L445.92 495.12L445.44 495.12z" stroke="none" fill="#000000" fill-rule="nonzero" /><path transform="matrix(1 0 0 -1 0 792)" d="M558.72 477.36L559.2 477.36L559.2 495.12L558.72 495.12z" stroke="none" fill="#000000" fill-rule="nonzero" /><g clip-path="url(#15)"></g><g clip-path="url(#16)"></g><g clip-path="url(#17)"></g><g clip-path="url(#18)"></g><path transform="matrix(1 0 0 -1 0 792)" d="M106.08 476.88L106.56 476.88L106.56 477.36L106.08 477.36z" stroke="none" fill="#000000" fill-rule="nonzero" /><path transform="matrix(1 0 0 -1 0 792)" d="M106.56 476.88L159.84 476.88L159.84 477.36L106.56 477.36z" stroke="none" fill="#000000" fill-rule="nonzero" /><path transform="matrix(1 0 0 -1 0 792)" d="M159.84 476.88L160.32 476.88L160.32 477.36L159.84 477.36z" stroke="none" fill="#000000" fill-rule="nonzero" /><path transform="matrix(1 0 0 -1 0 792)" d="M160.32 476.88L312.24 476.88L312.24 477.36L160.32 477.36z" stroke="none" fill="#000000" fill-rule="nonzero" /><path transform="matrix(1 0 0 -1 0 792)" d="M312.24 476.88L312.72 476.88L312.72 477.36L312.24 477.36z" stroke="none" fill="#000000" fill-rule="nonzero" /><path transform="matrix(1 0 0 -1 0 792)" d="M312.72 476.88L445.44 476.88L445.44 477.36L312.72 477.36z" stroke="none" fill="#000000" fill-rule="nonzero" /><path transform="matrix(1 0 0 -1 0 792)" d="M445.44 476.88L445.92 476.88L445.92 477.36L445.44 477.36z" stroke="none" fill="#000000" fill-rule="nonzero" /><path transform="matrix(1 0 0 -1 0 792)" d="M445.92 476.88L558.72 476.88L558.72 477.36L445.92 477.36z" stroke="none" fill="#000000" fill-rule="nonzero" /><path transform="matrix(1 0 0 -1 0 792)" d="M558.72 476.88L559.2 476.88L559.2 477.36L558.72 477.36z" stroke="none" fill="#000000" fill-rule="nonzero" /><path transform="matrix(1 0 0 -1 0 792)" d="M106.08 459.36L106.56 459.36L106.56 476.88L106.08 476.88z" stroke="none" fill="#000000" fill-rule="nonzero" /><path transform="matrix(1 0 0 -1 0 792)" d="M159.84 459.36L160.32 459.36L160.32 476.88L159.84 476.88z" stroke="none" fill="#000000" fill-rule="nonzero" /><path transform="matrix(1 0 0 -1 0 792)" d="M312.24 459.36L312.72 459.36L312.72 476.88L312.24 476.88z" stroke="none" fill="#000000" fill-rule="nonzero" /><path transform="matrix(1 0 0 -1 0 792)" d="M445.44 459.36L445.92 459.36L445.92 476.88L445.44 476.88z" stroke="none" fill="#000000" fill-rule="nonzero" /><path transform="matrix(1 0 0 -1 0 792)" d="M558.72 459.36L559.2 459.36L559.2 476.88L558.72 476.88z" stroke="none" fill="#000000" fill-rule="nonzero" /><path transform="matrix(1 0 0 -1 0 792)" d="M106.08 458.88L106.56 458.88L106.56 459.36L106.08 459.36z" stroke="none" fill="#000000" fill-rule="nonzero" /><path transform="matrix(1 0 0 -1 0 792)" d="M106.56 458.88L159.84 458.88L159.84 459.36L106.56 459.36z" stroke="none" fill="#000000" fill-rule="nonzero" /><path transform="matrix(1 0 0 -1 0 792)" d="M159.84 458.88L160.32 458.88L160.32 459.36L159.84 459.36z" stroke="none" fill="#000000" fill-rule="nonzero" /><path transform="matrix(1 0 0 -1 0 792)" d="M160.32 458.88L312.24 458.88L312.24 459.36L160.32 459.36z" stroke="none" fill="#000000" fill-rule="nonzero" /><path transform="matrix(1 0 0 -1 0 792)" d="M312.24 458.88L312.72 458.88L312.72 459.36L312.24 459.36z" stroke="none" fill="#000000" fill-rule="nonzero" /><path transform="matrix(1 0 0 -1 0 792)" d="M312.72 458.88L445.44 458.88L445.44 459.36L312.72 459.36z" stroke="none" fill="#000000" fill-rule="nonzero" /><path transform="matrix(1 0 0 -1 0 792)" d="M445.44 458.88L445.92 458.88L445.92 459.36L445.44 459.36z" stroke="none" fill="#000000" fill-rule="nonzero" /><path transform="matrix(1 0 0 -1 0 792)" d="M445.92 458.88L558.72 458.88L558.72 459.36L445.92 459.36z" stroke="none" fill="#000000" fill-rule="nonzero" /><path transform="matrix(1 0 0 -1 0 792)" d="M558.72 458.88L559.2 458.88L559.2 459.36L558.72 459.36z" stroke="none" fill="#000000" fill-rule="nonzero" /><path transform="matrix(1 0 0 -1 0 792)" d="M106.08 441.12L106.56 441.12L106.56 458.88L106.08 458.88z" stroke="none" fill="#000000" fill-rule="nonzero" /><path transform="matrix(1 0 0 -1 0 792)" d="M159.84 441.12L160.32 441.12L160.32 458.88L159.84 458.88z" stroke="none" fill="#000000" fill-rule="nonzero" /><path transform="matrix(1 0 0 -1 0 792)" d="M312.24 441.12L312.72 441.12L312.72 458.88L312.24 458.88z" stroke="none" fill="#000000" fill-rule="nonzero" /><path transform="matrix(1 0 0 -1 0 792)" d="M445.44 441.12L445.92 441.12L445.92 458.88L445.44 458.88z" stroke="none" fill="#000000" fill-rule="nonzero" /><path transform="matrix(1 0 0 -1 0 792)" d="M558.72 441.12L559.2 441.12L559.2 458.88L558.72 458.88z" stroke="none" fill="#000000" fill-rule="nonzero" /><path transform="matrix(1 0 0 -1 0 792)" d="M106.08 440.64L106.56 440.64L106.56 441.12L106.08 441.12z" stroke="none" fill="#000000" fill-rule="nonzero" /><path transform="matrix(1 0 0 -1 0 792)" d="M106.56 440.64L159.84 440.64L159.84 441.12L106.56 441.12z" stroke="none" fill="#000000" fill-rule="nonzero" /><path transform="matrix(1 0 0 -1 0 792)" d="M159.84 440.64L160.32 440.64L160.32 441.12L159.84 441.12z" stroke="none" fill="#000000" fill-rule="nonzero" /><path transform="matrix(1 0 0 -1 0 792)" d="M160.32 440.64L312.24 440.64L312.24 441.12L160.32 441.12z" stroke="none" fill="#000000" fill-rule="nonzero" /><path transform="matrix(1 0 0 -1 0 792)" d="M312.24 440.64L312.72 440.64L312.72 441.12L312.24 441.12z" stroke="none" fill="#000000" fill-rule="nonzero" /><path transform="matrix(1 0 0 -1 0 792)" d="M312.72 440.64L445.44 440.64L445.44 441.12L312.72 441.12z" stroke="none" fill="#000000" fill-rule="nonzero" /><path transform="matrix(1 0 0 -1 0 792)" d="M445.44 440.64L445.92 440.64L445.92 441.12L445.44 441.12z" stroke="none" fill="#000000" fill-rule="nonzero" /><path transform="matrix(1 0 0 -1 0 792)" d="M445.92 440.64L558.72 440.64L558.72 441.12L445.92 441.12z" stroke="none" fill="#000000" fill-rule="nonzero" /><path transform="matrix(1 0 0 -1 0 792)" d="M558.72 440.64L559.2 440.64L559.2 441.12L558.72 441.12z" stroke="none" fill="#000000" fill-rule="nonzero" /><path transform="matrix(1 0 0 -1 0 792)" d="M106.08 422.88L106.56 422.88L106.56 440.64L106.08 440.64z" stroke="none" fill="#000000" fill-rule="nonzero" /><path transform="matrix(1 0 0 -1 0 792)" d="M159.84 422.88L160.32 422.88L160.32 440.64L159.84 440.64z" stroke="none" fill="#000000" fill-rule="nonzero" /><path transform="matrix(1 0 0 -1 0 792)" d="M312.24 422.88L312.72 422.88L312.72 440.64L312.24 440.64z" stroke="none" fill="#000000" fill-rule="nonzero" /><path transform="matrix(1 0 0 -1 0 792)" d="M445.44 422.88L445.92 422.88L445.92 440.64L445.44 440.64z" stroke="none" fill="#000000" fill-rule="nonzero" /><path transform="matrix(1 0 0 -1 0 792)" d="M558.72 422.88L559.2 422.88L559.2 440.64L558.72 440.64z" stroke="none" fill="#000000" fill-rule="nonzero" /><g clip-path="url(#19)"></g><g clip-path="url(#20)"></g><g clip-path="url(#21)"></g><g clip-path="url(#22)"></g><path transform="matrix(1 0 0 -1 0 792)" d="M106.08 422.4L106.56 422.4L106.56 422.88L106.08 422.88z" stroke="none" fill="#000000" fill-rule="nonzero" /><path transform="matrix(1 0 0 -1 0 792)" d="M106.56 422.4L159.84 422.4L159.84 422.88L106.56 422.88z" stroke="none" fill="#000000" fill-rule="nonzero" /><path transform="matrix(1 0 0 -1 0 792)" d="M159.84 422.4L160.32 422.4L160.32 422.88L159.84 422.88z" stroke="none" fill="#000000" fill-rule="nonzero" /><path transform="matrix(1 0 0 -1 0 792)" d="M160.32 422.4L312.24 422.4L312.24 422.88L160.32 422.88z" stroke="none" fill="#000000" fill-rule="nonzero" /><path transform="matrix(1 0 0 -1 0 792)" d="M312.24 422.4L312.72 422.4L312.72 422.88L312.24 422.88z" stroke="none" fill="#000000" fill-rule="nonzero" /><path transform="matrix(1 0 0 -1 0 792)" d="M312.72 422.4L445.44 422.4L445.44 422.88L312.72 422.88z" stroke="none" fill="#000000" fill-rule="nonzero" /><path transform="matrix(1 0 0 -1 0 792)" d="M445.44 422.4L445.92 422.4L445.92 422.88L445.44 422.88z" stroke="none" fill="#000000" fill-rule="nonzero" /><path transform="matrix(1 0 0 -1 0 792)" d="M445.92 422.4L558.72 422.4L558.72 422.88L445.92 422.88z" stroke="none" fill="#000000" fill-rule="nonzero" /><path transform="matrix(1 0 0 -1 0 792)" d="M558.72 422.4L559.2 422.4L559.2 422.88L558.72 422.88z" stroke="none" fill="#000000" fill-rule="nonzero" /><path transform="matrix(1 0 0 -1 0 792)" d="M106.08 404.88L106.56 404.88L106.56 422.4L106.08 422.4z" stroke="none" fill="#000000" fill-rule="nonzero" /><path transform="matrix(1 0 0 -1 0 792)" d="M159.84 404.88L160.32 404.88L160.32 422.4L159.84 422.4z" stroke="none" fill="#000000" fill-rule="nonzero" /><path transform="matrix(1 0 0 -1 0 792)" d="M312.24 404.88L312.72 404.88L312.72 422.4L312.24 422.4z" stroke="none" fill="#000000" fill-rule="nonzero" /><path transform="matrix(1 0 0 -1 0 792)" d="M445.44 404.88L445.92 404.88L445.92 422.4L445.44 422.4z" stroke="none" fill="#000000" fill-rule="nonzero" /><path transform="matrix(1 0 0 -1 0 792)" d="M558.72 404.88L559.2 404.88L559.2 422.4L558.72 422.4z" stroke="none" fill="#000000" fill-rule="nonzero" /><path transform="matrix(1 0 0 -1 0 792)" d="M106.08 404.4L106.56 404.4L106.56 404.88L106.08 404.88z" stroke="none" fill="#000000" fill-rule="nonzero" /><path transform="matrix(1 0 0 -1 0 792)" d="M106.56 404.4L159.84 404.4L159.84 404.88L106.56 404.88z" stroke="none" fill="#000000" fill-rule="nonzero" /><path transform="matrix(1 0 0 -1 0 792)" d="M159.84 404.4L160.32 404.4L160.32 404.88L159.84 404.88z" stroke="none" fill="#000000" fill-rule="nonzero" /><path transform="matrix(1 0 0 -1 0 792)" d="M160.32 404.4L312.24 404.4L312.24 404.88L160.32 404.88z" stroke="none" fill="#000000" fill-rule="nonzero" /><path transform="matrix(1 0 0 -1 0 792)" d="M312.24 404.4L312.72 404.4L312.72 404.88L312.24 404.88z" stroke="none" fill="#000000" fill-rule="nonzero" /><path transform="matrix(1 0 0 -1 0 792)" d="M312.72 404.4L445.44 404.4L445.44 404.88L312.72 404.88z" stroke="none" fill="#000000" fill-rule="nonzero" /><path transform="matrix(1 0 0 -1 0 792)" d="M445.44 404.4L445.92 404.4L445.92 404.88L445.44 404.88z" stroke="none" fill="#000000" fill-rule="nonzero" /><path transform="matrix(1 0 0 -1 0 792)" d="M445.92 404.4L558.72 404.4L558.72 404.88L445.92 404.88z" stroke="none" fill="#000000" fill-rule="nonzero" /><path transform="matrix(1 0 0 -1 0 792)" d="M558.72 404.4L559.2 404.4L559.2 404.88L558.72 404.88z" stroke="none" fill="#000000" fill-rule="nonzero" /><path transform="matrix(1 0 0 -1 0 792)" d="M106.08 386.64L106.56 386.64L106.56 404.4L106.08 404.4z" stroke="none" fill="#000000" fill-rule="nonzero" /><path transform="matrix(1 0 0 -1 0 792)" d="M159.84 386.64L160.32 386.64L160.32 404.4L159.84 404.4z" stroke="none" fill="#000000" fill-rule="nonzero" /><path transform="matrix(1 0 0 -1 0 792)" d="M312.24 386.64L312.72 386.64L312.72 404.4L312.24 404.4z" stroke="none" fill="#000000" fill-rule="nonzero" /><path transform="matrix(1 0 0 -1 0 792)" d="M445.44 386.64L445.92 386.64L445.92 404.4L445.44 404.4z" stroke="none" fill="#000000" fill-rule="nonzero" /><path transform="matrix(1 0 0 -1 0 792)" d="M558.72 386.64L559.2 386.64L559.2 404.4L558.72 404.4z" stroke="none" fill="#000000" fill-rule="nonzero" /><g clip-path="url(#23)"></g><g clip-path="url(#24)"></g><g clip-path="url(#25)"></g><g clip-path="url(#26)"></g><path transform="matrix(1 0 0 -1 0 792)" d="M106.08 386.16L106.56 386.16L106.56 386.64L106.08 386.64z" stroke="none" fill="#000000" fill-rule="nonzero" /><path transform="matrix(1 0 0 -1 0 792)" d="M106.56 386.16L159.84 386.16L159.84 386.64L106.56 386.64z" stroke="none" fill="#000000" fill-rule="nonzero" /><path transform="matrix(1 0 0 -1 0 792)" d="M159.84 386.16L160.32 386.16L160.32 386.64L159.84 386.64z" stroke="none" fill="#000000" fill-rule="nonzero" /><path transform="matrix(1 0 0 -1 0 792)" d="M160.32 386.16L312.24 386.16L312.24 386.64L160.32 386.64z" stroke="none" fill="#000000" fill-rule="nonzero" /><path transform="matrix(1 0 0 -1 0 792)" d="M312.24 386.16L312.72 386.16L312.72 386.64L312.24 386.64z" stroke="none" fill="#000000" fill-rule="nonzero" /><path transform="matrix(1 0 0 -1 0 792)" d="M312.72 386.16L445.44 386.16L445.44 386.64L312.72 386.64z" stroke="none" fill="#000000" fill-rule="nonzero" /><path transform="matrix(1 0 0 -1 0 792)" d="M445.44 386.16L445.92 386.16L445.92 386.64L445.44 386.64z" stroke="none" fill="#000000" fill-rule="nonzero" /><path transform="matrix(1 0 0 -1 0 792)" d="M445.92 386.16L558.72 386.16L558.72 386.64L445.92 386.64z" stroke="none" fill="#000000" fill-rule="nonzero" /><path transform="matrix(1 0 0 -1 0 792)" d="M558.72 386.16L559.2 386.16L559.2 386.64L558.72 386.64z" stroke="none" fill="#000000" fill-rule="nonzero" /><path transform="matrix(1 0 0 -1 0 792)" d="M106.08 368.64L106.56 368.64L106.56 386.16L106.08 386.16z" stroke="none" fill="#000000" fill-rule="nonzero" /><path transform="matrix(1 0 0 -1 0 792)" d="M159.84 368.64L160.32 368.64L160.32 386.16L159.84 386.16z" stroke="none" fill="#000000" fill-rule="nonzero" /><path transform="matrix(1 0 0 -1 0 792)" d="M312.24 368.64L312.72 368.64L312.72 386.16L312.24 386.16z" stroke="none" fill="#000000" fill-rule="nonzero" /><path transform="matrix(1 0 0 -1 0 792)" d="M445.44 368.64L445.92 368.64L445.92 386.16L445.44 386.16z" stroke="none" fill="#000000" fill-rule="nonzero" /><path transform="matrix(1 0 0 -1 0 792)" d="M558.72 368.64L559.2 368.64L559.2 386.16L558.72 386.16z" stroke="none" fill="#000000" fill-rule="nonzero" /><path transform="matrix(1 0 0 -1 0 792)" d="M106.08 368.16L106.56 368.16L106.56 368.64L106.08 368.64z" stroke="none" fill="#000000" fill-rule="nonzero" /><path transform="matrix(1 0 0 -1 0 792)" d="M106.56 368.16L159.84 368.16L159.84 368.64L106.56 368.64z" stroke="none" fill="#000000" fill-rule="nonzero" /><path transform="matrix(1 0 0 -1 0 792)" d="M159.84 368.16L160.32 368.16L160.32 368.64L159.84 368.64z" stroke="none" fill="#000000" fill-rule="nonzero" /><path transform="matrix(1 0 0 -1 0 792)" d="M160.32 368.16L312.24 368.16L312.24 368.64L160.32 368.64z" stroke="none" fill="#000000" fill-rule="nonzero" /><path transform="matrix(1 0 0 -1 0 792)" d="M312.24 368.16L312.72 368.16L312.72 368.64L312.24 368.64z" stroke="none" fill="#000000" fill-rule="nonzero" /><path transform="matrix(1 0 0 -1 0 792)" d="M312.72 368.16L445.44 368.16L445.44 368.64L312.72 368.64z" stroke="none" fill="#000000" fill-rule="nonzero" /><path transform="matrix(1 0 0 -1 0 792)" d="M445.44 368.16L445.92 368.16L445.92 368.64L445.44 368.64z" stroke="none" fill="#000000" fill-rule="nonzero" /><path transform="matrix(1 0 0 -1 0 792)" d="M445.92 368.16L558.72 368.16L558.72 368.64L445.92 368.64z" stroke="none" fill="#000000" fill-rule="nonzero" /><path transform="matrix(1 0 0 -1 0 792)" d="M558.72 368.16L559.2 368.16L559.2 368.64L558.72 368.64z" stroke="none" fill="#000000" fill-rule="nonzero" /><path transform="matrix(1 0 0 -1 0 792)" d="M106.08 350.4L106.56 350.4L106.56 368.16L106.08 368.16z" stroke="none" fill="#000000" fill-rule="nonzero" /><path transform="matrix(1 0 0 -1 0 792)" d="M159.84 350.4L160.32 350.4L160.32 368.16L159.84 368.16z" stroke="none" fill="#000000" fill-rule="nonzero" /><path transform="matrix(1 0 0 -1 0 792)" d="M312.24 350.4L312.72 350.4L312.72 368.16L312.24 368.16z" stroke="none" fill="#000000" fill-rule="nonzero" /><path transform="matrix(1 0 0 -1 0 792)" d="M445.44 350.4L445.92 350.4L445.92 368.16L445.44 368.16z" stroke="none" fill="#000000" fill-rule="nonzero" /><path transform="matrix(1 0 0 -1 0 792)" d="M558.72 350.4L559.2 350.4L559.2 368.16L558.72 368.16z" stroke="none" fill="#000000" fill-rule="nonzero" /><path transform="matrix(1 0 0 -1 0 792)" d="M106.08 350.16L106.56 350.16L106.56 350.4L106.08 350.4z" stroke="none" fill="#000000" fill-rule="nonzero" /><path transform="matrix(1 0 0 -1 0 792)" d="M106.56 350.16L159.84 350.16L159.84 350.4L106.56 350.4z" stroke="none" fill="#000000" fill-rule="nonzero" /><path transform="matrix(1 0 0 -1 0 792)" d="M159.84 350.16L160.32 350.16L160.32 350.4L159.84 350.4z" stroke="none" fill="#000000" fill-rule="nonzero" /><path transform="matrix(1 0 0 -1 0 792)" d="M160.32 350.16L312.24 350.16L312.24 350.4L160.32 350.4z" stroke="none" fill="#000000" fill-rule="nonzero" /><path transform="matrix(1 0 0 -1 0 792)" d="M312.24 350.16L312.72 350.16L312.72 350.4L312.24 350.4z" stroke="none" fill="#000000" fill-rule="nonzero" /><path transform="matrix(1 0 0 -1 0 792)" d="M312.72 350.16L445.44 350.16L445.44 350.4L312.72 350.4z" stroke="none" fill="#000000" fill-rule="nonzero" /><path transform="matrix(1 0 0 -1 0 792)" d="M445.44 350.16L445.92 350.16L445.92 350.4L445.44 350.4z" stroke="none" fill="#000000" fill-rule="nonzero" /><path transform="matrix(1 0 0 -1 0 792)" d="M445.92 350.16L558.72 350.16L558.72 350.4L445.92 350.4z" stroke="none" fill="#000000" fill-rule="nonzero" /><path transform="matrix(1 0 0 -1 0 792)" d="M558.72 350.16L559.2 350.16L559.2 350.4L558.72 350.4z" stroke="none" fill="#000000" fill-rule="nonzero" /><path transform="matrix(1 0 0 -1 0 792)" d="M106.08 332.16L106.56 332.16L106.56 350.16L106.08 350.16z" stroke="none" fill="#000000" fill-rule="nonzero" /><path transform="matrix(1 0 0 -1 0 792)" d="M159.84 332.16L160.32 332.16L160.32 350.16L159.84 350.16z" stroke="none" fill="#000000" fill-rule="nonzero" /><path transform="matrix(1 0 0 -1 0 792)" d="M312.24 332.16L312.72 332.16L312.72 350.16L312.24 350.16z" stroke="none" fill="#000000" fill-rule="nonzero" /><path transform="matrix(1 0 0 -1 0 792)" d="M445.44 332.16L445.92 332.16L445.92 350.16L445.44 350.16z" stroke="none" fill="#000000" fill-rule="nonzero" /><path transform="matrix(1 0 0 -1 0 792)" d="M558.72 332.16L559.2 332.16L559.2 350.16L558.72 350.16z" stroke="none" fill="#000000" fill-rule="nonzero" /><g clip-path="url(#27)"><path transform="matrix(1 0 0 -1 0 792)" d="M106.32 310.08L558.72 310.08L558.72 331.68L106.32 331.68z" stroke="none" fill="#CCCCCC" fill-rule="nonzero" /></g><path transform="matrix(1 0 0 -1 0 792)" d="M111.12 312.24L553.92 312.24L553.92 329.76L111.12 329.76z" stroke="none" fill="#CCCCCC" fill-rule="nonzero" /><path transform="matrix(1 0 0 -1 0 792)" d="M106.08 331.68L106.56 331.68L106.56 332.16L106.08 332.16z" stroke="none" fill="#000000" fill-rule="nonzero" /><path transform="matrix(1 0 0 -1 0 792)" d="M106.56 331.68L159.84 331.68L159.84 332.16L106.56 332.16z" stroke="none" fill="#000000" fill-rule="nonzero" /><path transform="matrix(1 0 0 -1 0 792)" d="M159.84 331.68L160.32 331.68L160.32 332.16L159.84 332.16z" stroke="none" fill="#000000" fill-rule="nonzero" /><path transform="matrix(1 0 0 -1 0 792)" d="M160.32 331.68L312.24 331.68L312.24 332.16L160.32 332.16z" stroke="none" fill="#000000" fill-rule="nonzero" /><path transform="matrix(1 0 0 -1 0 792)" d="M312.24 331.68L312.72 331.68L312.72 332.16L312.24 332.16z" stroke="none" fill="#000000" fill-rule="nonzero" /><path transform="matrix(1 0 0 -1 0 792)" d="M312.72 331.68L445.44 331.68L445.44 332.16L312.72 332.16z" stroke="none" fill="#000000" fill-rule="nonzero" /><path transform="matrix(1 0 0 -1 0 792)" d="M445.44 331.68L445.92 331.68L445.92 332.16L445.44 332.16z" stroke="none" fill="#000000" fill-rule="nonzero" /><path transform="matrix(1 0 0 -1 0 792)" d="M445.92 331.68L558.72 331.68L558.72 332.16L445.92 332.16z" stroke="none" fill="#000000" fill-rule="nonzero" /><path transform="matrix(1 0 0 -1 0 792)" d="M558.72 331.68L559.2 331.68L559.2 332.16L558.72 332.16z" stroke="none" fill="#000000" fill-rule="nonzero" /><path transform="matrix(1 0 0 -1 0 792)" d="M106.08 310.08L106.56 310.08L106.56 331.68L106.08 331.68z" stroke="none" fill="#000000" fill-rule="nonzero" /><path transform="matrix(1 0 0 -1 0 792)" d="M558.72 310.08L559.2 310.08L559.2 331.68L558.72 331.68z" stroke="none" fill="#000000" fill-rule="nonzero" /><g clip-path="url(#28)"><path transform="matrix(1 0 0 -1 0 792)" d="M106.32 250.8L159.6 250.8L159.6 309.6L106.32 309.6z" stroke="none" fill="#E6E6E6" fill-rule="nonzero" /></g><path transform="matrix(1 0 0 -1 0 792)" d="M111.12 277.92L155.04 277.92L155.04 295.68L111.12 295.68z" stroke="none" fill="#E6E6E6" fill-rule="nonzero" /><path transform="matrix(1 0 0 -1 0 792)" d="M111.12 264.96L155.04 264.96L155.04 277.92L111.12 277.92z" stroke="none" fill="#E6E6E6" fill-rule="nonzero" /><g clip-path="url(#29)"><path transform="matrix(1 0 0 -1 0 792)" d="M160.08 250.8L371.28 250.8L371.28 309.6L160.08 309.6z" stroke="none" fill="#E6E6E6" fill-rule="nonzero" /></g><path transform="matrix(1 0 0 -1 0 792)" d="M165.12 271.44L366.24 271.44L366.24 289.2L165.12 289.2z" stroke="none" fill="#E6E6E6" fill-rule="nonzero" /><g clip-path="url(#30)"><path transform="matrix(1 0 0 -1 0 792)" d="M371.76 250.8L485.52 250.8L485.52 309.6L371.76 309.6z" stroke="none" fill="#E6E6E6" fill-rule="nonzero" /></g><path transform="matrix(1 0 0 -1 0 792)" d="M376.56 277.44L480.72 277.44L480.72 296.16L376.56 296.16z" stroke="none" fill="#E6E6E6" fill-rule="nonzero" /><path transform="matrix(1 0 0 -1 0 792)" d="M376.56 264.48L480.72 264.48L480.72 277.44L376.56 277.44z" stroke="none" fill="#E6E6E6" fill-rule="nonzero" /><g clip-path="url(#31)"><path transform="matrix(1 0 0 -1 0 792)" d="M486 250.8L558.72 250.8L558.72 309.6L486 309.6z" stroke="none" fill="#E6E6E6" fill-rule="nonzero" /></g><path transform="matrix(1 0 0 -1 0 792)" d="M490.8 291.12L553.92 291.12L553.92 309.6L490.8 309.6z" stroke="none" fill="#E6E6E6" fill-rule="nonzero" /><path transform="matrix(1 0 0 -1 0 792)" d="M490.8 278.16L553.92 278.16L553.92 291.12L490.8 291.12z" stroke="none" fill="#E6E6E6" fill-rule="nonzero" /><path transform="matrix(1 0 0 -1 0 792)" d="M490.8 261.6L553.92 261.6L553.92 278.16L490.8 278.16z" stroke="none" fill="#E6E6E6" fill-rule="nonzero" /><path transform="matrix(1 0 0 -1 0 792)" d="M490.8 250.8L553.92 250.8L553.92 261.6L490.8 261.6z" stroke="none" fill="#E6E6E6" fill-rule="nonzero" /><path transform="matrix(1 0 0 -1 0 792)" d="M106.08 309.6L106.56 309.6L106.56 310.08L106.08 310.08z" stroke="none" fill="#000000" fill-rule="nonzero" /><path transform="matrix(1 0 0 -1 0 792)" d="M106.56 309.6L159.84 309.6L159.84 310.08L106.56 310.08z" stroke="none" fill="#000000" fill-rule="nonzero" /><path transform="matrix(1 0 0 -1 0 792)" d="M159.84 309.6L160.32 309.6L160.32 310.08L159.84 310.08z" stroke="none" fill="#000000" fill-rule="nonzero" /><path transform="matrix(1 0 0 -1 0 792)" d="M160.32 309.6L371.28 309.6L371.28 310.08L160.32 310.08z" stroke="none" fill="#000000" fill-rule="nonzero" /><path transform="matrix(1 0 0 -1 0 792)" d="M371.28 309.6L371.76 309.6L371.76 310.08L371.28 310.08z" stroke="none" fill="#000000" fill-rule="nonzero" /><path transform="matrix(1 0 0 -1 0 792)" d="M371.76 309.6L485.76 309.6L485.76 310.08L371.76 310.08z" stroke="none" fill="#000000" fill-rule="nonzero" /><path transform="matrix(1 0 0 -1 0 792)" d="M485.76 309.6L486.24 309.6L486.24 310.08L485.76 310.08z" stroke="none" fill="#000000" fill-rule="nonzero" /><path transform="matrix(1 0 0 -1 0 792)" d="M486.24 309.6L558.72 309.6L558.72 310.08L486.24 310.08z" stroke="none" fill="#000000" fill-rule="nonzero" /><path transform="matrix(1 0 0 -1 0 792)" d="M558.72 309.6L559.2 309.6L559.2 310.08L558.72 310.08z" stroke="none" fill="#000000" fill-rule="nonzero" /><path transform="matrix(1 0 0 -1 0 792)" d="M106.08 250.8L106.56 250.8L106.56 309.6L106.08 309.6z" stroke="none" fill="#000000" fill-rule="nonzero" /><path transform="matrix(1 0 0 -1 0 792)" d="M159.84 250.8L160.32 250.8L160.32 309.6L159.84 309.6z" stroke="none" fill="#000000" fill-rule="nonzero" /><path transform="matrix(1 0 0 -1 0 792)" d="M371.28 250.8L371.76 250.8L371.76 309.6L371.28 309.6z" stroke="none" fill="#000000" fill-rule="nonzero" /><path transform="matrix(1 0 0 -1 0 792)" d="M485.76 250.8L486.24 250.8L486.24 309.6L485.76 309.6z" stroke="none" fill="#000000" fill-rule="nonzero" /><path transform="matrix(1 0 0 -1 0 792)" d="M558.72 250.8L559.2 250.8L559.2 309.6L558.72 309.6z" stroke="none" fill="#000000" fill-rule="nonzero" /><g clip-path="url(#32)"></g><g clip-path="url(#33)"></g><g clip-path="url(#34)"></g><g clip-path="url(#35)"></g><path transform="matrix(1 0 0 -1 0 792)" d="M106.08 250.32L106.56 250.32L106.56 250.8L106.08 250.8z" stroke="none" fill="#000000" fill-rule="nonzero" /><path transform="matrix(1 0 0 -1 0 792)" d="M106.56 250.32L159.84 250.32L159.84 250.8L106.56 250.8z" stroke="none" fill="#000000" fill-rule="nonzero" /><path transform="matrix(1 0 0 -1 0 792)" d="M159.84 250.32L160.32 250.32L160.32 250.8L159.84 250.8z" stroke="none" fill="#000000" fill-rule="nonzero" /><path transform="matrix(1 0 0 -1 0 792)" d="M160.32 250.32L371.28 250.32L371.28 250.8L160.32 250.8z" stroke="none" fill="#000000" fill-rule="nonzero" /><path transform="matrix(1 0 0 -1 0 792)" d="M371.28 250.32L371.76 250.32L371.76 250.8L371.28 250.8z" stroke="none" fill="#000000" fill-rule="nonzero" /><path transform="matrix(1 0 0 -1 0 792)" d="M371.76 250.32L485.76 250.32L485.76 250.8L371.76 250.8z" stroke="none" fill="#000000" fill-rule="nonzero" /><path transform="matrix(1 0 0 -1 0 792)" d="M485.76 250.32L486.24 250.32L486.24 250.8L485.76 250.8z" stroke="none" fill="#000000" fill-rule="nonzero" /><path transform="matrix(1 0 0 -1 0 792)" d="M486.24 250.32L558.72 250.32L558.72 250.8L486.24 250.8z" stroke="none" fill="#000000" fill-rule="nonzero" /><path transform="matrix(1 0 0 -1 0 792)" d="M558.72 250.32L559.2 250.32L559.2 250.8L558.72 250.8z" stroke="none" fill="#000000" fill-rule="nonzero" /><path transform="matrix(1 0 0 -1 0 792)" d="M106.08 232.8L106.56 232.8L106.56 250.32L106.08 250.32z" stroke="none" fill="#000000" fill-rule="nonzero" /><path transform="matrix(1 0 0 -1 0 792)" d="M159.84 232.8L160.32 232.8L160.32 250.32L159.84 250.32z" stroke="none" fill="#000000" fill-rule="nonzero" /><path transform="matrix(1 0 0 -1 0 792)" d="M371.28 232.8L371.76 232.8L371.76 250.32L371.28 250.32z" stroke="none" fill="#000000" fill-rule="nonzero" /><path transform="matrix(1 0 0 -1 0 792)" d="M485.76 232.8L486.24 232.8L486.24 250.32L485.76 250.32z" stroke="none" fill="#000000" fill-rule="nonzero" /><path transform="matrix(1 0 0 -1 0 792)" d="M558.72 232.8L559.2 232.8L559.2 250.32L558.72 250.32z" stroke="none" fill="#000000" fill-rule="nonzero" /><g clip-path="url(#36)"></g><g clip-path="url(#37)"></g><g clip-path="url(#38)"></g><g clip-path="url(#39)"></g><path transform="matrix(1 0 0 -1 0 792)" d="M106.08 232.32L106.56 232.32L106.56 232.8L106.08 232.8z" stroke="none" fill="#000000" fill-rule="nonzero" /><path transform="matrix(1 0 0 -1 0 792)" d="M106.56 232.32L159.84 232.32L159.84 232.8L106.56 232.8z" stroke="none" fill="#000000" fill-rule="nonzero" /><path transform="matrix(1 0 0 -1 0 792)" d="M159.84 232.32L160.32 232.32L160.32 232.8L159.84 232.8z" stroke="none" fill="#000000" fill-rule="nonzero" /><path transform="matrix(1 0 0 -1 0 792)" d="M160.32 232.32L371.28 232.32L371.28 232.8L160.32 232.8z" stroke="none" fill="#000000" fill-rule="nonzero" /><path transform="matrix(1 0 0 -1 0 792)" d="M371.28 232.32L371.76 232.32L371.76 232.8L371.28 232.8z" stroke="none" fill="#000000" fill-rule="nonzero" /><path transform="matrix(1 0 0 -1 0 792)" d="M371.76 232.32L485.76 232.32L485.76 232.8L371.76 232.8z" stroke="none" fill="#000000" fill-rule="nonzero" /><path transform="matrix(1 0 0 -1 0 792)" d="M485.76 232.32L486.24 232.32L486.24 232.8L485.76 232.8z" stroke="none" fill="#000000" fill-rule="nonzero" /><path transform="matrix(1 0 0 -1 0 792)" d="M486.24 232.32L558.72 232.32L558.72 232.8L486.24 232.8z" stroke="none" fill="#000000" fill-rule="nonzero" /><path transform="matrix(1 0 0 -1 0 792)" d="M558.72 232.32L559.2 232.32L559.2 232.8L558.72 232.8z" stroke="none" fill="#000000" fill-rule="nonzero" /><path transform="matrix(1 0 0 -1 0 792)" d="M106.08 214.8L106.56 214.8L106.56 232.32L106.08 232.32z" stroke="none" fill="#000000" fill-rule="nonzero" /><path transform="matrix(1 0 0 -1 0 792)" d="M159.84 214.8L160.32 214.8L160.32 232.32L159.84 232.32z" stroke="none" fill="#000000" fill-rule="nonzero" /><path transform="matrix(1 0 0 -1 0 792)" d="M371.28 214.8L371.76 214.8L371.76 232.32L371.28 232.32z" stroke="none" fill="#000000" fill-rule="nonzero" /><path transform="matrix(1 0 0 -1 0 792)" d="M485.76 214.8L486.24 214.8L486.24 232.32L485.76 232.32z" stroke="none" fill="#000000" fill-rule="nonzero" /><path transform="matrix(1 0 0 -1 0 792)" d="M558.72 214.8L559.2 214.8L559.2 232.32L558.72 232.32z" stroke="none" fill="#000000" fill-rule="nonzero" /><path transform="matrix(1 0 0 -1 0 792)" d="M106.08 214.32L106.56 214.32L106.56 214.8L106.08 214.8z" stroke="none" fill="#000000" fill-rule="nonzero" /><path transform="matrix(1 0 0 -1 0 792)" d="M106.56 214.32L159.84 214.32L159.84 214.8L106.56 214.8z" stroke="none" fill="#000000" fill-rule="nonzero" /><path transform="matrix(1 0 0 -1 0 792)" d="M159.84 214.32L160.32 214.32L160.32 214.8L159.84 214.8z" stroke="none" fill="#000000" fill-rule="nonzero" /><path transform="matrix(1 0 0 -1 0 792)" d="M160.32 214.32L371.28 214.32L371.28 214.8L160.32 214.8z" stroke="none" fill="#000000" fill-rule="nonzero" /><path transform="matrix(1 0 0 -1 0 792)" d="M371.28 214.32L371.76 214.32L371.76 214.8L371.28 214.8z" stroke="none" fill="#000000" fill-rule="nonzero" /><path transform="matrix(1 0 0 -1 0 792)" d="M371.76 214.32L485.76 214.32L485.76 214.8L371.76 214.8z" stroke="none" fill="#000000" fill-rule="nonzero" /><path transform="matrix(1 0 0 -1 0 792)" d="M485.76 214.32L486.24 214.32L486.24 214.8L485.76 214.8z" stroke="none" fill="#000000" fill-rule="nonzero" /><path transform="matrix(1 0 0 -1 0 792)" d="M486.24 214.32L558.72 214.32L558.72 214.8L486.24 214.8z" stroke="none" fill="#000000" fill-rule="nonzero" /><path transform="matrix(1 0 0 -1 0 792)" d="M558.72 214.32L559.2 214.32L559.2 214.8L558.72 214.8z" stroke="none" fill="#000000" fill-rule="nonzero" /><path transform="matrix(1 0 0 -1 0 792)" d="M106.08 196.32L106.56 196.32L106.56 214.32L106.08 214.32z" stroke="none" fill="#000000" fill-rule="nonzero" /><path transform="matrix(1 0 0 -1 0 792)" d="M159.84 196.32L160.32 196.32L160.32 214.32L159.84 214.32z" stroke="none" fill="#000000" fill-rule="nonzero" /><path transform="matrix(1 0 0 -1 0 792)" d="M371.28 196.32L371.76 196.32L371.76 214.32L371.28 214.32z" stroke="none" fill="#000000" fill-rule="nonzero" /><path transform="matrix(1 0 0 -1 0 792)" d="M485.76 196.32L486.24 196.32L486.24 214.32L485.76 214.32z" stroke="none" fill="#000000" fill-rule="nonzero" /><path transform="matrix(1 0 0 -1 0 792)" d="M558.72 196.32L559.2 196.32L559.2 214.32L558.72 214.32z" stroke="none" fill="#000000" fill-rule="nonzero" /><path transform="matrix(1 0 0 -1 0 792)" d="M106.08 196.08L106.56 196.08L106.56 196.32L106.08 196.32z" stroke="none" fill="#000000" fill-rule="nonzero" /><path transform="matrix(1 0 0 -1 0 792)" d="M106.56 196.08L159.84 196.08L159.84 196.32L106.56 196.32z" stroke="none" fill="#000000" fill-rule="nonzero" /><path transform="matrix(1 0 0 -1 0 792)" d="M159.84 196.08L160.32 196.08L160.32 196.32L159.84 196.32z" stroke="none" fill="#000000" fill-rule="nonzero" /><path transform="matrix(1 0 0 -1 0 792)" d="M160.32 196.08L371.28 196.08L371.28 196.32L160.32 196.32z" stroke="none" fill="#000000" fill-rule="nonzero" /><path transform="matrix(1 0 0 -1 0 792)" d="M371.28 196.08L371.76 196.08L371.76 196.32L371.28 196.32z" stroke="none" fill="#000000" fill-rule="nonzero" /><path transform="matrix(1 0 0 -1 0 792)" d="M371.76 196.08L485.76 196.08L485.76 196.32L371.76 196.32z" stroke="none" fill="#000000" fill-rule="nonzero" /><path transform="matrix(1 0 0 -1 0 792)" d="M485.76 196.08L486.24 196.08L486.24 196.32L485.76 196.32z" stroke="none" fill="#000000" fill-rule="nonzero" /><path transform="matrix(1 0 0 -1 0 792)" d="M486.24 196.08L558.72 196.08L558.72 196.32L486.24 196.32z" stroke="none" fill="#000000" fill-rule="nonzero" /><path transform="matrix(1 0 0 -1 0 792)" d="M558.72 196.08L559.2 196.08L559.2 196.32L558.72 196.32z" stroke="none" fill="#000000" fill-rule="nonzero" /><path transform="matrix(1 0 0 -1 0 792)" d="M106.08 178.32L106.56 178.32L106.56 196.08L106.08 196.08z" stroke="none" fill="#000000" fill-rule="nonzero" /><path transform="matrix(1 0 0 -1 0 792)" d="M159.84 178.32L160.32 178.32L160.32 196.08L159.84 196.08z" stroke="none" fill="#000000" fill-rule="nonzero" /><path transform="matrix(1 0 0 -1 0 792)" d="M371.28 178.32L371.76 178.32L371.76 196.08L371.28 196.08z" stroke="none" fill="#000000" fill-rule="nonzero" /><path transform="matrix(1 0 0 -1 0 792)" d="M485.76 178.32L486.24 178.32L486.24 196.08L485.76 196.08z" stroke="none" fill="#000000" fill-rule="nonzero" /><path transform="matrix(1 0 0 -1 0 792)" d="M558.72 178.32L559.2 178.32L559.2 196.08L558.72 196.08z" stroke="none" fill="#000000" fill-rule="nonzero" /><path transform="matrix(1 0 0 -1 0 792)" d="M106.08 177.84L106.56 177.84L106.56 178.32L106.08 178.32z" stroke="none" fill="#000000" fill-rule="nonzero" /><path transform="matrix(1 0 0 -1 0 792)" d="M106.56 177.84L159.84 177.84L159.84 178.32L106.56 178.32z" stroke="none" fill="#000000" fill-rule="nonzero" /><path transform="matrix(1 0 0 -1 0 792)" d="M159.84 177.84L160.32 177.84L160.32 178.32L159.84 178.32z" stroke="none" fill="#000000" fill-rule="nonzero" /><path transform="matrix(1 0 0 -1 0 792)" d="M160.32 177.84L371.28 177.84L371.28 178.32L160.32 178.32z" stroke="none" fill="#000000" fill-rule="nonzero" /><path transform="matrix(1 0 0 -1 0 792)" d="M371.28 177.84L371.76 177.84L371.76 178.32L371.28 178.32z" stroke="none" fill="#000000" fill-rule="nonzero" /><path transform="matrix(1 0 0 -1 0 792)" d="M371.76 177.84L485.76 177.84L485.76 178.32L371.76 178.32z" stroke="none" fill="#000000" fill-rule="nonzero" /><path transform="matrix(1 0 0 -1 0 792)" d="M485.76 177.84L486.24 177.84L486.24 178.32L485.76 178.32z" stroke="none" fill="#000000" fill-rule="nonzero" /><path transform="matrix(1 0 0 -1 0 792)" d="M486.24 177.84L558.72 177.84L558.72 178.32L486.24 178.32z" stroke="none" fill="#000000" fill-rule="nonzero" /><path transform="matrix(1 0 0 -1 0 792)" d="M558.72 177.84L559.2 177.84L559.2 178.32L558.72 178.32z" stroke="none" fill="#000000" fill-rule="nonzero" /><path transform="matrix(1 0 0 -1 0 792)" d="M106.08 160.08L106.56 160.08L106.56 177.84L106.08 177.84z" stroke="none" fill="#000000" fill-rule="nonzero" /><path transform="matrix(1 0 0 -1 0 792)" d="M159.84 160.08L160.32 160.08L160.32 177.84L159.84 177.84z" stroke="none" fill="#000000" fill-rule="nonzero" /><path transform="matrix(1 0 0 -1 0 792)" d="M371.28 160.08L371.76 160.08L371.76 177.84L371.28 177.84z" stroke="none" fill="#000000" fill-rule="nonzero" /><path transform="matrix(1 0 0 -1 0 792)" d="M485.76 160.08L486.24 160.08L486.24 177.84L485.76 177.84z" stroke="none" fill="#000000" fill-rule="nonzero" /><path transform="matrix(1 0 0 -1 0 792)" d="M558.72 160.08L559.2 160.08L559.2 177.84L558.72 177.84z" stroke="none" fill="#000000" fill-rule="nonzero" /><g clip-path="url(#40)"><path transform="matrix(1 0 0 -1 0 792)" d="M106.32 138L558.72 138L558.72 159.6L106.32 159.6z" stroke="none" fill="#CCCCCC" fill-rule="nonzero" /></g><path transform="matrix(1 0 0 -1 0 792)" d="M111.12 139.92L553.92 139.92L553.92 157.68L111.12 157.68z" stroke="none" fill="#CCCCCC" fill-rule="nonzero" /><path transform="matrix(1 0 0 -1 0 792)" d="M106.08 159.6L106.56 159.6L106.56 160.08L106.08 160.08z" stroke="none" fill="#000000" fill-rule="nonzero" /><path transform="matrix(1 0 0 -1 0 792)" d="M106.56 159.6L159.84 159.6L159.84 160.08L106.56 160.08z" stroke="none" fill="#000000" fill-rule="nonzero" /><path transform="matrix(1 0 0 -1 0 792)" d="M159.84 159.6L160.32 159.6L160.32 160.08L159.84 160.08z" stroke="none" fill="#000000" fill-rule="nonzero" /><path transform="matrix(1 0 0 -1 0 792)" d="M160.32 159.6L371.28 159.6L371.28 160.08L160.32 160.08z" stroke="none" fill="#000000" fill-rule="nonzero" /><path transform="matrix(1 0 0 -1 0 792)" d="M371.28 159.6L371.76 159.6L371.76 160.08L371.28 160.08z" stroke="none" fill="#000000" fill-rule="nonzero" /><path transform="matrix(1 0 0 -1 0 792)" d="M371.76 159.6L485.76 159.6L485.76 160.08L371.76 160.08z" stroke="none" fill="#000000" fill-rule="nonzero" /><path transform="matrix(1 0 0 -1 0 792)" d="M485.76 159.6L486.24 159.6L486.24 160.08L485.76 160.08z" stroke="none" fill="#000000" fill-rule="nonzero" /><path transform="matrix(1 0 0 -1 0 792)" d="M486.24 159.6L558.72 159.6L558.72 160.08L486.24 160.08z" stroke="none" fill="#000000" fill-rule="nonzero" /><path transform="matrix(1 0 0 -1 0 792)" d="M558.72 159.6L559.2 159.6L559.2 160.08L558.72 160.08z" stroke="none" fill="#000000" fill-rule="nonzero" /><path transform="matrix(1 0 0 -1 0 792)" d="M106.08 138L106.56 138L106.56 159.6L106.08 159.6z" stroke="none" fill="#000000" fill-rule="nonzero" /><path transform="matrix(1 0 0 -1 0 792)" d="M558.72 138L559.2 138L559.2 159.6L558.72 159.6z" stroke="none" fill="#000000" fill-rule="nonzero" /><g clip-path="url(#41)"><path transform="matrix(1 0 0 -1 0 792)" d="M106.32 102.48L158.16 102.48L158.16 137.52L106.32 137.52z" stroke="none" fill="#E6E6E6" fill-rule="nonzero" /></g><path transform="matrix(1 0 0 -1 0 792)" d="M111.12 117.6L153.12 117.6L153.12 135.36L111.12 135.36z" stroke="none" fill="#E6E6E6" fill-rule="nonzero" /><path transform="matrix(1 0 0 -1 0 792)" d="M111.12 104.88L153.12 104.88L153.12 117.6L111.12 117.6z" stroke="none" fill="#E6E6E6" fill-rule="nonzero" /><g clip-path="url(#42)"></g><g clip-path="url(#43)"><path transform="matrix(1 0 0 -1 0 792)" d="M158.64 102.48L311.28 102.48L311.28 137.52L158.64 137.52z" stroke="none" fill="#E6E6E6" fill-rule="nonzero" /></g><path transform="matrix(1 0 0 -1 0 792)" d="M163.2 111.12L306.48 111.12L306.48 128.88L163.2 128.88z" stroke="none" fill="#E6E6E6" fill-rule="nonzero" /><g clip-path="url(#44)"><path transform="matrix(1 0 0 -1 0 792)" d="M311.76 102.48L444.72 102.48L444.72 137.52L311.76 137.52z" stroke="none" fill="#E6E6E6" fill-rule="nonzero" /></g><path transform="matrix(1 0 0 -1 0 792)" d="M316.8 117.12L439.68 117.12L439.68 135.84L316.8 135.84z" stroke="none" fill="#E6E6E6" fill-rule="nonzero" /><path transform="matrix(1 0 0 -1 0 792)" d="M316.8 104.4L439.68 104.4L439.68 117.12L316.8 117.12z" stroke="none" fill="#E6E6E6" fill-rule="nonzero" /><g clip-path="url(#45)"><path transform="matrix(1 0 0 -1 0 792)" d="M445.2 102.48L558.72 102.48L558.72 137.52L445.2 137.52z" stroke="none" fill="#E6E6E6" fill-rule="nonzero" /></g><path transform="matrix(1 0 0 -1 0 792)" d="M449.76 119.04L553.92 119.04L553.92 137.52L449.76 137.52z" stroke="none" fill="#E6E6E6" fill-rule="nonzero" /><path transform="matrix(1 0 0 -1 0 792)" d="M449.76 102.48L553.92 102.48L553.92 119.04L449.76 119.04z" stroke="none" fill="#E6E6E6" fill-rule="nonzero" /><path transform="matrix(1 0 0 -1 0 792)" d="M106.08 137.52L106.56 137.52L106.56 138L106.08 138z" stroke="none" fill="#000000" fill-rule="nonzero" /><path transform="matrix(1 0 0 -1 0 792)" d="M106.56 137.52L158.16 137.52L158.16 138L106.56 138z" stroke="none" fill="#000000" fill-rule="nonzero" /><path transform="matrix(1 0 0 -1 0 792)" d="M158.16 137.52L158.64 137.52L158.64 138L158.16 138z" stroke="none" fill="#000000" fill-rule="nonzero" /><path transform="matrix(1 0 0 -1 0 792)" d="M158.64 137.52L311.52 137.52L311.52 138L158.64 138z" stroke="none" fill="#000000" fill-rule="nonzero" /><path transform="matrix(1 0 0 -1 0 792)" d="M311.52 137.52L312 137.52L312 138L311.52 138z" stroke="none" fill="#000000" fill-rule="nonzero" /><path transform="matrix(1 0 0 -1 0 792)" d="M312 137.52L444.72 137.52L444.72 138L312 138z" stroke="none" fill="#000000" fill-rule="nonzero" /><path transform="matrix(1 0 0 -1 0 792)" d="M444.72 137.52L445.2 137.52L445.2 138L444.72 138z" stroke="none" fill="#000000" fill-rule="nonzero" /><path transform="matrix(1 0 0 -1 0 792)" d="M445.2 137.52L558.72 137.52L558.72 138L445.2 138z" stroke="none" fill="#000000" fill-rule="nonzero" /><path transform="matrix(1 0 0 -1 0 792)" d="M558.72 137.52L559.2 137.52L559.2 138L558.72 138z" stroke="none" fill="#000000" fill-rule="nonzero" /><path transform="matrix(1 0 0 -1 0 792)" d="M106.08 102.48L106.56 102.48L106.56 137.52L106.08 137.52z" stroke="none" fill="#000000" fill-rule="nonzero" /><path transform="matrix(1 0 0 -1 0 792)" d="M158.16 102.48L158.64 102.48L158.64 137.52L158.16 137.52z" stroke="none" fill="#000000" fill-rule="nonzero" /><path transform="matrix(1 0 0 -1 0 792)" d="M311.52 102.48L312 102.48L312 137.52L311.52 137.52z" stroke="none" fill="#000000" fill-rule="nonzero" /><path transform="matrix(1 0 0 -1 0 792)" d="M444.72 102.48L445.2 102.48L445.2 137.52L444.72 137.52z" stroke="none" fill="#000000" fill-rule="nonzero" /><path transform="matrix(1 0 0 -1 0 792)" d="M558.72 102.48L559.2 102.48L559.2 137.52L558.72 137.52z" stroke="none" fill="#000000" fill-rule="nonzero" /><path transform="matrix(1 0 0 -1 0 792)" d="M106.08 102L106.56 102L106.56 102.48L106.08 102.48z" stroke="none" fill="#000000" fill-rule="nonzero" /><path transform="matrix(1 0 0 -1 0 792)" d="M106.56 102L158.16 102L158.16 102.48L106.56 102.48z" stroke="none" fill="#000000" fill-rule="nonzero" /><path transform="matrix(1 0 0 -1 0 792)" d="M158.16 102L158.64 102L158.64 102.48L158.16 102.48z" stroke="none" fill="#000000" fill-rule="nonzero" /><path transform="matrix(1 0 0 -1 0 792)" d="M158.64 102L311.52 102L311.52 102.48L158.64 102.48z" stroke="none" fill="#000000" fill-rule="nonzero" /><path transform="matrix(1 0 0 -1 0 792)" d="M311.52 102L312 102L312 102.48L311.52 102.48z" stroke="none" fill="#000000" fill-rule="nonzero" /><path transform="matrix(1 0 0 -1 0 792)" d="M312 102L444.72 102L444.72 102.48L312 102.48z" stroke="none" fill="#000000" fill-rule="nonzero" /><path transform="matrix(1 0 0 -1 0 792)" d="M444.72 102L445.2 102L445.2 102.48L444.72 102.48z" stroke="none" fill="#000000" fill-rule="nonzero" /><path transform="matrix(1 0 0 -1 0 792)" d="M445.2 102L558.72 102L558.72 102.48L445.2 102.48z" stroke="none" fill="#000000" fill-rule="nonzero" /><path transform="matrix(1 0 0 -1 0 792)" d="M558.72 102L559.2 102L559.2 102.48L558.72 102.48z" stroke="none" fill="#000000" fill-rule="nonzero" /><path transform="matrix(1 0 0 -1 0 792)" d="M106.08 84L106.56 84L106.56 102L106.08 102z" stroke="none" fill="#000000" fill-rule="nonzero" /><path transform="matrix(1 0 0 -1 0 792)" d="M158.16 84L158.64 84L158.64 102L158.16 102z" stroke="none" fill="#000000" fill-rule="nonzero" /><path transform="matrix(1 0 0 -1 0 792)" d="M311.52 84L312 84L312 102L311.52 102z" stroke="none" fill="#000000" fill-rule="nonzero" /><path transform="matrix(1 0 0 -1 0 792)" d="M444.72 84L445.2 84L445.2 102L444.72 102z" stroke="none" fill="#000000" fill-rule="nonzero" /><path transform="matrix(1 0 0 -1 0 792)" d="M558.72 84L559.2 84L559.2 102L558.72 102z" stroke="none" fill="#000000" fill-rule="nonzero" /><path transform="matrix(1 0 0 -1 0 792)" d="M106.08 83.52L106.56 83.52L106.56 84L106.08 84z" stroke="none" fill="#000000" fill-rule="nonzero" /><path transform="matrix(1 0 0 -1 0 792)" d="M106.56 83.52L158.16 83.52L158.16 84L106.56 84z" stroke="none" fill="#000000" fill-rule="nonzero" /><path transform="matrix(1 0 0 -1 0 792)" d="M158.16 83.52L158.64 83.52L158.64 84L158.16 84z" stroke="none" fill="#000000" fill-rule="nonzero" /><path transform="matrix(1 0 0 -1 0 792)" d="M158.64 83.52L311.52 83.52L311.52 84L158.64 84z" stroke="none" fill="#000000" fill-rule="nonzero" /><path transform="matrix(1 0 0 -1 0 792)" d="M311.52 83.52L312 83.52L312 84L311.52 84z" stroke="none" fill="#000000" fill-rule="nonzero" /><path transform="matrix(1 0 0 -1 0 792)" d="M312 83.52L444.72 83.52L444.72 84L312 84z" stroke="none" fill="#000000" fill-rule="nonzero" /><path transform="matrix(1 0 0 -1 0 792)" d="M444.72 83.52L445.2 83.52L445.2 84L444.72 84z" stroke="none" fill="#000000" fill-rule="nonzero" /><path transform="matrix(1 0 0 -1 0 792)" d="M445.2 83.52L558.72 83.52L558.72 84L445.2 84z" stroke="none" fill="#000000" fill-rule="nonzero" /><path transform="matrix(1 0 0 -1 0 792)" d="M558.72 83.52L559.2 83.52L559.2 84L558.72 84z" stroke="none" fill="#000000" fill-rule="nonzero" /><path transform="matrix(1 0 0 -1 0 792)" d="M106.08 65.52L106.56 65.52L106.56 83.52L106.08 83.52z" stroke="none" fill="#000000" fill-rule="nonzero" /><path transform="matrix(1 0 0 -1 0 792)" d="M106.08 65.04L106.56 65.04L106.56 65.52L106.08 65.52z" stroke="none" fill="#000000" fill-rule="nonzero" /><path transform="matrix(1 0 0 -1 0 792)" d="M106.08 65.04L106.56 65.04L106.56 65.52L106.08 65.52z" stroke="none" fill="#000000" fill-rule="nonzero" /><path transform="matrix(1 0 0 -1 0 792)" d="M106.56 65.04L158.16 65.04L158.16 65.52L106.56 65.52z" stroke="none" fill="#000000" fill-rule="nonzero" /><path transform="matrix(1 0 0 -1 0 792)" d="M158.16 65.52L158.64 65.52L158.64 83.52L158.16 83.52z" stroke="none" fill="#000000" fill-rule="nonzero" /><path transform="matrix(1 0 0 -1 0 792)" d="M158.16 65.04L158.64 65.04L158.64 65.52L158.16 65.52z" stroke="none" fill="#000000" fill-rule="nonzero" /><path transform="matrix(1 0 0 -1 0 792)" d="M158.64 65.04L311.52 65.04L311.52 65.52L158.64 65.52z" stroke="none" fill="#000000" fill-rule="nonzero" /><path transform="matrix(1 0 0 -1 0 792)" d="M311.52 65.52L312 65.52L312 83.52L311.52 83.52z" stroke="none" fill="#000000" fill-rule="nonzero" /><path transform="matrix(1 0 0 -1 0 792)" d="M311.52 65.04L312 65.04L312 65.52L311.52 65.52z" stroke="none" fill="#000000" fill-rule="nonzero" /><path transform="matrix(1 0 0 -1 0 792)" d="M312 65.04L444.72 65.04L444.72 65.52L312 65.52z" stroke="none" fill="#000000" fill-rule="nonzero" /><path transform="matrix(1 0 0 -1 0 792)" d="M444.72 65.52L445.2 65.52L445.2 83.52L444.72 83.52z" stroke="none" fill="#000000" fill-rule="nonzero" /><path transform="matrix(1 0 0 -1 0 792)" d="M444.72 65.04L445.2 65.04L445.2 65.52L444.72 65.52z" stroke="none" fill="#000000" fill-rule="nonzero" /><path transform="matrix(1 0 0 -1 0 792)" d="M445.2 65.04L558.72 65.04L558.72 65.52L445.2 65.52z" stroke="none" fill="#000000" fill-rule="nonzero" /><path transform="matrix(1 0 0 -1 0 792)" d="M558.72 65.52L559.2 65.52L559.2 83.52L558.72 83.52z" stroke="none" fill="#000000" fill-rule="nonzero" /><path transform="matrix(1 0 0 -1 0 792)" d="M558.72 65.04L559.2 65.04L559.2 65.52L558.72 65.52z" stroke="none" fill="#000000" fill-rule="nonzero" /><path transform="matrix(1 0 0 -1 0 792)" d="M558.72 65.04L559.2 65.04L559.2 65.52L558.72 65.52z" stroke="none" fill="#000000" fill-rule="nonzero" /></g></g></g></svg>