<svg xmlns="http://www.w3.org/2000/svg" xmlns:xlink="http://www.w3.org/1999/xlink" id="body_1" preserveAspectRatio="xMinYMin meet" viewBox="0 0 816 1056"><defs><clipPath id="1"><path clip-rule="evenodd" d="M0 792L0 0L0 0L612 0L612 0L612 792L612 792L0 792z" /></clipPath><clipPath id="2"><path clip-rule="evenodd" d="M313.2 757.68L318.7199 757.68L318.7199 757.68L318.7199 744.96L318.7199 744.96L313.2 744.96z" /></clipPath><clipPath id="3"><path clip-rule="evenodd" d="M283.44 67.44L287.28 67.44L287.28 67.44L287.28 53.52002L287.28 53.52002L283.44 53.52002z" /></clipPath><clipPath id="4"><path clip-rule="evenodd" d="M550.32 95.52002L552.48 95.52002L552.48 95.52002L552.48 81.60004L552.48 81.60004L550.32 81.60004z" /></clipPath></defs><g transform="matrix(1.333333 0 0 1.333333 0 0)"><g><g clip-path="url(#1)"><g clip-path="url(#2)"></g><g clip-path="url(#3)"></g><g clip-path="url(#4)"></g><path transform="matrix(1 0 0 -1 0 792)" d="M241.2 614.88L399.12 614.88" stroke="#000000" stroke-width="0.7199" stroke-linecap="round" fill="none" /></g></g></g></svg>