<svg xmlns="http://www.w3.org/2000/svg" xmlns:xlink="http://www.w3.org/1999/xlink" id="body_1" preserveAspectRatio="xMinYMin meet" viewBox="0 0 816 1056"><defs><clipPath id="1"><path clip-rule="evenodd" d="M0 792L0 0L0 0L612 0L612 0L612 792L612 792L0 792z" /></clipPath><clipPath id="2"><path clip-rule="evenodd" d="M106.32 61.67999L558.72 61.67999L558.72 61.67999L558.72 59.52002L558.72 59.52002L106.32 59.52002zM553.92 59.52002L558.72 59.52002L558.72 59.52002L558.72 42L558.72 42L553.92 42zM106.32 59.52002L111.12 59.52002L111.12 59.52002L111.12 42L111.12 42L106.32 42zM106.32 42L558.72 42L558.72 42L558.72 39.84003L558.72 39.84003L106.32 39.84003z" /></clipPath><clipPath id="3"><path clip-rule="evenodd" d="M106.32 97.20001L172.56 97.20001L172.56 97.20001L172.56 95.04004L172.56 95.04004L106.32 95.04004zM167.52 95.03998L172.56 95.03998L172.56 95.03998L172.56 64.32001L172.56 64.32001L167.52 64.32001zM106.32 95.03998L111.12 95.03998L111.12 95.03998L111.12 64.32001L111.12 64.32001L106.32 64.32001zM106.32 64.32001L172.56 64.32001L172.56 64.32001L172.56 61.91998L172.56 61.91998L106.32 61.91998z" /></clipPath><clipPath id="4"><path clip-rule="evenodd" d="M173.04 97.20001L358.56 97.20001L358.56 97.20001L358.56 88.32001L358.56 88.32001L173.04 88.32001zM353.76 88.32001L358.56 88.32001L358.56 88.32001L358.56 70.79999L358.56 70.79999L353.76 70.79999zM173.04 88.32001L177.84 88.32001L177.84 88.32001L177.84 70.79999L177.84 70.79999L173.04 70.79999zM173.04 70.79999L358.56 70.79999L358.56 70.79999L358.56 61.91998L358.56 61.91998L173.04 61.91998z" /></clipPath><clipPath id="5"><path clip-rule="evenodd" d="M455.28 97.20001L460.08 97.20001L460.08 97.20001L460.08 61.92004L460.08 61.92004L455.28 61.92004zM359.04 97.20001L363.84 97.20001L363.84 97.20001L363.84 61.92004L363.84 61.92004L359.04 61.92004z" /></clipPath><clipPath id="6"><path clip-rule="evenodd" d="M460.56 97.20001L558.72 97.20001L558.72 97.20001L558.72 95.52002L558.72 95.52002L460.56 95.52002zM553.92 95.52002L558.72 95.52002L558.72 95.52002L558.72 63.84003L558.72 63.84003L553.92 63.84003zM460.56 95.52002L465.36 95.52002L465.36 95.52002L465.36 63.84003L465.36 63.84003L460.56 63.84003zM460.56 63.84003L558.72 63.84003L558.72 63.84003L558.72 61.92004L558.72 61.92004L460.56 61.92004z" /></clipPath><clipPath id="7"><path clip-rule="evenodd" d="M139.44 226.08L145.44 226.08L145.44 226.08L145.44 213.6L145.44 213.6L139.44 213.6z" /></clipPath><clipPath id="8"><path clip-rule="evenodd" d="M177.84 226.08L183.84 226.08L183.84 226.08L183.84 213.6L183.84 213.6L177.84 213.6z" /></clipPath><clipPath id="9"><path clip-rule="evenodd" d="M363.84 226.08L369.84 226.08L369.84 226.08L369.84 213.6L369.84 213.6L363.84 213.6z" /></clipPath><clipPath id="10"><path clip-rule="evenodd" d="M465.36 226.08L471.36 226.08L471.36 226.08L471.36 213.6L471.36 213.6L465.36 213.6z" /></clipPath><clipPath id="11"><path clip-rule="evenodd" d="M111.12 262.32L117.12 262.32L117.12 262.32L117.12 249.84L117.12 249.84L111.12 249.84z" /></clipPath><clipPath id="12"><path clip-rule="evenodd" d="M177.84 262.32L183.84 262.32L183.84 262.32L183.84 249.84L183.84 249.84L177.84 249.84z" /></clipPath><clipPath id="13"><path clip-rule="evenodd" d="M363.84 262.32L369.84 262.32L369.84 262.32L369.84 249.84L369.84 249.84L363.84 249.84z" /></clipPath><clipPath id="14"><path clip-rule="evenodd" d="M465.36 262.32L471.36 262.32L471.36 262.32L471.36 249.84L471.36 249.84L465.36 249.84z" /></clipPath><clipPath id="15"><path clip-rule="evenodd" d="M106.32 284.4L558.72 284.4L558.72 284.4L558.72 282.48L558.72 282.48L106.32 282.48zM553.92 282.48L558.72 282.48L558.72 282.48L558.72 264.96L558.72 264.96L553.92 264.96zM106.32 282.48L111.12 282.48L111.12 282.48L111.12 264.96L111.12 264.96L106.32 264.96zM106.32 264.96L558.72 264.96L558.72 264.96L558.72 262.8L558.72 262.8L106.32 262.8z" /></clipPath><clipPath id="16"><path clip-rule="evenodd" d="M106.32 320.16L171.36 320.16L171.36 320.16L171.36 317.76L171.36 317.76L106.32 317.76zM166.8 317.76L171.3599 317.76L171.3599 317.76L171.3599 287.28L171.3599 287.28L166.8 287.28zM106.32 317.76L111.12 317.76L111.12 317.76L111.12 287.28L111.12 287.28L106.32 287.28zM106.32 287.28L171.36 287.28L171.36 287.28L171.36 284.88L171.36 284.88L106.32 284.88z" /></clipPath><clipPath id="17"><path clip-rule="evenodd" d="M171.84 320.16L358.08 320.16L358.08 320.16L358.08 311.28L358.08 311.28L171.84 311.28zM353.04 311.28L358.08 311.28L358.08 311.28L358.08 293.76L358.08 293.76L353.04 293.76zM171.84 311.28L176.88 311.28L176.88 311.28L176.88 293.76L176.88 293.76L171.84 293.76zM171.84 293.76L358.08 293.76L358.08 293.76L358.08 284.88L358.08 284.88L171.84 284.88z" /></clipPath><clipPath id="18"><path clip-rule="evenodd" d="M452.88 320.16L457.92 320.16L457.92 320.16L457.92 284.88L457.92 284.88L452.88 284.88zM358.56 320.16L363.1199 320.16L363.1199 320.16L363.1199 284.88L363.1199 284.88L358.56 284.88z" /></clipPath><clipPath id="19"><path clip-rule="evenodd" d="M458.4 320.16L558.72 320.16L558.72 320.16L558.72 318.24L558.72 318.24L458.4 318.24zM553.92 318.24L558.72 318.24L558.72 318.24L558.72 286.8L558.72 286.8L553.92 286.8zM458.4 318.24L463.2 318.24L463.2 318.24L463.2 286.8L463.2 286.8L458.4 286.8zM458.4 286.8L558.72 286.8L558.72 286.8L558.72 284.88L558.72 284.88L458.4 284.88z" /></clipPath><clipPath id="20"><path clip-rule="evenodd" d="M553.92 388.08L558.72 388.08L558.72 388.08L558.72 357.36L558.72 357.36L553.92 357.36zM106.32 388.08L111.12 388.08L111.12 388.08L111.12 357.36L111.12 357.36L106.32 357.36z" /></clipPath><clipPath id="21"><path clip-rule="evenodd" d="M106.32 432.48L172.56 432.48L172.56 432.48L172.56 426L172.56 426L106.32 426zM167.52 426L172.56 426L172.56 426L172.56 395.28L172.56 395.28L167.52 395.28zM106.32 426L111.12 426L111.12 426L111.12 395.28L111.12 395.28L106.32 395.28zM106.32 395.28L172.56 395.28L172.56 395.28L172.56 388.56L172.56 388.56L106.32 388.56z" /></clipPath><clipPath id="22"><path clip-rule="evenodd" d="M173.04 432.48L316.32 432.48L316.32 432.48L316.32 419.28L316.32 419.28L173.04 419.28zM311.52 419.28L316.32 419.28L316.32 419.28L316.32 401.76L316.32 401.76L311.52 401.76zM173.04 419.28L177.84 419.28L177.84 419.28L177.84 401.76L177.84 401.76L173.04 401.76zM173.04 401.76L316.32 401.76L316.32 401.76L316.32 388.56L316.32 388.56L173.04 388.56z" /></clipPath><clipPath id="23"><path clip-rule="evenodd" d="M316.8 432.48L396.48 432.48L396.48 432.48L396.48 426L396.48 426L316.8 426zM391.92 426L396.4799 426L396.4799 426L396.4799 395.28L396.4799 395.28L391.92 395.28zM316.8 426L321.6 426L321.6 426L321.6 395.28L321.6 395.28L316.8 395.28zM316.8 395.28L396.48 395.28L396.48 395.28L396.48 388.56L396.48 388.56L316.8 388.56z" /></clipPath><clipPath id="24"><path clip-rule="evenodd" d="M396.96 432.48L464.16 432.48L464.16 432.48L464.16 432.24L464.16 432.24L396.96 432.24zM459.6 432.24L464.1599 432.24L464.1599 432.24L464.1599 388.8L464.1599 388.8L459.6 388.8zM396.96 432.24L402 432.24L402 432.24L402 388.8L402 388.8L396.96 388.8zM396.96 388.8L464.16 388.8L464.16 388.8L464.16 388.56L464.16 388.56L396.96 388.56z" /></clipPath><clipPath id="25"><path clip-rule="evenodd" d="M553.92 432.48L558.72 432.48L558.72 432.48L558.72 388.56L558.72 388.56L553.92 388.56zM464.64 432.48L469.68 432.48L469.68 432.48L469.68 388.56L469.68 388.56L464.64 388.56z" /></clipPath><clipPath id="26"><path clip-rule="evenodd" d="M552.72 406.32L558.72 406.32L558.72 406.32L558.72 393.6L558.72 393.6L552.72 393.6z" /></clipPath><clipPath id="27"><path clip-rule="evenodd" d="M534.72 432.48L540.2399 432.48L540.2399 432.48L540.2399 420L540.2399 420L534.72 420z" /></clipPath><clipPath id="28"><path clip-rule="evenodd" d="M139.44 468.72L145.44 468.72L145.44 468.72L145.44 456.24L145.44 456.24L139.44 456.24z" /></clipPath><clipPath id="29"><path clip-rule="evenodd" d="M177.84 468.72L183.84 468.72L183.84 468.72L183.84 456.24L183.84 456.24L177.84 456.24z" /></clipPath><clipPath id="30"><path clip-rule="evenodd" d="M356.64 468.72L362.64 468.72L362.64 468.72L362.64 456.24L362.64 456.24L356.64 456.24z" /></clipPath><clipPath id="31"><path clip-rule="evenodd" d="M430.56 468.72L436.56 468.72L436.56 468.72L436.56 456.24L436.56 456.24L430.56 456.24z" /></clipPath><clipPath id="32"><path clip-rule="evenodd" d="M511.92 468.72L517.92 468.72L517.92 468.72L517.92 456.24L517.92 456.24L511.92 456.24z" /></clipPath><clipPath id="33"><path clip-rule="evenodd" d="M139.44 523.2L145.44 523.2L145.44 523.2L145.44 510.72L145.44 510.72L139.44 510.72z" /></clipPath><clipPath id="34"><path clip-rule="evenodd" d="M244.56 523.2L250.56 523.2L250.56 523.2L250.56 510.72L250.56 510.72L244.56 510.72z" /></clipPath><clipPath id="35"><path clip-rule="evenodd" d="M356.64 523.2L362.64 523.2L362.64 523.2L362.64 510.72L362.64 510.72L356.64 510.72z" /></clipPath><clipPath id="36"><path clip-rule="evenodd" d="M430.56 523.2L436.56 523.2L436.56 523.2L436.56 510.72L436.56 510.72L430.56 510.72z" /></clipPath><clipPath id="37"><path clip-rule="evenodd" d="M511.92 523.2L517.92 523.2L517.92 523.2L517.92 510.72L517.92 510.72L511.92 510.72z" /></clipPath><clipPath id="38"><path clip-rule="evenodd" d="M139.44 559.44L145.44 559.44L145.44 559.44L145.44 546.96L145.44 546.96L139.44 546.96z" /></clipPath><clipPath id="39"><path clip-rule="evenodd" d="M177.84 559.44L183.84 559.44L183.84 559.44L183.84 546.96L183.84 546.96L177.84 546.96z" /></clipPath><clipPath id="40"><path clip-rule="evenodd" d="M356.64 559.44L362.64 559.44L362.64 559.44L362.64 546.96L362.64 546.96L356.64 546.96z" /></clipPath><clipPath id="41"><path clip-rule="evenodd" d="M430.56 559.44L436.56 559.44L436.56 559.44L436.56 546.96L436.56 546.96L430.56 546.96z" /></clipPath><clipPath id="42"><path clip-rule="evenodd" d="M511.92 559.44L517.92 559.44L517.92 559.44L517.92 546.96L517.92 546.96L511.92 546.96z" /></clipPath><clipPath id="43"><path clip-rule="evenodd" d="M106.32 618L558.72 618L558.72 618L558.72 615.84L558.72 615.84L106.32 615.84zM553.92 615.84L558.72 615.84L558.72 615.84L558.72 598.32L558.72 598.32L553.92 598.32zM106.32 615.84L111.12 615.84L111.12 615.84L111.12 598.32L111.12 598.32L106.32 598.32zM106.32 598.32L558.72 598.32L558.72 598.32L558.72 596.16L558.72 596.16L106.32 596.16z" /></clipPath><clipPath id="44"><path clip-rule="evenodd" d="M106.32 640.08L151.44 640.08L151.44 640.08L151.44 637.92L151.44 637.92L106.32 637.92zM146.64 637.92L151.44 637.92L151.44 637.92L151.44 620.4L151.44 620.4L146.64 620.4zM106.32 637.92L111.12 637.92L111.12 637.92L111.12 620.4L111.12 620.4L106.32 620.4zM106.32 620.4L151.44 620.4L151.44 620.4L151.44 618.48L151.44 618.48L106.32 618.48z" /></clipPath><clipPath id="45"><path clip-rule="evenodd" d="M151.92 640.08L392.4 640.08L392.4 640.08L392.4 637.92L392.4 637.92L151.92 637.92zM387.6 637.92L392.4 637.92L392.4 637.92L392.4 620.4L392.4 620.4L387.6 620.4zM151.92 637.92L156.72 637.92L156.72 637.92L156.72 620.4L156.72 620.4L151.92 620.4zM151.92 620.4L392.4 620.4L392.4 620.4L392.4 618.48L392.4 618.48L151.92 618.48z" /></clipPath><clipPath id="46"><path clip-rule="evenodd" d="M392.88 640.08L558.72 640.08L558.72 640.08L558.72 637.92L558.72 637.92L392.88 637.92zM553.92 637.92L558.72 637.92L558.72 637.92L558.72 620.4L558.72 620.4L553.92 620.4zM392.88 637.92L397.68 637.92L397.68 637.92L397.68 620.4L397.68 620.4L392.88 620.4zM392.88 620.4L558.72 620.4L558.72 620.4L558.72 618.48L558.72 618.48L392.88 618.48z" /></clipPath></defs><g transform="matrix(1.333333 0 0 1.333333 0 0)"><g><g clip-path="url(#1)"><g clip-path="url(#2)"><path transform="matrix(1 0 0 -1 0 792)" d="M106.32 730.32L558.72 730.32L558.72 752.16L106.32 752.16z" stroke="none" fill="#CCCCCC" fill-rule="nonzero" /></g><path transform="matrix(1 0 0 -1 0 792)" d="M111.12 732.48L553.92 732.48L553.92 750L111.12 750z" stroke="none" fill="#CCCCCC" fill-rule="nonzero" /><path transform="matrix(1 0 0 -1 0 792)" d="M106.08 752.16L106.56 752.16L106.56 752.64L106.08 752.64z" stroke="none" fill="#000000" fill-rule="nonzero" /><path transform="matrix(1 0 0 -1 0 792)" d="M106.08 752.16L106.56 752.16L106.56 752.64L106.08 752.64z" stroke="none" fill="#000000" fill-rule="nonzero" /><path transform="matrix(1 0 0 -1 0 792)" d="M106.56 752.16L558.72 752.16L558.72 752.64L106.56 752.64z" stroke="none" fill="#000000" fill-rule="nonzero" /><path transform="matrix(1 0 0 -1 0 792)" d="M558.72 752.16L559.2 752.16L559.2 752.64L558.72 752.64z" stroke="none" fill="#000000" fill-rule="nonzero" /><path transform="matrix(1 0 0 -1 0 792)" d="M558.72 752.16L559.2 752.16L559.2 752.64L558.72 752.64z" stroke="none" fill="#000000" fill-rule="nonzero" /><path transform="matrix(1 0 0 -1 0 792)" d="M106.08 730.32L106.56 730.32L106.56 752.16L106.08 752.16z" stroke="none" fill="#000000" fill-rule="nonzero" /><path transform="matrix(1 0 0 -1 0 792)" d="M558.72 730.32L559.2 730.32L559.2 752.16L558.72 752.16z" stroke="none" fill="#000000" fill-rule="nonzero" /><g clip-path="url(#3)"><path transform="matrix(1 0 0 -1 0 792)" d="M106.32 694.8L172.56 694.8L172.56 730.08L106.32 730.08z" stroke="none" fill="#E6E6E6" fill-rule="nonzero" /></g><path transform="matrix(1 0 0 -1 0 792)" d="M111.12 710.16L167.52 710.16L167.52 727.68L111.12 727.68z" stroke="none" fill="#E6E6E6" fill-rule="nonzero" /><path transform="matrix(1 0 0 -1 0 792)" d="M111.12 696.96L167.52 696.96L167.52 710.16L111.12 710.16z" stroke="none" fill="#E6E6E6" fill-rule="nonzero" /><g clip-path="url(#4)"><path transform="matrix(1 0 0 -1 0 792)" d="M173.04 694.8L358.56 694.8L358.56 730.08L173.04 730.08z" stroke="none" fill="#E6E6E6" fill-rule="nonzero" /></g><path transform="matrix(1 0 0 -1 0 792)" d="M177.84 703.68L353.76 703.68L353.76 721.2L177.84 721.2z" stroke="none" fill="#E6E6E6" fill-rule="nonzero" /><g clip-path="url(#5)"><path transform="matrix(1 0 0 -1 0 792)" d="M359.04 694.8L460.08 694.8L460.08 730.08L359.04 730.08z" stroke="none" fill="#E6E6E6" fill-rule="nonzero" /></g><path transform="matrix(1 0 0 -1 0 792)" d="M363.84 711.12L455.28 711.12L455.28 730.08L363.84 730.08z" stroke="none" fill="#E6E6E6" fill-rule="nonzero" /><path transform="matrix(1 0 0 -1 0 792)" d="M363.84 694.8L455.28 694.8L455.28 711.12L363.84 711.12z" stroke="none" fill="#E6E6E6" fill-rule="nonzero" /><g clip-path="url(#6)"><path transform="matrix(1 0 0 -1 0 792)" d="M460.56 694.8L558.72 694.8L558.72 730.08L460.56 730.08z" stroke="none" fill="#E6E6E6" fill-rule="nonzero" /></g><path transform="matrix(1 0 0 -1 0 792)" d="M465.36 709.68L553.92 709.68L553.92 728.16L465.36 728.16z" stroke="none" fill="#E6E6E6" fill-rule="nonzero" /><path transform="matrix(1 0 0 -1 0 792)" d="M465.36 696.48L553.92 696.48L553.92 709.68L465.36 709.68z" stroke="none" fill="#E6E6E6" fill-rule="nonzero" /><path transform="matrix(1 0 0 -1 0 792)" d="M106.08 730.08L106.56 730.08L106.56 730.32L106.08 730.32z" stroke="none" fill="#000000" fill-rule="nonzero" /><path transform="matrix(1 0 0 -1 0 792)" d="M106.56 730.08L172.56 730.08L172.56 730.32L106.56 730.32z" stroke="none" fill="#000000" fill-rule="nonzero" /><path transform="matrix(1 0 0 -1 0 792)" d="M172.56 730.08L173.04 730.08L173.04 730.32L172.56 730.32z" stroke="none" fill="#000000" fill-rule="nonzero" /><path transform="matrix(1 0 0 -1 0 792)" d="M173.04 730.08L358.56 730.08L358.56 730.32L173.04 730.32z" stroke="none" fill="#000000" fill-rule="nonzero" /><path transform="matrix(1 0 0 -1 0 792)" d="M358.56 730.08L359.04 730.08L359.04 730.32L358.56 730.32z" stroke="none" fill="#000000" fill-rule="nonzero" /><path transform="matrix(1 0 0 -1 0 792)" d="M359.04 730.08L460.08 730.08L460.08 730.32L359.04 730.32z" stroke="none" fill="#000000" fill-rule="nonzero" /><path transform="matrix(1 0 0 -1 0 792)" d="M460.08 730.08L460.56 730.08L460.56 730.32L460.08 730.32z" stroke="none" fill="#000000" fill-rule="nonzero" /><path transform="matrix(1 0 0 -1 0 792)" d="M460.56 730.08L558.72 730.08L558.72 730.32L460.56 730.32z" stroke="none" fill="#000000" fill-rule="nonzero" /><path transform="matrix(1 0 0 -1 0 792)" d="M558.72 730.08L559.2 730.08L559.2 730.32L558.72 730.32z" stroke="none" fill="#000000" fill-rule="nonzero" /><path transform="matrix(1 0 0 -1 0 792)" d="M106.08 694.8L106.56 694.8L106.56 730.08L106.08 730.08z" stroke="none" fill="#000000" fill-rule="nonzero" /><path transform="matrix(1 0 0 -1 0 792)" d="M172.56 694.8L173.04 694.8L173.04 730.08L172.56 730.08z" stroke="none" fill="#000000" fill-rule="nonzero" /><path transform="matrix(1 0 0 -1 0 792)" d="M358.56 694.8L359.04 694.8L359.04 730.08L358.56 730.08z" stroke="none" fill="#000000" fill-rule="nonzero" /><path transform="matrix(1 0 0 -1 0 792)" d="M460.08 694.8L460.56 694.8L460.56 730.08L460.08 730.08z" stroke="none" fill="#000000" fill-rule="nonzero" /><path transform="matrix(1 0 0 -1 0 792)" d="M558.72 694.8L559.2 694.8L559.2 730.08L558.72 730.08z" stroke="none" fill="#000000" fill-rule="nonzero" /><path transform="matrix(1 0 0 -1 0 792)" d="M106.08 694.32L106.56 694.32L106.56 694.8L106.08 694.8z" stroke="none" fill="#000000" fill-rule="nonzero" /><path transform="matrix(1 0 0 -1 0 792)" d="M106.56 694.32L172.56 694.32L172.56 694.8L106.56 694.8z" stroke="none" fill="#000000" fill-rule="nonzero" /><path transform="matrix(1 0 0 -1 0 792)" d="M172.56 694.32L173.04 694.32L173.04 694.8L172.56 694.8z" stroke="none" fill="#000000" fill-rule="nonzero" /><path transform="matrix(1 0 0 -1 0 792)" d="M173.04 694.32L358.56 694.32L358.56 694.8L173.04 694.8z" stroke="none" fill="#000000" fill-rule="nonzero" /><path transform="matrix(1 0 0 -1 0 792)" d="M358.56 694.32L359.04 694.32L359.04 694.8L358.56 694.8z" stroke="none" fill="#000000" fill-rule="nonzero" /><path transform="matrix(1 0 0 -1 0 792)" d="M359.04 694.32L460.08 694.32L460.08 694.8L359.04 694.8z" stroke="none" fill="#000000" fill-rule="nonzero" /><path transform="matrix(1 0 0 -1 0 792)" d="M460.08 694.32L460.56 694.32L460.56 694.8L460.08 694.8z" stroke="none" fill="#000000" fill-rule="nonzero" /><path transform="matrix(1 0 0 -1 0 792)" d="M460.56 694.32L558.72 694.32L558.72 694.8L460.56 694.8z" stroke="none" fill="#000000" fill-rule="nonzero" /><path transform="matrix(1 0 0 -1 0 792)" d="M558.72 694.32L559.2 694.32L559.2 694.8L558.72 694.8z" stroke="none" fill="#000000" fill-rule="nonzero" /><path transform="matrix(1 0 0 -1 0 792)" d="M106.08 676.56L106.56 676.56L106.56 694.32L106.08 694.32z" stroke="none" fill="#000000" fill-rule="nonzero" /><path transform="matrix(1 0 0 -1 0 792)" d="M172.56 676.56L173.04 676.56L173.04 694.32L172.56 694.32z" stroke="none" fill="#000000" fill-rule="nonzero" /><path transform="matrix(1 0 0 -1 0 792)" d="M358.56 676.56L359.04 676.56L359.04 694.32L358.56 694.32z" stroke="none" fill="#000000" fill-rule="nonzero" /><path transform="matrix(1 0 0 -1 0 792)" d="M460.08 676.56L460.56 676.56L460.56 694.32L460.08 694.32z" stroke="none" fill="#000000" fill-rule="nonzero" /><path transform="matrix(1 0 0 -1 0 792)" d="M558.72 676.56L559.2 676.56L559.2 694.32L558.72 694.32z" stroke="none" fill="#000000" fill-rule="nonzero" /><path transform="matrix(1 0 0 -1 0 792)" d="M106.08 676.08L106.56 676.08L106.56 676.56L106.08 676.56z" stroke="none" fill="#000000" fill-rule="nonzero" /><path transform="matrix(1 0 0 -1 0 792)" d="M106.56 676.08L172.56 676.08L172.56 676.56L106.56 676.56z" stroke="none" fill="#000000" fill-rule="nonzero" /><path transform="matrix(1 0 0 -1 0 792)" d="M172.56 676.08L173.04 676.08L173.04 676.56L172.56 676.56z" stroke="none" fill="#000000" fill-rule="nonzero" /><path transform="matrix(1 0 0 -1 0 792)" d="M173.04 676.08L358.56 676.08L358.56 676.56L173.04 676.56z" stroke="none" fill="#000000" fill-rule="nonzero" /><path transform="matrix(1 0 0 -1 0 792)" d="M358.56 676.08L359.04 676.08L359.04 676.56L358.56 676.56z" stroke="none" fill="#000000" fill-rule="nonzero" /><path transform="matrix(1 0 0 -1 0 792)" d="M359.04 676.08L460.08 676.08L460.08 676.56L359.04 676.56z" stroke="none" fill="#000000" fill-rule="nonzero" /><path transform="matrix(1 0 0 -1 0 792)" d="M460.08 676.08L460.56 676.08L460.56 676.56L460.08 676.56z" stroke="none" fill="#000000" fill-rule="nonzero" /><path transform="matrix(1 0 0 -1 0 792)" d="M460.56 676.08L558.72 676.08L558.72 676.56L460.56 676.56z" stroke="none" fill="#000000" fill-rule="nonzero" /><path transform="matrix(1 0 0 -1 0 792)" d="M558.72 676.08L559.2 676.08L559.2 676.56L558.72 676.56z" stroke="none" fill="#000000" fill-rule="nonzero" /><path transform="matrix(1 0 0 -1 0 792)" d="M106.08 658.08L106.56 658.08L106.56 676.08L106.08 676.08z" stroke="none" fill="#000000" fill-rule="nonzero" /><path transform="matrix(1 0 0 -1 0 792)" d="M172.56 658.08L173.04 658.08L173.04 676.08L172.56 676.08z" stroke="none" fill="#000000" fill-rule="nonzero" /><path transform="matrix(1 0 0 -1 0 792)" d="M358.56 658.08L359.04 658.08L359.04 676.08L358.56 676.08z" stroke="none" fill="#000000" fill-rule="nonzero" /><path transform="matrix(1 0 0 -1 0 792)" d="M460.08 658.08L460.56 658.08L460.56 676.08L460.08 676.08z" stroke="none" fill="#000000" fill-rule="nonzero" /><path transform="matrix(1 0 0 -1 0 792)" d="M558.72 658.08L559.2 658.08L559.2 676.08L558.72 676.08z" stroke="none" fill="#000000" fill-rule="nonzero" /><path transform="matrix(1 0 0 -1 0 792)" d="M106.08 657.6L106.56 657.6L106.56 658.08L106.08 658.08z" stroke="none" fill="#000000" fill-rule="nonzero" /><path transform="matrix(1 0 0 -1 0 792)" d="M106.56 657.6L172.56 657.6L172.56 658.08L106.56 658.08z" stroke="none" fill="#000000" fill-rule="nonzero" /><path transform="matrix(1 0 0 -1 0 792)" d="M172.56 657.6L173.04 657.6L173.04 658.08L172.56 658.08z" stroke="none" fill="#000000" fill-rule="nonzero" /><path transform="matrix(1 0 0 -1 0 792)" d="M173.04 657.6L358.56 657.6L358.56 658.08L173.04 658.08z" stroke="none" fill="#000000" fill-rule="nonzero" /><path transform="matrix(1 0 0 -1 0 792)" d="M358.56 657.6L359.04 657.6L359.04 658.08L358.56 658.08z" stroke="none" fill="#000000" fill-rule="nonzero" /><path transform="matrix(1 0 0 -1 0 792)" d="M359.04 657.6L460.08 657.6L460.08 658.08L359.04 658.08z" stroke="none" fill="#000000" fill-rule="nonzero" /><path transform="matrix(1 0 0 -1 0 792)" d="M460.08 657.6L460.56 657.6L460.56 658.08L460.08 658.08z" stroke="none" fill="#000000" fill-rule="nonzero" /><path transform="matrix(1 0 0 -1 0 792)" d="M460.56 657.6L558.72 657.6L558.72 658.08L460.56 658.08z" stroke="none" fill="#000000" fill-rule="nonzero" /><path transform="matrix(1 0 0 -1 0 792)" d="M558.72 657.6L559.2 657.6L559.2 658.08L558.72 658.08z" stroke="none" fill="#000000" fill-rule="nonzero" /><path transform="matrix(1 0 0 -1 0 792)" d="M106.08 639.6L106.56 639.6L106.56 657.6L106.08 657.6z" stroke="none" fill="#000000" fill-rule="nonzero" /><path transform="matrix(1 0 0 -1 0 792)" d="M172.56 639.6L173.04 639.6L173.04 657.6L172.56 657.6z" stroke="none" fill="#000000" fill-rule="nonzero" /><path transform="matrix(1 0 0 -1 0 792)" d="M358.56 639.6L359.04 639.6L359.04 657.6L358.56 657.6z" stroke="none" fill="#000000" fill-rule="nonzero" /><path transform="matrix(1 0 0 -1 0 792)" d="M460.08 639.6L460.56 639.6L460.56 657.6L460.08 657.6z" stroke="none" fill="#000000" fill-rule="nonzero" /><path transform="matrix(1 0 0 -1 0 792)" d="M558.72 639.6L559.2 639.6L559.2 657.6L558.72 657.6z" stroke="none" fill="#000000" fill-rule="nonzero" /><path transform="matrix(1 0 0 -1 0 792)" d="M106.08 639.12L106.56 639.12L106.56 639.6L106.08 639.6z" stroke="none" fill="#000000" fill-rule="nonzero" /><path transform="matrix(1 0 0 -1 0 792)" d="M106.56 639.12L172.56 639.12L172.56 639.6L106.56 639.6z" stroke="none" fill="#000000" fill-rule="nonzero" /><path transform="matrix(1 0 0 -1 0 792)" d="M172.56 639.12L173.04 639.12L173.04 639.6L172.56 639.6z" stroke="none" fill="#000000" fill-rule="nonzero" /><path transform="matrix(1 0 0 -1 0 792)" d="M173.04 639.12L358.56 639.12L358.56 639.6L173.04 639.6z" stroke="none" fill="#000000" fill-rule="nonzero" /><path transform="matrix(1 0 0 -1 0 792)" d="M358.56 639.12L359.04 639.12L359.04 639.6L358.56 639.6z" stroke="none" fill="#000000" fill-rule="nonzero" /><path transform="matrix(1 0 0 -1 0 792)" d="M359.04 639.12L460.08 639.12L460.08 639.6L359.04 639.6z" stroke="none" fill="#000000" fill-rule="nonzero" /><path transform="matrix(1 0 0 -1 0 792)" d="M460.08 639.12L460.56 639.12L460.56 639.6L460.08 639.6z" stroke="none" fill="#000000" fill-rule="nonzero" /><path transform="matrix(1 0 0 -1 0 792)" d="M460.56 639.12L558.72 639.12L558.72 639.6L460.56 639.6z" stroke="none" fill="#000000" fill-rule="nonzero" /><path transform="matrix(1 0 0 -1 0 792)" d="M558.72 639.12L559.2 639.12L559.2 639.6L558.72 639.6z" stroke="none" fill="#000000" fill-rule="nonzero" /><path transform="matrix(1 0 0 -1 0 792)" d="M106.08 620.88L106.56 620.88L106.56 639.1199L106.08 639.1199z" stroke="none" fill="#000000" fill-rule="nonzero" /><path transform="matrix(1 0 0 -1 0 792)" d="M172.56 620.88L173.04 620.88L173.04 639.1199L172.56 639.1199z" stroke="none" fill="#000000" fill-rule="nonzero" /><path transform="matrix(1 0 0 -1 0 792)" d="M358.56 620.88L359.04 620.88L359.04 639.1199L358.56 639.1199z" stroke="none" fill="#000000" fill-rule="nonzero" /><path transform="matrix(1 0 0 -1 0 792)" d="M460.08 620.88L460.56 620.88L460.56 639.1199L460.08 639.1199z" stroke="none" fill="#000000" fill-rule="nonzero" /><path transform="matrix(1 0 0 -1 0 792)" d="M558.72 620.88L559.2 620.88L559.2 639.1199L558.72 639.1199z" stroke="none" fill="#000000" fill-rule="nonzero" /><path transform="matrix(1 0 0 -1 0 792)" d="M106.08 620.64L106.56 620.64L106.56 620.88L106.08 620.88z" stroke="none" fill="#000000" fill-rule="nonzero" /><path transform="matrix(1 0 0 -1 0 792)" d="M106.56 620.64L172.56 620.64L172.56 620.88L106.56 620.88z" stroke="none" fill="#000000" fill-rule="nonzero" /><path transform="matrix(1 0 0 -1 0 792)" d="M172.56 620.64L173.04 620.64L173.04 620.88L172.56 620.88z" stroke="none" fill="#000000" fill-rule="nonzero" /><path transform="matrix(1 0 0 -1 0 792)" d="M173.04 620.64L358.56 620.64L358.56 620.88L173.04 620.88z" stroke="none" fill="#000000" fill-rule="nonzero" /><path transform="matrix(1 0 0 -1 0 792)" d="M358.56 620.64L359.04 620.64L359.04 620.88L358.56 620.88z" stroke="none" fill="#000000" fill-rule="nonzero" /><path transform="matrix(1 0 0 -1 0 792)" d="M359.04 620.64L460.08 620.64L460.08 620.88L359.04 620.88z" stroke="none" fill="#000000" fill-rule="nonzero" /><path transform="matrix(1 0 0 -1 0 792)" d="M460.08 620.64L460.56 620.64L460.56 620.88L460.08 620.88z" stroke="none" fill="#000000" fill-rule="nonzero" /><path transform="matrix(1 0 0 -1 0 792)" d="M460.56 620.64L558.72 620.64L558.72 620.88L460.56 620.88z" stroke="none" fill="#000000" fill-rule="nonzero" /><path transform="matrix(1 0 0 -1 0 792)" d="M558.72 620.64L559.2 620.64L559.2 620.88L558.72 620.88z" stroke="none" fill="#000000" fill-rule="nonzero" /><path transform="matrix(1 0 0 -1 0 792)" d="M106.08 602.4L106.56 602.4L106.56 620.64L106.08 620.64z" stroke="none" fill="#000000" fill-rule="nonzero" /><path transform="matrix(1 0 0 -1 0 792)" d="M172.56 602.4L173.04 602.4L173.04 620.64L172.56 620.64z" stroke="none" fill="#000000" fill-rule="nonzero" /><path transform="matrix(1 0 0 -1 0 792)" d="M358.56 602.4L359.04 602.4L359.04 620.64L358.56 620.64z" stroke="none" fill="#000000" fill-rule="nonzero" /><path transform="matrix(1 0 0 -1 0 792)" d="M460.08 602.4L460.56 602.4L460.56 620.64L460.08 620.64z" stroke="none" fill="#000000" fill-rule="nonzero" /><path transform="matrix(1 0 0 -1 0 792)" d="M558.72 602.4L559.2 602.4L559.2 620.64L558.72 620.64z" stroke="none" fill="#000000" fill-rule="nonzero" /><path transform="matrix(1 0 0 -1 0 792)" d="M106.08 602.16L106.56 602.16L106.56 602.4L106.08 602.4z" stroke="none" fill="#000000" fill-rule="nonzero" /><path transform="matrix(1 0 0 -1 0 792)" d="M106.56 602.16L172.56 602.16L172.56 602.4L106.56 602.4z" stroke="none" fill="#000000" fill-rule="nonzero" /><path transform="matrix(1 0 0 -1 0 792)" d="M172.56 602.16L173.04 602.16L173.04 602.4L172.56 602.4z" stroke="none" fill="#000000" fill-rule="nonzero" /><path transform="matrix(1 0 0 -1 0 792)" d="M173.04 602.16L358.56 602.16L358.56 602.4L173.04 602.4z" stroke="none" fill="#000000" fill-rule="nonzero" /><path transform="matrix(1 0 0 -1 0 792)" d="M358.56 602.16L359.04 602.16L359.04 602.4L358.56 602.4z" stroke="none" fill="#000000" fill-rule="nonzero" /><path transform="matrix(1 0 0 -1 0 792)" d="M359.04 602.16L460.08 602.16L460.08 602.4L359.04 602.4z" stroke="none" fill="#000000" fill-rule="nonzero" /><path transform="matrix(1 0 0 -1 0 792)" d="M460.08 602.16L460.56 602.16L460.56 602.4L460.08 602.4z" stroke="none" fill="#000000" fill-rule="nonzero" /><path transform="matrix(1 0 0 -1 0 792)" d="M460.56 602.16L558.72 602.16L558.72 602.4L460.56 602.4z" stroke="none" fill="#000000" fill-rule="nonzero" /><path transform="matrix(1 0 0 -1 0 792)" d="M558.72 602.16L559.2 602.16L559.2 602.4L558.72 602.4z" stroke="none" fill="#000000" fill-rule="nonzero" /><path transform="matrix(1 0 0 -1 0 792)" d="M106.08 583.92L106.56 583.92L106.56 602.1599L106.08 602.1599z" stroke="none" fill="#000000" fill-rule="nonzero" /><path transform="matrix(1 0 0 -1 0 792)" d="M172.56 583.92L173.04 583.92L173.04 602.1599L172.56 602.1599z" stroke="none" fill="#000000" fill-rule="nonzero" /><path transform="matrix(1 0 0 -1 0 792)" d="M358.56 583.92L359.04 583.92L359.04 602.1599L358.56 602.1599z" stroke="none" fill="#000000" fill-rule="nonzero" /><path transform="matrix(1 0 0 -1 0 792)" d="M460.08 583.92L460.56 583.92L460.56 602.1599L460.08 602.1599z" stroke="none" fill="#000000" fill-rule="nonzero" /><path transform="matrix(1 0 0 -1 0 792)" d="M558.72 583.92L559.2 583.92L559.2 602.1599L558.72 602.1599z" stroke="none" fill="#000000" fill-rule="nonzero" /><g clip-path="url(#7)"></g><g clip-path="url(#8)"></g><g clip-path="url(#9)"></g><g clip-path="url(#10)"></g><path transform="matrix(1 0 0 -1 0 792)" d="M106.08 583.44L106.56 583.44L106.56 583.92L106.08 583.92z" stroke="none" fill="#000000" fill-rule="nonzero" /><path transform="matrix(1 0 0 -1 0 792)" d="M106.56 583.44L172.56 583.44L172.56 583.92L106.56 583.92z" stroke="none" fill="#000000" fill-rule="nonzero" /><path transform="matrix(1 0 0 -1 0 792)" d="M172.56 583.44L173.04 583.44L173.04 583.92L172.56 583.92z" stroke="none" fill="#000000" fill-rule="nonzero" /><path transform="matrix(1 0 0 -1 0 792)" d="M173.04 583.44L358.56 583.44L358.56 583.92L173.04 583.92z" stroke="none" fill="#000000" fill-rule="nonzero" /><path transform="matrix(1 0 0 -1 0 792)" d="M358.56 583.44L359.04 583.44L359.04 583.92L358.56 583.92z" stroke="none" fill="#000000" fill-rule="nonzero" /><path transform="matrix(1 0 0 -1 0 792)" d="M359.04 583.44L460.08 583.44L460.08 583.92L359.04 583.92z" stroke="none" fill="#000000" fill-rule="nonzero" /><path transform="matrix(1 0 0 -1 0 792)" d="M460.08 583.44L460.56 583.44L460.56 583.92L460.08 583.92z" stroke="none" fill="#000000" fill-rule="nonzero" /><path transform="matrix(1 0 0 -1 0 792)" d="M460.56 583.44L558.72 583.44L558.72 583.92L460.56 583.92z" stroke="none" fill="#000000" fill-rule="nonzero" /><path transform="matrix(1 0 0 -1 0 792)" d="M558.72 583.44L559.2 583.44L559.2 583.92L558.72 583.92z" stroke="none" fill="#000000" fill-rule="nonzero" /><path transform="matrix(1 0 0 -1 0 792)" d="M106.08 565.92L106.56 565.92L106.56 583.44L106.08 583.44z" stroke="none" fill="#000000" fill-rule="nonzero" /><path transform="matrix(1 0 0 -1 0 792)" d="M172.56 565.92L173.04 565.92L173.04 583.44L172.56 583.44z" stroke="none" fill="#000000" fill-rule="nonzero" /><path transform="matrix(1 0 0 -1 0 792)" d="M358.56 565.92L359.04 565.92L359.04 583.44L358.56 583.44z" stroke="none" fill="#000000" fill-rule="nonzero" /><path transform="matrix(1 0 0 -1 0 792)" d="M460.08 565.92L460.56 565.92L460.56 583.44L460.08 583.44z" stroke="none" fill="#000000" fill-rule="nonzero" /><path transform="matrix(1 0 0 -1 0 792)" d="M558.72 565.92L559.2 565.92L559.2 583.44L558.72 583.44z" stroke="none" fill="#000000" fill-rule="nonzero" /><path transform="matrix(1 0 0 -1 0 792)" d="M106.08 565.44L106.56 565.44L106.56 565.92L106.08 565.92z" stroke="none" fill="#000000" fill-rule="nonzero" /><path transform="matrix(1 0 0 -1 0 792)" d="M106.56 565.44L172.56 565.44L172.56 565.92L106.56 565.92z" stroke="none" fill="#000000" fill-rule="nonzero" /><path transform="matrix(1 0 0 -1 0 792)" d="M172.56 565.44L173.04 565.44L173.04 565.92L172.56 565.92z" stroke="none" fill="#000000" fill-rule="nonzero" /><path transform="matrix(1 0 0 -1 0 792)" d="M173.04 565.44L358.56 565.44L358.56 565.92L173.04 565.92z" stroke="none" fill="#000000" fill-rule="nonzero" /><path transform="matrix(1 0 0 -1 0 792)" d="M358.56 565.44L359.04 565.44L359.04 565.92L358.56 565.92z" stroke="none" fill="#000000" fill-rule="nonzero" /><path transform="matrix(1 0 0 -1 0 792)" d="M359.04 565.44L460.08 565.44L460.08 565.92L359.04 565.92z" stroke="none" fill="#000000" fill-rule="nonzero" /><path transform="matrix(1 0 0 -1 0 792)" d="M460.08 565.44L460.56 565.44L460.56 565.92L460.08 565.92z" stroke="none" fill="#000000" fill-rule="nonzero" /><path transform="matrix(1 0 0 -1 0 792)" d="M460.56 565.44L558.72 565.44L558.72 565.92L460.56 565.92z" stroke="none" fill="#000000" fill-rule="nonzero" /><path transform="matrix(1 0 0 -1 0 792)" d="M558.72 565.44L559.2 565.44L559.2 565.92L558.72 565.92z" stroke="none" fill="#000000" fill-rule="nonzero" /><path transform="matrix(1 0 0 -1 0 792)" d="M106.08 547.68L106.56 547.68L106.56 565.44L106.08 565.44z" stroke="none" fill="#000000" fill-rule="nonzero" /><path transform="matrix(1 0 0 -1 0 792)" d="M172.56 547.68L173.04 547.68L173.04 565.44L172.56 565.44z" stroke="none" fill="#000000" fill-rule="nonzero" /><path transform="matrix(1 0 0 -1 0 792)" d="M358.56 547.68L359.04 547.68L359.04 565.44L358.56 565.44z" stroke="none" fill="#000000" fill-rule="nonzero" /><path transform="matrix(1 0 0 -1 0 792)" d="M460.08 547.68L460.56 547.68L460.56 565.44L460.08 565.44z" stroke="none" fill="#000000" fill-rule="nonzero" /><path transform="matrix(1 0 0 -1 0 792)" d="M558.72 547.68L559.2 547.68L559.2 565.44L558.72 565.44z" stroke="none" fill="#000000" fill-rule="nonzero" /><g clip-path="url(#11)"></g><g clip-path="url(#12)"></g><g clip-path="url(#13)"></g><g clip-path="url(#14)"></g><path transform="matrix(1 0 0 -1 0 792)" d="M106.08 547.2L106.56 547.2L106.56 547.68L106.08 547.68z" stroke="none" fill="#000000" fill-rule="nonzero" /><path transform="matrix(1 0 0 -1 0 792)" d="M106.56 547.2L172.56 547.2L172.56 547.68L106.56 547.68z" stroke="none" fill="#000000" fill-rule="nonzero" /><path transform="matrix(1 0 0 -1 0 792)" d="M172.56 547.2L173.04 547.2L173.04 547.68L172.56 547.68z" stroke="none" fill="#000000" fill-rule="nonzero" /><path transform="matrix(1 0 0 -1 0 792)" d="M173.04 547.2L358.56 547.2L358.56 547.68L173.04 547.68z" stroke="none" fill="#000000" fill-rule="nonzero" /><path transform="matrix(1 0 0 -1 0 792)" d="M358.56 547.2L359.04 547.2L359.04 547.68L358.56 547.68z" stroke="none" fill="#000000" fill-rule="nonzero" /><path transform="matrix(1 0 0 -1 0 792)" d="M359.04 547.2L460.08 547.2L460.08 547.68L359.04 547.68z" stroke="none" fill="#000000" fill-rule="nonzero" /><path transform="matrix(1 0 0 -1 0 792)" d="M460.08 547.2L460.56 547.2L460.56 547.68L460.08 547.68z" stroke="none" fill="#000000" fill-rule="nonzero" /><path transform="matrix(1 0 0 -1 0 792)" d="M460.56 547.2L558.72 547.2L558.72 547.68L460.56 547.68z" stroke="none" fill="#000000" fill-rule="nonzero" /><path transform="matrix(1 0 0 -1 0 792)" d="M558.72 547.2L559.2 547.2L559.2 547.68L558.72 547.68z" stroke="none" fill="#000000" fill-rule="nonzero" /><path transform="matrix(1 0 0 -1 0 792)" d="M106.08 529.68L106.56 529.68L106.56 547.2L106.08 547.2z" stroke="none" fill="#000000" fill-rule="nonzero" /><path transform="matrix(1 0 0 -1 0 792)" d="M172.56 529.68L173.04 529.68L173.04 547.2L172.56 547.2z" stroke="none" fill="#000000" fill-rule="nonzero" /><path transform="matrix(1 0 0 -1 0 792)" d="M358.56 529.68L359.04 529.68L359.04 547.2L358.56 547.2z" stroke="none" fill="#000000" fill-rule="nonzero" /><path transform="matrix(1 0 0 -1 0 792)" d="M460.08 529.68L460.56 529.68L460.56 547.2L460.08 547.2z" stroke="none" fill="#000000" fill-rule="nonzero" /><path transform="matrix(1 0 0 -1 0 792)" d="M558.72 529.68L559.2 529.68L559.2 547.2L558.72 547.2z" stroke="none" fill="#000000" fill-rule="nonzero" /><g clip-path="url(#15)"><path transform="matrix(1 0 0 -1 0 792)" d="M106.32 507.6L558.72 507.6L558.72 529.2L106.32 529.2z" stroke="none" fill="#CCCCCC" fill-rule="nonzero" /></g><path transform="matrix(1 0 0 -1 0 792)" d="M111.12 509.52L553.92 509.52L553.92 527.04L111.12 527.04z" stroke="none" fill="#CCCCCC" fill-rule="nonzero" /><path transform="matrix(1 0 0 -1 0 792)" d="M106.08 529.2L106.56 529.2L106.56 529.68L106.08 529.68z" stroke="none" fill="#000000" fill-rule="nonzero" /><path transform="matrix(1 0 0 -1 0 792)" d="M106.56 529.2L172.56 529.2L172.56 529.68L106.56 529.68z" stroke="none" fill="#000000" fill-rule="nonzero" /><path transform="matrix(1 0 0 -1 0 792)" d="M172.56 529.2L173.04 529.2L173.04 529.68L172.56 529.68z" stroke="none" fill="#000000" fill-rule="nonzero" /><path transform="matrix(1 0 0 -1 0 792)" d="M173.04 529.2L358.56 529.2L358.56 529.68L173.04 529.68z" stroke="none" fill="#000000" fill-rule="nonzero" /><path transform="matrix(1 0 0 -1 0 792)" d="M358.56 529.2L359.04 529.2L359.04 529.68L358.56 529.68z" stroke="none" fill="#000000" fill-rule="nonzero" /><path transform="matrix(1 0 0 -1 0 792)" d="M359.04 529.2L460.08 529.2L460.08 529.68L359.04 529.68z" stroke="none" fill="#000000" fill-rule="nonzero" /><path transform="matrix(1 0 0 -1 0 792)" d="M460.08 529.2L460.56 529.2L460.56 529.68L460.08 529.68z" stroke="none" fill="#000000" fill-rule="nonzero" /><path transform="matrix(1 0 0 -1 0 792)" d="M460.56 529.2L558.72 529.2L558.72 529.68L460.56 529.68z" stroke="none" fill="#000000" fill-rule="nonzero" /><path transform="matrix(1 0 0 -1 0 792)" d="M558.72 529.2L559.2 529.2L559.2 529.68L558.72 529.68z" stroke="none" fill="#000000" fill-rule="nonzero" /><path transform="matrix(1 0 0 -1 0 792)" d="M106.08 507.6L106.56 507.6L106.56 529.2L106.08 529.2z" stroke="none" fill="#000000" fill-rule="nonzero" /><path transform="matrix(1 0 0 -1 0 792)" d="M558.72 507.6L559.2 507.6L559.2 529.2L558.72 529.2z" stroke="none" fill="#000000" fill-rule="nonzero" /><g clip-path="url(#16)"><path transform="matrix(1 0 0 -1 0 792)" d="M106.32 471.84L171.36 471.84L171.36 507.12L106.32 507.12z" stroke="none" fill="#E6E6E6" fill-rule="nonzero" /></g><path transform="matrix(1 0 0 -1 0 792)" d="M111.12 487.2L166.8 487.2L166.8 504.72L111.12 504.72z" stroke="none" fill="#E6E6E6" fill-rule="nonzero" /><path transform="matrix(1 0 0 -1 0 792)" d="M111.12 474.24L166.8 474.24L166.8 487.2L111.12 487.2z" stroke="none" fill="#E6E6E6" fill-rule="nonzero" /><g clip-path="url(#17)"><path transform="matrix(1 0 0 -1 0 792)" d="M171.84 471.84L358.08 471.84L358.08 507.12L171.84 507.12z" stroke="none" fill="#E6E6E6" fill-rule="nonzero" /></g><path transform="matrix(1 0 0 -1 0 792)" d="M176.88 480.72L353.04 480.72L353.04 498.24L176.88 498.24z" stroke="none" fill="#E6E6E6" fill-rule="nonzero" /><g clip-path="url(#18)"><path transform="matrix(1 0 0 -1 0 792)" d="M358.56 471.84L457.92 471.84L457.92 507.12L358.56 507.12z" stroke="none" fill="#E6E6E6" fill-rule="nonzero" /></g><path transform="matrix(1 0 0 -1 0 792)" d="M363.12 488.4L452.88 488.4L452.88 507.12L363.12 507.12z" stroke="none" fill="#E6E6E6" fill-rule="nonzero" /><path transform="matrix(1 0 0 -1 0 792)" d="M363.12 471.84L452.88 471.84L452.88 488.4L363.12 488.4z" stroke="none" fill="#E6E6E6" fill-rule="nonzero" /><g clip-path="url(#19)"><path transform="matrix(1 0 0 -1 0 792)" d="M458.4 471.84L558.72 471.84L558.72 507.12L458.4 507.12z" stroke="none" fill="#E6E6E6" fill-rule="nonzero" /></g><path transform="matrix(1 0 0 -1 0 792)" d="M463.2 486.72L553.92 486.72L553.92 505.2L463.2 505.2z" stroke="none" fill="#E6E6E6" fill-rule="nonzero" /><path transform="matrix(1 0 0 -1 0 792)" d="M463.2 473.76L553.92 473.76L553.92 486.72L463.2 486.72z" stroke="none" fill="#E6E6E6" fill-rule="nonzero" /><path transform="matrix(1 0 0 -1 0 792)" d="M106.08 507.12L106.56 507.12L106.56 507.6L106.08 507.6z" stroke="none" fill="#000000" fill-rule="nonzero" /><path transform="matrix(1 0 0 -1 0 792)" d="M106.56 507.12L171.36 507.12L171.36 507.6L106.56 507.6z" stroke="none" fill="#000000" fill-rule="nonzero" /><path transform="matrix(1 0 0 -1 0 792)" d="M171.36 507.12L171.84 507.12L171.84 507.6L171.36 507.6z" stroke="none" fill="#000000" fill-rule="nonzero" /><path transform="matrix(1 0 0 -1 0 792)" d="M171.84 507.12L358.08 507.12L358.08 507.6L171.84 507.6z" stroke="none" fill="#000000" fill-rule="nonzero" /><path transform="matrix(1 0 0 -1 0 792)" d="M358.08 507.12L358.56 507.12L358.56 507.6L358.08 507.6z" stroke="none" fill="#000000" fill-rule="nonzero" /><path transform="matrix(1 0 0 -1 0 792)" d="M358.56 507.12L457.92 507.12L457.92 507.6L358.56 507.6z" stroke="none" fill="#000000" fill-rule="nonzero" /><path transform="matrix(1 0 0 -1 0 792)" d="M457.92 507.12L458.4 507.12L458.4 507.6L457.92 507.6z" stroke="none" fill="#000000" fill-rule="nonzero" /><path transform="matrix(1 0 0 -1 0 792)" d="M458.4 507.12L558.72 507.12L558.72 507.6L458.4 507.6z" stroke="none" fill="#000000" fill-rule="nonzero" /><path transform="matrix(1 0 0 -1 0 792)" d="M558.72 507.12L559.2 507.12L559.2 507.6L558.72 507.6z" stroke="none" fill="#000000" fill-rule="nonzero" /><path transform="matrix(1 0 0 -1 0 792)" d="M106.08 471.84L106.56 471.84L106.56 507.12L106.08 507.12z" stroke="none" fill="#000000" fill-rule="nonzero" /><path transform="matrix(1 0 0 -1 0 792)" d="M171.36 471.84L171.84 471.84L171.84 507.12L171.36 507.12z" stroke="none" fill="#000000" fill-rule="nonzero" /><path transform="matrix(1 0 0 -1 0 792)" d="M358.08 471.84L358.56 471.84L358.56 507.12L358.08 507.12z" stroke="none" fill="#000000" fill-rule="nonzero" /><path transform="matrix(1 0 0 -1 0 792)" d="M457.92 471.84L458.4 471.84L458.4 507.12L457.92 507.12z" stroke="none" fill="#000000" fill-rule="nonzero" /><path transform="matrix(1 0 0 -1 0 792)" d="M558.72 471.84L559.2 471.84L559.2 507.12L558.72 507.12z" stroke="none" fill="#000000" fill-rule="nonzero" /><path transform="matrix(1 0 0 -1 0 792)" d="M106.08 471.36L106.56 471.36L106.56 471.84L106.08 471.84z" stroke="none" fill="#000000" fill-rule="nonzero" /><path transform="matrix(1 0 0 -1 0 792)" d="M106.56 471.36L171.36 471.36L171.36 471.84L106.56 471.84z" stroke="none" fill="#000000" fill-rule="nonzero" /><path transform="matrix(1 0 0 -1 0 792)" d="M171.36 471.36L171.84 471.36L171.84 471.84L171.36 471.84z" stroke="none" fill="#000000" fill-rule="nonzero" /><path transform="matrix(1 0 0 -1 0 792)" d="M171.84 471.36L358.08 471.36L358.08 471.84L171.84 471.84z" stroke="none" fill="#000000" fill-rule="nonzero" /><path transform="matrix(1 0 0 -1 0 792)" d="M358.08 471.36L358.56 471.36L358.56 471.84L358.08 471.84z" stroke="none" fill="#000000" fill-rule="nonzero" /><path transform="matrix(1 0 0 -1 0 792)" d="M358.56 471.36L457.92 471.36L457.92 471.84L358.56 471.84z" stroke="none" fill="#000000" fill-rule="nonzero" /><path transform="matrix(1 0 0 -1 0 792)" d="M457.92 471.36L458.4 471.36L458.4 471.84L457.92 471.84z" stroke="none" fill="#000000" fill-rule="nonzero" /><path transform="matrix(1 0 0 -1 0 792)" d="M458.4 471.36L558.72 471.36L558.72 471.84L458.4 471.84z" stroke="none" fill="#000000" fill-rule="nonzero" /><path transform="matrix(1 0 0 -1 0 792)" d="M558.72 471.36L559.2 471.36L559.2 471.84L558.72 471.84z" stroke="none" fill="#000000" fill-rule="nonzero" /><path transform="matrix(1 0 0 -1 0 792)" d="M106.08 453.6L106.56 453.6L106.56 471.36L106.08 471.36z" stroke="none" fill="#000000" fill-rule="nonzero" /><path transform="matrix(1 0 0 -1 0 792)" d="M171.36 453.6L171.84 453.6L171.84 471.36L171.36 471.36z" stroke="none" fill="#000000" fill-rule="nonzero" /><path transform="matrix(1 0 0 -1 0 792)" d="M358.08 453.6L358.56 453.6L358.56 471.36L358.08 471.36z" stroke="none" fill="#000000" fill-rule="nonzero" /><path transform="matrix(1 0 0 -1 0 792)" d="M457.92 453.6L458.4 453.6L458.4 471.36L457.92 471.36z" stroke="none" fill="#000000" fill-rule="nonzero" /><path transform="matrix(1 0 0 -1 0 792)" d="M558.72 453.6L559.2 453.6L559.2 471.36L558.72 471.36z" stroke="none" fill="#000000" fill-rule="nonzero" /><path transform="matrix(1 0 0 -1 0 792)" d="M106.08 453.12L106.56 453.12L106.56 453.6L106.08 453.6z" stroke="none" fill="#000000" fill-rule="nonzero" /><path transform="matrix(1 0 0 -1 0 792)" d="M106.56 453.12L171.36 453.12L171.36 453.6L106.56 453.6z" stroke="none" fill="#000000" fill-rule="nonzero" /><path transform="matrix(1 0 0 -1 0 792)" d="M171.36 453.12L171.84 453.12L171.84 453.6L171.36 453.6z" stroke="none" fill="#000000" fill-rule="nonzero" /><path transform="matrix(1 0 0 -1 0 792)" d="M171.84 453.12L358.08 453.12L358.08 453.6L171.84 453.6z" stroke="none" fill="#000000" fill-rule="nonzero" /><path transform="matrix(1 0 0 -1 0 792)" d="M358.08 453.12L358.56 453.12L358.56 453.6L358.08 453.6z" stroke="none" fill="#000000" fill-rule="nonzero" /><path transform="matrix(1 0 0 -1 0 792)" d="M358.56 453.12L457.92 453.12L457.92 453.6L358.56 453.6z" stroke="none" fill="#000000" fill-rule="nonzero" /><path transform="matrix(1 0 0 -1 0 792)" d="M457.92 453.12L458.4 453.12L458.4 453.6L457.92 453.6z" stroke="none" fill="#000000" fill-rule="nonzero" /><path transform="matrix(1 0 0 -1 0 792)" d="M458.4 453.12L558.72 453.12L558.72 453.6L458.4 453.6z" stroke="none" fill="#000000" fill-rule="nonzero" /><path transform="matrix(1 0 0 -1 0 792)" d="M558.72 453.12L559.2 453.12L559.2 453.6L558.72 453.6z" stroke="none" fill="#000000" fill-rule="nonzero" /><path transform="matrix(1 0 0 -1 0 792)" d="M106.08 435.12L106.56 435.12L106.56 453.12L106.08 453.12z" stroke="none" fill="#000000" fill-rule="nonzero" /><path transform="matrix(1 0 0 -1 0 792)" d="M171.36 435.12L171.84 435.12L171.84 453.12L171.36 453.12z" stroke="none" fill="#000000" fill-rule="nonzero" /><path transform="matrix(1 0 0 -1 0 792)" d="M358.08 435.12L358.56 435.12L358.56 453.12L358.08 453.12z" stroke="none" fill="#000000" fill-rule="nonzero" /><path transform="matrix(1 0 0 -1 0 792)" d="M457.92 435.12L458.4 435.12L458.4 453.12L457.92 453.12z" stroke="none" fill="#000000" fill-rule="nonzero" /><path transform="matrix(1 0 0 -1 0 792)" d="M558.72 435.12L559.2 435.12L559.2 453.12L558.72 453.12z" stroke="none" fill="#000000" fill-rule="nonzero" /><g clip-path="url(#20)"><path transform="matrix(1 0 0 -1 0 792)" d="M106.32 403.92L558.72 403.92L558.72 434.64L106.32 434.64z" stroke="none" fill="#B3B3B3" fill-rule="nonzero" /></g><path transform="matrix(1 0 0 -1 0 792)" d="M111.12 416.88L553.92 416.88L553.92 434.64L111.12 434.64z" stroke="none" fill="#B3B3B3" fill-rule="nonzero" /><path transform="matrix(1 0 0 -1 0 792)" d="M111.12 403.92L553.92 403.92L553.92 416.88L111.12 416.88z" stroke="none" fill="#B3B3B3" fill-rule="nonzero" /><path transform="matrix(1 0 0 -1 0 792)" d="M106.08 434.64L106.56 434.64L106.56 435.12L106.08 435.12z" stroke="none" fill="#000000" fill-rule="nonzero" /><path transform="matrix(1 0 0 -1 0 792)" d="M106.56 434.64L171.36 434.64L171.36 435.12L106.56 435.12z" stroke="none" fill="#000000" fill-rule="nonzero" /><path transform="matrix(1 0 0 -1 0 792)" d="M171.36 434.64L171.84 434.64L171.84 435.12L171.36 435.12z" stroke="none" fill="#000000" fill-rule="nonzero" /><path transform="matrix(1 0 0 -1 0 792)" d="M171.84 434.64L358.08 434.64L358.08 435.12L171.84 435.12z" stroke="none" fill="#000000" fill-rule="nonzero" /><path transform="matrix(1 0 0 -1 0 792)" d="M358.08 434.64L358.56 434.64L358.56 435.12L358.08 435.12z" stroke="none" fill="#000000" fill-rule="nonzero" /><path transform="matrix(1 0 0 -1 0 792)" d="M358.56 434.64L457.92 434.64L457.92 435.12L358.56 435.12z" stroke="none" fill="#000000" fill-rule="nonzero" /><path transform="matrix(1 0 0 -1 0 792)" d="M457.92 434.64L458.4 434.64L458.4 435.12L457.92 435.12z" stroke="none" fill="#000000" fill-rule="nonzero" /><path transform="matrix(1 0 0 -1 0 792)" d="M458.4 434.64L558.72 434.64L558.72 435.12L458.4 435.12z" stroke="none" fill="#000000" fill-rule="nonzero" /><path transform="matrix(1 0 0 -1 0 792)" d="M558.72 434.64L559.2 434.64L559.2 435.12L558.72 435.12z" stroke="none" fill="#000000" fill-rule="nonzero" /><path transform="matrix(1 0 0 -1 0 792)" d="M106.08 403.92L106.56 403.92L106.56 434.64L106.08 434.64z" stroke="none" fill="#000000" fill-rule="nonzero" /><path transform="matrix(1 0 0 -1 0 792)" d="M558.72 403.92L559.2 403.92L559.2 434.64L558.72 434.64z" stroke="none" fill="#000000" fill-rule="nonzero" /><g clip-path="url(#21)"><path transform="matrix(1 0 0 -1 0 792)" d="M106.32 359.52L172.56 359.52L172.56 403.44L106.32 403.44z" stroke="none" fill="#E6E6E6" fill-rule="nonzero" /></g><path transform="matrix(1 0 0 -1 0 792)" d="M111.12 379.2L167.52 379.2L167.52 396.72L111.12 396.72z" stroke="none" fill="#E6E6E6" fill-rule="nonzero" /><path transform="matrix(1 0 0 -1 0 792)" d="M111.12 366L167.52 366L167.52 379.2L111.12 379.2z" stroke="none" fill="#E6E6E6" fill-rule="nonzero" /><g clip-path="url(#22)"><path transform="matrix(1 0 0 -1 0 792)" d="M173.04 359.52L316.32 359.52L316.32 403.44L173.04 403.44z" stroke="none" fill="#E6E6E6" fill-rule="nonzero" /></g><path transform="matrix(1 0 0 -1 0 792)" d="M177.84 372.72L311.52 372.72L311.52 390.24L177.84 390.24z" stroke="none" fill="#E6E6E6" fill-rule="nonzero" /><g clip-path="url(#23)"><path transform="matrix(1 0 0 -1 0 792)" d="M316.8 359.52L396.48 359.52L396.48 403.44L316.8 403.44z" stroke="none" fill="#E6E6E6" fill-rule="nonzero" /></g><path transform="matrix(1 0 0 -1 0 792)" d="M321.6 379.2L391.9199 379.2L391.9199 396.72L321.6 396.72z" stroke="none" fill="#E6E6E6" fill-rule="nonzero" /><path transform="matrix(1 0 0 -1 0 792)" d="M321.6 366L391.9199 366L391.9199 379.2L321.6 379.2z" stroke="none" fill="#E6E6E6" fill-rule="nonzero" /><g clip-path="url(#24)"><path transform="matrix(1 0 0 -1 0 792)" d="M396.96 359.52L464.16 359.52L464.16 403.44L396.96 403.44z" stroke="none" fill="#E6E6E6" fill-rule="nonzero" /></g><path transform="matrix(1 0 0 -1 0 792)" d="M402 385.68L459.6 385.68L459.6 403.2L402 403.2z" stroke="none" fill="#E6E6E6" fill-rule="nonzero" /><path transform="matrix(1 0 0 -1 0 792)" d="M402 372.72L459.6 372.72L459.6 385.68L402 385.68z" stroke="none" fill="#E6E6E6" fill-rule="nonzero" /><path transform="matrix(1 0 0 -1 0 792)" d="M402 359.76L459.6 359.76L459.6 372.72L402 372.72z" stroke="none" fill="#E6E6E6" fill-rule="nonzero" /><g clip-path="url(#25)"><path transform="matrix(1 0 0 -1 0 792)" d="M464.64 359.52L558.72 359.52L558.72 403.44L464.64 403.44z" stroke="none" fill="#E6E6E6" fill-rule="nonzero" /></g><path transform="matrix(1 0 0 -1 0 792)" d="M469.68 385.68L553.92 385.68L553.92 403.44L469.68 403.44z" stroke="none" fill="#E6E6E6" fill-rule="nonzero" /><g clip-path="url(#26)"></g><path transform="matrix(1 0 0 -1 0 792)" d="M469.68 370.32L553.92 370.32L553.92 385.68L469.68 385.68z" stroke="none" fill="#E6E6E6" fill-rule="nonzero" /><path transform="matrix(1 0 0 -1 0 792)" d="M469.68 359.52L553.92 359.52L553.92 370.32L469.68 370.32z" stroke="none" fill="#E6E6E6" fill-rule="nonzero" /><g clip-path="url(#27)"></g><path transform="matrix(1 0 0 -1 0 792)" d="M106.08 403.44L106.56 403.44L106.56 403.92L106.08 403.92z" stroke="none" fill="#000000" fill-rule="nonzero" /><path transform="matrix(1 0 0 -1 0 792)" d="M106.56 403.44L172.56 403.44L172.56 403.92L106.56 403.92z" stroke="none" fill="#000000" fill-rule="nonzero" /><path transform="matrix(1 0 0 -1 0 792)" d="M172.56 403.44L173.04 403.44L173.04 403.92L172.56 403.92z" stroke="none" fill="#000000" fill-rule="nonzero" /><path transform="matrix(1 0 0 -1 0 792)" d="M173.04 403.44L316.56 403.44L316.56 403.92L173.04 403.92z" stroke="none" fill="#000000" fill-rule="nonzero" /><path transform="matrix(1 0 0 -1 0 792)" d="M316.56 403.44L317.04 403.44L317.04 403.92L316.56 403.92z" stroke="none" fill="#000000" fill-rule="nonzero" /><path transform="matrix(1 0 0 -1 0 792)" d="M317.04 403.44L396.72 403.44L396.72 403.92L317.04 403.92z" stroke="none" fill="#000000" fill-rule="nonzero" /><path transform="matrix(1 0 0 -1 0 792)" d="M396.72 403.44L397.2 403.44L397.2 403.92L396.72 403.92z" stroke="none" fill="#000000" fill-rule="nonzero" /><path transform="matrix(1 0 0 -1 0 792)" d="M397.2 403.44L464.4 403.44L464.4 403.92L397.2 403.92z" stroke="none" fill="#000000" fill-rule="nonzero" /><path transform="matrix(1 0 0 -1 0 792)" d="M464.4 403.44L464.88 403.44L464.88 403.92L464.4 403.92z" stroke="none" fill="#000000" fill-rule="nonzero" /><path transform="matrix(1 0 0 -1 0 792)" d="M464.88 403.44L558.72 403.44L558.72 403.92L464.88 403.92z" stroke="none" fill="#000000" fill-rule="nonzero" /><path transform="matrix(1 0 0 -1 0 792)" d="M558.72 403.44L559.2 403.44L559.2 403.92L558.72 403.92z" stroke="none" fill="#000000" fill-rule="nonzero" /><path transform="matrix(1 0 0 -1 0 792)" d="M106.08 359.52L106.56 359.52L106.56 403.44L106.08 403.44z" stroke="none" fill="#000000" fill-rule="nonzero" /><path transform="matrix(1 0 0 -1 0 792)" d="M172.56 359.52L173.04 359.52L173.04 403.44L172.56 403.44z" stroke="none" fill="#000000" fill-rule="nonzero" /><path transform="matrix(1 0 0 -1 0 792)" d="M316.56 359.52L317.04 359.52L317.04 403.44L316.56 403.44z" stroke="none" fill="#000000" fill-rule="nonzero" /><path transform="matrix(1 0 0 -1 0 792)" d="M396.72 359.52L397.2 359.52L397.2 403.44L396.72 403.44z" stroke="none" fill="#000000" fill-rule="nonzero" /><path transform="matrix(1 0 0 -1 0 792)" d="M464.4 359.52L464.88 359.52L464.88 403.44L464.4 403.44z" stroke="none" fill="#000000" fill-rule="nonzero" /><path transform="matrix(1 0 0 -1 0 792)" d="M558.72 359.52L559.2 359.52L559.2 403.44L558.72 403.44z" stroke="none" fill="#000000" fill-rule="nonzero" /><path transform="matrix(1 0 0 -1 0 792)" d="M106.08 359.04L106.56 359.04L106.56 359.52L106.08 359.52z" stroke="none" fill="#000000" fill-rule="nonzero" /><path transform="matrix(1 0 0 -1 0 792)" d="M106.56 359.04L172.56 359.04L172.56 359.52L106.56 359.52z" stroke="none" fill="#000000" fill-rule="nonzero" /><path transform="matrix(1 0 0 -1 0 792)" d="M172.56 359.04L173.04 359.04L173.04 359.52L172.56 359.52z" stroke="none" fill="#000000" fill-rule="nonzero" /><path transform="matrix(1 0 0 -1 0 792)" d="M173.04 359.04L316.56 359.04L316.56 359.52L173.04 359.52z" stroke="none" fill="#000000" fill-rule="nonzero" /><path transform="matrix(1 0 0 -1 0 792)" d="M316.56 359.04L317.04 359.04L317.04 359.52L316.56 359.52z" stroke="none" fill="#000000" fill-rule="nonzero" /><path transform="matrix(1 0 0 -1 0 792)" d="M317.04 359.04L396.72 359.04L396.72 359.52L317.04 359.52z" stroke="none" fill="#000000" fill-rule="nonzero" /><path transform="matrix(1 0 0 -1 0 792)" d="M396.72 359.04L397.2 359.04L397.2 359.52L396.72 359.52z" stroke="none" fill="#000000" fill-rule="nonzero" /><path transform="matrix(1 0 0 -1 0 792)" d="M397.2 359.04L464.4 359.04L464.4 359.52L397.2 359.52z" stroke="none" fill="#000000" fill-rule="nonzero" /><path transform="matrix(1 0 0 -1 0 792)" d="M464.4 359.04L464.88 359.04L464.88 359.52L464.4 359.52z" stroke="none" fill="#000000" fill-rule="nonzero" /><path transform="matrix(1 0 0 -1 0 792)" d="M464.88 359.04L558.72 359.04L558.72 359.52L464.88 359.52z" stroke="none" fill="#000000" fill-rule="nonzero" /><path transform="matrix(1 0 0 -1 0 792)" d="M558.72 359.04L559.2 359.04L559.2 359.52L558.72 359.52z" stroke="none" fill="#000000" fill-rule="nonzero" /><path transform="matrix(1 0 0 -1 0 792)" d="M106.08 341.28L106.56 341.28L106.56 359.04L106.08 359.04z" stroke="none" fill="#000000" fill-rule="nonzero" /><path transform="matrix(1 0 0 -1 0 792)" d="M172.56 341.28L173.04 341.28L173.04 359.04L172.56 359.04z" stroke="none" fill="#000000" fill-rule="nonzero" /><path transform="matrix(1 0 0 -1 0 792)" d="M316.56 341.28L317.04 341.28L317.04 359.04L316.56 359.04z" stroke="none" fill="#000000" fill-rule="nonzero" /><path transform="matrix(1 0 0 -1 0 792)" d="M396.72 341.28L397.2 341.28L397.2 359.04L396.72 359.04z" stroke="none" fill="#000000" fill-rule="nonzero" /><path transform="matrix(1 0 0 -1 0 792)" d="M464.4 341.28L464.88 341.28L464.88 359.04L464.4 359.04z" stroke="none" fill="#000000" fill-rule="nonzero" /><path transform="matrix(1 0 0 -1 0 792)" d="M558.72 341.28L559.2 341.28L559.2 359.04L558.72 359.04z" stroke="none" fill="#000000" fill-rule="nonzero" /><g clip-path="url(#28)"></g><g clip-path="url(#29)"></g><g clip-path="url(#30)"></g><g clip-path="url(#31)"></g><g clip-path="url(#32)"></g><path transform="matrix(1 0 0 -1 0 792)" d="M106.08 340.8L106.56 340.8L106.56 341.28L106.08 341.28z" stroke="none" fill="#000000" fill-rule="nonzero" /><path transform="matrix(1 0 0 -1 0 792)" d="M106.56 340.8L172.56 340.8L172.56 341.28L106.56 341.28z" stroke="none" fill="#000000" fill-rule="nonzero" /><path transform="matrix(1 0 0 -1 0 792)" d="M172.56 340.8L173.04 340.8L173.04 341.28L172.56 341.28z" stroke="none" fill="#000000" fill-rule="nonzero" /><path transform="matrix(1 0 0 -1 0 792)" d="M173.04 340.8L316.56 340.8L316.56 341.28L173.04 341.28z" stroke="none" fill="#000000" fill-rule="nonzero" /><path transform="matrix(1 0 0 -1 0 792)" d="M316.56 340.8L317.04 340.8L317.04 341.28L316.56 341.28z" stroke="none" fill="#000000" fill-rule="nonzero" /><path transform="matrix(1 0 0 -1 0 792)" d="M317.04 340.8L396.72 340.8L396.72 341.28L317.04 341.28z" stroke="none" fill="#000000" fill-rule="nonzero" /><path transform="matrix(1 0 0 -1 0 792)" d="M396.72 340.8L397.2 340.8L397.2 341.28L396.72 341.28z" stroke="none" fill="#000000" fill-rule="nonzero" /><path transform="matrix(1 0 0 -1 0 792)" d="M397.2 340.8L464.4 340.8L464.4 341.28L397.2 341.28z" stroke="none" fill="#000000" fill-rule="nonzero" /><path transform="matrix(1 0 0 -1 0 792)" d="M464.4 340.8L464.88 340.8L464.88 341.28L464.4 341.28z" stroke="none" fill="#000000" fill-rule="nonzero" /><path transform="matrix(1 0 0 -1 0 792)" d="M464.88 340.8L558.72 340.8L558.72 341.28L464.88 341.28z" stroke="none" fill="#000000" fill-rule="nonzero" /><path transform="matrix(1 0 0 -1 0 792)" d="M558.72 340.8L559.2 340.8L559.2 341.28L558.72 341.28z" stroke="none" fill="#000000" fill-rule="nonzero" /><path transform="matrix(1 0 0 -1 0 792)" d="M106.08 323.28L106.56 323.28L106.56 340.8L106.08 340.8z" stroke="none" fill="#000000" fill-rule="nonzero" /><path transform="matrix(1 0 0 -1 0 792)" d="M172.56 323.28L173.04 323.28L173.04 340.8L172.56 340.8z" stroke="none" fill="#000000" fill-rule="nonzero" /><path transform="matrix(1 0 0 -1 0 792)" d="M316.56 323.28L317.04 323.28L317.04 340.8L316.56 340.8z" stroke="none" fill="#000000" fill-rule="nonzero" /><path transform="matrix(1 0 0 -1 0 792)" d="M396.72 323.28L397.2 323.28L397.2 340.8L396.72 340.8z" stroke="none" fill="#000000" fill-rule="nonzero" /><path transform="matrix(1 0 0 -1 0 792)" d="M464.4 323.28L464.88 323.28L464.88 340.8L464.4 340.8z" stroke="none" fill="#000000" fill-rule="nonzero" /><path transform="matrix(1 0 0 -1 0 792)" d="M558.72 323.28L559.2 323.28L559.2 340.8L558.72 340.8z" stroke="none" fill="#000000" fill-rule="nonzero" /><path transform="matrix(1 0 0 -1 0 792)" d="M106.08 322.8L106.56 322.8L106.56 323.28L106.08 323.28z" stroke="none" fill="#000000" fill-rule="nonzero" /><path transform="matrix(1 0 0 -1 0 792)" d="M106.56 322.8L172.56 322.8L172.56 323.28L106.56 323.28z" stroke="none" fill="#000000" fill-rule="nonzero" /><path transform="matrix(1 0 0 -1 0 792)" d="M172.56 322.8L173.04 322.8L173.04 323.28L172.56 323.28z" stroke="none" fill="#000000" fill-rule="nonzero" /><path transform="matrix(1 0 0 -1 0 792)" d="M173.04 322.8L316.56 322.8L316.56 323.28L173.04 323.28z" stroke="none" fill="#000000" fill-rule="nonzero" /><path transform="matrix(1 0 0 -1 0 792)" d="M316.56 322.8L317.04 322.8L317.04 323.28L316.56 323.28z" stroke="none" fill="#000000" fill-rule="nonzero" /><path transform="matrix(1 0 0 -1 0 792)" d="M317.04 322.8L396.72 322.8L396.72 323.28L317.04 323.28z" stroke="none" fill="#000000" fill-rule="nonzero" /><path transform="matrix(1 0 0 -1 0 792)" d="M396.72 322.8L397.2 322.8L397.2 323.28L396.72 323.28z" stroke="none" fill="#000000" fill-rule="nonzero" /><path transform="matrix(1 0 0 -1 0 792)" d="M397.2 322.8L464.4 322.8L464.4 323.28L397.2 323.28z" stroke="none" fill="#000000" fill-rule="nonzero" /><path transform="matrix(1 0 0 -1 0 792)" d="M464.4 322.8L464.88 322.8L464.88 323.28L464.4 323.28z" stroke="none" fill="#000000" fill-rule="nonzero" /><path transform="matrix(1 0 0 -1 0 792)" d="M464.88 322.8L558.72 322.8L558.72 323.28L464.88 323.28z" stroke="none" fill="#000000" fill-rule="nonzero" /><path transform="matrix(1 0 0 -1 0 792)" d="M558.72 322.8L559.2 322.8L559.2 323.28L558.72 323.28z" stroke="none" fill="#000000" fill-rule="nonzero" /><path transform="matrix(1 0 0 -1 0 792)" d="M106.08 305.04L106.56 305.04L106.56 322.8L106.08 322.8z" stroke="none" fill="#000000" fill-rule="nonzero" /><path transform="matrix(1 0 0 -1 0 792)" d="M172.56 305.04L173.04 305.04L173.04 322.8L172.56 322.8z" stroke="none" fill="#000000" fill-rule="nonzero" /><path transform="matrix(1 0 0 -1 0 792)" d="M316.56 305.04L317.04 305.04L317.04 322.8L316.56 322.8z" stroke="none" fill="#000000" fill-rule="nonzero" /><path transform="matrix(1 0 0 -1 0 792)" d="M396.72 305.04L397.2 305.04L397.2 322.8L396.72 322.8z" stroke="none" fill="#000000" fill-rule="nonzero" /><path transform="matrix(1 0 0 -1 0 792)" d="M464.4 305.04L464.88 305.04L464.88 322.8L464.4 322.8z" stroke="none" fill="#000000" fill-rule="nonzero" /><path transform="matrix(1 0 0 -1 0 792)" d="M558.72 305.04L559.2 305.04L559.2 322.8L558.72 322.8z" stroke="none" fill="#000000" fill-rule="nonzero" /><path transform="matrix(1 0 0 -1 0 792)" d="M106.08 304.8L106.56 304.8L106.56 305.04L106.08 305.04z" stroke="none" fill="#000000" fill-rule="nonzero" /><path transform="matrix(1 0 0 -1 0 792)" d="M106.56 304.8L172.56 304.8L172.56 305.04L106.56 305.04z" stroke="none" fill="#000000" fill-rule="nonzero" /><path transform="matrix(1 0 0 -1 0 792)" d="M172.56 304.8L173.04 304.8L173.04 305.04L172.56 305.04z" stroke="none" fill="#000000" fill-rule="nonzero" /><path transform="matrix(1 0 0 -1 0 792)" d="M173.04 304.8L316.56 304.8L316.56 305.04L173.04 305.04z" stroke="none" fill="#000000" fill-rule="nonzero" /><path transform="matrix(1 0 0 -1 0 792)" d="M316.56 304.8L317.04 304.8L317.04 305.04L316.56 305.04z" stroke="none" fill="#000000" fill-rule="nonzero" /><path transform="matrix(1 0 0 -1 0 792)" d="M317.04 304.8L396.72 304.8L396.72 305.04L317.04 305.04z" stroke="none" fill="#000000" fill-rule="nonzero" /><path transform="matrix(1 0 0 -1 0 792)" d="M396.72 304.8L397.2 304.8L397.2 305.04L396.72 305.04z" stroke="none" fill="#000000" fill-rule="nonzero" /><path transform="matrix(1 0 0 -1 0 792)" d="M397.2 304.8L464.4 304.8L464.4 305.04L397.2 305.04z" stroke="none" fill="#000000" fill-rule="nonzero" /><path transform="matrix(1 0 0 -1 0 792)" d="M464.4 304.8L464.88 304.8L464.88 305.04L464.4 305.04z" stroke="none" fill="#000000" fill-rule="nonzero" /><path transform="matrix(1 0 0 -1 0 792)" d="M464.88 304.8L558.72 304.8L558.72 305.04L464.88 305.04z" stroke="none" fill="#000000" fill-rule="nonzero" /><path transform="matrix(1 0 0 -1 0 792)" d="M558.72 304.8L559.2 304.8L559.2 305.04L558.72 305.04z" stroke="none" fill="#000000" fill-rule="nonzero" /><path transform="matrix(1 0 0 -1 0 792)" d="M106.08 286.8L106.56 286.8L106.56 304.8L106.08 304.8z" stroke="none" fill="#000000" fill-rule="nonzero" /><path transform="matrix(1 0 0 -1 0 792)" d="M172.56 286.8L173.04 286.8L173.04 304.8L172.56 304.8z" stroke="none" fill="#000000" fill-rule="nonzero" /><path transform="matrix(1 0 0 -1 0 792)" d="M316.56 286.8L317.04 286.8L317.04 304.8L316.56 304.8z" stroke="none" fill="#000000" fill-rule="nonzero" /><path transform="matrix(1 0 0 -1 0 792)" d="M396.72 286.8L397.2 286.8L397.2 304.8L396.72 304.8z" stroke="none" fill="#000000" fill-rule="nonzero" /><path transform="matrix(1 0 0 -1 0 792)" d="M464.4 286.8L464.88 286.8L464.88 304.8L464.4 304.8z" stroke="none" fill="#000000" fill-rule="nonzero" /><path transform="matrix(1 0 0 -1 0 792)" d="M558.72 286.8L559.2 286.8L559.2 304.8L558.72 304.8z" stroke="none" fill="#000000" fill-rule="nonzero" /><g clip-path="url(#33)"></g><g clip-path="url(#34)"></g><g clip-path="url(#35)"></g><g clip-path="url(#36)"></g><g clip-path="url(#37)"></g><path transform="matrix(1 0 0 -1 0 792)" d="M106.08 286.32L106.56 286.32L106.56 286.8L106.08 286.8z" stroke="none" fill="#000000" fill-rule="nonzero" /><path transform="matrix(1 0 0 -1 0 792)" d="M106.56 286.32L172.56 286.32L172.56 286.8L106.56 286.8z" stroke="none" fill="#000000" fill-rule="nonzero" /><path transform="matrix(1 0 0 -1 0 792)" d="M172.56 286.32L173.04 286.32L173.04 286.8L172.56 286.8z" stroke="none" fill="#000000" fill-rule="nonzero" /><path transform="matrix(1 0 0 -1 0 792)" d="M173.04 286.32L316.56 286.32L316.56 286.8L173.04 286.8z" stroke="none" fill="#000000" fill-rule="nonzero" /><path transform="matrix(1 0 0 -1 0 792)" d="M316.56 286.32L317.04 286.32L317.04 286.8L316.56 286.8z" stroke="none" fill="#000000" fill-rule="nonzero" /><path transform="matrix(1 0 0 -1 0 792)" d="M317.04 286.32L396.72 286.32L396.72 286.8L317.04 286.8z" stroke="none" fill="#000000" fill-rule="nonzero" /><path transform="matrix(1 0 0 -1 0 792)" d="M396.72 286.32L397.2 286.32L397.2 286.8L396.72 286.8z" stroke="none" fill="#000000" fill-rule="nonzero" /><path transform="matrix(1 0 0 -1 0 792)" d="M397.2 286.32L464.4 286.32L464.4 286.8L397.2 286.8z" stroke="none" fill="#000000" fill-rule="nonzero" /><path transform="matrix(1 0 0 -1 0 792)" d="M464.4 286.32L464.88 286.32L464.88 286.8L464.4 286.8z" stroke="none" fill="#000000" fill-rule="nonzero" /><path transform="matrix(1 0 0 -1 0 792)" d="M464.88 286.32L558.72 286.32L558.72 286.8L464.88 286.8z" stroke="none" fill="#000000" fill-rule="nonzero" /><path transform="matrix(1 0 0 -1 0 792)" d="M558.72 286.32L559.2 286.32L559.2 286.8L558.72 286.8z" stroke="none" fill="#000000" fill-rule="nonzero" /><path transform="matrix(1 0 0 -1 0 792)" d="M106.08 268.8L106.56 268.8L106.56 286.32L106.08 286.32z" stroke="none" fill="#000000" fill-rule="nonzero" /><path transform="matrix(1 0 0 -1 0 792)" d="M172.56 268.8L173.04 268.8L173.04 286.32L172.56 286.32z" stroke="none" fill="#000000" fill-rule="nonzero" /><path transform="matrix(1 0 0 -1 0 792)" d="M316.56 268.8L317.04 268.8L317.04 286.32L316.56 286.32z" stroke="none" fill="#000000" fill-rule="nonzero" /><path transform="matrix(1 0 0 -1 0 792)" d="M396.72 268.8L397.2 268.8L397.2 286.32L396.72 286.32z" stroke="none" fill="#000000" fill-rule="nonzero" /><path transform="matrix(1 0 0 -1 0 792)" d="M464.4 268.8L464.88 268.8L464.88 286.32L464.4 286.32z" stroke="none" fill="#000000" fill-rule="nonzero" /><path transform="matrix(1 0 0 -1 0 792)" d="M558.72 268.8L559.2 268.8L559.2 286.32L558.72 286.32z" stroke="none" fill="#000000" fill-rule="nonzero" /><path transform="matrix(1 0 0 -1 0 792)" d="M106.08 268.32L106.56 268.32L106.56 268.8L106.08 268.8z" stroke="none" fill="#000000" fill-rule="nonzero" /><path transform="matrix(1 0 0 -1 0 792)" d="M106.56 268.32L172.56 268.32L172.56 268.8L106.56 268.8z" stroke="none" fill="#000000" fill-rule="nonzero" /><path transform="matrix(1 0 0 -1 0 792)" d="M172.56 268.32L173.04 268.32L173.04 268.8L172.56 268.8z" stroke="none" fill="#000000" fill-rule="nonzero" /><path transform="matrix(1 0 0 -1 0 792)" d="M173.04 268.32L316.56 268.32L316.56 268.8L173.04 268.8z" stroke="none" fill="#000000" fill-rule="nonzero" /><path transform="matrix(1 0 0 -1 0 792)" d="M316.56 268.32L317.04 268.32L317.04 268.8L316.56 268.8z" stroke="none" fill="#000000" fill-rule="nonzero" /><path transform="matrix(1 0 0 -1 0 792)" d="M317.04 268.32L396.72 268.32L396.72 268.8L317.04 268.8z" stroke="none" fill="#000000" fill-rule="nonzero" /><path transform="matrix(1 0 0 -1 0 792)" d="M396.72 268.32L397.2 268.32L397.2 268.8L396.72 268.8z" stroke="none" fill="#000000" fill-rule="nonzero" /><path transform="matrix(1 0 0 -1 0 792)" d="M397.2 268.32L464.4 268.32L464.4 268.8L397.2 268.8z" stroke="none" fill="#000000" fill-rule="nonzero" /><path transform="matrix(1 0 0 -1 0 792)" d="M464.4 268.32L464.88 268.32L464.88 268.8L464.4 268.8z" stroke="none" fill="#000000" fill-rule="nonzero" /><path transform="matrix(1 0 0 -1 0 792)" d="M464.88 268.32L558.72 268.32L558.72 268.8L464.88 268.8z" stroke="none" fill="#000000" fill-rule="nonzero" /><path transform="matrix(1 0 0 -1 0 792)" d="M558.72 268.32L559.2 268.32L559.2 268.8L558.72 268.8z" stroke="none" fill="#000000" fill-rule="nonzero" /><path transform="matrix(1 0 0 -1 0 792)" d="M106.08 250.56L106.56 250.56L106.56 268.32L106.08 268.32z" stroke="none" fill="#000000" fill-rule="nonzero" /><path transform="matrix(1 0 0 -1 0 792)" d="M172.56 250.56L173.04 250.56L173.04 268.32L172.56 268.32z" stroke="none" fill="#000000" fill-rule="nonzero" /><path transform="matrix(1 0 0 -1 0 792)" d="M316.56 250.56L317.04 250.56L317.04 268.32L316.56 268.32z" stroke="none" fill="#000000" fill-rule="nonzero" /><path transform="matrix(1 0 0 -1 0 792)" d="M396.72 250.56L397.2 250.56L397.2 268.32L396.72 268.32z" stroke="none" fill="#000000" fill-rule="nonzero" /><path transform="matrix(1 0 0 -1 0 792)" d="M464.4 250.56L464.88 250.56L464.88 268.32L464.4 268.32z" stroke="none" fill="#000000" fill-rule="nonzero" /><path transform="matrix(1 0 0 -1 0 792)" d="M558.72 250.56L559.2 250.56L559.2 268.32L558.72 268.32z" stroke="none" fill="#000000" fill-rule="nonzero" /><g clip-path="url(#38)"></g><g clip-path="url(#39)"></g><g clip-path="url(#40)"></g><g clip-path="url(#41)"></g><g clip-path="url(#42)"></g><path transform="matrix(1 0 0 -1 0 792)" d="M106.08 250.08L106.56 250.08L106.56 250.56L106.08 250.56z" stroke="none" fill="#000000" fill-rule="nonzero" /><path transform="matrix(1 0 0 -1 0 792)" d="M106.56 250.08L172.56 250.08L172.56 250.56L106.56 250.56z" stroke="none" fill="#000000" fill-rule="nonzero" /><path transform="matrix(1 0 0 -1 0 792)" d="M172.56 250.08L173.04 250.08L173.04 250.56L172.56 250.56z" stroke="none" fill="#000000" fill-rule="nonzero" /><path transform="matrix(1 0 0 -1 0 792)" d="M173.04 250.08L316.56 250.08L316.56 250.56L173.04 250.56z" stroke="none" fill="#000000" fill-rule="nonzero" /><path transform="matrix(1 0 0 -1 0 792)" d="M316.56 250.08L317.04 250.08L317.04 250.56L316.56 250.56z" stroke="none" fill="#000000" fill-rule="nonzero" /><path transform="matrix(1 0 0 -1 0 792)" d="M317.04 250.08L396.72 250.08L396.72 250.56L317.04 250.56z" stroke="none" fill="#000000" fill-rule="nonzero" /><path transform="matrix(1 0 0 -1 0 792)" d="M396.72 250.08L397.2 250.08L397.2 250.56L396.72 250.56z" stroke="none" fill="#000000" fill-rule="nonzero" /><path transform="matrix(1 0 0 -1 0 792)" d="M397.2 250.08L464.4 250.08L464.4 250.56L397.2 250.56z" stroke="none" fill="#000000" fill-rule="nonzero" /><path transform="matrix(1 0 0 -1 0 792)" d="M464.4 250.08L464.88 250.08L464.88 250.56L464.4 250.56z" stroke="none" fill="#000000" fill-rule="nonzero" /><path transform="matrix(1 0 0 -1 0 792)" d="M464.88 250.08L558.72 250.08L558.72 250.56L464.88 250.56z" stroke="none" fill="#000000" fill-rule="nonzero" /><path transform="matrix(1 0 0 -1 0 792)" d="M558.72 250.08L559.2 250.08L559.2 250.56L558.72 250.56z" stroke="none" fill="#000000" fill-rule="nonzero" /><path transform="matrix(1 0 0 -1 0 792)" d="M106.08 232.56L106.56 232.56L106.56 250.08L106.08 250.08z" stroke="none" fill="#000000" fill-rule="nonzero" /><path transform="matrix(1 0 0 -1 0 792)" d="M172.56 232.56L173.04 232.56L173.04 250.08L172.56 250.08z" stroke="none" fill="#000000" fill-rule="nonzero" /><path transform="matrix(1 0 0 -1 0 792)" d="M316.56 232.56L317.04 232.56L317.04 250.08L316.56 250.08z" stroke="none" fill="#000000" fill-rule="nonzero" /><path transform="matrix(1 0 0 -1 0 792)" d="M396.72 232.56L397.2 232.56L397.2 250.08L396.72 250.08z" stroke="none" fill="#000000" fill-rule="nonzero" /><path transform="matrix(1 0 0 -1 0 792)" d="M464.4 232.56L464.88 232.56L464.88 250.08L464.4 250.08z" stroke="none" fill="#000000" fill-rule="nonzero" /><path transform="matrix(1 0 0 -1 0 792)" d="M558.72 232.56L559.2 232.56L559.2 250.08L558.72 250.08z" stroke="none" fill="#000000" fill-rule="nonzero" /><path transform="matrix(1 0 0 -1 0 792)" d="M106.08 232.08L106.56 232.08L106.56 232.56L106.08 232.56z" stroke="none" fill="#000000" fill-rule="nonzero" /><path transform="matrix(1 0 0 -1 0 792)" d="M106.56 232.08L172.56 232.08L172.56 232.56L106.56 232.56z" stroke="none" fill="#000000" fill-rule="nonzero" /><path transform="matrix(1 0 0 -1 0 792)" d="M172.56 232.08L173.04 232.08L173.04 232.56L172.56 232.56z" stroke="none" fill="#000000" fill-rule="nonzero" /><path transform="matrix(1 0 0 -1 0 792)" d="M173.04 232.08L316.56 232.08L316.56 232.56L173.04 232.56z" stroke="none" fill="#000000" fill-rule="nonzero" /><path transform="matrix(1 0 0 -1 0 792)" d="M316.56 232.08L317.04 232.08L317.04 232.56L316.56 232.56z" stroke="none" fill="#000000" fill-rule="nonzero" /><path transform="matrix(1 0 0 -1 0 792)" d="M317.04 232.08L396.72 232.08L396.72 232.56L317.04 232.56z" stroke="none" fill="#000000" fill-rule="nonzero" /><path transform="matrix(1 0 0 -1 0 792)" d="M396.72 232.08L397.2 232.08L397.2 232.56L396.72 232.56z" stroke="none" fill="#000000" fill-rule="nonzero" /><path transform="matrix(1 0 0 -1 0 792)" d="M397.2 232.08L464.4 232.08L464.4 232.56L397.2 232.56z" stroke="none" fill="#000000" fill-rule="nonzero" /><path transform="matrix(1 0 0 -1 0 792)" d="M464.4 232.08L464.88 232.08L464.88 232.56L464.4 232.56z" stroke="none" fill="#000000" fill-rule="nonzero" /><path transform="matrix(1 0 0 -1 0 792)" d="M464.88 232.08L558.72 232.08L558.72 232.56L464.88 232.56z" stroke="none" fill="#000000" fill-rule="nonzero" /><path transform="matrix(1 0 0 -1 0 792)" d="M558.72 232.08L559.2 232.08L559.2 232.56L558.72 232.56z" stroke="none" fill="#000000" fill-rule="nonzero" /><path transform="matrix(1 0 0 -1 0 792)" d="M106.08 214.32L106.56 214.32L106.56 232.08L106.08 232.08z" stroke="none" fill="#000000" fill-rule="nonzero" /><path transform="matrix(1 0 0 -1 0 792)" d="M172.56 214.32L173.04 214.32L173.04 232.08L172.56 232.08z" stroke="none" fill="#000000" fill-rule="nonzero" /><path transform="matrix(1 0 0 -1 0 792)" d="M316.56 214.32L317.04 214.32L317.04 232.08L316.56 232.08z" stroke="none" fill="#000000" fill-rule="nonzero" /><path transform="matrix(1 0 0 -1 0 792)" d="M396.72 214.32L397.2 214.32L397.2 232.08L396.72 232.08z" stroke="none" fill="#000000" fill-rule="nonzero" /><path transform="matrix(1 0 0 -1 0 792)" d="M464.4 214.32L464.88 214.32L464.88 232.08L464.4 232.08z" stroke="none" fill="#000000" fill-rule="nonzero" /><path transform="matrix(1 0 0 -1 0 792)" d="M558.72 214.32L559.2 214.32L559.2 232.08L558.72 232.08z" stroke="none" fill="#000000" fill-rule="nonzero" /><path transform="matrix(1 0 0 -1 0 792)" d="M106.08 213.84L106.56 213.84L106.56 214.32L106.08 214.32z" stroke="none" fill="#000000" fill-rule="nonzero" /><path transform="matrix(1 0 0 -1 0 792)" d="M106.56 213.84L172.56 213.84L172.56 214.32L106.56 214.32z" stroke="none" fill="#000000" fill-rule="nonzero" /><path transform="matrix(1 0 0 -1 0 792)" d="M172.56 213.84L173.04 213.84L173.04 214.32L172.56 214.32z" stroke="none" fill="#000000" fill-rule="nonzero" /><path transform="matrix(1 0 0 -1 0 792)" d="M173.04 213.84L316.56 213.84L316.56 214.32L173.04 214.32z" stroke="none" fill="#000000" fill-rule="nonzero" /><path transform="matrix(1 0 0 -1 0 792)" d="M316.56 213.84L317.04 213.84L317.04 214.32L316.56 214.32z" stroke="none" fill="#000000" fill-rule="nonzero" /><path transform="matrix(1 0 0 -1 0 792)" d="M317.04 213.84L396.72 213.84L396.72 214.32L317.04 214.32z" stroke="none" fill="#000000" fill-rule="nonzero" /><path transform="matrix(1 0 0 -1 0 792)" d="M396.72 213.84L397.2 213.84L397.2 214.32L396.72 214.32z" stroke="none" fill="#000000" fill-rule="nonzero" /><path transform="matrix(1 0 0 -1 0 792)" d="M397.2 213.84L464.4 213.84L464.4 214.32L397.2 214.32z" stroke="none" fill="#000000" fill-rule="nonzero" /><path transform="matrix(1 0 0 -1 0 792)" d="M464.4 213.84L464.88 213.84L464.88 214.32L464.4 214.32z" stroke="none" fill="#000000" fill-rule="nonzero" /><path transform="matrix(1 0 0 -1 0 792)" d="M464.88 213.84L558.72 213.84L558.72 214.32L464.88 214.32z" stroke="none" fill="#000000" fill-rule="nonzero" /><path transform="matrix(1 0 0 -1 0 792)" d="M558.72 213.84L559.2 213.84L559.2 214.32L558.72 214.32z" stroke="none" fill="#000000" fill-rule="nonzero" /><path transform="matrix(1 0 0 -1 0 792)" d="M106.08 196.08L106.56 196.08L106.56 213.84L106.08 213.84z" stroke="none" fill="#000000" fill-rule="nonzero" /><path transform="matrix(1 0 0 -1 0 792)" d="M172.56 196.08L173.04 196.08L173.04 213.84L172.56 213.84z" stroke="none" fill="#000000" fill-rule="nonzero" /><path transform="matrix(1 0 0 -1 0 792)" d="M316.56 196.08L317.04 196.08L317.04 213.84L316.56 213.84z" stroke="none" fill="#000000" fill-rule="nonzero" /><path transform="matrix(1 0 0 -1 0 792)" d="M396.72 196.08L397.2 196.08L397.2 213.84L396.72 213.84z" stroke="none" fill="#000000" fill-rule="nonzero" /><path transform="matrix(1 0 0 -1 0 792)" d="M464.4 196.08L464.88 196.08L464.88 213.84L464.4 213.84z" stroke="none" fill="#000000" fill-rule="nonzero" /><path transform="matrix(1 0 0 -1 0 792)" d="M558.72 196.08L559.2 196.08L559.2 213.84L558.72 213.84z" stroke="none" fill="#000000" fill-rule="nonzero" /><g clip-path="url(#43)"><path transform="matrix(1 0 0 -1 0 792)" d="M106.32 174L558.72 174L558.72 195.84L106.32 195.84z" stroke="none" fill="#B3B3B3" fill-rule="nonzero" /></g><path transform="matrix(1 0 0 -1 0 792)" d="M111.12 176.16L553.92 176.16L553.92 193.68L111.12 193.68z" stroke="none" fill="#B3B3B3" fill-rule="nonzero" /><path transform="matrix(1 0 0 -1 0 792)" d="M106.08 195.84L106.56 195.84L106.56 196.08L106.08 196.08z" stroke="none" fill="#000000" fill-rule="nonzero" /><path transform="matrix(1 0 0 -1 0 792)" d="M106.56 195.84L172.56 195.84L172.56 196.08L106.56 196.08z" stroke="none" fill="#000000" fill-rule="nonzero" /><path transform="matrix(1 0 0 -1 0 792)" d="M172.56 195.84L173.04 195.84L173.04 196.08L172.56 196.08z" stroke="none" fill="#000000" fill-rule="nonzero" /><path transform="matrix(1 0 0 -1 0 792)" d="M173.04 195.84L316.56 195.84L316.56 196.08L173.04 196.08z" stroke="none" fill="#000000" fill-rule="nonzero" /><path transform="matrix(1 0 0 -1 0 792)" d="M316.56 195.84L317.04 195.84L317.04 196.08L316.56 196.08z" stroke="none" fill="#000000" fill-rule="nonzero" /><path transform="matrix(1 0 0 -1 0 792)" d="M317.04 195.84L396.72 195.84L396.72 196.08L317.04 196.08z" stroke="none" fill="#000000" fill-rule="nonzero" /><path transform="matrix(1 0 0 -1 0 792)" d="M396.72 195.84L397.2 195.84L397.2 196.08L396.72 196.08z" stroke="none" fill="#000000" fill-rule="nonzero" /><path transform="matrix(1 0 0 -1 0 792)" d="M397.2 195.84L464.4 195.84L464.4 196.08L397.2 196.08z" stroke="none" fill="#000000" fill-rule="nonzero" /><path transform="matrix(1 0 0 -1 0 792)" d="M464.4 195.84L464.88 195.84L464.88 196.08L464.4 196.08z" stroke="none" fill="#000000" fill-rule="nonzero" /><path transform="matrix(1 0 0 -1 0 792)" d="M464.88 195.84L558.72 195.84L558.72 196.08L464.88 196.08z" stroke="none" fill="#000000" fill-rule="nonzero" /><path transform="matrix(1 0 0 -1 0 792)" d="M558.72 195.84L559.2 195.84L559.2 196.08L558.72 196.08z" stroke="none" fill="#000000" fill-rule="nonzero" /><path transform="matrix(1 0 0 -1 0 792)" d="M106.08 174L106.56 174L106.56 195.84L106.08 195.84z" stroke="none" fill="#000000" fill-rule="nonzero" /><path transform="matrix(1 0 0 -1 0 792)" d="M558.72 174L559.2 174L559.2 195.84L558.72 195.84z" stroke="none" fill="#000000" fill-rule="nonzero" /><g clip-path="url(#44)"><path transform="matrix(1 0 0 -1 0 792)" d="M106.32 151.92L151.44 151.92L151.44 173.52L106.32 173.52z" stroke="none" fill="#E6E6E6" fill-rule="nonzero" /></g><path transform="matrix(1 0 0 -1 0 792)" d="M111.12 154.08L146.64 154.08L146.64 171.6L111.12 171.6z" stroke="none" fill="#E6E6E6" fill-rule="nonzero" /><g clip-path="url(#45)"><path transform="matrix(1 0 0 -1 0 792)" d="M151.92 151.92L392.4 151.92L392.4 173.52L151.92 173.52z" stroke="none" fill="#E6E6E6" fill-rule="nonzero" /></g><path transform="matrix(1 0 0 -1 0 792)" d="M156.72 154.08L387.6 154.08L387.6 171.6L156.72 171.6z" stroke="none" fill="#E6E6E6" fill-rule="nonzero" /><g clip-path="url(#46)"><path transform="matrix(1 0 0 -1 0 792)" d="M392.88 151.92L558.72 151.92L558.72 173.52L392.88 173.52z" stroke="none" fill="#E6E6E6" fill-rule="nonzero" /></g><path transform="matrix(1 0 0 -1 0 792)" d="M397.68 154.08L553.92 154.08L553.92 171.6L397.68 171.6z" stroke="none" fill="#E6E6E6" fill-rule="nonzero" /><path transform="matrix(1 0 0 -1 0 792)" d="M106.08 173.52L106.56 173.52L106.56 174L106.08 174z" stroke="none" fill="#000000" fill-rule="nonzero" /><path transform="matrix(1 0 0 -1 0 792)" d="M106.56 173.52L151.68 173.52L151.68 174L106.56 174z" stroke="none" fill="#000000" fill-rule="nonzero" /><path transform="matrix(1 0 0 -1 0 792)" d="M151.68 173.52L151.92 173.52L151.92 174L151.68 174z" stroke="none" fill="#000000" fill-rule="nonzero" /><path transform="matrix(1 0 0 -1 0 792)" d="M151.92 173.52L392.4 173.52L392.4 174L151.92 174z" stroke="none" fill="#000000" fill-rule="nonzero" /><path transform="matrix(1 0 0 -1 0 792)" d="M392.4 173.52L392.88 173.52L392.88 174L392.4 174z" stroke="none" fill="#000000" fill-rule="nonzero" /><path transform="matrix(1 0 0 -1 0 792)" d="M392.88 173.52L558.72 173.52L558.72 174L392.88 174z" stroke="none" fill="#000000" fill-rule="nonzero" /><path transform="matrix(1 0 0 -1 0 792)" d="M558.72 173.52L559.2 173.52L559.2 174L558.72 174z" stroke="none" fill="#000000" fill-rule="nonzero" /><path transform="matrix(1 0 0 -1 0 792)" d="M106.08 151.92L106.56 151.92L106.56 173.52L106.08 173.52z" stroke="none" fill="#000000" fill-rule="nonzero" /><path transform="matrix(1 0 0 -1 0 792)" d="M151.68 151.92L151.92 151.92L151.92 173.52L151.68 173.52z" stroke="none" fill="#000000" fill-rule="nonzero" /><path transform="matrix(1 0 0 -1 0 792)" d="M392.4 151.92L392.88 151.92L392.88 173.52L392.4 173.52z" stroke="none" fill="#000000" fill-rule="nonzero" /><path transform="matrix(1 0 0 -1 0 792)" d="M558.72 151.92L559.2 151.92L559.2 173.52L558.72 173.52z" stroke="none" fill="#000000" fill-rule="nonzero" /><path transform="matrix(1 0 0 -1 0 792)" d="M106.08 151.44L106.56 151.44L106.56 151.92L106.08 151.92z" stroke="none" fill="#000000" fill-rule="nonzero" /><path transform="matrix(1 0 0 -1 0 792)" d="M106.56 151.44L151.68 151.44L151.68 151.92L106.56 151.92z" stroke="none" fill="#000000" fill-rule="nonzero" /><path transform="matrix(1 0 0 -1 0 792)" d="M151.68 151.44L151.92 151.44L151.92 151.92L151.68 151.92z" stroke="none" fill="#000000" fill-rule="nonzero" /><path transform="matrix(1 0 0 -1 0 792)" d="M151.92 151.44L392.4 151.44L392.4 151.92L151.92 151.92z" stroke="none" fill="#000000" fill-rule="nonzero" /><path transform="matrix(1 0 0 -1 0 792)" d="M392.4 151.44L392.88 151.44L392.88 151.92L392.4 151.92z" stroke="none" fill="#000000" fill-rule="nonzero" /><path transform="matrix(1 0 0 -1 0 792)" d="M392.88 151.44L558.72 151.44L558.72 151.92L392.88 151.92z" stroke="none" fill="#000000" fill-rule="nonzero" /><path transform="matrix(1 0 0 -1 0 792)" d="M558.72 151.44L559.2 151.44L559.2 151.92L558.72 151.92z" stroke="none" fill="#000000" fill-rule="nonzero" /><path transform="matrix(1 0 0 -1 0 792)" d="M106.08 133.44L106.56 133.44L106.56 151.44L106.08 151.44z" stroke="none" fill="#000000" fill-rule="nonzero" /><path transform="matrix(1 0 0 -1 0 792)" d="M151.68 133.44L151.92 133.44L151.92 151.44L151.68 151.44z" stroke="none" fill="#000000" fill-rule="nonzero" /><path transform="matrix(1 0 0 -1 0 792)" d="M392.4 133.44L392.88 133.44L392.88 151.44L392.4 151.44z" stroke="none" fill="#000000" fill-rule="nonzero" /><path transform="matrix(1 0 0 -1 0 792)" d="M558.72 133.44L559.2 133.44L559.2 151.44L558.72 151.44z" stroke="none" fill="#000000" fill-rule="nonzero" /><path transform="matrix(1 0 0 -1 0 792)" d="M106.08 132.96L106.56 132.96L106.56 133.44L106.08 133.44z" stroke="none" fill="#000000" fill-rule="nonzero" /><path transform="matrix(1 0 0 -1 0 792)" d="M106.56 132.96L151.68 132.96L151.68 133.44L106.56 133.44z" stroke="none" fill="#000000" fill-rule="nonzero" /><path transform="matrix(1 0 0 -1 0 792)" d="M151.68 132.96L151.92 132.96L151.92 133.44L151.68 133.44z" stroke="none" fill="#000000" fill-rule="nonzero" /><path transform="matrix(1 0 0 -1 0 792)" d="M151.92 132.96L392.4 132.96L392.4 133.44L151.92 133.44z" stroke="none" fill="#000000" fill-rule="nonzero" /><path transform="matrix(1 0 0 -1 0 792)" d="M392.4 132.96L392.88 132.96L392.88 133.44L392.4 133.44z" stroke="none" fill="#000000" fill-rule="nonzero" /><path transform="matrix(1 0 0 -1 0 792)" d="M392.88 132.96L558.72 132.96L558.72 133.44L392.88 133.44z" stroke="none" fill="#000000" fill-rule="nonzero" /><path transform="matrix(1 0 0 -1 0 792)" d="M558.72 132.96L559.2 132.96L559.2 133.44L558.72 133.44z" stroke="none" fill="#000000" fill-rule="nonzero" /><path transform="matrix(1 0 0 -1 0 792)" d="M106.08 106.56L106.56 106.56L106.56 132.96L106.08 132.96z" stroke="none" fill="#000000" fill-rule="nonzero" /><path transform="matrix(1 0 0 -1 0 792)" d="M151.68 106.56L151.92 106.56L151.92 132.96L151.68 132.96z" stroke="none" fill="#000000" fill-rule="nonzero" /><path transform="matrix(1 0 0 -1 0 792)" d="M392.4 106.56L392.88 106.56L392.88 132.96L392.4 132.96z" stroke="none" fill="#000000" fill-rule="nonzero" /><path transform="matrix(1 0 0 -1 0 792)" d="M558.72 106.56L559.2 106.56L559.2 132.96L558.72 132.96z" stroke="none" fill="#000000" fill-rule="nonzero" /><path transform="matrix(1 0 0 -1 0 792)" d="M106.08 106.08L106.56 106.08L106.56 106.56L106.08 106.56z" stroke="none" fill="#000000" fill-rule="nonzero" /><path transform="matrix(1 0 0 -1 0 792)" d="M106.56 106.08L151.68 106.08L151.68 106.56L106.56 106.56z" stroke="none" fill="#000000" fill-rule="nonzero" /><path transform="matrix(1 0 0 -1 0 792)" d="M151.68 106.08L151.92 106.08L151.92 106.56L151.68 106.56z" stroke="none" fill="#000000" fill-rule="nonzero" /><path transform="matrix(1 0 0 -1 0 792)" d="M151.92 106.08L392.4 106.08L392.4 106.56L151.92 106.56z" stroke="none" fill="#000000" fill-rule="nonzero" /><path transform="matrix(1 0 0 -1 0 792)" d="M392.4 106.08L392.88 106.08L392.88 106.56L392.4 106.56z" stroke="none" fill="#000000" fill-rule="nonzero" /><path transform="matrix(1 0 0 -1 0 792)" d="M392.88 106.08L558.72 106.08L558.72 106.56L392.88 106.56z" stroke="none" fill="#000000" fill-rule="nonzero" /><path transform="matrix(1 0 0 -1 0 792)" d="M558.72 106.08L559.2 106.08L559.2 106.56L558.72 106.56z" stroke="none" fill="#000000" fill-rule="nonzero" /><path transform="matrix(1 0 0 -1 0 792)" d="M106.08 79.68L106.56 79.68L106.56 106.08L106.08 106.08z" stroke="none" fill="#000000" fill-rule="nonzero" /><path transform="matrix(1 0 0 -1 0 792)" d="M106.08 79.44L106.56 79.44L106.56 79.68L106.08 79.68z" stroke="none" fill="#000000" fill-rule="nonzero" /><path transform="matrix(1 0 0 -1 0 792)" d="M106.08 79.44L106.56 79.44L106.56 79.68L106.08 79.68z" stroke="none" fill="#000000" fill-rule="nonzero" /><path transform="matrix(1 0 0 -1 0 792)" d="M106.56 79.44L151.68 79.44L151.68 79.68L106.56 79.68z" stroke="none" fill="#000000" fill-rule="nonzero" /><path transform="matrix(1 0 0 -1 0 792)" d="M151.68 79.68L151.92 79.68L151.92 106.08L151.68 106.08z" stroke="none" fill="#000000" fill-rule="nonzero" /><path transform="matrix(1 0 0 -1 0 792)" d="M151.68 79.44L151.92 79.44L151.92 79.68L151.68 79.68z" stroke="none" fill="#000000" fill-rule="nonzero" /><path transform="matrix(1 0 0 -1 0 792)" d="M151.92 79.44L392.4 79.44L392.4 79.68L151.92 79.68z" stroke="none" fill="#000000" fill-rule="nonzero" /><path transform="matrix(1 0 0 -1 0 792)" d="M392.4 79.68L392.88 79.68L392.88 106.08L392.4 106.08z" stroke="none" fill="#000000" fill-rule="nonzero" /><path transform="matrix(1 0 0 -1 0 792)" d="M392.4 79.44L392.88 79.44L392.88 79.68L392.4 79.68z" stroke="none" fill="#000000" fill-rule="nonzero" /><path transform="matrix(1 0 0 -1 0 792)" d="M392.88 79.44L558.72 79.44L558.72 79.68L392.88 79.68z" stroke="none" fill="#000000" fill-rule="nonzero" /><path transform="matrix(1 0 0 -1 0 792)" d="M558.72 79.68L559.2 79.68L559.2 106.08L558.72 106.08z" stroke="none" fill="#000000" fill-rule="nonzero" /><path transform="matrix(1 0 0 -1 0 792)" d="M558.72 79.44L559.2 79.44L559.2 79.68L558.72 79.68z" stroke="none" fill="#000000" fill-rule="nonzero" /><path transform="matrix(1 0 0 -1 0 792)" d="M558.72 79.44L559.2 79.44L559.2 79.68L558.72 79.68z" stroke="none" fill="#000000" fill-rule="nonzero" /></g></g></g></svg>