<svg xmlns="http://www.w3.org/2000/svg" xmlns:xlink="http://www.w3.org/1999/xlink" id="body_1" preserveAspectRatio="xMinYMin meet" viewBox="0 0 816 1056"><defs><clipPath id="1"><path clip-rule="evenodd" d="M0 792L0 0L0 0L612 0L612 0L612 792L612 792L0 792z" /></clipPath><clipPath id="2"><path clip-rule="evenodd" d="M106.32 58.56L558.72 58.56L558.72 58.56L558.72 57.84003L558.72 57.84003L106.32 57.84003zM553.92 57.84003L558.72 57.84003L558.72 57.84003L558.72 39.84003L558.72 39.84003L553.92 39.84003zM106.32 57.84003L111.12 57.84003L111.12 57.84003L111.12 39.84003L111.12 39.84003L106.32 39.84003z" /></clipPath><clipPath id="3"><path clip-rule="evenodd" d="M106.32 89.52002L202.08 89.52002L202.08 89.52002L202.08 83.28003L202.08 83.28003L106.32 83.28003zM197.04 83.28003L202.08 83.28003L202.08 83.28003L202.08 65.52002L202.08 65.52002L197.04 65.52002zM106.32 83.28003L111.12 83.28003L111.12 83.28003L111.12 65.52002L111.12 65.52002L106.32 65.52002zM106.32 65.52002L202.08 65.52002L202.08 65.52002L202.08 59.04004L202.08 59.04004L106.32 59.04004z" /></clipPath><clipPath id="4"><path clip-rule="evenodd" d="M202.56 89.52002L351.12 89.52002L351.12 89.52002L351.12 83.28003L351.12 83.28003L202.56 83.28003zM346.56 83.28003L351.1199 83.28003L351.1199 83.28003L351.1199 65.52002L351.1199 65.52002L346.56 65.52002zM202.56 83.28003L207.36 83.28003L207.36 83.28003L207.36 65.52002L207.36 65.52002L202.56 65.52002zM202.56 65.52002L351.12 65.52002L351.12 65.52002L351.12 59.04004L351.12 59.04004L202.56 59.04004z" /></clipPath><clipPath id="5"><path clip-rule="evenodd" d="M419.76 89.52002L424.56 89.52002L424.56 89.52002L424.56 59.04004L424.56 59.04004L419.76 59.04004zM351.6 89.52002L356.64 89.52002L356.64 89.52002L356.64 59.04004L356.64 59.04004L351.6 59.04004z" /></clipPath><clipPath id="6"><path clip-rule="evenodd" d="M381.12 89.52002L384.48 89.52002L384.48 89.52002L384.48 77.04004L384.48 77.04004L381.12 77.04004z" /></clipPath><clipPath id="7"><path clip-rule="evenodd" d="M384.24 89.52002L390 89.52002L390 89.52002L390 77.04004L390 77.04004L384.24 77.04004z" /></clipPath><clipPath id="8"><path clip-rule="evenodd" d="M389.76 89.52002L395.52 89.52002L395.52 89.52002L395.52 77.04004L395.52 77.04004L389.76 77.04004z" /></clipPath><clipPath id="9"><path clip-rule="evenodd" d="M395.52 89.52002L401.0399 89.52002L401.0399 89.52002L401.0399 77.04004L401.0399 77.04004L395.52 77.04004z" /></clipPath><clipPath id="10"><path clip-rule="evenodd" d="M479.52 89.52002L484.56 89.52002L484.56 89.52002L484.56 59.04004L484.56 59.04004L479.52 59.04004zM425.04 89.52002L430.08 89.52002L430.08 89.52002L430.08 59.04004L430.08 59.04004L425.04 59.04004z" /></clipPath><clipPath id="11"><path clip-rule="evenodd" d="M437.76 89.52002L461.04 89.52002L461.04 89.52002L461.04 77.04004L461.04 77.04004L437.76 77.04004z" /></clipPath><clipPath id="12"><path clip-rule="evenodd" d="M460.56 89.52002L466.32 89.52002L466.32 89.52002L466.32 77.04004L466.32 77.04004L460.56 77.04004z" /></clipPath><clipPath id="13"><path clip-rule="evenodd" d="M466.32 89.52002L472.08 89.52002L472.08 89.52002L472.08 77.04004L472.08 77.04004L466.32 77.04004z" /></clipPath><clipPath id="14"><path clip-rule="evenodd" d="M471.84 89.52002L477.3599 89.52002L477.3599 89.52002L477.3599 77.04004L477.3599 77.04004L471.84 77.04004z" /></clipPath><clipPath id="15"><path clip-rule="evenodd" d="M553.92 89.52002L558.72 89.52002L558.72 89.52002L558.72 59.04004L558.72 59.04004L553.92 59.04004zM485.04 89.52002L489.84 89.52002L489.84 89.52002L489.84 59.04004L489.84 59.04004L485.04 59.04004z" /></clipPath><clipPath id="16"><path clip-rule="evenodd" d="M513.12 89.52002L519.36 89.52002L519.36 89.52002L519.36 77.04004L519.36 77.04004L513.12 77.04004z" /></clipPath><clipPath id="17"><path clip-rule="evenodd" d="M518.88 89.52002L525.6 89.52002L525.6 89.52002L525.6 77.04004L525.6 77.04004L518.88 77.04004z" /></clipPath><clipPath id="18"><path clip-rule="evenodd" d="M524.4 89.52002L530.16 89.52002L530.16 89.52002L530.16 77.04004L530.16 77.04004L524.4 77.04004z" /></clipPath><clipPath id="19"><path clip-rule="evenodd" d="M530.16 89.52002L535.6799 89.52002L535.6799 89.52002L535.6799 77.04004L535.6799 77.04004L530.16 77.04004z" /></clipPath><clipPath id="20"><path clip-rule="evenodd" d="M273.84 200.16L279.84 200.16L279.84 200.16L279.84 187.68L279.84 187.68L273.84 187.68z" /></clipPath><clipPath id="21"><path clip-rule="evenodd" d="M111.12 236.4L117.12 236.4L117.12 236.4L117.12 223.92L117.12 223.92L111.12 223.92z" /></clipPath><clipPath id="22"><path clip-rule="evenodd" d="M207.36 236.4L213.36 236.4L213.36 236.4L213.36 223.92L213.36 223.92L207.36 223.92z" /></clipPath><clipPath id="23"><path clip-rule="evenodd" d="M355.44 236.4L361.44 236.4L361.44 236.4L361.44 223.92L361.44 223.92L355.44 223.92z" /></clipPath><clipPath id="24"><path clip-rule="evenodd" d="M427.2 236.4L433.2 236.4L433.2 236.4L433.2 223.92L433.2 223.92L427.2 223.92z" /></clipPath><clipPath id="25"><path clip-rule="evenodd" d="M490.8 236.4L496.8 236.4L496.8 236.4L496.8 223.92L496.8 223.92L490.8 223.92z" /></clipPath><clipPath id="26"><path clip-rule="evenodd" d="M111.12 272.64L117.12 272.64L117.12 272.64L117.12 260.16L117.12 260.16L111.12 260.16z" /></clipPath><clipPath id="27"><path clip-rule="evenodd" d="M207.36 272.64L213.36 272.64L213.36 272.64L213.36 260.16L213.36 260.16L207.36 260.16z" /></clipPath><clipPath id="28"><path clip-rule="evenodd" d="M355.44 272.64L361.44 272.64L361.44 272.64L361.44 260.16L361.44 260.16L355.44 260.16z" /></clipPath><clipPath id="29"><path clip-rule="evenodd" d="M427.2 272.64L433.2 272.64L433.2 272.64L433.2 260.16L433.2 260.16L427.2 260.16z" /></clipPath><clipPath id="30"><path clip-rule="evenodd" d="M490.8 272.64L496.8 272.64L496.8 272.64L496.8 260.16L496.8 260.16L490.8 260.16z" /></clipPath><clipPath id="31"><path clip-rule="evenodd" d="M106.32 291.6L558.72 291.6L558.72 291.6L558.72 290.88L558.72 290.88L106.32 290.88zM553.92 290.88L558.72 290.88L558.72 290.88L558.72 273.12L558.72 273.12L553.92 273.12zM106.32 290.88L111.12 290.88L111.12 290.88L111.12 273.12L111.12 273.12L106.32 273.12z" /></clipPath><clipPath id="32"><path clip-rule="evenodd" d="M111.12 327.6L539.76 327.6L539.76 327.6L539.76 315.12L539.76 315.12L111.12 315.12z" /></clipPath><clipPath id="33"><path clip-rule="evenodd" d="M539.76 327.6L545.76 327.6L545.76 327.6L545.76 315.12L545.76 315.12L539.76 315.12z" /></clipPath></defs><g transform="matrix(1.333333 0 0 1.333333 0 0)"><g><g clip-path="url(#1)"><g clip-path="url(#2)"><path transform="matrix(1 0 0 -1 0 792)" d="M106.32 733.44L558.72 733.44L558.72 752.16L106.32 752.16z" stroke="none" fill="#B2B2B2" fill-rule="nonzero" /></g><path transform="matrix(1 0 0 -1 0 792)" d="M111.12 734.16L553.92 734.16L553.92 752.16L111.12 752.16z" stroke="none" fill="#B2B2B2" fill-rule="nonzero" /><path transform="matrix(1 0 0 -1 0 792)" d="M106.08 752.16L106.56 752.16L106.56 752.64L106.08 752.64z" stroke="none" fill="#000000" fill-rule="nonzero" /><path transform="matrix(1 0 0 -1 0 792)" d="M106.08 752.16L106.56 752.16L106.56 752.64L106.08 752.64z" stroke="none" fill="#000000" fill-rule="nonzero" /><path transform="matrix(1 0 0 -1 0 792)" d="M106.56 752.16L558.72 752.16L558.72 752.64L106.56 752.64z" stroke="none" fill="#000000" fill-rule="nonzero" /><path transform="matrix(1 0 0 -1 0 792)" d="M558.72 752.16L559.2 752.16L559.2 752.64L558.72 752.64z" stroke="none" fill="#000000" fill-rule="nonzero" /><path transform="matrix(1 0 0 -1 0 792)" d="M558.72 752.16L559.2 752.16L559.2 752.64L558.72 752.64z" stroke="none" fill="#000000" fill-rule="nonzero" /><path transform="matrix(1 0 0 -1 0 792)" d="M106.08 733.44L106.56 733.44L106.56 752.16L106.08 752.16z" stroke="none" fill="#000000" fill-rule="nonzero" /><path transform="matrix(1 0 0 -1 0 792)" d="M558.72 733.44L559.2 733.44L559.2 752.16L558.72 752.16z" stroke="none" fill="#000000" fill-rule="nonzero" /><g clip-path="url(#3)"><path transform="matrix(1 0 0 -1 0 792)" d="M106.32 702.48L202.08 702.48L202.08 732.96L106.32 732.96z" stroke="none" fill="#E6E6E6" fill-rule="nonzero" /></g><path transform="matrix(1 0 0 -1 0 792)" d="M111.12 708.72L197.04 708.72L197.04 726.48L111.12 726.48z" stroke="none" fill="#E6E6E6" fill-rule="nonzero" /><g clip-path="url(#4)"><path transform="matrix(1 0 0 -1 0 792)" d="M202.56 702.48L351.12 702.48L351.12 732.96L202.56 732.96z" stroke="none" fill="#E6E6E6" fill-rule="nonzero" /></g><path transform="matrix(1 0 0 -1 0 792)" d="M207.36 708.72L346.56 708.72L346.56 726.48L207.36 726.48z" stroke="none" fill="#E6E6E6" fill-rule="nonzero" /><g clip-path="url(#5)"><path transform="matrix(1 0 0 -1 0 792)" d="M351.6 702.48L424.5599 702.48L424.5599 732.96L351.6 732.96z" stroke="none" fill="#E6E6E6" fill-rule="nonzero" /></g><path transform="matrix(1 0 0 -1 0 792)" d="M356.64 715.2L419.76 715.2L419.76 732.96L356.64 732.96z" stroke="none" fill="#E6E6E6" fill-rule="nonzero" /><path transform="matrix(1 0 0 -1 0 792)" d="M356.64 702.48L419.76 702.48L419.76 715.2L356.64 715.2z" stroke="none" fill="#E6E6E6" fill-rule="nonzero" /><g clip-path="url(#6)"></g><g clip-path="url(#7)"></g><g clip-path="url(#8)"></g><g clip-path="url(#9)"></g><g clip-path="url(#10)"><path transform="matrix(1 0 0 -1 0 792)" d="M425.04 702.48L484.56 702.48L484.56 732.96L425.04 732.96z" stroke="none" fill="#E6E6E6" fill-rule="nonzero" /></g><path transform="matrix(1 0 0 -1 0 792)" d="M430.08 715.2L479.52 715.2L479.52 732.96L430.08 732.96z" stroke="none" fill="#E6E6E6" fill-rule="nonzero" /><path transform="matrix(1 0 0 -1 0 792)" d="M430.08 702.48L479.52 702.48L479.52 715.2L430.08 715.2z" stroke="none" fill="#E6E6E6" fill-rule="nonzero" /><g clip-path="url(#11)"></g><g clip-path="url(#12)"></g><g clip-path="url(#13)"></g><g clip-path="url(#14)"></g><g clip-path="url(#15)"><path transform="matrix(1 0 0 -1 0 792)" d="M485.04 702.48L558.72 702.48L558.72 732.96L485.04 732.96z" stroke="none" fill="#E6E6E6" fill-rule="nonzero" /></g><path transform="matrix(1 0 0 -1 0 792)" d="M489.84 715.2L553.92 715.2L553.92 732.96L489.84 732.96z" stroke="none" fill="#E6E6E6" fill-rule="nonzero" /><path transform="matrix(1 0 0 -1 0 792)" d="M489.84 702.48L553.92 702.48L553.92 715.2L489.84 715.2z" stroke="none" fill="#E6E6E6" fill-rule="nonzero" /><g clip-path="url(#16)"></g><g clip-path="url(#17)"></g><g clip-path="url(#18)"></g><g clip-path="url(#19)"></g><path transform="matrix(1 0 0 -1 0 792)" d="M106.08 732.96L106.56 732.96L106.56 733.44L106.08 733.44z" stroke="none" fill="#000000" fill-rule="nonzero" /><path transform="matrix(1 0 0 -1 0 792)" d="M106.56 732.96L202.08 732.96L202.08 733.44L106.56 733.44z" stroke="none" fill="#000000" fill-rule="nonzero" /><path transform="matrix(1 0 0 -1 0 792)" d="M202.08 732.96L202.56 732.96L202.56 733.44L202.08 733.44z" stroke="none" fill="#000000" fill-rule="nonzero" /><path transform="matrix(1 0 0 -1 0 792)" d="M202.56 732.96L351.36 732.96L351.36 733.44L202.56 733.44z" stroke="none" fill="#000000" fill-rule="nonzero" /><path transform="matrix(1 0 0 -1 0 792)" d="M351.36 732.96L351.84 732.96L351.84 733.44L351.36 733.44z" stroke="none" fill="#000000" fill-rule="nonzero" /><path transform="matrix(1 0 0 -1 0 792)" d="M351.84 732.96L424.7999 732.96L424.7999 733.44L351.84 733.44z" stroke="none" fill="#000000" fill-rule="nonzero" /><path transform="matrix(1 0 0 -1 0 792)" d="M424.8 732.96L425.28 732.96L425.28 733.44L424.8 733.44z" stroke="none" fill="#000000" fill-rule="nonzero" /><path transform="matrix(1 0 0 -1 0 792)" d="M425.28 732.96L484.56 732.96L484.56 733.44L425.28 733.44z" stroke="none" fill="#000000" fill-rule="nonzero" /><path transform="matrix(1 0 0 -1 0 792)" d="M484.56 732.96L485.04 732.96L485.04 733.44L484.56 733.44z" stroke="none" fill="#000000" fill-rule="nonzero" /><path transform="matrix(1 0 0 -1 0 792)" d="M485.04 732.96L558.72 732.96L558.72 733.44L485.04 733.44z" stroke="none" fill="#000000" fill-rule="nonzero" /><path transform="matrix(1 0 0 -1 0 792)" d="M558.72 732.96L559.2 732.96L559.2 733.44L558.72 733.44z" stroke="none" fill="#000000" fill-rule="nonzero" /><path transform="matrix(1 0 0 -1 0 792)" d="M106.08 702.48L106.56 702.48L106.56 732.96L106.08 732.96z" stroke="none" fill="#000000" fill-rule="nonzero" /><path transform="matrix(1 0 0 -1 0 792)" d="M202.08 702.48L202.56 702.48L202.56 732.96L202.08 732.96z" stroke="none" fill="#000000" fill-rule="nonzero" /><path transform="matrix(1 0 0 -1 0 792)" d="M351.36 702.48L351.84 702.48L351.84 732.96L351.36 732.96z" stroke="none" fill="#000000" fill-rule="nonzero" /><path transform="matrix(1 0 0 -1 0 792)" d="M424.8 702.48L425.28 702.48L425.28 732.96L424.8 732.96z" stroke="none" fill="#000000" fill-rule="nonzero" /><path transform="matrix(1 0 0 -1 0 792)" d="M484.56 702.48L485.04 702.48L485.04 732.96L484.56 732.96z" stroke="none" fill="#000000" fill-rule="nonzero" /><path transform="matrix(1 0 0 -1 0 792)" d="M558.72 702.48L559.2 702.48L559.2 732.96L558.72 732.96z" stroke="none" fill="#000000" fill-rule="nonzero" /><path transform="matrix(1 0 0 -1 0 792)" d="M106.08 702L106.56 702L106.56 702.48L106.08 702.48z" stroke="none" fill="#000000" fill-rule="nonzero" /><path transform="matrix(1 0 0 -1 0 792)" d="M106.56 702L202.08 702L202.08 702.48L106.56 702.48z" stroke="none" fill="#000000" fill-rule="nonzero" /><path transform="matrix(1 0 0 -1 0 792)" d="M202.08 702L202.56 702L202.56 702.48L202.08 702.48z" stroke="none" fill="#000000" fill-rule="nonzero" /><path transform="matrix(1 0 0 -1 0 792)" d="M202.56 702L351.36 702L351.36 702.48L202.56 702.48z" stroke="none" fill="#000000" fill-rule="nonzero" /><path transform="matrix(1 0 0 -1 0 792)" d="M351.36 702L351.84 702L351.84 702.48L351.36 702.48z" stroke="none" fill="#000000" fill-rule="nonzero" /><path transform="matrix(1 0 0 -1 0 792)" d="M351.84 702L424.7999 702L424.7999 702.48L351.84 702.48z" stroke="none" fill="#000000" fill-rule="nonzero" /><path transform="matrix(1 0 0 -1 0 792)" d="M424.8 702L425.28 702L425.28 702.48L424.8 702.48z" stroke="none" fill="#000000" fill-rule="nonzero" /><path transform="matrix(1 0 0 -1 0 792)" d="M425.28 702L484.56 702L484.56 702.48L425.28 702.48z" stroke="none" fill="#000000" fill-rule="nonzero" /><path transform="matrix(1 0 0 -1 0 792)" d="M484.56 702L485.04 702L485.04 702.48L484.56 702.48z" stroke="none" fill="#000000" fill-rule="nonzero" /><path transform="matrix(1 0 0 -1 0 792)" d="M485.04 702L558.72 702L558.72 702.48L485.04 702.48z" stroke="none" fill="#000000" fill-rule="nonzero" /><path transform="matrix(1 0 0 -1 0 792)" d="M558.72 702L559.2 702L559.2 702.48L558.72 702.48z" stroke="none" fill="#000000" fill-rule="nonzero" /><path transform="matrix(1 0 0 -1 0 792)" d="M106.08 684L106.56 684L106.56 702L106.08 702z" stroke="none" fill="#000000" fill-rule="nonzero" /><path transform="matrix(1 0 0 -1 0 792)" d="M202.08 684L202.56 684L202.56 702L202.08 702z" stroke="none" fill="#000000" fill-rule="nonzero" /><path transform="matrix(1 0 0 -1 0 792)" d="M351.36 684L351.84 684L351.84 702L351.36 702z" stroke="none" fill="#000000" fill-rule="nonzero" /><path transform="matrix(1 0 0 -1 0 792)" d="M424.8 684L425.28 684L425.28 702L424.8 702z" stroke="none" fill="#000000" fill-rule="nonzero" /><path transform="matrix(1 0 0 -1 0 792)" d="M484.56 684L485.04 684L485.04 702L484.56 702z" stroke="none" fill="#000000" fill-rule="nonzero" /><path transform="matrix(1 0 0 -1 0 792)" d="M558.72 684L559.2 684L559.2 702L558.72 702z" stroke="none" fill="#000000" fill-rule="nonzero" /><path transform="matrix(1 0 0 -1 0 792)" d="M106.08 683.52L106.56 683.52L106.56 684L106.08 684z" stroke="none" fill="#000000" fill-rule="nonzero" /><path transform="matrix(1 0 0 -1 0 792)" d="M106.56 683.52L202.08 683.52L202.08 684L106.56 684z" stroke="none" fill="#000000" fill-rule="nonzero" /><path transform="matrix(1 0 0 -1 0 792)" d="M202.08 683.52L202.56 683.52L202.56 684L202.08 684z" stroke="none" fill="#000000" fill-rule="nonzero" /><path transform="matrix(1 0 0 -1 0 792)" d="M202.56 683.52L351.36 683.52L351.36 684L202.56 684z" stroke="none" fill="#000000" fill-rule="nonzero" /><path transform="matrix(1 0 0 -1 0 792)" d="M351.36 683.52L351.84 683.52L351.84 684L351.36 684z" stroke="none" fill="#000000" fill-rule="nonzero" /><path transform="matrix(1 0 0 -1 0 792)" d="M351.84 683.52L424.7999 683.52L424.7999 684L351.84 684z" stroke="none" fill="#000000" fill-rule="nonzero" /><path transform="matrix(1 0 0 -1 0 792)" d="M424.8 683.52L425.28 683.52L425.28 684L424.8 684z" stroke="none" fill="#000000" fill-rule="nonzero" /><path transform="matrix(1 0 0 -1 0 792)" d="M425.28 683.52L484.56 683.52L484.56 684L425.28 684z" stroke="none" fill="#000000" fill-rule="nonzero" /><path transform="matrix(1 0 0 -1 0 792)" d="M484.56 683.52L485.04 683.52L485.04 684L484.56 684z" stroke="none" fill="#000000" fill-rule="nonzero" /><path transform="matrix(1 0 0 -1 0 792)" d="M485.04 683.52L558.72 683.52L558.72 684L485.04 684z" stroke="none" fill="#000000" fill-rule="nonzero" /><path transform="matrix(1 0 0 -1 0 792)" d="M558.72 683.52L559.2 683.52L559.2 684L558.72 684z" stroke="none" fill="#000000" fill-rule="nonzero" /><path transform="matrix(1 0 0 -1 0 792)" d="M106.08 665.52L106.56 665.52L106.56 683.52L106.08 683.52z" stroke="none" fill="#000000" fill-rule="nonzero" /><path transform="matrix(1 0 0 -1 0 792)" d="M202.08 665.52L202.56 665.52L202.56 683.52L202.08 683.52z" stroke="none" fill="#000000" fill-rule="nonzero" /><path transform="matrix(1 0 0 -1 0 792)" d="M351.36 665.52L351.84 665.52L351.84 683.52L351.36 683.52z" stroke="none" fill="#000000" fill-rule="nonzero" /><path transform="matrix(1 0 0 -1 0 792)" d="M424.8 665.52L425.28 665.52L425.28 683.52L424.8 683.52z" stroke="none" fill="#000000" fill-rule="nonzero" /><path transform="matrix(1 0 0 -1 0 792)" d="M484.56 665.52L485.04 665.52L485.04 683.52L484.56 683.52z" stroke="none" fill="#000000" fill-rule="nonzero" /><path transform="matrix(1 0 0 -1 0 792)" d="M558.72 665.52L559.2 665.52L559.2 683.52L558.72 683.52z" stroke="none" fill="#000000" fill-rule="nonzero" /><path transform="matrix(1 0 0 -1 0 792)" d="M106.08 665.04L106.56 665.04L106.56 665.52L106.08 665.52z" stroke="none" fill="#000000" fill-rule="nonzero" /><path transform="matrix(1 0 0 -1 0 792)" d="M106.56 665.04L202.08 665.04L202.08 665.52L106.56 665.52z" stroke="none" fill="#000000" fill-rule="nonzero" /><path transform="matrix(1 0 0 -1 0 792)" d="M202.08 665.04L202.56 665.04L202.56 665.52L202.08 665.52z" stroke="none" fill="#000000" fill-rule="nonzero" /><path transform="matrix(1 0 0 -1 0 792)" d="M202.56 665.04L351.36 665.04L351.36 665.52L202.56 665.52z" stroke="none" fill="#000000" fill-rule="nonzero" /><path transform="matrix(1 0 0 -1 0 792)" d="M351.36 665.04L351.84 665.04L351.84 665.52L351.36 665.52z" stroke="none" fill="#000000" fill-rule="nonzero" /><path transform="matrix(1 0 0 -1 0 792)" d="M351.84 665.04L424.7999 665.04L424.7999 665.52L351.84 665.52z" stroke="none" fill="#000000" fill-rule="nonzero" /><path transform="matrix(1 0 0 -1 0 792)" d="M424.8 665.04L425.28 665.04L425.28 665.52L424.8 665.52z" stroke="none" fill="#000000" fill-rule="nonzero" /><path transform="matrix(1 0 0 -1 0 792)" d="M425.28 665.04L484.56 665.04L484.56 665.52L425.28 665.52z" stroke="none" fill="#000000" fill-rule="nonzero" /><path transform="matrix(1 0 0 -1 0 792)" d="M484.56 665.04L485.04 665.04L485.04 665.52L484.56 665.52z" stroke="none" fill="#000000" fill-rule="nonzero" /><path transform="matrix(1 0 0 -1 0 792)" d="M485.04 665.04L558.72 665.04L558.72 665.52L485.04 665.52z" stroke="none" fill="#000000" fill-rule="nonzero" /><path transform="matrix(1 0 0 -1 0 792)" d="M558.72 665.04L559.2 665.04L559.2 665.52L558.72 665.52z" stroke="none" fill="#000000" fill-rule="nonzero" /><path transform="matrix(1 0 0 -1 0 792)" d="M106.08 647.04L106.56 647.04L106.56 665.04L106.08 665.04z" stroke="none" fill="#000000" fill-rule="nonzero" /><path transform="matrix(1 0 0 -1 0 792)" d="M202.08 647.04L202.56 647.04L202.56 665.04L202.08 665.04z" stroke="none" fill="#000000" fill-rule="nonzero" /><path transform="matrix(1 0 0 -1 0 792)" d="M351.36 647.04L351.84 647.04L351.84 665.04L351.36 665.04z" stroke="none" fill="#000000" fill-rule="nonzero" /><path transform="matrix(1 0 0 -1 0 792)" d="M424.8 647.04L425.28 647.04L425.28 665.04L424.8 665.04z" stroke="none" fill="#000000" fill-rule="nonzero" /><path transform="matrix(1 0 0 -1 0 792)" d="M484.56 647.04L485.04 647.04L485.04 665.04L484.56 665.04z" stroke="none" fill="#000000" fill-rule="nonzero" /><path transform="matrix(1 0 0 -1 0 792)" d="M558.72 647.04L559.2 647.04L559.2 665.04L558.72 665.04z" stroke="none" fill="#000000" fill-rule="nonzero" /><path transform="matrix(1 0 0 -1 0 792)" d="M106.08 646.56L106.56 646.56L106.56 647.04L106.08 647.04z" stroke="none" fill="#000000" fill-rule="nonzero" /><path transform="matrix(1 0 0 -1 0 792)" d="M106.56 646.56L202.08 646.56L202.08 647.04L106.56 647.04z" stroke="none" fill="#000000" fill-rule="nonzero" /><path transform="matrix(1 0 0 -1 0 792)" d="M202.08 646.56L202.56 646.56L202.56 647.04L202.08 647.04z" stroke="none" fill="#000000" fill-rule="nonzero" /><path transform="matrix(1 0 0 -1 0 792)" d="M202.56 646.56L351.36 646.56L351.36 647.04L202.56 647.04z" stroke="none" fill="#000000" fill-rule="nonzero" /><path transform="matrix(1 0 0 -1 0 792)" d="M351.36 646.56L351.84 646.56L351.84 647.04L351.36 647.04z" stroke="none" fill="#000000" fill-rule="nonzero" /><path transform="matrix(1 0 0 -1 0 792)" d="M351.84 646.56L424.7999 646.56L424.7999 647.04L351.84 647.04z" stroke="none" fill="#000000" fill-rule="nonzero" /><path transform="matrix(1 0 0 -1 0 792)" d="M424.8 646.56L425.28 646.56L425.28 647.04L424.8 647.04z" stroke="none" fill="#000000" fill-rule="nonzero" /><path transform="matrix(1 0 0 -1 0 792)" d="M425.28 646.56L484.56 646.56L484.56 647.04L425.28 647.04z" stroke="none" fill="#000000" fill-rule="nonzero" /><path transform="matrix(1 0 0 -1 0 792)" d="M484.56 646.56L485.04 646.56L485.04 647.04L484.56 647.04z" stroke="none" fill="#000000" fill-rule="nonzero" /><path transform="matrix(1 0 0 -1 0 792)" d="M485.04 646.56L558.72 646.56L558.72 647.04L485.04 647.04z" stroke="none" fill="#000000" fill-rule="nonzero" /><path transform="matrix(1 0 0 -1 0 792)" d="M558.72 646.56L559.2 646.56L559.2 647.04L558.72 647.04z" stroke="none" fill="#000000" fill-rule="nonzero" /><path transform="matrix(1 0 0 -1 0 792)" d="M106.08 628.56L106.56 628.56L106.56 646.56L106.08 646.56z" stroke="none" fill="#000000" fill-rule="nonzero" /><path transform="matrix(1 0 0 -1 0 792)" d="M202.08 628.56L202.56 628.56L202.56 646.56L202.08 646.56z" stroke="none" fill="#000000" fill-rule="nonzero" /><path transform="matrix(1 0 0 -1 0 792)" d="M351.36 628.56L351.84 628.56L351.84 646.56L351.36 646.56z" stroke="none" fill="#000000" fill-rule="nonzero" /><path transform="matrix(1 0 0 -1 0 792)" d="M424.8 628.56L425.28 628.56L425.28 646.56L424.8 646.56z" stroke="none" fill="#000000" fill-rule="nonzero" /><path transform="matrix(1 0 0 -1 0 792)" d="M484.56 628.56L485.04 628.56L485.04 646.56L484.56 646.56z" stroke="none" fill="#000000" fill-rule="nonzero" /><path transform="matrix(1 0 0 -1 0 792)" d="M558.72 628.56L559.2 628.56L559.2 646.56L558.72 646.56z" stroke="none" fill="#000000" fill-rule="nonzero" /><path transform="matrix(1 0 0 -1 0 792)" d="M106.08 628.08L106.56 628.08L106.56 628.56L106.08 628.56z" stroke="none" fill="#000000" fill-rule="nonzero" /><path transform="matrix(1 0 0 -1 0 792)" d="M106.56 628.08L202.08 628.08L202.08 628.56L106.56 628.56z" stroke="none" fill="#000000" fill-rule="nonzero" /><path transform="matrix(1 0 0 -1 0 792)" d="M202.08 628.08L202.56 628.08L202.56 628.56L202.08 628.56z" stroke="none" fill="#000000" fill-rule="nonzero" /><path transform="matrix(1 0 0 -1 0 792)" d="M202.56 628.08L351.36 628.08L351.36 628.56L202.56 628.56z" stroke="none" fill="#000000" fill-rule="nonzero" /><path transform="matrix(1 0 0 -1 0 792)" d="M351.36 628.08L351.84 628.08L351.84 628.56L351.36 628.56z" stroke="none" fill="#000000" fill-rule="nonzero" /><path transform="matrix(1 0 0 -1 0 792)" d="M351.84 628.08L424.7999 628.08L424.7999 628.56L351.84 628.56z" stroke="none" fill="#000000" fill-rule="nonzero" /><path transform="matrix(1 0 0 -1 0 792)" d="M424.8 628.08L425.28 628.08L425.28 628.56L424.8 628.56z" stroke="none" fill="#000000" fill-rule="nonzero" /><path transform="matrix(1 0 0 -1 0 792)" d="M425.28 628.08L484.56 628.08L484.56 628.56L425.28 628.56z" stroke="none" fill="#000000" fill-rule="nonzero" /><path transform="matrix(1 0 0 -1 0 792)" d="M484.56 628.08L485.04 628.08L485.04 628.56L484.56 628.56z" stroke="none" fill="#000000" fill-rule="nonzero" /><path transform="matrix(1 0 0 -1 0 792)" d="M485.04 628.08L558.72 628.08L558.72 628.56L485.04 628.56z" stroke="none" fill="#000000" fill-rule="nonzero" /><path transform="matrix(1 0 0 -1 0 792)" d="M558.72 628.08L559.2 628.08L559.2 628.56L558.72 628.56z" stroke="none" fill="#000000" fill-rule="nonzero" /><path transform="matrix(1 0 0 -1 0 792)" d="M106.08 609.84L106.56 609.84L106.56 628.08L106.08 628.08z" stroke="none" fill="#000000" fill-rule="nonzero" /><path transform="matrix(1 0 0 -1 0 792)" d="M202.08 609.84L202.56 609.84L202.56 628.08L202.08 628.08z" stroke="none" fill="#000000" fill-rule="nonzero" /><path transform="matrix(1 0 0 -1 0 792)" d="M351.36 609.84L351.84 609.84L351.84 628.08L351.36 628.08z" stroke="none" fill="#000000" fill-rule="nonzero" /><path transform="matrix(1 0 0 -1 0 792)" d="M424.8 609.84L425.28 609.84L425.28 628.08L424.8 628.08z" stroke="none" fill="#000000" fill-rule="nonzero" /><path transform="matrix(1 0 0 -1 0 792)" d="M484.56 609.84L485.04 609.84L485.04 628.08L484.56 628.08z" stroke="none" fill="#000000" fill-rule="nonzero" /><path transform="matrix(1 0 0 -1 0 792)" d="M558.72 609.84L559.2 609.84L559.2 628.08L558.72 628.08z" stroke="none" fill="#000000" fill-rule="nonzero" /><g clip-path="url(#20)"></g><path transform="matrix(1 0 0 -1 0 792)" d="M106.08 609.6L106.56 609.6L106.56 609.84L106.08 609.84z" stroke="none" fill="#000000" fill-rule="nonzero" /><path transform="matrix(1 0 0 -1 0 792)" d="M106.56 609.6L202.08 609.6L202.08 609.84L106.56 609.84z" stroke="none" fill="#000000" fill-rule="nonzero" /><path transform="matrix(1 0 0 -1 0 792)" d="M202.08 609.6L202.56 609.6L202.56 609.84L202.08 609.84z" stroke="none" fill="#000000" fill-rule="nonzero" /><path transform="matrix(1 0 0 -1 0 792)" d="M202.56 609.6L351.36 609.6L351.36 609.84L202.56 609.84z" stroke="none" fill="#000000" fill-rule="nonzero" /><path transform="matrix(1 0 0 -1 0 792)" d="M351.36 609.6L351.84 609.6L351.84 609.84L351.36 609.84z" stroke="none" fill="#000000" fill-rule="nonzero" /><path transform="matrix(1 0 0 -1 0 792)" d="M351.84 609.6L424.7999 609.6L424.7999 609.84L351.84 609.84z" stroke="none" fill="#000000" fill-rule="nonzero" /><path transform="matrix(1 0 0 -1 0 792)" d="M424.8 609.6L425.28 609.6L425.28 609.84L424.8 609.84z" stroke="none" fill="#000000" fill-rule="nonzero" /><path transform="matrix(1 0 0 -1 0 792)" d="M425.28 609.6L484.56 609.6L484.56 609.84L425.28 609.84z" stroke="none" fill="#000000" fill-rule="nonzero" /><path transform="matrix(1 0 0 -1 0 792)" d="M484.56 609.6L485.04 609.6L485.04 609.84L484.56 609.84z" stroke="none" fill="#000000" fill-rule="nonzero" /><path transform="matrix(1 0 0 -1 0 792)" d="M485.04 609.6L558.72 609.6L558.72 609.84L485.04 609.84z" stroke="none" fill="#000000" fill-rule="nonzero" /><path transform="matrix(1 0 0 -1 0 792)" d="M558.72 609.6L559.2 609.6L559.2 609.84L558.72 609.84z" stroke="none" fill="#000000" fill-rule="nonzero" /><path transform="matrix(1 0 0 -1 0 792)" d="M106.08 591.84L106.56 591.84L106.56 609.6L106.08 609.6z" stroke="none" fill="#000000" fill-rule="nonzero" /><path transform="matrix(1 0 0 -1 0 792)" d="M558.72 591.84L559.2 591.84L559.2 609.6L558.72 609.6z" stroke="none" fill="#000000" fill-rule="nonzero" /><path transform="matrix(1 0 0 -1 0 792)" d="M106.08 591.36L106.56 591.36L106.56 591.84L106.08 591.84z" stroke="none" fill="#000000" fill-rule="nonzero" /><path transform="matrix(1 0 0 -1 0 792)" d="M106.56 591.36L202.08 591.36L202.08 591.84L106.56 591.84z" stroke="none" fill="#000000" fill-rule="nonzero" /><path transform="matrix(1 0 0 -1 0 792)" d="M202.08 591.36L202.56 591.36L202.56 591.84L202.08 591.84z" stroke="none" fill="#000000" fill-rule="nonzero" /><path transform="matrix(1 0 0 -1 0 792)" d="M202.56 591.36L350.4 591.36L350.4 591.84L202.56 591.84z" stroke="none" fill="#000000" fill-rule="nonzero" /><path transform="matrix(1 0 0 -1 0 792)" d="M350.4 591.36L350.88 591.36L350.88 591.84L350.4 591.84z" stroke="none" fill="#000000" fill-rule="nonzero" /><path transform="matrix(1 0 0 -1 0 792)" d="M350.88 591.36L422.16 591.36L422.16 591.84L350.88 591.84z" stroke="none" fill="#000000" fill-rule="nonzero" /><path transform="matrix(1 0 0 -1 0 792)" d="M422.16 591.36L422.64 591.36L422.64 591.84L422.16 591.84z" stroke="none" fill="#000000" fill-rule="nonzero" /><path transform="matrix(1 0 0 -1 0 792)" d="M422.64 591.36L485.76 591.36L485.76 591.84L422.64 591.84z" stroke="none" fill="#000000" fill-rule="nonzero" /><path transform="matrix(1 0 0 -1 0 792)" d="M485.76 591.36L486.24 591.36L486.24 591.84L485.76 591.84z" stroke="none" fill="#000000" fill-rule="nonzero" /><path transform="matrix(1 0 0 -1 0 792)" d="M486.24 591.36L558.72 591.36L558.72 591.84L486.24 591.84z" stroke="none" fill="#000000" fill-rule="nonzero" /><path transform="matrix(1 0 0 -1 0 792)" d="M558.72 591.36L559.2 591.36L559.2 591.84L558.72 591.84z" stroke="none" fill="#000000" fill-rule="nonzero" /><path transform="matrix(1 0 0 -1 0 792)" d="M106.08 573.6L106.56 573.6L106.56 591.36L106.08 591.36z" stroke="none" fill="#000000" fill-rule="nonzero" /><path transform="matrix(1 0 0 -1 0 792)" d="M202.08 573.6L202.56 573.6L202.56 591.36L202.08 591.36z" stroke="none" fill="#000000" fill-rule="nonzero" /><path transform="matrix(1 0 0 -1 0 792)" d="M350.4 573.6L350.88 573.6L350.88 591.36L350.4 591.36z" stroke="none" fill="#000000" fill-rule="nonzero" /><path transform="matrix(1 0 0 -1 0 792)" d="M422.16 573.6L422.64 573.6L422.64 591.36L422.16 591.36z" stroke="none" fill="#000000" fill-rule="nonzero" /><path transform="matrix(1 0 0 -1 0 792)" d="M485.76 573.6L486.24 573.6L486.24 591.36L485.76 591.36z" stroke="none" fill="#000000" fill-rule="nonzero" /><path transform="matrix(1 0 0 -1 0 792)" d="M558.72 573.6L559.2 573.6L559.2 591.36L558.72 591.36z" stroke="none" fill="#000000" fill-rule="nonzero" /><g clip-path="url(#21)"></g><g clip-path="url(#22)"></g><g clip-path="url(#23)"></g><g clip-path="url(#24)"></g><g clip-path="url(#25)"></g><path transform="matrix(1 0 0 -1 0 792)" d="M106.08 573.12L106.56 573.12L106.56 573.6L106.08 573.6z" stroke="none" fill="#000000" fill-rule="nonzero" /><path transform="matrix(1 0 0 -1 0 792)" d="M106.56 573.12L202.08 573.12L202.08 573.6L106.56 573.6z" stroke="none" fill="#000000" fill-rule="nonzero" /><path transform="matrix(1 0 0 -1 0 792)" d="M202.08 573.12L202.56 573.12L202.56 573.6L202.08 573.6z" stroke="none" fill="#000000" fill-rule="nonzero" /><path transform="matrix(1 0 0 -1 0 792)" d="M202.56 573.12L350.4 573.12L350.4 573.6L202.56 573.6z" stroke="none" fill="#000000" fill-rule="nonzero" /><path transform="matrix(1 0 0 -1 0 792)" d="M350.4 573.12L350.88 573.12L350.88 573.6L350.4 573.6z" stroke="none" fill="#000000" fill-rule="nonzero" /><path transform="matrix(1 0 0 -1 0 792)" d="M350.88 573.12L422.16 573.12L422.16 573.6L350.88 573.6z" stroke="none" fill="#000000" fill-rule="nonzero" /><path transform="matrix(1 0 0 -1 0 792)" d="M422.16 573.12L422.64 573.12L422.64 573.6L422.16 573.6z" stroke="none" fill="#000000" fill-rule="nonzero" /><path transform="matrix(1 0 0 -1 0 792)" d="M422.64 573.12L485.76 573.12L485.76 573.6L422.64 573.6z" stroke="none" fill="#000000" fill-rule="nonzero" /><path transform="matrix(1 0 0 -1 0 792)" d="M485.76 573.12L486.24 573.12L486.24 573.6L485.76 573.6z" stroke="none" fill="#000000" fill-rule="nonzero" /><path transform="matrix(1 0 0 -1 0 792)" d="M486.24 573.12L558.72 573.12L558.72 573.6L486.24 573.6z" stroke="none" fill="#000000" fill-rule="nonzero" /><path transform="matrix(1 0 0 -1 0 792)" d="M558.72 573.12L559.2 573.12L559.2 573.6L558.72 573.6z" stroke="none" fill="#000000" fill-rule="nonzero" /><path transform="matrix(1 0 0 -1 0 792)" d="M106.08 555.6L106.56 555.6L106.56 573.12L106.08 573.12z" stroke="none" fill="#000000" fill-rule="nonzero" /><path transform="matrix(1 0 0 -1 0 792)" d="M202.08 555.6L202.56 555.6L202.56 573.12L202.08 573.12z" stroke="none" fill="#000000" fill-rule="nonzero" /><path transform="matrix(1 0 0 -1 0 792)" d="M350.4 555.6L350.88 555.6L350.88 573.12L350.4 573.12z" stroke="none" fill="#000000" fill-rule="nonzero" /><path transform="matrix(1 0 0 -1 0 792)" d="M422.16 555.6L422.64 555.6L422.64 573.12L422.16 573.12z" stroke="none" fill="#000000" fill-rule="nonzero" /><path transform="matrix(1 0 0 -1 0 792)" d="M485.76 555.6L486.24 555.6L486.24 573.12L485.76 573.12z" stroke="none" fill="#000000" fill-rule="nonzero" /><path transform="matrix(1 0 0 -1 0 792)" d="M558.72 555.6L559.2 555.6L559.2 573.12L558.72 573.12z" stroke="none" fill="#000000" fill-rule="nonzero" /><path transform="matrix(1 0 0 -1 0 792)" d="M106.08 555.12L106.56 555.12L106.56 555.6L106.08 555.6z" stroke="none" fill="#000000" fill-rule="nonzero" /><path transform="matrix(1 0 0 -1 0 792)" d="M106.56 555.12L202.08 555.12L202.08 555.6L106.56 555.6z" stroke="none" fill="#000000" fill-rule="nonzero" /><path transform="matrix(1 0 0 -1 0 792)" d="M202.08 555.12L202.56 555.12L202.56 555.6L202.08 555.6z" stroke="none" fill="#000000" fill-rule="nonzero" /><path transform="matrix(1 0 0 -1 0 792)" d="M202.56 555.12L350.4 555.12L350.4 555.6L202.56 555.6z" stroke="none" fill="#000000" fill-rule="nonzero" /><path transform="matrix(1 0 0 -1 0 792)" d="M350.4 555.12L350.88 555.12L350.88 555.6L350.4 555.6z" stroke="none" fill="#000000" fill-rule="nonzero" /><path transform="matrix(1 0 0 -1 0 792)" d="M350.88 555.12L422.16 555.12L422.16 555.6L350.88 555.6z" stroke="none" fill="#000000" fill-rule="nonzero" /><path transform="matrix(1 0 0 -1 0 792)" d="M422.16 555.12L422.64 555.12L422.64 555.6L422.16 555.6z" stroke="none" fill="#000000" fill-rule="nonzero" /><path transform="matrix(1 0 0 -1 0 792)" d="M422.64 555.12L485.76 555.12L485.76 555.6L422.64 555.6z" stroke="none" fill="#000000" fill-rule="nonzero" /><path transform="matrix(1 0 0 -1 0 792)" d="M485.76 555.12L486.24 555.12L486.24 555.6L485.76 555.6z" stroke="none" fill="#000000" fill-rule="nonzero" /><path transform="matrix(1 0 0 -1 0 792)" d="M486.24 555.12L558.72 555.12L558.72 555.6L486.24 555.6z" stroke="none" fill="#000000" fill-rule="nonzero" /><path transform="matrix(1 0 0 -1 0 792)" d="M558.72 555.12L559.2 555.12L559.2 555.6L558.72 555.6z" stroke="none" fill="#000000" fill-rule="nonzero" /><path transform="matrix(1 0 0 -1 0 792)" d="M106.08 537.36L106.56 537.36L106.56 555.12L106.08 555.12z" stroke="none" fill="#000000" fill-rule="nonzero" /><path transform="matrix(1 0 0 -1 0 792)" d="M202.08 537.36L202.56 537.36L202.56 555.12L202.08 555.12z" stroke="none" fill="#000000" fill-rule="nonzero" /><path transform="matrix(1 0 0 -1 0 792)" d="M350.4 537.36L350.88 537.36L350.88 555.12L350.4 555.12z" stroke="none" fill="#000000" fill-rule="nonzero" /><path transform="matrix(1 0 0 -1 0 792)" d="M422.16 537.36L422.64 537.36L422.64 555.12L422.16 555.12z" stroke="none" fill="#000000" fill-rule="nonzero" /><path transform="matrix(1 0 0 -1 0 792)" d="M485.76 537.36L486.24 537.36L486.24 555.12L485.76 555.12z" stroke="none" fill="#000000" fill-rule="nonzero" /><path transform="matrix(1 0 0 -1 0 792)" d="M558.72 537.36L559.2 537.36L559.2 555.12L558.72 555.12z" stroke="none" fill="#000000" fill-rule="nonzero" /><g clip-path="url(#26)"></g><g clip-path="url(#27)"></g><g clip-path="url(#28)"></g><g clip-path="url(#29)"></g><g clip-path="url(#30)"></g><path transform="matrix(1 0 0 -1 0 792)" d="M106.08 536.88L106.56 536.88L106.56 537.36L106.08 537.36z" stroke="none" fill="#000000" fill-rule="nonzero" /><path transform="matrix(1 0 0 -1 0 792)" d="M106.56 536.88L202.08 536.88L202.08 537.36L106.56 537.36z" stroke="none" fill="#000000" fill-rule="nonzero" /><path transform="matrix(1 0 0 -1 0 792)" d="M202.08 536.88L202.56 536.88L202.56 537.36L202.08 537.36z" stroke="none" fill="#000000" fill-rule="nonzero" /><path transform="matrix(1 0 0 -1 0 792)" d="M202.56 536.88L350.4 536.88L350.4 537.36L202.56 537.36z" stroke="none" fill="#000000" fill-rule="nonzero" /><path transform="matrix(1 0 0 -1 0 792)" d="M350.4 536.88L350.88 536.88L350.88 537.36L350.4 537.36z" stroke="none" fill="#000000" fill-rule="nonzero" /><path transform="matrix(1 0 0 -1 0 792)" d="M350.88 536.88L422.16 536.88L422.16 537.36L350.88 537.36z" stroke="none" fill="#000000" fill-rule="nonzero" /><path transform="matrix(1 0 0 -1 0 792)" d="M422.16 536.88L422.64 536.88L422.64 537.36L422.16 537.36z" stroke="none" fill="#000000" fill-rule="nonzero" /><path transform="matrix(1 0 0 -1 0 792)" d="M422.64 536.88L485.76 536.88L485.76 537.36L422.64 537.36z" stroke="none" fill="#000000" fill-rule="nonzero" /><path transform="matrix(1 0 0 -1 0 792)" d="M485.76 536.88L486.24 536.88L486.24 537.36L485.76 537.36z" stroke="none" fill="#000000" fill-rule="nonzero" /><path transform="matrix(1 0 0 -1 0 792)" d="M486.24 536.88L558.72 536.88L558.72 537.36L486.24 537.36z" stroke="none" fill="#000000" fill-rule="nonzero" /><path transform="matrix(1 0 0 -1 0 792)" d="M558.72 536.88L559.2 536.88L559.2 537.36L558.72 537.36z" stroke="none" fill="#000000" fill-rule="nonzero" /><path transform="matrix(1 0 0 -1 0 792)" d="M106.08 519.36L106.56 519.36L106.56 536.88L106.08 536.88z" stroke="none" fill="#000000" fill-rule="nonzero" /><path transform="matrix(1 0 0 -1 0 792)" d="M202.08 519.36L202.56 519.36L202.56 536.88L202.08 536.88z" stroke="none" fill="#000000" fill-rule="nonzero" /><path transform="matrix(1 0 0 -1 0 792)" d="M350.4 519.36L350.88 519.36L350.88 536.88L350.4 536.88z" stroke="none" fill="#000000" fill-rule="nonzero" /><path transform="matrix(1 0 0 -1 0 792)" d="M422.16 519.36L422.64 519.36L422.64 536.88L422.16 536.88z" stroke="none" fill="#000000" fill-rule="nonzero" /><path transform="matrix(1 0 0 -1 0 792)" d="M485.76 519.36L486.24 519.36L486.24 536.88L485.76 536.88z" stroke="none" fill="#000000" fill-rule="nonzero" /><path transform="matrix(1 0 0 -1 0 792)" d="M558.72 519.36L559.2 519.36L559.2 536.88L558.72 536.88z" stroke="none" fill="#000000" fill-rule="nonzero" /><g clip-path="url(#31)"><path transform="matrix(1 0 0 -1 0 792)" d="M106.32 500.4L558.72 500.4L558.72 518.88L106.32 518.88z" stroke="none" fill="#B2B2B2" fill-rule="nonzero" /></g><path transform="matrix(1 0 0 -1 0 792)" d="M111.12 501.12L553.92 501.12L553.92 518.88L111.12 518.88z" stroke="none" fill="#B2B2B2" fill-rule="nonzero" /><path transform="matrix(1 0 0 -1 0 792)" d="M106.08 518.88L106.56 518.88L106.56 519.36L106.08 519.36z" stroke="none" fill="#000000" fill-rule="nonzero" /><path transform="matrix(1 0 0 -1 0 792)" d="M106.56 518.88L202.08 518.88L202.08 519.36L106.56 519.36z" stroke="none" fill="#000000" fill-rule="nonzero" /><path transform="matrix(1 0 0 -1 0 792)" d="M202.08 518.88L202.56 518.88L202.56 519.36L202.08 519.36z" stroke="none" fill="#000000" fill-rule="nonzero" /><path transform="matrix(1 0 0 -1 0 792)" d="M202.56 518.88L350.4 518.88L350.4 519.36L202.56 519.36z" stroke="none" fill="#000000" fill-rule="nonzero" /><path transform="matrix(1 0 0 -1 0 792)" d="M350.4 518.88L350.88 518.88L350.88 519.36L350.4 519.36z" stroke="none" fill="#000000" fill-rule="nonzero" /><path transform="matrix(1 0 0 -1 0 792)" d="M350.88 518.88L422.16 518.88L422.16 519.36L350.88 519.36z" stroke="none" fill="#000000" fill-rule="nonzero" /><path transform="matrix(1 0 0 -1 0 792)" d="M422.16 518.88L422.64 518.88L422.64 519.36L422.16 519.36z" stroke="none" fill="#000000" fill-rule="nonzero" /><path transform="matrix(1 0 0 -1 0 792)" d="M422.64 518.88L485.76 518.88L485.76 519.36L422.64 519.36z" stroke="none" fill="#000000" fill-rule="nonzero" /><path transform="matrix(1 0 0 -1 0 792)" d="M485.76 518.88L486.24 518.88L486.24 519.36L485.76 519.36z" stroke="none" fill="#000000" fill-rule="nonzero" /><path transform="matrix(1 0 0 -1 0 792)" d="M486.24 518.88L558.72 518.88L558.72 519.36L486.24 519.36z" stroke="none" fill="#000000" fill-rule="nonzero" /><path transform="matrix(1 0 0 -1 0 792)" d="M558.72 518.88L559.2 518.88L559.2 519.36L558.72 519.36z" stroke="none" fill="#000000" fill-rule="nonzero" /><path transform="matrix(1 0 0 -1 0 792)" d="M106.08 500.4L106.56 500.4L106.56 518.88L106.08 518.88z" stroke="none" fill="#000000" fill-rule="nonzero" /><path transform="matrix(1 0 0 -1 0 792)" d="M558.72 500.4L559.2 500.4L559.2 518.88L558.72 518.88z" stroke="none" fill="#000000" fill-rule="nonzero" /><g clip-path="url(#32)"></g><g clip-path="url(#33)"></g><path transform="matrix(1 0 0 -1 0 792)" d="M106.08 499.92L106.56 499.92L106.56 500.4L106.08 500.4z" stroke="none" fill="#000000" fill-rule="nonzero" /><path transform="matrix(1 0 0 -1 0 792)" d="M106.56 499.92L558.72 499.92L558.72 500.4L106.56 500.4z" stroke="none" fill="#000000" fill-rule="nonzero" /><path transform="matrix(1 0 0 -1 0 792)" d="M558.72 499.92L559.2 499.92L559.2 500.4L558.72 500.4z" stroke="none" fill="#000000" fill-rule="nonzero" /><path transform="matrix(1 0 0 -1 0 792)" d="M106.08 464.4L106.56 464.4L106.56 499.92L106.08 499.92z" stroke="none" fill="#000000" fill-rule="nonzero" /><path transform="matrix(1 0 0 -1 0 792)" d="M106.08 463.92L106.56 463.92L106.56 464.4L106.08 464.4z" stroke="none" fill="#000000" fill-rule="nonzero" /><path transform="matrix(1 0 0 -1 0 792)" d="M106.08 463.92L106.56 463.92L106.56 464.4L106.08 464.4z" stroke="none" fill="#000000" fill-rule="nonzero" /><path transform="matrix(1 0 0 -1 0 792)" d="M106.56 463.92L558.72 463.92L558.72 464.4L106.56 464.4z" stroke="none" fill="#000000" fill-rule="nonzero" /><path transform="matrix(1 0 0 -1 0 792)" d="M558.72 464.4L559.2 464.4L559.2 499.92L558.72 499.92z" stroke="none" fill="#000000" fill-rule="nonzero" /><path transform="matrix(1 0 0 -1 0 792)" d="M558.72 463.92L559.2 463.92L559.2 464.4L558.72 464.4z" stroke="none" fill="#000000" fill-rule="nonzero" /><path transform="matrix(1 0 0 -1 0 792)" d="M558.72 463.92L559.2 463.92L559.2 464.4L558.72 464.4z" stroke="none" fill="#000000" fill-rule="nonzero" /></g></g></g></svg>