<svg xmlns="http://www.w3.org/2000/svg" xmlns:xlink="http://www.w3.org/1999/xlink" id="body_1" preserveAspectRatio="xMinYMin meet" viewBox="0 0 816 1056"><defs><clipPath id="1"><path clip-rule="evenodd" d="M0 792L0 0L0 0L612 0L612 0L612 792L612 792L0 792z" /></clipPath><clipPath id="2"><path clip-rule="evenodd" d="M527.04 73.20001L531.84 73.20001L531.84 73.20001L531.84 58.79999L531.84 58.79999L527.04 58.79999z" /></clipPath><clipPath id="3"><path clip-rule="evenodd" d="M429.12 101.28L531.84 101.28L531.84 101.28L531.84 86.40002L531.84 86.40002L429.12 86.40002z" /></clipPath><clipPath id="4"><path clip-rule="evenodd" d="M105.12 480.24L108.96 480.24L108.96 480.24L108.96 467.76L108.96 467.76L105.12 467.76z" /></clipPath><clipPath id="5"><path clip-rule="evenodd" d="M108.96 480.24L136.32 480.24L136.32 480.24L136.32 467.76L136.32 467.76L108.96 467.76z" /></clipPath><clipPath id="6"><path clip-rule="evenodd" d="M136.08 480.24L149.04 480.24L149.04 480.24L149.04 467.76L149.04 467.76L136.08 467.76z" /></clipPath><clipPath id="7"><path clip-rule="evenodd" d="M148.8 480.24L174.48 480.24L174.48 480.24L174.48 467.76L174.48 467.76L148.8 467.76z" /></clipPath><clipPath id="8"><path clip-rule="evenodd" d="M174.24 480.24L178.08 480.24L178.08 480.24L178.08 467.76L178.08 467.76L174.24 467.76z" /></clipPath><clipPath id="9"><path clip-rule="evenodd" d="M177.84 480.24L247.44 480.24L247.44 480.24L247.44 467.76L247.44 467.76L177.84 467.76z" /></clipPath><clipPath id="10"><path clip-rule="evenodd" d="M247.2 480.24L254.16 480.24L254.16 480.24L254.16 466.08L254.16 466.08L247.2 466.08z" /></clipPath></defs><g transform="matrix(1.333333 0 0 1.333333 0 0)"><g><g clip-path="url(#1)"><g clip-path="url(#2)"></g><g clip-path="url(#3)"></g><g clip-path="url(#4)"></g><g clip-path="url(#5)"></g><g clip-path="url(#6)"></g><g clip-path="url(#7)"></g><g clip-path="url(#8)"></g><g clip-path="url(#9)"></g><g clip-path="url(#10)"></g><path transform="matrix(1 0 0 -1 0 792)" d="M146.4 735.12L304.32 735.12" stroke="#000000" stroke-width="0.7199" stroke-linecap="round" fill="none" /></g></g></g></svg>