<svg xmlns="http://www.w3.org/2000/svg" xmlns:xlink="http://www.w3.org/1999/xlink" id="body_1" preserveAspectRatio="xMinYMin meet" viewBox="0 0 816 1056"><defs><clipPath id="1"><path clip-rule="evenodd" d="M0 792L0 0L0 0L612 0L612 0L612 792L612 792L0 792z" /></clipPath><clipPath id="2"><path clip-rule="evenodd" d="M214.8 156.24L315.6 156.24L315.6 156.24L315.6 143.52L315.6 143.52L214.8 143.52z" /></clipPath><clipPath id="3"><path clip-rule="evenodd" d="M105.12 293.52L108.96 293.52L108.96 293.52L108.96 281.04L108.96 281.04L105.12 281.04z" /></clipPath><clipPath id="4"><path clip-rule="evenodd" d="M108.96 293.52L115.92 293.52L115.92 293.52L115.92 279.12L115.92 279.12L108.96 279.12z" /></clipPath></defs><g transform="matrix(1.333333 0 0 1.333333 0 0)"><g><g clip-path="url(#1)"><g clip-path="url(#2)"></g><path transform="matrix(1 0 0 -1 0 792)" d="M105.12 548.16L143.2799 548.16L143.2799 548.64L105.12 548.64z" stroke="none" fill="#000000" fill-rule="nonzero" /><g clip-path="url(#3)"></g><g clip-path="url(#4)"></g></g></g></g></svg>