<svg xmlns="http://www.w3.org/2000/svg" xmlns:xlink="http://www.w3.org/1999/xlink" id="body_1" preserveAspectRatio="xMinYMin meet" viewBox="0 0 816 1056"><defs><clipPath id="1"><path clip-rule="evenodd" d="M0 792L0 0L0 0L612 0L612 0L612 792L612 792L0 792z" /></clipPath><clipPath id="2"><path clip-rule="evenodd" d="M107.76 227.52L121.68 227.52L121.68 227.52L121.68 215.04L121.68 215.04L107.76 215.04z" /></clipPath><clipPath id="3"><path clip-rule="evenodd" d="M121.68 227.52L127.68 227.52L127.68 227.52L127.68 215.04L127.68 215.04L121.68 215.04z" /></clipPath><clipPath id="4"><path clip-rule="evenodd" d="M155.28 227.52L165.36 227.52L165.36 227.52L165.36 215.04L165.36 215.04L155.28 215.04z" /></clipPath><clipPath id="5"><path clip-rule="evenodd" d="M165.12 227.52L171.12 227.52L171.12 227.52L171.12 215.04L171.12 215.04L165.12 215.04z" /></clipPath><clipPath id="6"><path clip-rule="evenodd" d="M170.88 227.52L184.8 227.52L184.8 227.52L184.8 215.04L184.8 215.04L170.88 215.04z" /></clipPath><clipPath id="7"><path clip-rule="evenodd" d="M184.8 227.52L195.8399 227.52L195.8399 227.52L195.8399 215.04L195.8399 215.04L184.8 215.04z" /></clipPath><clipPath id="8"><path clip-rule="evenodd" d="M195.6 227.52L198.72 227.52L198.72 227.52L198.72 215.04L198.72 215.04L195.6 215.04z" /></clipPath><clipPath id="9"><path clip-rule="evenodd" d="M198.48 227.52L210.72 227.52L210.72 227.52L210.72 215.04L210.72 215.04L198.48 215.04z" /></clipPath><clipPath id="10"><path clip-rule="evenodd" d="M210.24 227.52L221.52 227.52L221.52 227.52L221.52 215.04L221.52 215.04L210.24 215.04z" /></clipPath><clipPath id="11"><path clip-rule="evenodd" d="M221.28 227.52L224.16 227.52L224.16 227.52L224.16 215.04L224.16 215.04L221.28 215.04z" /></clipPath><clipPath id="12"><path clip-rule="evenodd" d="M223.92 227.52L235.44 227.52L235.44 227.52L235.44 215.04L235.44 215.04L223.92 215.04z" /></clipPath><clipPath id="13"><path clip-rule="evenodd" d="M235.2 227.52L240.48 227.52L240.48 227.52L240.48 215.04L240.48 215.04L235.2 215.04z" /></clipPath><clipPath id="14"><path clip-rule="evenodd" d="M240.24 227.52L253.68 227.52L253.68 227.52L253.68 215.04L253.68 215.04L240.24 215.04z" /></clipPath><clipPath id="15"><path clip-rule="evenodd" d="M253.44 227.52L259.44 227.52L259.44 227.52L259.44 215.04L259.44 215.04L253.44 215.04z" /></clipPath><clipPath id="16"><path clip-rule="evenodd" d="M259.44 227.52L279.36 227.52L279.36 227.52L279.36 215.04L279.36 215.04L259.44 215.04z" /></clipPath><clipPath id="17"><path clip-rule="evenodd" d="M279.36 227.52L289.92 227.52L289.92 227.52L289.92 215.04L289.92 215.04L279.36 215.04z" /></clipPath><clipPath id="18"><path clip-rule="evenodd" d="M289.68 227.52L295.68 227.52L295.68 227.52L295.68 215.04L295.68 215.04L289.68 215.04z" /></clipPath><clipPath id="19"><path clip-rule="evenodd" d="M327.6 227.52L335.52 227.52L335.52 227.52L335.52 215.04L335.52 215.04L327.6 215.04z" /></clipPath><clipPath id="20"><path clip-rule="evenodd" d="M335.52 227.52L346.5599 227.52L346.5599 227.52L346.5599 215.04L346.5599 215.04L335.52 215.04z" /></clipPath><clipPath id="21"><path clip-rule="evenodd" d="M346.32 227.52L349.44 227.52L349.44 227.52L349.44 215.04L349.44 215.04L346.32 215.04z" /></clipPath><clipPath id="22"><path clip-rule="evenodd" d="M349.2 227.52L357.6 227.52L357.6 227.52L357.6 215.04L357.6 215.04L349.2 215.04z" /></clipPath><clipPath id="23"><path clip-rule="evenodd" d="M357.36 227.52L362.64 227.52L362.64 227.52L362.64 215.04L362.64 215.04L357.36 215.04z" /></clipPath><clipPath id="24"><path clip-rule="evenodd" d="M362.64 227.52L365.76 227.52L365.76 227.52L365.76 215.04L365.76 215.04L362.64 215.04z" /></clipPath><clipPath id="25"><path clip-rule="evenodd" d="M365.52 227.52L385.2 227.52L385.2 227.52L385.2 215.04L385.2 215.04L365.52 215.04z" /></clipPath><clipPath id="26"><path clip-rule="evenodd" d="M385.2 227.52L391.2 227.52L391.2 227.52L391.2 215.04L391.2 215.04L385.2 215.04z" /></clipPath><clipPath id="27"><path clip-rule="evenodd" d="M390.96 227.52L394.08 227.52L394.08 227.52L394.08 215.04L394.08 215.04L390.96 215.04z" /></clipPath><clipPath id="28"><path clip-rule="evenodd" d="M393.84 227.52L396.96 227.52L396.96 227.52L396.96 215.04L396.96 215.04L393.84 215.04z" /></clipPath><clipPath id="29"><path clip-rule="evenodd" d="M396.72 227.52L408.48 227.52L408.48 227.52L408.48 215.04L408.48 215.04L396.72 215.04z" /></clipPath><clipPath id="30"><path clip-rule="evenodd" d="M408.48 227.52L412.32 227.52L412.32 227.52L412.32 215.04L412.32 215.04L408.48 215.04z" /></clipPath><clipPath id="31"><path clip-rule="evenodd" d="M412.08 227.52L418.08 227.52L418.08 227.52L418.08 215.04L418.08 215.04L412.08 215.04z" /></clipPath><clipPath id="32"><path clip-rule="evenodd" d="M436.08 227.52L444 227.52L444 227.52L444 215.04L444 215.04L436.08 215.04z" /></clipPath><clipPath id="33"><path clip-rule="evenodd" d="M444 227.52L455.0399 227.52L455.0399 227.52L455.0399 215.04L455.0399 215.04L444 215.04z" /></clipPath><clipPath id="34"><path clip-rule="evenodd" d="M454.8 227.52L457.92 227.52L457.92 227.52L457.92 215.04L457.92 215.04L454.8 215.04z" /></clipPath><clipPath id="35"><path clip-rule="evenodd" d="M457.68 227.52L463.68 227.52L463.68 227.52L463.68 215.04L463.68 215.04L457.68 215.04z" /></clipPath><clipPath id="36"><path clip-rule="evenodd" d="M463.44 227.52L468.72 227.52L468.72 227.52L468.72 215.04L468.72 215.04L463.44 215.04z" /></clipPath><clipPath id="37"><path clip-rule="evenodd" d="M468.48 227.52L471.6 227.52L471.6 227.52L471.6 215.04L471.6 215.04L468.48 215.04z" /></clipPath><clipPath id="38"><path clip-rule="evenodd" d="M471.6 227.52L493.44 227.52L493.44 227.52L493.44 215.04L493.44 215.04L471.6 215.04z" /></clipPath><clipPath id="39"><path clip-rule="evenodd" d="M493.2 227.52L498.96 227.52L498.96 227.52L498.96 215.04L498.96 215.04L493.2 215.04z" /></clipPath><clipPath id="40"><path clip-rule="evenodd" d="M498.72 227.52L501.84 227.52L501.84 227.52L501.84 215.04L501.84 215.04L498.72 215.04z" /></clipPath><clipPath id="41"><path clip-rule="evenodd" d="M501.6 227.52L504.72 227.52L504.72 227.52L504.72 215.04L504.72 215.04L501.6 215.04z" /></clipPath><clipPath id="42"><path clip-rule="evenodd" d="M504.72 227.52L516.48 227.52L516.48 227.52L516.48 215.04L516.48 215.04L504.72 215.04z" /></clipPath><clipPath id="43"><path clip-rule="evenodd" d="M516.48 227.52L520.32 227.52L520.32 227.52L520.32 215.04L520.32 215.04L516.48 215.04z" /></clipPath><clipPath id="44"><path clip-rule="evenodd" d="M520.08 227.52L526.08 227.52L526.08 227.52L526.08 215.04L526.08 215.04L520.08 215.04z" /></clipPath><clipPath id="45"><path clip-rule="evenodd" d="M105.12 254.4L111.12 254.4L111.12 254.4L111.12 241.92L111.12 241.92L105.12 241.92z" /></clipPath><clipPath id="46"><path clip-rule="evenodd" d="M134.4 254.4L140.4 254.4L140.4 254.4L140.4 241.92L140.4 241.92L134.4 241.92z" /></clipPath><clipPath id="47"><path clip-rule="evenodd" d="M321.12 254.4L327.12 254.4L327.12 254.4L327.12 241.92L327.12 241.92L321.12 241.92z" /></clipPath><clipPath id="48"><path clip-rule="evenodd" d="M429.12 254.4L435.12 254.4L435.12 254.4L435.12 241.92L435.12 241.92L429.12 241.92z" /></clipPath><clipPath id="49"><path clip-rule="evenodd" d="M396 326.4L415.44 326.4L415.44 326.4L415.44 313.92L415.44 313.92L396 313.92z" /></clipPath><clipPath id="50"><path clip-rule="evenodd" d="M415.2 326.4L421.2 326.4L421.2 326.4L421.2 313.92L421.2 313.92L415.2 313.92z" /></clipPath><clipPath id="51"><path clip-rule="evenodd" d="M440.88 326.4L449.76 326.4L449.76 326.4L449.76 313.92L449.76 313.92L440.88 313.92z" /></clipPath><clipPath id="52"><path clip-rule="evenodd" d="M449.28 326.4L465.84 326.4L465.84 326.4L465.84 313.92L465.84 313.92L449.28 313.92z" /></clipPath><clipPath id="53"><path clip-rule="evenodd" d="M465.84 326.4L471.84 326.4L471.84 326.4L471.84 313.92L471.84 313.92L465.84 313.92z" /></clipPath></defs><g transform="matrix(1.333333 0 0 1.333333 0 0)"><g><g clip-path="url(#1)"><g clip-path="url(#2)"></g><g clip-path="url(#3)"></g><g clip-path="url(#4)"></g><g clip-path="url(#5)"></g><g clip-path="url(#6)"></g><g clip-path="url(#7)"></g><g clip-path="url(#8)"></g><g clip-path="url(#9)"></g><g clip-path="url(#10)"></g><g clip-path="url(#11)"></g><g clip-path="url(#12)"></g><g clip-path="url(#13)"></g><g clip-path="url(#14)"></g><g clip-path="url(#15)"></g><g clip-path="url(#16)"></g><g clip-path="url(#17)"></g><g clip-path="url(#18)"></g><g clip-path="url(#19)"></g><g clip-path="url(#20)"></g><g clip-path="url(#21)"></g><g clip-path="url(#22)"></g><g clip-path="url(#23)"></g><g clip-path="url(#24)"></g><g clip-path="url(#25)"></g><g clip-path="url(#26)"></g><g clip-path="url(#27)"></g><g clip-path="url(#28)"></g><g clip-path="url(#29)"></g><g clip-path="url(#30)"></g><g clip-path="url(#31)"></g><g clip-path="url(#32)"></g><g clip-path="url(#33)"></g><g clip-path="url(#34)"></g><g clip-path="url(#35)"></g><g clip-path="url(#36)"></g><g clip-path="url(#37)"></g><g clip-path="url(#38)"></g><g clip-path="url(#39)"></g><g clip-path="url(#40)"></g><g clip-path="url(#41)"></g><g clip-path="url(#42)"></g><g clip-path="url(#43)"></g><g clip-path="url(#44)"></g><path transform="matrix(1 0 0 -1 0 792)" d="M99.6 577.2L100.08 577.2L100.08 577.68L99.6 577.68z" stroke="none" fill="#000000" fill-rule="nonzero" /><path transform="matrix(1 0 0 -1 0 792)" d="M99.6 577.2L100.08 577.2L100.08 577.68L99.6 577.68z" stroke="none" fill="#000000" fill-rule="nonzero" /><path transform="matrix(1 0 0 -1 0 792)" d="M100.08 577.2L129.36 577.2L129.36 577.68L100.08 577.68z" stroke="none" fill="#000000" fill-rule="nonzero" /><path transform="matrix(1 0 0 -1 0 792)" d="M129.36 577.2L129.6 577.2L129.6 577.68L129.36 577.68z" stroke="none" fill="#000000" fill-rule="nonzero" /><path transform="matrix(1 0 0 -1 0 792)" d="M129.6 577.2L315.84 577.2L315.84 577.68L129.6 577.68z" stroke="none" fill="#000000" fill-rule="nonzero" /><path transform="matrix(1 0 0 -1 0 792)" d="M315.84 577.2L316.32 577.2L316.32 577.68L315.84 577.68z" stroke="none" fill="#000000" fill-rule="nonzero" /><path transform="matrix(1 0 0 -1 0 792)" d="M316.32 577.2L423.84 577.2L423.84 577.68L316.32 577.68z" stroke="none" fill="#000000" fill-rule="nonzero" /><path transform="matrix(1 0 0 -1 0 792)" d="M423.84 577.2L424.32 577.2L424.32 577.68L423.84 577.68z" stroke="none" fill="#000000" fill-rule="nonzero" /><path transform="matrix(1 0 0 -1 0 792)" d="M424.32 577.2L531.84 577.2L531.84 577.68L424.32 577.68z" stroke="none" fill="#000000" fill-rule="nonzero" /><path transform="matrix(1 0 0 -1 0 792)" d="M531.84 577.2L532.32 577.2L532.32 577.68L531.84 577.68z" stroke="none" fill="#000000" fill-rule="nonzero" /><path transform="matrix(1 0 0 -1 0 792)" d="M531.84 577.2L532.32 577.2L532.32 577.68L531.84 577.68z" stroke="none" fill="#000000" fill-rule="nonzero" /><path transform="matrix(1 0 0 -1 0 792)" d="M99.6 564.48L100.08 564.48L100.08 577.2L99.6 577.2z" stroke="none" fill="#000000" fill-rule="nonzero" /><path transform="matrix(1 0 0 -1 0 792)" d="M129.36 564.48L129.6 564.48L129.6 577.2L129.36 577.2z" stroke="none" fill="#000000" fill-rule="nonzero" /><path transform="matrix(1 0 0 -1 0 792)" d="M315.84 564.48L316.32 564.48L316.32 577.2L315.84 577.2z" stroke="none" fill="#000000" fill-rule="nonzero" /><path transform="matrix(1 0 0 -1 0 792)" d="M423.84 564.48L424.32 564.48L424.32 577.2L423.84 577.2z" stroke="none" fill="#000000" fill-rule="nonzero" /><path transform="matrix(1 0 0 -1 0 792)" d="M531.84 564.48L532.32 564.48L532.32 577.2L531.84 577.2z" stroke="none" fill="#000000" fill-rule="nonzero" /><path transform="matrix(1 0 0 -1 0 792)" d="M99.6 564L100.08 564L100.08 564.48L99.6 564.48z" stroke="none" fill="#000000" fill-rule="nonzero" /><path transform="matrix(1 0 0 -1 0 792)" d="M100.08 564L129.36 564L129.36 564.48L100.08 564.48z" stroke="none" fill="#000000" fill-rule="nonzero" /><path transform="matrix(1 0 0 -1 0 792)" d="M129.36 564L129.6 564L129.6 564.48L129.36 564.48z" stroke="none" fill="#000000" fill-rule="nonzero" /><path transform="matrix(1 0 0 -1 0 792)" d="M129.6 564L315.84 564L315.84 564.48L129.6 564.48z" stroke="none" fill="#000000" fill-rule="nonzero" /><path transform="matrix(1 0 0 -1 0 792)" d="M315.84 564L316.32 564L316.32 564.48L315.84 564.48z" stroke="none" fill="#000000" fill-rule="nonzero" /><path transform="matrix(1 0 0 -1 0 792)" d="M316.32 564L423.84 564L423.84 564.48L316.32 564.48z" stroke="none" fill="#000000" fill-rule="nonzero" /><path transform="matrix(1 0 0 -1 0 792)" d="M423.84 564L424.32 564L424.32 564.48L423.84 564.48z" stroke="none" fill="#000000" fill-rule="nonzero" /><path transform="matrix(1 0 0 -1 0 792)" d="M424.32 564L531.84 564L531.84 564.48L424.32 564.48z" stroke="none" fill="#000000" fill-rule="nonzero" /><path transform="matrix(1 0 0 -1 0 792)" d="M531.84 564L532.32 564L532.32 564.48L531.84 564.48z" stroke="none" fill="#000000" fill-rule="nonzero" /><path transform="matrix(1 0 0 -1 0 792)" d="M99.6 550.8L100.08 550.8L100.08 564L99.6 564z" stroke="none" fill="#000000" fill-rule="nonzero" /><path transform="matrix(1 0 0 -1 0 792)" d="M129.36 550.8L129.6 550.8L129.6 564L129.36 564z" stroke="none" fill="#000000" fill-rule="nonzero" /><path transform="matrix(1 0 0 -1 0 792)" d="M315.84 550.8L316.32 550.8L316.32 564L315.84 564z" stroke="none" fill="#000000" fill-rule="nonzero" /><path transform="matrix(1 0 0 -1 0 792)" d="M423.84 550.8L424.32 550.8L424.32 564L423.84 564z" stroke="none" fill="#000000" fill-rule="nonzero" /><path transform="matrix(1 0 0 -1 0 792)" d="M531.84 550.8L532.32 550.8L532.32 564L531.84 564z" stroke="none" fill="#000000" fill-rule="nonzero" /><g clip-path="url(#45)"></g><g clip-path="url(#46)"></g><g clip-path="url(#47)"></g><g clip-path="url(#48)"></g><path transform="matrix(1 0 0 -1 0 792)" d="M99.6 550.32L100.08 550.32L100.08 550.8L99.6 550.8z" stroke="none" fill="#000000" fill-rule="nonzero" /><path transform="matrix(1 0 0 -1 0 792)" d="M100.08 550.32L129.36 550.32L129.36 550.8L100.08 550.8z" stroke="none" fill="#000000" fill-rule="nonzero" /><path transform="matrix(1 0 0 -1 0 792)" d="M129.36 550.32L129.6 550.32L129.6 550.8L129.36 550.8z" stroke="none" fill="#000000" fill-rule="nonzero" /><path transform="matrix(1 0 0 -1 0 792)" d="M129.6 550.32L315.84 550.32L315.84 550.8L129.6 550.8z" stroke="none" fill="#000000" fill-rule="nonzero" /><path transform="matrix(1 0 0 -1 0 792)" d="M315.84 550.32L316.32 550.32L316.32 550.8L315.84 550.8z" stroke="none" fill="#000000" fill-rule="nonzero" /><path transform="matrix(1 0 0 -1 0 792)" d="M316.32 550.32L423.84 550.32L423.84 550.8L316.32 550.8z" stroke="none" fill="#000000" fill-rule="nonzero" /><path transform="matrix(1 0 0 -1 0 792)" d="M423.84 550.32L424.32 550.32L424.32 550.8L423.84 550.8z" stroke="none" fill="#000000" fill-rule="nonzero" /><path transform="matrix(1 0 0 -1 0 792)" d="M424.32 550.32L531.84 550.32L531.84 550.8L424.32 550.8z" stroke="none" fill="#000000" fill-rule="nonzero" /><path transform="matrix(1 0 0 -1 0 792)" d="M531.84 550.32L532.32 550.32L532.32 550.8L531.84 550.8z" stroke="none" fill="#000000" fill-rule="nonzero" /><path transform="matrix(1 0 0 -1 0 792)" d="M99.6 537.6L100.08 537.6L100.08 550.3199L99.6 550.3199z" stroke="none" fill="#000000" fill-rule="nonzero" /><path transform="matrix(1 0 0 -1 0 792)" d="M129.36 537.6L129.6 537.6L129.6 550.3199L129.36 550.3199z" stroke="none" fill="#000000" fill-rule="nonzero" /><path transform="matrix(1 0 0 -1 0 792)" d="M315.84 537.6L316.32 537.6L316.32 550.3199L315.84 550.3199z" stroke="none" fill="#000000" fill-rule="nonzero" /><path transform="matrix(1 0 0 -1 0 792)" d="M423.84 537.6L424.32 537.6L424.32 550.3199L423.84 550.3199z" stroke="none" fill="#000000" fill-rule="nonzero" /><path transform="matrix(1 0 0 -1 0 792)" d="M531.84 537.6L532.32 537.6L532.32 550.3199L531.84 550.3199z" stroke="none" fill="#000000" fill-rule="nonzero" /><path transform="matrix(1 0 0 -1 0 792)" d="M99.6 537.12L100.08 537.12L100.08 537.6L99.6 537.6z" stroke="none" fill="#000000" fill-rule="nonzero" /><path transform="matrix(1 0 0 -1 0 792)" d="M100.08 537.12L129.36 537.12L129.36 537.6L100.08 537.6z" stroke="none" fill="#000000" fill-rule="nonzero" /><path transform="matrix(1 0 0 -1 0 792)" d="M129.36 537.12L129.6 537.12L129.6 537.6L129.36 537.6z" stroke="none" fill="#000000" fill-rule="nonzero" /><path transform="matrix(1 0 0 -1 0 792)" d="M129.6 537.12L315.84 537.12L315.84 537.6L129.6 537.6z" stroke="none" fill="#000000" fill-rule="nonzero" /><path transform="matrix(1 0 0 -1 0 792)" d="M315.84 537.12L316.32 537.12L316.32 537.6L315.84 537.6z" stroke="none" fill="#000000" fill-rule="nonzero" /><path transform="matrix(1 0 0 -1 0 792)" d="M316.32 537.12L423.84 537.12L423.84 537.6L316.32 537.6z" stroke="none" fill="#000000" fill-rule="nonzero" /><path transform="matrix(1 0 0 -1 0 792)" d="M423.84 537.12L424.32 537.12L424.32 537.6L423.84 537.6z" stroke="none" fill="#000000" fill-rule="nonzero" /><path transform="matrix(1 0 0 -1 0 792)" d="M424.32 537.12L531.84 537.12L531.84 537.6L424.32 537.6z" stroke="none" fill="#000000" fill-rule="nonzero" /><path transform="matrix(1 0 0 -1 0 792)" d="M531.84 537.12L532.32 537.12L532.32 537.6L531.84 537.6z" stroke="none" fill="#000000" fill-rule="nonzero" /><path transform="matrix(1 0 0 -1 0 792)" d="M99.6 523.92L100.08 523.92L100.08 537.12L99.6 537.12z" stroke="none" fill="#000000" fill-rule="nonzero" /><path transform="matrix(1 0 0 -1 0 792)" d="M99.6 523.44L100.08 523.44L100.08 523.92L99.6 523.92z" stroke="none" fill="#000000" fill-rule="nonzero" /><path transform="matrix(1 0 0 -1 0 792)" d="M99.6 523.44L100.08 523.44L100.08 523.92L99.6 523.92z" stroke="none" fill="#000000" fill-rule="nonzero" /><path transform="matrix(1 0 0 -1 0 792)" d="M100.08 523.44L129.36 523.44L129.36 523.92L100.08 523.92z" stroke="none" fill="#000000" fill-rule="nonzero" /><path transform="matrix(1 0 0 -1 0 792)" d="M129.36 523.92L129.6 523.92L129.6 537.12L129.36 537.12z" stroke="none" fill="#000000" fill-rule="nonzero" /><path transform="matrix(1 0 0 -1 0 792)" d="M129.36 523.44L129.6 523.44L129.6 523.92L129.36 523.92z" stroke="none" fill="#000000" fill-rule="nonzero" /><path transform="matrix(1 0 0 -1 0 792)" d="M129.6 523.44L315.84 523.44L315.84 523.92L129.6 523.92z" stroke="none" fill="#000000" fill-rule="nonzero" /><path transform="matrix(1 0 0 -1 0 792)" d="M315.84 523.92L316.32 523.92L316.32 537.12L315.84 537.12z" stroke="none" fill="#000000" fill-rule="nonzero" /><path transform="matrix(1 0 0 -1 0 792)" d="M315.84 523.44L316.32 523.44L316.32 523.92L315.84 523.92z" stroke="none" fill="#000000" fill-rule="nonzero" /><path transform="matrix(1 0 0 -1 0 792)" d="M316.32 523.44L423.84 523.44L423.84 523.92L316.32 523.92z" stroke="none" fill="#000000" fill-rule="nonzero" /><path transform="matrix(1 0 0 -1 0 792)" d="M423.84 523.92L424.32 523.92L424.32 537.12L423.84 537.12z" stroke="none" fill="#000000" fill-rule="nonzero" /><path transform="matrix(1 0 0 -1 0 792)" d="M423.84 523.44L424.32 523.44L424.32 523.92L423.84 523.92z" stroke="none" fill="#000000" fill-rule="nonzero" /><path transform="matrix(1 0 0 -1 0 792)" d="M424.32 523.44L531.84 523.44L531.84 523.92L424.32 523.92z" stroke="none" fill="#000000" fill-rule="nonzero" /><path transform="matrix(1 0 0 -1 0 792)" d="M531.84 523.92L532.32 523.92L532.32 537.12L531.84 537.12z" stroke="none" fill="#000000" fill-rule="nonzero" /><path transform="matrix(1 0 0 -1 0 792)" d="M531.84 523.44L532.32 523.44L532.32 523.92L531.84 523.92z" stroke="none" fill="#000000" fill-rule="nonzero" /><path transform="matrix(1 0 0 -1 0 792)" d="M531.84 523.44L532.32 523.44L532.32 523.92L531.84 523.92z" stroke="none" fill="#000000" fill-rule="nonzero" /><g clip-path="url(#49)"></g><g clip-path="url(#50)"></g><g clip-path="url(#51)"></g><g clip-path="url(#52)"></g><g clip-path="url(#53)"></g><path transform="matrix(1 0 0 -1 0 792)" d="M99.6 510L100.08 510L100.08 510.48L99.6 510.48z" stroke="none" fill="#000000" fill-rule="nonzero" /><path transform="matrix(1 0 0 -1 0 792)" d="M99.6 510L100.08 510L100.08 510.48L99.6 510.48z" stroke="none" fill="#000000" fill-rule="nonzero" /><path transform="matrix(1 0 0 -1 0 792)" d="M100.08 510L129.12 510L129.12 510.48L100.08 510.48z" stroke="none" fill="#000000" fill-rule="nonzero" /><path transform="matrix(1 0 0 -1 0 792)" d="M129.12 510L129.36 510L129.36 510.48L129.12 510.48z" stroke="none" fill="#000000" fill-rule="nonzero" /><path transform="matrix(1 0 0 -1 0 792)" d="M129.36 510L309.12 510L309.12 510.48L129.36 510.48z" stroke="none" fill="#000000" fill-rule="nonzero" /><path transform="matrix(1 0 0 -1 0 792)" d="M309.12 510L309.6 510L309.6 510.48L309.12 510.48z" stroke="none" fill="#000000" fill-rule="nonzero" /><path transform="matrix(1 0 0 -1 0 792)" d="M309.6 510L381.84 510L381.84 510.48L309.6 510.48z" stroke="none" fill="#000000" fill-rule="nonzero" /><path transform="matrix(1 0 0 -1 0 792)" d="M381.84 510L382.32 510L382.32 510.48L381.84 510.48z" stroke="none" fill="#000000" fill-rule="nonzero" /><path transform="matrix(1 0 0 -1 0 792)" d="M382.32 510L429.36 510L429.36 510.48L382.32 510.48z" stroke="none" fill="#000000" fill-rule="nonzero" /><path transform="matrix(1 0 0 -1 0 792)" d="M429.36 510L429.84 510L429.84 510.48L429.36 510.48z" stroke="none" fill="#000000" fill-rule="nonzero" /><path transform="matrix(1 0 0 -1 0 792)" d="M429.84 510L477.12 510L477.12 510.48L429.84 510.48z" stroke="none" fill="#000000" fill-rule="nonzero" /><path transform="matrix(1 0 0 -1 0 792)" d="M477.12 510L477.6 510L477.6 510.48L477.12 510.48z" stroke="none" fill="#000000" fill-rule="nonzero" /><path transform="matrix(1 0 0 -1 0 792)" d="M477.6 510L531.84 510L531.84 510.48L477.6 510.48z" stroke="none" fill="#000000" fill-rule="nonzero" /><path transform="matrix(1 0 0 -1 0 792)" d="M531.84 510L532.32 510L532.32 510.48L531.84 510.48z" stroke="none" fill="#000000" fill-rule="nonzero" /><path transform="matrix(1 0 0 -1 0 792)" d="M531.84 510L532.32 510L532.32 510.48L531.84 510.48z" stroke="none" fill="#000000" fill-rule="nonzero" /><path transform="matrix(1 0 0 -1 0 792)" d="M99.6 465.6L100.08 465.6L100.08 510L99.6 510z" stroke="none" fill="#000000" fill-rule="nonzero" /><path transform="matrix(1 0 0 -1 0 792)" d="M129.12 465.6L129.36 465.6L129.36 510L129.12 510z" stroke="none" fill="#000000" fill-rule="nonzero" /><path transform="matrix(1 0 0 -1 0 792)" d="M309.12 465.6L309.6 465.6L309.6 510L309.12 510z" stroke="none" fill="#000000" fill-rule="nonzero" /><path transform="matrix(1 0 0 -1 0 792)" d="M381.84 465.6L382.32 465.6L382.32 510L381.84 510z" stroke="none" fill="#000000" fill-rule="nonzero" /><path transform="matrix(1 0 0 -1 0 792)" d="M429.36 465.6L429.84 465.6L429.84 510L429.36 510z" stroke="none" fill="#000000" fill-rule="nonzero" /><path transform="matrix(1 0 0 -1 0 792)" d="M477.12 465.6L477.6 465.6L477.6 510L477.12 510z" stroke="none" fill="#000000" fill-rule="nonzero" /><path transform="matrix(1 0 0 -1 0 792)" d="M531.84 465.6L532.32 465.6L532.32 510L531.84 510z" stroke="none" fill="#000000" fill-rule="nonzero" /><path transform="matrix(1 0 0 -1 0 792)" d="M99.6 465.12L100.08 465.12L100.08 465.6L99.6 465.6z" stroke="none" fill="#000000" fill-rule="nonzero" /><path transform="matrix(1 0 0 -1 0 792)" d="M100.08 465.12L129.12 465.12L129.12 465.6L100.08 465.6z" stroke="none" fill="#000000" fill-rule="nonzero" /><path transform="matrix(1 0 0 -1 0 792)" d="M129.12 465.12L129.36 465.12L129.36 465.6L129.12 465.6z" stroke="none" fill="#000000" fill-rule="nonzero" /><path transform="matrix(1 0 0 -1 0 792)" d="M129.36 465.12L309.12 465.12L309.12 465.6L129.36 465.6z" stroke="none" fill="#000000" fill-rule="nonzero" /><path transform="matrix(1 0 0 -1 0 792)" d="M309.12 465.12L309.6 465.12L309.6 465.6L309.12 465.6z" stroke="none" fill="#000000" fill-rule="nonzero" /><path transform="matrix(1 0 0 -1 0 792)" d="M309.6 465.12L381.84 465.12L381.84 465.6L309.6 465.6z" stroke="none" fill="#000000" fill-rule="nonzero" /><path transform="matrix(1 0 0 -1 0 792)" d="M381.84 465.12L382.32 465.12L382.32 465.6L381.84 465.6z" stroke="none" fill="#000000" fill-rule="nonzero" /><path transform="matrix(1 0 0 -1 0 792)" d="M382.32 465.12L429.36 465.12L429.36 465.6L382.32 465.6z" stroke="none" fill="#000000" fill-rule="nonzero" /><path transform="matrix(1 0 0 -1 0 792)" d="M429.36 465.12L429.84 465.12L429.84 465.6L429.36 465.6z" stroke="none" fill="#000000" fill-rule="nonzero" /><path transform="matrix(1 0 0 -1 0 792)" d="M429.84 465.12L477.12 465.12L477.12 465.6L429.84 465.6z" stroke="none" fill="#000000" fill-rule="nonzero" /><path transform="matrix(1 0 0 -1 0 792)" d="M477.12 465.12L477.6 465.12L477.6 465.6L477.12 465.6z" stroke="none" fill="#000000" fill-rule="nonzero" /><path transform="matrix(1 0 0 -1 0 792)" d="M477.6 465.12L531.84 465.12L531.84 465.6L477.6 465.6z" stroke="none" fill="#000000" fill-rule="nonzero" /><path transform="matrix(1 0 0 -1 0 792)" d="M531.84 465.12L532.32 465.12L532.32 465.6L531.84 465.6z" stroke="none" fill="#000000" fill-rule="nonzero" /><path transform="matrix(1 0 0 -1 0 792)" d="M99.6 450.96L100.08 450.96L100.08 465.12L99.6 465.12z" stroke="none" fill="#000000" fill-rule="nonzero" /><path transform="matrix(1 0 0 -1 0 792)" d="M129.12 450.96L129.36 450.96L129.36 465.12L129.12 465.12z" stroke="none" fill="#000000" fill-rule="nonzero" /><path transform="matrix(1 0 0 -1 0 792)" d="M309.12 450.96L309.6 450.96L309.6 465.12L309.12 465.12z" stroke="none" fill="#000000" fill-rule="nonzero" /><path transform="matrix(1 0 0 -1 0 792)" d="M381.84 450.96L382.32 450.96L382.32 465.12L381.84 465.12z" stroke="none" fill="#000000" fill-rule="nonzero" /><path transform="matrix(1 0 0 -1 0 792)" d="M429.36 450.96L429.84 450.96L429.84 465.12L429.36 465.12z" stroke="none" fill="#000000" fill-rule="nonzero" /><path transform="matrix(1 0 0 -1 0 792)" d="M477.12 450.96L477.6 450.96L477.6 465.12L477.12 465.12z" stroke="none" fill="#000000" fill-rule="nonzero" /><path transform="matrix(1 0 0 -1 0 792)" d="M531.84 450.96L532.32 450.96L532.32 465.12L531.84 465.12z" stroke="none" fill="#000000" fill-rule="nonzero" /><path transform="matrix(1 0 0 -1 0 792)" d="M99.6 450.48L100.08 450.48L100.08 450.96L99.6 450.96z" stroke="none" fill="#000000" fill-rule="nonzero" /><path transform="matrix(1 0 0 -1 0 792)" d="M100.08 450.48L129.12 450.48L129.12 450.96L100.08 450.96z" stroke="none" fill="#000000" fill-rule="nonzero" /><path transform="matrix(1 0 0 -1 0 792)" d="M129.12 450.48L129.36 450.48L129.36 450.96L129.12 450.96z" stroke="none" fill="#000000" fill-rule="nonzero" /><path transform="matrix(1 0 0 -1 0 792)" d="M129.36 450.48L309.12 450.48L309.12 450.96L129.36 450.96z" stroke="none" fill="#000000" fill-rule="nonzero" /><path transform="matrix(1 0 0 -1 0 792)" d="M309.12 450.48L309.6 450.48L309.6 450.96L309.12 450.96z" stroke="none" fill="#000000" fill-rule="nonzero" /><path transform="matrix(1 0 0 -1 0 792)" d="M309.6 450.48L381.84 450.48L381.84 450.96L309.6 450.96z" stroke="none" fill="#000000" fill-rule="nonzero" /><path transform="matrix(1 0 0 -1 0 792)" d="M381.84 450.48L382.32 450.48L382.32 450.96L381.84 450.96z" stroke="none" fill="#000000" fill-rule="nonzero" /><path transform="matrix(1 0 0 -1 0 792)" d="M382.32 450.48L429.36 450.48L429.36 450.96L382.32 450.96z" stroke="none" fill="#000000" fill-rule="nonzero" /><path transform="matrix(1 0 0 -1 0 792)" d="M429.36 450.48L429.84 450.48L429.84 450.96L429.36 450.96z" stroke="none" fill="#000000" fill-rule="nonzero" /><path transform="matrix(1 0 0 -1 0 792)" d="M429.84 450.48L477.12 450.48L477.12 450.96L429.84 450.96z" stroke="none" fill="#000000" fill-rule="nonzero" /><path transform="matrix(1 0 0 -1 0 792)" d="M477.12 450.48L477.6 450.48L477.6 450.96L477.12 450.96z" stroke="none" fill="#000000" fill-rule="nonzero" /><path transform="matrix(1 0 0 -1 0 792)" d="M477.6 450.48L531.84 450.48L531.84 450.96L477.6 450.96z" stroke="none" fill="#000000" fill-rule="nonzero" /><path transform="matrix(1 0 0 -1 0 792)" d="M531.84 450.48L532.32 450.48L532.32 450.96L531.84 450.96z" stroke="none" fill="#000000" fill-rule="nonzero" /><path transform="matrix(1 0 0 -1 0 792)" d="M99.6 436.56L100.08 436.56L100.08 450.48L99.6 450.48z" stroke="none" fill="#000000" fill-rule="nonzero" /><path transform="matrix(1 0 0 -1 0 792)" d="M129.12 436.56L129.36 436.56L129.36 450.48L129.12 450.48z" stroke="none" fill="#000000" fill-rule="nonzero" /><path transform="matrix(1 0 0 -1 0 792)" d="M309.12 436.56L309.6 436.56L309.6 450.48L309.12 450.48z" stroke="none" fill="#000000" fill-rule="nonzero" /><path transform="matrix(1 0 0 -1 0 792)" d="M381.84 436.56L382.32 436.56L382.32 450.48L381.84 450.48z" stroke="none" fill="#000000" fill-rule="nonzero" /><path transform="matrix(1 0 0 -1 0 792)" d="M429.36 436.56L429.84 436.56L429.84 450.48L429.36 450.48z" stroke="none" fill="#000000" fill-rule="nonzero" /><path transform="matrix(1 0 0 -1 0 792)" d="M477.12 436.56L477.6 436.56L477.6 450.48L477.12 450.48z" stroke="none" fill="#000000" fill-rule="nonzero" /><path transform="matrix(1 0 0 -1 0 792)" d="M531.84 436.56L532.32 436.56L532.32 450.48L531.84 450.48z" stroke="none" fill="#000000" fill-rule="nonzero" /><path transform="matrix(1 0 0 -1 0 792)" d="M99.6 436.08L100.08 436.08L100.08 436.56L99.6 436.56z" stroke="none" fill="#000000" fill-rule="nonzero" /><path transform="matrix(1 0 0 -1 0 792)" d="M100.08 436.08L129.12 436.08L129.12 436.56L100.08 436.56z" stroke="none" fill="#000000" fill-rule="nonzero" /><path transform="matrix(1 0 0 -1 0 792)" d="M129.12 436.08L129.36 436.08L129.36 436.56L129.12 436.56z" stroke="none" fill="#000000" fill-rule="nonzero" /><path transform="matrix(1 0 0 -1 0 792)" d="M129.36 436.08L309.12 436.08L309.12 436.56L129.36 436.56z" stroke="none" fill="#000000" fill-rule="nonzero" /><path transform="matrix(1 0 0 -1 0 792)" d="M309.12 436.08L309.6 436.08L309.6 436.56L309.12 436.56z" stroke="none" fill="#000000" fill-rule="nonzero" /><path transform="matrix(1 0 0 -1 0 792)" d="M309.6 436.08L381.84 436.08L381.84 436.56L309.6 436.56z" stroke="none" fill="#000000" fill-rule="nonzero" /><path transform="matrix(1 0 0 -1 0 792)" d="M381.84 436.08L382.32 436.08L382.32 436.56L381.84 436.56z" stroke="none" fill="#000000" fill-rule="nonzero" /><path transform="matrix(1 0 0 -1 0 792)" d="M382.32 436.08L429.36 436.08L429.36 436.56L382.32 436.56z" stroke="none" fill="#000000" fill-rule="nonzero" /><path transform="matrix(1 0 0 -1 0 792)" d="M429.36 436.08L429.84 436.08L429.84 436.56L429.36 436.56z" stroke="none" fill="#000000" fill-rule="nonzero" /><path transform="matrix(1 0 0 -1 0 792)" d="M429.84 436.08L477.12 436.08L477.12 436.56L429.84 436.56z" stroke="none" fill="#000000" fill-rule="nonzero" /><path transform="matrix(1 0 0 -1 0 792)" d="M477.12 436.08L477.6 436.08L477.6 436.56L477.12 436.56z" stroke="none" fill="#000000" fill-rule="nonzero" /><path transform="matrix(1 0 0 -1 0 792)" d="M477.6 436.08L531.84 436.08L531.84 436.56L477.6 436.56z" stroke="none" fill="#000000" fill-rule="nonzero" /><path transform="matrix(1 0 0 -1 0 792)" d="M531.84 436.08L532.32 436.08L532.32 436.56L531.84 436.56z" stroke="none" fill="#000000" fill-rule="nonzero" /><path transform="matrix(1 0 0 -1 0 792)" d="M99.6 421.92L100.08 421.92L100.08 436.08L99.6 436.08z" stroke="none" fill="#000000" fill-rule="nonzero" /><path transform="matrix(1 0 0 -1 0 792)" d="M129.12 421.92L129.36 421.92L129.36 436.08L129.12 436.08z" stroke="none" fill="#000000" fill-rule="nonzero" /><path transform="matrix(1 0 0 -1 0 792)" d="M309.12 421.92L309.6 421.92L309.6 436.08L309.12 436.08z" stroke="none" fill="#000000" fill-rule="nonzero" /><path transform="matrix(1 0 0 -1 0 792)" d="M381.84 421.92L382.32 421.92L382.32 436.08L381.84 436.08z" stroke="none" fill="#000000" fill-rule="nonzero" /><path transform="matrix(1 0 0 -1 0 792)" d="M429.36 421.92L429.84 421.92L429.84 436.08L429.36 436.08z" stroke="none" fill="#000000" fill-rule="nonzero" /><path transform="matrix(1 0 0 -1 0 792)" d="M477.12 421.92L477.6 421.92L477.6 436.08L477.12 436.08z" stroke="none" fill="#000000" fill-rule="nonzero" /><path transform="matrix(1 0 0 -1 0 792)" d="M531.84 421.92L532.32 421.92L532.32 436.08L531.84 436.08z" stroke="none" fill="#000000" fill-rule="nonzero" /><path transform="matrix(1 0 0 -1 0 792)" d="M99.6 421.68L100.08 421.68L100.08 421.92L99.6 421.92z" stroke="none" fill="#000000" fill-rule="nonzero" /><path transform="matrix(1 0 0 -1 0 792)" d="M100.08 421.68L129.12 421.68L129.12 421.92L100.08 421.92z" stroke="none" fill="#000000" fill-rule="nonzero" /><path transform="matrix(1 0 0 -1 0 792)" d="M129.12 421.68L129.36 421.68L129.36 421.92L129.12 421.92z" stroke="none" fill="#000000" fill-rule="nonzero" /><path transform="matrix(1 0 0 -1 0 792)" d="M129.36 421.68L309.12 421.68L309.12 421.92L129.36 421.92z" stroke="none" fill="#000000" fill-rule="nonzero" /><path transform="matrix(1 0 0 -1 0 792)" d="M309.12 421.68L309.6 421.68L309.6 421.92L309.12 421.92z" stroke="none" fill="#000000" fill-rule="nonzero" /><path transform="matrix(1 0 0 -1 0 792)" d="M309.6 421.68L381.84 421.68L381.84 421.92L309.6 421.92z" stroke="none" fill="#000000" fill-rule="nonzero" /><path transform="matrix(1 0 0 -1 0 792)" d="M381.84 421.68L382.32 421.68L382.32 421.92L381.84 421.92z" stroke="none" fill="#000000" fill-rule="nonzero" /><path transform="matrix(1 0 0 -1 0 792)" d="M382.32 421.68L429.36 421.68L429.36 421.92L382.32 421.92z" stroke="none" fill="#000000" fill-rule="nonzero" /><path transform="matrix(1 0 0 -1 0 792)" d="M429.36 421.68L429.84 421.68L429.84 421.92L429.36 421.92z" stroke="none" fill="#000000" fill-rule="nonzero" /><path transform="matrix(1 0 0 -1 0 792)" d="M429.84 421.68L477.12 421.68L477.12 421.92L429.84 421.92z" stroke="none" fill="#000000" fill-rule="nonzero" /><path transform="matrix(1 0 0 -1 0 792)" d="M477.12 421.68L477.6 421.68L477.6 421.92L477.12 421.92z" stroke="none" fill="#000000" fill-rule="nonzero" /><path transform="matrix(1 0 0 -1 0 792)" d="M477.6 421.68L531.84 421.68L531.84 421.92L477.6 421.92z" stroke="none" fill="#000000" fill-rule="nonzero" /><path transform="matrix(1 0 0 -1 0 792)" d="M531.84 421.68L532.32 421.68L532.32 421.92L531.84 421.92z" stroke="none" fill="#000000" fill-rule="nonzero" /><path transform="matrix(1 0 0 -1 0 792)" d="M99.6 407.28L100.08 407.28L100.08 421.68L99.6 421.68z" stroke="none" fill="#000000" fill-rule="nonzero" /><path transform="matrix(1 0 0 -1 0 792)" d="M129.12 407.28L129.36 407.28L129.36 421.68L129.12 421.68z" stroke="none" fill="#000000" fill-rule="nonzero" /><path transform="matrix(1 0 0 -1 0 792)" d="M309.12 407.28L309.6 407.28L309.6 421.68L309.12 421.68z" stroke="none" fill="#000000" fill-rule="nonzero" /><path transform="matrix(1 0 0 -1 0 792)" d="M381.84 407.28L382.32 407.28L382.32 421.68L381.84 421.68z" stroke="none" fill="#000000" fill-rule="nonzero" /><path transform="matrix(1 0 0 -1 0 792)" d="M429.36 407.28L429.84 407.28L429.84 421.68L429.36 421.68z" stroke="none" fill="#000000" fill-rule="nonzero" /><path transform="matrix(1 0 0 -1 0 792)" d="M477.12 407.28L477.6 407.28L477.6 421.68L477.12 421.68z" stroke="none" fill="#000000" fill-rule="nonzero" /><path transform="matrix(1 0 0 -1 0 792)" d="M531.84 407.28L532.32 407.28L532.32 421.68L531.84 421.68z" stroke="none" fill="#000000" fill-rule="nonzero" /><path transform="matrix(1 0 0 -1 0 792)" d="M99.6 406.8L100.08 406.8L100.08 407.28L99.6 407.28z" stroke="none" fill="#000000" fill-rule="nonzero" /><path transform="matrix(1 0 0 -1 0 792)" d="M100.08 406.8L129.12 406.8L129.12 407.28L100.08 407.28z" stroke="none" fill="#000000" fill-rule="nonzero" /><path transform="matrix(1 0 0 -1 0 792)" d="M129.12 406.8L129.36 406.8L129.36 407.28L129.12 407.28z" stroke="none" fill="#000000" fill-rule="nonzero" /><path transform="matrix(1 0 0 -1 0 792)" d="M129.36 406.8L309.12 406.8L309.12 407.28L129.36 407.28z" stroke="none" fill="#000000" fill-rule="nonzero" /><path transform="matrix(1 0 0 -1 0 792)" d="M309.12 406.8L309.6 406.8L309.6 407.28L309.12 407.28z" stroke="none" fill="#000000" fill-rule="nonzero" /><path transform="matrix(1 0 0 -1 0 792)" d="M309.6 406.8L381.84 406.8L381.84 407.28L309.6 407.28z" stroke="none" fill="#000000" fill-rule="nonzero" /><path transform="matrix(1 0 0 -1 0 792)" d="M381.84 406.8L382.32 406.8L382.32 407.28L381.84 407.28z" stroke="none" fill="#000000" fill-rule="nonzero" /><path transform="matrix(1 0 0 -1 0 792)" d="M382.32 406.8L429.36 406.8L429.36 407.28L382.32 407.28z" stroke="none" fill="#000000" fill-rule="nonzero" /><path transform="matrix(1 0 0 -1 0 792)" d="M429.36 406.8L429.84 406.8L429.84 407.28L429.36 407.28z" stroke="none" fill="#000000" fill-rule="nonzero" /><path transform="matrix(1 0 0 -1 0 792)" d="M429.84 406.8L477.12 406.8L477.12 407.28L429.84 407.28z" stroke="none" fill="#000000" fill-rule="nonzero" /><path transform="matrix(1 0 0 -1 0 792)" d="M477.12 406.8L477.6 406.8L477.6 407.28L477.12 407.28z" stroke="none" fill="#000000" fill-rule="nonzero" /><path transform="matrix(1 0 0 -1 0 792)" d="M477.6 406.8L531.84 406.8L531.84 407.28L477.6 407.28z" stroke="none" fill="#000000" fill-rule="nonzero" /><path transform="matrix(1 0 0 -1 0 792)" d="M531.84 406.8L532.32 406.8L532.32 407.28L531.84 407.28z" stroke="none" fill="#000000" fill-rule="nonzero" /><path transform="matrix(1 0 0 -1 0 792)" d="M99.6 378.96L100.08 378.96L100.08 406.8L99.6 406.8z" stroke="none" fill="#000000" fill-rule="nonzero" /><path transform="matrix(1 0 0 -1 0 792)" d="M129.12 378.96L129.36 378.96L129.36 406.8L129.12 406.8z" stroke="none" fill="#000000" fill-rule="nonzero" /><path transform="matrix(1 0 0 -1 0 792)" d="M309.12 378.96L309.6 378.96L309.6 406.8L309.12 406.8z" stroke="none" fill="#000000" fill-rule="nonzero" /><path transform="matrix(1 0 0 -1 0 792)" d="M381.84 378.96L382.32 378.96L382.32 406.8L381.84 406.8z" stroke="none" fill="#000000" fill-rule="nonzero" /><path transform="matrix(1 0 0 -1 0 792)" d="M429.36 378.96L429.84 378.96L429.84 406.8L429.36 406.8z" stroke="none" fill="#000000" fill-rule="nonzero" /><path transform="matrix(1 0 0 -1 0 792)" d="M477.12 378.96L477.6 378.96L477.6 406.8L477.12 406.8z" stroke="none" fill="#000000" fill-rule="nonzero" /><path transform="matrix(1 0 0 -1 0 792)" d="M531.84 378.96L532.32 378.96L532.32 406.8L531.84 406.8z" stroke="none" fill="#000000" fill-rule="nonzero" /><path transform="matrix(1 0 0 -1 0 792)" d="M99.6 378.48L100.08 378.48L100.08 378.96L99.6 378.96z" stroke="none" fill="#000000" fill-rule="nonzero" /><path transform="matrix(1 0 0 -1 0 792)" d="M100.08 378.48L129.12 378.48L129.12 378.96L100.08 378.96z" stroke="none" fill="#000000" fill-rule="nonzero" /><path transform="matrix(1 0 0 -1 0 792)" d="M129.12 378.48L129.36 378.48L129.36 378.96L129.12 378.96z" stroke="none" fill="#000000" fill-rule="nonzero" /><path transform="matrix(1 0 0 -1 0 792)" d="M129.36 378.48L309.12 378.48L309.12 378.96L129.36 378.96z" stroke="none" fill="#000000" fill-rule="nonzero" /><path transform="matrix(1 0 0 -1 0 792)" d="M309.12 378.48L309.6 378.48L309.6 378.96L309.12 378.96z" stroke="none" fill="#000000" fill-rule="nonzero" /><path transform="matrix(1 0 0 -1 0 792)" d="M309.6 378.48L381.84 378.48L381.84 378.96L309.6 378.96z" stroke="none" fill="#000000" fill-rule="nonzero" /><path transform="matrix(1 0 0 -1 0 792)" d="M381.84 378.48L382.32 378.48L382.32 378.96L381.84 378.96z" stroke="none" fill="#000000" fill-rule="nonzero" /><path transform="matrix(1 0 0 -1 0 792)" d="M382.32 378.48L429.36 378.48L429.36 378.96L382.32 378.96z" stroke="none" fill="#000000" fill-rule="nonzero" /><path transform="matrix(1 0 0 -1 0 792)" d="M429.36 378.48L429.84 378.48L429.84 378.96L429.36 378.96z" stroke="none" fill="#000000" fill-rule="nonzero" /><path transform="matrix(1 0 0 -1 0 792)" d="M429.84 378.48L477.12 378.48L477.12 378.96L429.84 378.96z" stroke="none" fill="#000000" fill-rule="nonzero" /><path transform="matrix(1 0 0 -1 0 792)" d="M477.12 378.48L477.6 378.48L477.6 378.96L477.12 378.96z" stroke="none" fill="#000000" fill-rule="nonzero" /><path transform="matrix(1 0 0 -1 0 792)" d="M477.6 378.48L531.84 378.48L531.84 378.96L477.6 378.96z" stroke="none" fill="#000000" fill-rule="nonzero" /><path transform="matrix(1 0 0 -1 0 792)" d="M531.84 378.48L532.32 378.48L532.32 378.96L531.84 378.96z" stroke="none" fill="#000000" fill-rule="nonzero" /><path transform="matrix(1 0 0 -1 0 792)" d="M99.6 350.16L100.08 350.16L100.08 378.48L99.6 378.48z" stroke="none" fill="#000000" fill-rule="nonzero" /><path transform="matrix(1 0 0 -1 0 792)" d="M129.12 350.16L129.36 350.16L129.36 378.48L129.12 378.48z" stroke="none" fill="#000000" fill-rule="nonzero" /><path transform="matrix(1 0 0 -1 0 792)" d="M309.12 350.16L309.6 350.16L309.6 378.48L309.12 378.48z" stroke="none" fill="#000000" fill-rule="nonzero" /><path transform="matrix(1 0 0 -1 0 792)" d="M381.84 350.16L382.32 350.16L382.32 378.48L381.84 378.48z" stroke="none" fill="#000000" fill-rule="nonzero" /><path transform="matrix(1 0 0 -1 0 792)" d="M429.36 350.16L429.84 350.16L429.84 378.48L429.36 378.48z" stroke="none" fill="#000000" fill-rule="nonzero" /><path transform="matrix(1 0 0 -1 0 792)" d="M477.12 350.16L477.6 350.16L477.6 378.48L477.12 378.48z" stroke="none" fill="#000000" fill-rule="nonzero" /><path transform="matrix(1 0 0 -1 0 792)" d="M531.84 350.16L532.32 350.16L532.32 378.48L531.84 378.48z" stroke="none" fill="#000000" fill-rule="nonzero" /><path transform="matrix(1 0 0 -1 0 792)" d="M99.6 349.92L100.08 349.92L100.08 350.16L99.6 350.16z" stroke="none" fill="#000000" fill-rule="nonzero" /><path transform="matrix(1 0 0 -1 0 792)" d="M100.08 349.92L129.12 349.92L129.12 350.16L100.08 350.16z" stroke="none" fill="#000000" fill-rule="nonzero" /><path transform="matrix(1 0 0 -1 0 792)" d="M129.12 349.92L129.36 349.92L129.36 350.16L129.12 350.16z" stroke="none" fill="#000000" fill-rule="nonzero" /><path transform="matrix(1 0 0 -1 0 792)" d="M129.36 349.92L309.12 349.92L309.12 350.16L129.36 350.16z" stroke="none" fill="#000000" fill-rule="nonzero" /><path transform="matrix(1 0 0 -1 0 792)" d="M309.12 349.92L309.6 349.92L309.6 350.16L309.12 350.16z" stroke="none" fill="#000000" fill-rule="nonzero" /><path transform="matrix(1 0 0 -1 0 792)" d="M309.6 349.92L381.84 349.92L381.84 350.16L309.6 350.16z" stroke="none" fill="#000000" fill-rule="nonzero" /><path transform="matrix(1 0 0 -1 0 792)" d="M381.84 349.92L382.32 349.92L382.32 350.16L381.84 350.16z" stroke="none" fill="#000000" fill-rule="nonzero" /><path transform="matrix(1 0 0 -1 0 792)" d="M382.32 349.92L429.36 349.92L429.36 350.16L382.32 350.16z" stroke="none" fill="#000000" fill-rule="nonzero" /><path transform="matrix(1 0 0 -1 0 792)" d="M429.36 349.92L429.84 349.92L429.84 350.16L429.36 350.16z" stroke="none" fill="#000000" fill-rule="nonzero" /><path transform="matrix(1 0 0 -1 0 792)" d="M429.84 349.92L477.12 349.92L477.12 350.16L429.84 350.16z" stroke="none" fill="#000000" fill-rule="nonzero" /><path transform="matrix(1 0 0 -1 0 792)" d="M477.12 349.92L477.6 349.92L477.6 350.16L477.12 350.16z" stroke="none" fill="#000000" fill-rule="nonzero" /><path transform="matrix(1 0 0 -1 0 792)" d="M477.6 349.92L531.84 349.92L531.84 350.16L477.6 350.16z" stroke="none" fill="#000000" fill-rule="nonzero" /><path transform="matrix(1 0 0 -1 0 792)" d="M531.84 349.92L532.32 349.92L532.32 350.16L531.84 350.16z" stroke="none" fill="#000000" fill-rule="nonzero" /><path transform="matrix(1 0 0 -1 0 792)" d="M99.6 335.76L100.08 335.76L100.08 349.92L99.6 349.92z" stroke="none" fill="#000000" fill-rule="nonzero" /><path transform="matrix(1 0 0 -1 0 792)" d="M129.12 335.76L129.36 335.76L129.36 349.92L129.12 349.92z" stroke="none" fill="#000000" fill-rule="nonzero" /><path transform="matrix(1 0 0 -1 0 792)" d="M309.12 335.76L309.6 335.76L309.6 349.92L309.12 349.92z" stroke="none" fill="#000000" fill-rule="nonzero" /><path transform="matrix(1 0 0 -1 0 792)" d="M381.84 335.76L382.32 335.76L382.32 349.92L381.84 349.92z" stroke="none" fill="#000000" fill-rule="nonzero" /><path transform="matrix(1 0 0 -1 0 792)" d="M429.36 335.76L429.84 335.76L429.84 349.92L429.36 349.92z" stroke="none" fill="#000000" fill-rule="nonzero" /><path transform="matrix(1 0 0 -1 0 792)" d="M477.12 335.76L477.6 335.76L477.6 349.92L477.12 349.92z" stroke="none" fill="#000000" fill-rule="nonzero" /><path transform="matrix(1 0 0 -1 0 792)" d="M531.84 335.76L532.32 335.76L532.32 349.92L531.84 349.92z" stroke="none" fill="#000000" fill-rule="nonzero" /><path transform="matrix(1 0 0 -1 0 792)" d="M99.6 335.28L100.08 335.28L100.08 335.76L99.6 335.76z" stroke="none" fill="#000000" fill-rule="nonzero" /><path transform="matrix(1 0 0 -1 0 792)" d="M100.08 335.28L129.12 335.28L129.12 335.76L100.08 335.76z" stroke="none" fill="#000000" fill-rule="nonzero" /><path transform="matrix(1 0 0 -1 0 792)" d="M129.12 335.28L129.36 335.28L129.36 335.76L129.12 335.76z" stroke="none" fill="#000000" fill-rule="nonzero" /><path transform="matrix(1 0 0 -1 0 792)" d="M129.36 335.28L309.12 335.28L309.12 335.76L129.36 335.76z" stroke="none" fill="#000000" fill-rule="nonzero" /><path transform="matrix(1 0 0 -1 0 792)" d="M309.12 335.28L309.6 335.28L309.6 335.76L309.12 335.76z" stroke="none" fill="#000000" fill-rule="nonzero" /><path transform="matrix(1 0 0 -1 0 792)" d="M309.6 335.28L381.84 335.28L381.84 335.76L309.6 335.76z" stroke="none" fill="#000000" fill-rule="nonzero" /><path transform="matrix(1 0 0 -1 0 792)" d="M381.84 335.28L382.32 335.28L382.32 335.76L381.84 335.76z" stroke="none" fill="#000000" fill-rule="nonzero" /><path transform="matrix(1 0 0 -1 0 792)" d="M382.32 335.28L429.36 335.28L429.36 335.76L382.32 335.76z" stroke="none" fill="#000000" fill-rule="nonzero" /><path transform="matrix(1 0 0 -1 0 792)" d="M429.36 335.28L429.84 335.28L429.84 335.76L429.36 335.76z" stroke="none" fill="#000000" fill-rule="nonzero" /><path transform="matrix(1 0 0 -1 0 792)" d="M429.84 335.28L477.12 335.28L477.12 335.76L429.84 335.76z" stroke="none" fill="#000000" fill-rule="nonzero" /><path transform="matrix(1 0 0 -1 0 792)" d="M477.12 335.28L477.6 335.28L477.6 335.76L477.12 335.76z" stroke="none" fill="#000000" fill-rule="nonzero" /><path transform="matrix(1 0 0 -1 0 792)" d="M477.6 335.28L531.84 335.28L531.84 335.76L477.6 335.76z" stroke="none" fill="#000000" fill-rule="nonzero" /><path transform="matrix(1 0 0 -1 0 792)" d="M531.84 335.28L532.32 335.28L532.32 335.76L531.84 335.76z" stroke="none" fill="#000000" fill-rule="nonzero" /><path transform="matrix(1 0 0 -1 0 792)" d="M99.6 321.12L100.08 321.12L100.08 335.28L99.6 335.28z" stroke="none" fill="#000000" fill-rule="nonzero" /><path transform="matrix(1 0 0 -1 0 792)" d="M99.6 320.64L100.08 320.64L100.08 321.12L99.6 321.12z" stroke="none" fill="#000000" fill-rule="nonzero" /><path transform="matrix(1 0 0 -1 0 792)" d="M99.6 320.64L100.08 320.64L100.08 321.12L99.6 321.12z" stroke="none" fill="#000000" fill-rule="nonzero" /><path transform="matrix(1 0 0 -1 0 792)" d="M100.08 320.64L129.12 320.64L129.12 321.12L100.08 321.12z" stroke="none" fill="#000000" fill-rule="nonzero" /><path transform="matrix(1 0 0 -1 0 792)" d="M129.12 321.12L129.36 321.12L129.36 335.28L129.12 335.28z" stroke="none" fill="#000000" fill-rule="nonzero" /><path transform="matrix(1 0 0 -1 0 792)" d="M129.12 320.64L129.36 320.64L129.36 321.12L129.12 321.12z" stroke="none" fill="#000000" fill-rule="nonzero" /><path transform="matrix(1 0 0 -1 0 792)" d="M129.36 320.64L309.12 320.64L309.12 321.12L129.36 321.12z" stroke="none" fill="#000000" fill-rule="nonzero" /><path transform="matrix(1 0 0 -1 0 792)" d="M309.12 321.12L309.6 321.12L309.6 335.28L309.12 335.28z" stroke="none" fill="#000000" fill-rule="nonzero" /><path transform="matrix(1 0 0 -1 0 792)" d="M309.12 320.64L309.6 320.64L309.6 321.12L309.12 321.12z" stroke="none" fill="#000000" fill-rule="nonzero" /><path transform="matrix(1 0 0 -1 0 792)" d="M309.6 320.64L381.84 320.64L381.84 321.12L309.6 321.12z" stroke="none" fill="#000000" fill-rule="nonzero" /><path transform="matrix(1 0 0 -1 0 792)" d="M381.84 321.12L382.32 321.12L382.32 335.28L381.84 335.28z" stroke="none" fill="#000000" fill-rule="nonzero" /><path transform="matrix(1 0 0 -1 0 792)" d="M381.84 320.64L382.32 320.64L382.32 321.12L381.84 321.12z" stroke="none" fill="#000000" fill-rule="nonzero" /><path transform="matrix(1 0 0 -1 0 792)" d="M382.32 320.64L429.36 320.64L429.36 321.12L382.32 321.12z" stroke="none" fill="#000000" fill-rule="nonzero" /><path transform="matrix(1 0 0 -1 0 792)" d="M429.36 321.12L429.84 321.12L429.84 335.28L429.36 335.28z" stroke="none" fill="#000000" fill-rule="nonzero" /><path transform="matrix(1 0 0 -1 0 792)" d="M429.36 320.64L429.84 320.64L429.84 321.12L429.36 321.12z" stroke="none" fill="#000000" fill-rule="nonzero" /><path transform="matrix(1 0 0 -1 0 792)" d="M429.84 320.64L477.12 320.64L477.12 321.12L429.84 321.12z" stroke="none" fill="#000000" fill-rule="nonzero" /><path transform="matrix(1 0 0 -1 0 792)" d="M477.12 321.12L477.6 321.12L477.6 335.28L477.12 335.28z" stroke="none" fill="#000000" fill-rule="nonzero" /><path transform="matrix(1 0 0 -1 0 792)" d="M477.12 320.64L477.6 320.64L477.6 321.12L477.12 321.12z" stroke="none" fill="#000000" fill-rule="nonzero" /><path transform="matrix(1 0 0 -1 0 792)" d="M477.6 320.64L531.84 320.64L531.84 321.12L477.6 321.12z" stroke="none" fill="#000000" fill-rule="nonzero" /><path transform="matrix(1 0 0 -1 0 792)" d="M531.84 321.12L532.32 321.12L532.32 335.28L531.84 335.28z" stroke="none" fill="#000000" fill-rule="nonzero" /><path transform="matrix(1 0 0 -1 0 792)" d="M531.84 320.64L532.32 320.64L532.32 321.12L531.84 321.12z" stroke="none" fill="#000000" fill-rule="nonzero" /><path transform="matrix(1 0 0 -1 0 792)" d="M531.84 320.64L532.32 320.64L532.32 321.12L531.84 321.12z" stroke="none" fill="#000000" fill-rule="nonzero" /><path transform="matrix(1 0 0 -1 0 792)" d="M204.48 82.8L280.56 82.8L280.56 83.28001L204.48 83.28001z" stroke="none" fill="#000000" fill-rule="nonzero" /></g></g></g></svg>