<svg xmlns="http://www.w3.org/2000/svg" xmlns:xlink="http://www.w3.org/1999/xlink" id="body_1" preserveAspectRatio="xMinYMin meet" viewBox="0 0 816 1056"><defs><clipPath id="1"><path clip-rule="evenodd" d="M0 792L0 0L0 0L612 0L612 0L612 792L612 792L0 792z" /></clipPath><clipPath id="2"><path clip-rule="evenodd" d="M242.64 71.03998L248.64 71.03998L248.64 71.03998L248.64 58.56L248.64 58.56L242.64 58.56z" /></clipPath><clipPath id="3"><path clip-rule="evenodd" d="M182.16 152.4L188.16 152.4L188.16 152.4L188.16 139.92L188.16 139.92L182.16 139.92z" /></clipPath><clipPath id="4"><path clip-rule="evenodd" d="M400.56 152.4L406.56 152.4L406.56 152.4L406.56 139.92L406.56 139.92L400.56 139.92z" /></clipPath></defs><g transform="matrix(1.333333 0 0 1.333333 0 0)"><g><g clip-path="url(#1)"><g clip-path="url(#2)"></g><g clip-path="url(#3)"></g><g clip-path="url(#4)"></g><path transform="matrix(1 0 0 -1 0 792)" d="M98.16 636.72L266.16 636.72L266.16 638.16L98.16 638.16z" stroke="none" fill="#FFFFFF" fill-rule="nonzero" /><path transform="matrix(1 0 0 -1 0 792)" d="M266.16 636.72L267.6 636.72L267.6 638.16L266.16 638.16z" stroke="none" fill="#FFFFFF" fill-rule="nonzero" /><path transform="matrix(1 0 0 -1 0 792)" d="M266.16 636.72L267.6 636.72L267.6 638.16L266.16 638.16z" stroke="none" fill="#FFFFFF" fill-rule="nonzero" /><path transform="matrix(1 0 0 -1 0 792)" d="M266.16 638.16L267.6 638.16L267.6 692.64L266.16 692.64z" stroke="none" fill="#FFFFFF" fill-rule="nonzero" /><path transform="matrix(1 0 0 -1 0 792)" d="M267.6 636.72L534 636.72L534 638.16L267.6 638.16z" stroke="none" fill="#FFFFFF" fill-rule="nonzero" /><path transform="matrix(1 0 0 -1 0 792)" d="M534 636.72L535.44 636.72L535.44 638.16L534 638.16z" stroke="none" fill="#FFFFFF" fill-rule="nonzero" /><path transform="matrix(1 0 0 -1 0 792)" d="M534 636.72L535.44 636.72L535.44 638.16L534 638.16z" stroke="none" fill="#FFFFFF" fill-rule="nonzero" /><path transform="matrix(1 0 0 -1 0 792)" d="M534 638.16L535.44 638.16L535.44 692.64L534 692.64z" stroke="none" fill="#FFFFFF" fill-rule="nonzero" /><path transform="matrix(1 0 0 -1 0 792)" d="M98.16 153.36L314.88 153.36L314.88 154.8L98.16 154.8z" stroke="none" fill="#FFFFFF" fill-rule="nonzero" /><path transform="matrix(1 0 0 -1 0 792)" d="M314.88 153.36L316.32 153.36L316.32 154.8L314.88 154.8z" stroke="none" fill="#FFFFFF" fill-rule="nonzero" /><path transform="matrix(1 0 0 -1 0 792)" d="M314.88 153.36L316.32 153.36L316.32 154.8L314.88 154.8z" stroke="none" fill="#FFFFFF" fill-rule="nonzero" /><path transform="matrix(1 0 0 -1 0 792)" d="M314.88 154.8L316.32 154.8L316.32 209.28L314.88 209.28z" stroke="none" fill="#FFFFFF" fill-rule="nonzero" /><path transform="matrix(1 0 0 -1 0 792)" d="M316.32 153.36L534 153.36L534 154.8L316.32 154.8z" stroke="none" fill="#FFFFFF" fill-rule="nonzero" /><path transform="matrix(1 0 0 -1 0 792)" d="M534 153.36L535.44 153.36L535.44 154.8L534 154.8z" stroke="none" fill="#FFFFFF" fill-rule="nonzero" /><path transform="matrix(1 0 0 -1 0 792)" d="M534 153.36L535.44 153.36L535.44 154.8L534 154.8z" stroke="none" fill="#FFFFFF" fill-rule="nonzero" /><path transform="matrix(1 0 0 -1 0 792)" d="M534 154.8L535.44 154.8L535.44 209.28L534 209.28z" stroke="none" fill="#FFFFFF" fill-rule="nonzero" /></g></g></g></svg>