<svg xmlns="http://www.w3.org/2000/svg" xmlns:xlink="http://www.w3.org/1999/xlink" id="body_1" preserveAspectRatio="xMinYMin meet" viewBox="0 0 816 1056"><defs><clipPath id="1"><path clip-rule="evenodd" d="M0 792L0 0L0 0L612 0L612 0L612 792L612 792L0 792z" /></clipPath><clipPath id="2"><path clip-rule="evenodd" d="M118.8 49.91998L125.28 49.91998L125.28 49.91998L125.28 39.59998L125.28 39.59998L118.8 39.59998z" /></clipPath><clipPath id="3"><path clip-rule="evenodd" d="M125.28 49.91998L202.32 49.91998L202.32 49.91998L202.32 39.59998L202.32 39.59998L125.28 39.59998z" /></clipPath><clipPath id="4"><path clip-rule="evenodd" d="M202.08 49.91998L224.88 49.91998L224.88 49.91998L224.88 39.59998L224.88 39.59998L202.08 39.59998z" /></clipPath><clipPath id="5"><path clip-rule="evenodd" d="M224.88 49.91998L238.8 49.91998L238.8 49.91998L238.8 39.59998L238.8 39.59998L224.88 39.59998z" /></clipPath><clipPath id="6"><path clip-rule="evenodd" d="M238.56 49.91998L243.6 49.91998L243.6 49.91998L243.6 39.59998L243.6 39.59998L238.56 39.59998z" /></clipPath><clipPath id="7"><path clip-rule="evenodd" d="M121.92 667.44L126.24 667.44L126.24 667.44L126.24 652.56L126.24 652.56L121.92 652.56z" /></clipPath><clipPath id="8"><path clip-rule="evenodd" d="M126.24 667.44L138.96 667.44L138.96 667.44L138.96 652.56L138.96 652.56L126.24 652.56z" /></clipPath><clipPath id="9"><path clip-rule="evenodd" d="M198 667.44L204.96 667.44L204.96 667.44L204.96 652.8L204.96 652.8L198 652.8z" /></clipPath></defs><g transform="matrix(1.333333 0 0 1.333333 0 0)"><g><g clip-path="url(#1)"><g clip-path="url(#2)"></g><g clip-path="url(#3)"></g><g clip-path="url(#4)"></g><g clip-path="url(#5)"></g><g clip-path="url(#6)"></g><path transform="matrix(1 0 0 -1 0 792)" d="M99.6 483.84L100.08 483.84L100.08 484.32L99.6 484.32z" stroke="none" fill="#000000" fill-rule="nonzero" /><path transform="matrix(1 0 0 -1 0 792)" d="M99.6 483.84L100.08 483.84L100.08 484.32L99.6 484.32z" stroke="none" fill="#000000" fill-rule="nonzero" /><path transform="matrix(1 0 0 -1 0 792)" d="M100.08 483.84L130.56 483.84L130.56 484.32L100.08 484.32z" stroke="none" fill="#000000" fill-rule="nonzero" /><path transform="matrix(1 0 0 -1 0 792)" d="M130.56 483.84L131.04 483.84L131.04 484.32L130.56 484.32z" stroke="none" fill="#000000" fill-rule="nonzero" /><path transform="matrix(1 0 0 -1 0 792)" d="M131.04 483.84L280.32 483.84L280.32 484.32L131.04 484.32z" stroke="none" fill="#000000" fill-rule="nonzero" /><path transform="matrix(1 0 0 -1 0 792)" d="M280.32 483.84L280.8 483.84L280.8 484.32L280.32 484.32z" stroke="none" fill="#000000" fill-rule="nonzero" /><path transform="matrix(1 0 0 -1 0 792)" d="M280.8 483.84L347.28 483.84L347.28 484.32L280.8 484.32z" stroke="none" fill="#000000" fill-rule="nonzero" /><path transform="matrix(1 0 0 -1 0 792)" d="M347.28 483.84L347.76 483.84L347.76 484.32L347.28 484.32z" stroke="none" fill="#000000" fill-rule="nonzero" /><path transform="matrix(1 0 0 -1 0 792)" d="M347.76 483.84L406.32 483.84L406.32 484.32L347.76 484.32z" stroke="none" fill="#000000" fill-rule="nonzero" /><path transform="matrix(1 0 0 -1 0 792)" d="M406.32 483.84L406.8 483.84L406.8 484.32L406.32 484.32z" stroke="none" fill="#000000" fill-rule="nonzero" /><path transform="matrix(1 0 0 -1 0 792)" d="M406.8 483.84L531.84 483.84L531.84 484.32L406.8 484.32z" stroke="none" fill="#000000" fill-rule="nonzero" /><path transform="matrix(1 0 0 -1 0 792)" d="M531.84 483.84L532.32 483.84L532.32 484.32L531.84 484.32z" stroke="none" fill="#000000" fill-rule="nonzero" /><path transform="matrix(1 0 0 -1 0 792)" d="M531.84 483.84L532.32 483.84L532.32 484.32L531.84 484.32z" stroke="none" fill="#000000" fill-rule="nonzero" /><path transform="matrix(1 0 0 -1 0 792)" d="M99.6 457.92L100.08 457.92L100.08 483.84L99.6 483.84z" stroke="none" fill="#000000" fill-rule="nonzero" /><path transform="matrix(1 0 0 -1 0 792)" d="M130.56 457.92L131.04 457.92L131.04 483.84L130.56 483.84z" stroke="none" fill="#000000" fill-rule="nonzero" /><path transform="matrix(1 0 0 -1 0 792)" d="M280.32 457.92L280.8 457.92L280.8 483.84L280.32 483.84z" stroke="none" fill="#000000" fill-rule="nonzero" /><path transform="matrix(1 0 0 -1 0 792)" d="M347.28 457.92L347.76 457.92L347.76 483.84L347.28 483.84z" stroke="none" fill="#000000" fill-rule="nonzero" /><path transform="matrix(1 0 0 -1 0 792)" d="M406.32 457.92L406.8 457.92L406.8 483.84L406.32 483.84z" stroke="none" fill="#000000" fill-rule="nonzero" /><path transform="matrix(1 0 0 -1 0 792)" d="M531.84 457.92L532.32 457.92L532.32 483.84L531.84 483.84z" stroke="none" fill="#000000" fill-rule="nonzero" /><path transform="matrix(1 0 0 -1 0 792)" d="M99.6 457.44L100.08 457.44L100.08 457.92L99.6 457.92z" stroke="none" fill="#000000" fill-rule="nonzero" /><path transform="matrix(1 0 0 -1 0 792)" d="M100.08 457.44L130.56 457.44L130.56 457.92L100.08 457.92z" stroke="none" fill="#000000" fill-rule="nonzero" /><path transform="matrix(1 0 0 -1 0 792)" d="M130.56 457.44L131.04 457.44L131.04 457.92L130.56 457.92z" stroke="none" fill="#000000" fill-rule="nonzero" /><path transform="matrix(1 0 0 -1 0 792)" d="M131.04 457.44L280.32 457.44L280.32 457.92L131.04 457.92z" stroke="none" fill="#000000" fill-rule="nonzero" /><path transform="matrix(1 0 0 -1 0 792)" d="M280.32 457.44L280.8 457.44L280.8 457.92L280.32 457.92z" stroke="none" fill="#000000" fill-rule="nonzero" /><path transform="matrix(1 0 0 -1 0 792)" d="M280.8 457.44L347.28 457.44L347.28 457.92L280.8 457.92z" stroke="none" fill="#000000" fill-rule="nonzero" /><path transform="matrix(1 0 0 -1 0 792)" d="M347.28 457.44L347.76 457.44L347.76 457.92L347.28 457.92z" stroke="none" fill="#000000" fill-rule="nonzero" /><path transform="matrix(1 0 0 -1 0 792)" d="M347.76 457.44L406.32 457.44L406.32 457.92L347.76 457.92z" stroke="none" fill="#000000" fill-rule="nonzero" /><path transform="matrix(1 0 0 -1 0 792)" d="M406.32 457.44L406.8 457.44L406.8 457.92L406.32 457.92z" stroke="none" fill="#000000" fill-rule="nonzero" /><path transform="matrix(1 0 0 -1 0 792)" d="M406.8 457.44L531.84 457.44L531.84 457.92L406.8 457.92z" stroke="none" fill="#000000" fill-rule="nonzero" /><path transform="matrix(1 0 0 -1 0 792)" d="M531.84 457.44L532.32 457.44L532.32 457.92L531.84 457.92z" stroke="none" fill="#000000" fill-rule="nonzero" /><path transform="matrix(1 0 0 -1 0 792)" d="M99.6 442.32L100.08 442.32L100.08 457.44L99.6 457.44z" stroke="none" fill="#000000" fill-rule="nonzero" /><path transform="matrix(1 0 0 -1 0 792)" d="M130.56 442.32L131.04 442.32L131.04 457.44L130.56 457.44z" stroke="none" fill="#000000" fill-rule="nonzero" /><path transform="matrix(1 0 0 -1 0 792)" d="M280.32 442.32L280.8 442.32L280.8 457.44L280.32 457.44z" stroke="none" fill="#000000" fill-rule="nonzero" /><path transform="matrix(1 0 0 -1 0 792)" d="M347.28 442.32L347.76 442.32L347.76 457.44L347.28 457.44z" stroke="none" fill="#000000" fill-rule="nonzero" /><path transform="matrix(1 0 0 -1 0 792)" d="M406.32 442.32L406.8 442.32L406.8 457.44L406.32 457.44z" stroke="none" fill="#000000" fill-rule="nonzero" /><path transform="matrix(1 0 0 -1 0 792)" d="M531.84 442.32L532.32 442.32L532.32 457.44L531.84 457.44z" stroke="none" fill="#000000" fill-rule="nonzero" /><path transform="matrix(1 0 0 -1 0 792)" d="M99.6 441.84L100.08 441.84L100.08 442.32L99.6 442.32z" stroke="none" fill="#000000" fill-rule="nonzero" /><path transform="matrix(1 0 0 -1 0 792)" d="M100.08 441.84L130.56 441.84L130.56 442.32L100.08 442.32z" stroke="none" fill="#000000" fill-rule="nonzero" /><path transform="matrix(1 0 0 -1 0 792)" d="M130.56 441.84L131.04 441.84L131.04 442.32L130.56 442.32z" stroke="none" fill="#000000" fill-rule="nonzero" /><path transform="matrix(1 0 0 -1 0 792)" d="M131.04 441.84L280.32 441.84L280.32 442.32L131.04 442.32z" stroke="none" fill="#000000" fill-rule="nonzero" /><path transform="matrix(1 0 0 -1 0 792)" d="M280.32 441.84L280.8 441.84L280.8 442.32L280.32 442.32z" stroke="none" fill="#000000" fill-rule="nonzero" /><path transform="matrix(1 0 0 -1 0 792)" d="M280.8 441.84L347.28 441.84L347.28 442.32L280.8 442.32z" stroke="none" fill="#000000" fill-rule="nonzero" /><path transform="matrix(1 0 0 -1 0 792)" d="M347.28 441.84L347.76 441.84L347.76 442.32L347.28 442.32z" stroke="none" fill="#000000" fill-rule="nonzero" /><path transform="matrix(1 0 0 -1 0 792)" d="M347.76 441.84L406.32 441.84L406.32 442.32L347.76 442.32z" stroke="none" fill="#000000" fill-rule="nonzero" /><path transform="matrix(1 0 0 -1 0 792)" d="M406.32 441.84L406.8 441.84L406.8 442.32L406.32 442.32z" stroke="none" fill="#000000" fill-rule="nonzero" /><path transform="matrix(1 0 0 -1 0 792)" d="M406.8 441.84L531.84 441.84L531.84 442.32L406.8 442.32z" stroke="none" fill="#000000" fill-rule="nonzero" /><path transform="matrix(1 0 0 -1 0 792)" d="M531.84 441.84L532.32 441.84L532.32 442.32L531.84 442.32z" stroke="none" fill="#000000" fill-rule="nonzero" /><path transform="matrix(1 0 0 -1 0 792)" d="M99.6 426.72L100.08 426.72L100.08 441.84L99.6 441.84z" stroke="none" fill="#000000" fill-rule="nonzero" /><path transform="matrix(1 0 0 -1 0 792)" d="M130.56 426.72L131.04 426.72L131.04 441.84L130.56 441.84z" stroke="none" fill="#000000" fill-rule="nonzero" /><path transform="matrix(1 0 0 -1 0 792)" d="M280.32 426.72L280.8 426.72L280.8 441.84L280.32 441.84z" stroke="none" fill="#000000" fill-rule="nonzero" /><path transform="matrix(1 0 0 -1 0 792)" d="M347.28 426.72L347.76 426.72L347.76 441.84L347.28 441.84z" stroke="none" fill="#000000" fill-rule="nonzero" /><path transform="matrix(1 0 0 -1 0 792)" d="M406.32 426.72L406.8 426.72L406.8 441.84L406.32 441.84z" stroke="none" fill="#000000" fill-rule="nonzero" /><path transform="matrix(1 0 0 -1 0 792)" d="M531.84 426.72L532.32 426.72L532.32 441.84L531.84 441.84z" stroke="none" fill="#000000" fill-rule="nonzero" /><path transform="matrix(1 0 0 -1 0 792)" d="M99.6 426.24L100.08 426.24L100.08 426.72L99.6 426.72z" stroke="none" fill="#000000" fill-rule="nonzero" /><path transform="matrix(1 0 0 -1 0 792)" d="M100.08 426.24L130.56 426.24L130.56 426.72L100.08 426.72z" stroke="none" fill="#000000" fill-rule="nonzero" /><path transform="matrix(1 0 0 -1 0 792)" d="M130.56 426.24L131.04 426.24L131.04 426.72L130.56 426.72z" stroke="none" fill="#000000" fill-rule="nonzero" /><path transform="matrix(1 0 0 -1 0 792)" d="M131.04 426.24L280.32 426.24L280.32 426.72L131.04 426.72z" stroke="none" fill="#000000" fill-rule="nonzero" /><path transform="matrix(1 0 0 -1 0 792)" d="M280.32 426.24L280.8 426.24L280.8 426.72L280.32 426.72z" stroke="none" fill="#000000" fill-rule="nonzero" /><path transform="matrix(1 0 0 -1 0 792)" d="M280.8 426.24L347.28 426.24L347.28 426.72L280.8 426.72z" stroke="none" fill="#000000" fill-rule="nonzero" /><path transform="matrix(1 0 0 -1 0 792)" d="M347.28 426.24L347.76 426.24L347.76 426.72L347.28 426.72z" stroke="none" fill="#000000" fill-rule="nonzero" /><path transform="matrix(1 0 0 -1 0 792)" d="M347.76 426.24L406.32 426.24L406.32 426.72L347.76 426.72z" stroke="none" fill="#000000" fill-rule="nonzero" /><path transform="matrix(1 0 0 -1 0 792)" d="M406.32 426.24L406.8 426.24L406.8 426.72L406.32 426.72z" stroke="none" fill="#000000" fill-rule="nonzero" /><path transform="matrix(1 0 0 -1 0 792)" d="M406.8 426.24L531.84 426.24L531.84 426.72L406.8 426.72z" stroke="none" fill="#000000" fill-rule="nonzero" /><path transform="matrix(1 0 0 -1 0 792)" d="M531.84 426.24L532.32 426.24L532.32 426.72L531.84 426.72z" stroke="none" fill="#000000" fill-rule="nonzero" /><path transform="matrix(1 0 0 -1 0 792)" d="M99.6 411.12L100.08 411.12L100.08 426.24L99.6 426.24z" stroke="none" fill="#000000" fill-rule="nonzero" /><path transform="matrix(1 0 0 -1 0 792)" d="M130.56 411.12L131.04 411.12L131.04 426.24L130.56 426.24z" stroke="none" fill="#000000" fill-rule="nonzero" /><path transform="matrix(1 0 0 -1 0 792)" d="M280.32 411.12L280.8 411.12L280.8 426.24L280.32 426.24z" stroke="none" fill="#000000" fill-rule="nonzero" /><path transform="matrix(1 0 0 -1 0 792)" d="M347.28 411.12L347.76 411.12L347.76 426.24L347.28 426.24z" stroke="none" fill="#000000" fill-rule="nonzero" /><path transform="matrix(1 0 0 -1 0 792)" d="M406.32 411.12L406.8 411.12L406.8 426.24L406.32 426.24z" stroke="none" fill="#000000" fill-rule="nonzero" /><path transform="matrix(1 0 0 -1 0 792)" d="M531.84 411.12L532.32 411.12L532.32 426.24L531.84 426.24z" stroke="none" fill="#000000" fill-rule="nonzero" /><path transform="matrix(1 0 0 -1 0 792)" d="M99.6 410.64L100.08 410.64L100.08 411.12L99.6 411.12z" stroke="none" fill="#000000" fill-rule="nonzero" /><path transform="matrix(1 0 0 -1 0 792)" d="M100.08 410.64L130.56 410.64L130.56 411.12L100.08 411.12z" stroke="none" fill="#000000" fill-rule="nonzero" /><path transform="matrix(1 0 0 -1 0 792)" d="M130.56 410.64L131.04 410.64L131.04 411.12L130.56 411.12z" stroke="none" fill="#000000" fill-rule="nonzero" /><path transform="matrix(1 0 0 -1 0 792)" d="M131.04 410.64L280.32 410.64L280.32 411.12L131.04 411.12z" stroke="none" fill="#000000" fill-rule="nonzero" /><path transform="matrix(1 0 0 -1 0 792)" d="M280.32 410.64L280.8 410.64L280.8 411.12L280.32 411.12z" stroke="none" fill="#000000" fill-rule="nonzero" /><path transform="matrix(1 0 0 -1 0 792)" d="M280.8 410.64L347.28 410.64L347.28 411.12L280.8 411.12z" stroke="none" fill="#000000" fill-rule="nonzero" /><path transform="matrix(1 0 0 -1 0 792)" d="M347.28 410.64L347.76 410.64L347.76 411.12L347.28 411.12z" stroke="none" fill="#000000" fill-rule="nonzero" /><path transform="matrix(1 0 0 -1 0 792)" d="M347.76 410.64L406.32 410.64L406.32 411.12L347.76 411.12z" stroke="none" fill="#000000" fill-rule="nonzero" /><path transform="matrix(1 0 0 -1 0 792)" d="M406.32 410.64L406.8 410.64L406.8 411.12L406.32 411.12z" stroke="none" fill="#000000" fill-rule="nonzero" /><path transform="matrix(1 0 0 -1 0 792)" d="M406.8 410.64L531.84 410.64L531.84 411.12L406.8 411.12z" stroke="none" fill="#000000" fill-rule="nonzero" /><path transform="matrix(1 0 0 -1 0 792)" d="M531.84 410.64L532.32 410.64L532.32 411.12L531.84 411.12z" stroke="none" fill="#000000" fill-rule="nonzero" /><path transform="matrix(1 0 0 -1 0 792)" d="M99.6 395.28L100.08 395.28L100.08 410.64L99.6 410.64z" stroke="none" fill="#000000" fill-rule="nonzero" /><path transform="matrix(1 0 0 -1 0 792)" d="M130.56 395.28L131.04 395.28L131.04 410.64L130.56 410.64z" stroke="none" fill="#000000" fill-rule="nonzero" /><path transform="matrix(1 0 0 -1 0 792)" d="M280.32 395.28L280.8 395.28L280.8 410.64L280.32 410.64z" stroke="none" fill="#000000" fill-rule="nonzero" /><path transform="matrix(1 0 0 -1 0 792)" d="M347.28 395.28L347.76 395.28L347.76 410.64L347.28 410.64z" stroke="none" fill="#000000" fill-rule="nonzero" /><path transform="matrix(1 0 0 -1 0 792)" d="M406.32 395.28L406.8 395.28L406.8 410.64L406.32 410.64z" stroke="none" fill="#000000" fill-rule="nonzero" /><path transform="matrix(1 0 0 -1 0 792)" d="M531.84 395.28L532.32 395.28L532.32 410.64L531.84 410.64z" stroke="none" fill="#000000" fill-rule="nonzero" /><path transform="matrix(1 0 0 -1 0 792)" d="M99.6 395.04L100.08 395.04L100.08 395.28L99.6 395.28z" stroke="none" fill="#000000" fill-rule="nonzero" /><path transform="matrix(1 0 0 -1 0 792)" d="M100.08 395.04L130.56 395.04L130.56 395.28L100.08 395.28z" stroke="none" fill="#000000" fill-rule="nonzero" /><path transform="matrix(1 0 0 -1 0 792)" d="M130.56 395.04L131.04 395.04L131.04 395.28L130.56 395.28z" stroke="none" fill="#000000" fill-rule="nonzero" /><path transform="matrix(1 0 0 -1 0 792)" d="M131.04 395.04L280.32 395.04L280.32 395.28L131.04 395.28z" stroke="none" fill="#000000" fill-rule="nonzero" /><path transform="matrix(1 0 0 -1 0 792)" d="M280.32 395.04L280.8 395.04L280.8 395.28L280.32 395.28z" stroke="none" fill="#000000" fill-rule="nonzero" /><path transform="matrix(1 0 0 -1 0 792)" d="M280.8 395.04L347.28 395.04L347.28 395.28L280.8 395.28z" stroke="none" fill="#000000" fill-rule="nonzero" /><path transform="matrix(1 0 0 -1 0 792)" d="M347.28 395.04L347.76 395.04L347.76 395.28L347.28 395.28z" stroke="none" fill="#000000" fill-rule="nonzero" /><path transform="matrix(1 0 0 -1 0 792)" d="M347.76 395.04L406.32 395.04L406.32 395.28L347.76 395.28z" stroke="none" fill="#000000" fill-rule="nonzero" /><path transform="matrix(1 0 0 -1 0 792)" d="M406.32 395.04L406.8 395.04L406.8 395.28L406.32 395.28z" stroke="none" fill="#000000" fill-rule="nonzero" /><path transform="matrix(1 0 0 -1 0 792)" d="M406.8 395.04L531.84 395.04L531.84 395.28L406.8 395.28z" stroke="none" fill="#000000" fill-rule="nonzero" /><path transform="matrix(1 0 0 -1 0 792)" d="M531.84 395.04L532.32 395.04L532.32 395.28L531.84 395.28z" stroke="none" fill="#000000" fill-rule="nonzero" /><path transform="matrix(1 0 0 -1 0 792)" d="M99.6 379.92L100.08 379.92L100.08 395.04L99.6 395.04z" stroke="none" fill="#000000" fill-rule="nonzero" /><path transform="matrix(1 0 0 -1 0 792)" d="M130.56 379.92L131.04 379.92L131.04 395.04L130.56 395.04z" stroke="none" fill="#000000" fill-rule="nonzero" /><path transform="matrix(1 0 0 -1 0 792)" d="M280.32 379.92L280.8 379.92L280.8 395.04L280.32 395.04z" stroke="none" fill="#000000" fill-rule="nonzero" /><path transform="matrix(1 0 0 -1 0 792)" d="M347.28 379.92L347.76 379.92L347.76 395.04L347.28 395.04z" stroke="none" fill="#000000" fill-rule="nonzero" /><path transform="matrix(1 0 0 -1 0 792)" d="M406.32 379.92L406.8 379.92L406.8 395.04L406.32 395.04z" stroke="none" fill="#000000" fill-rule="nonzero" /><path transform="matrix(1 0 0 -1 0 792)" d="M531.84 379.92L532.32 379.92L532.32 395.04L531.84 395.04z" stroke="none" fill="#000000" fill-rule="nonzero" /><path transform="matrix(1 0 0 -1 0 792)" d="M99.6 379.44L100.08 379.44L100.08 379.92L99.6 379.92z" stroke="none" fill="#000000" fill-rule="nonzero" /><path transform="matrix(1 0 0 -1 0 792)" d="M100.08 379.44L130.56 379.44L130.56 379.92L100.08 379.92z" stroke="none" fill="#000000" fill-rule="nonzero" /><path transform="matrix(1 0 0 -1 0 792)" d="M130.56 379.44L131.04 379.44L131.04 379.92L130.56 379.92z" stroke="none" fill="#000000" fill-rule="nonzero" /><path transform="matrix(1 0 0 -1 0 792)" d="M131.04 379.44L280.32 379.44L280.32 379.92L131.04 379.92z" stroke="none" fill="#000000" fill-rule="nonzero" /><path transform="matrix(1 0 0 -1 0 792)" d="M280.32 379.44L280.8 379.44L280.8 379.92L280.32 379.92z" stroke="none" fill="#000000" fill-rule="nonzero" /><path transform="matrix(1 0 0 -1 0 792)" d="M280.8 379.44L347.28 379.44L347.28 379.92L280.8 379.92z" stroke="none" fill="#000000" fill-rule="nonzero" /><path transform="matrix(1 0 0 -1 0 792)" d="M347.28 379.44L347.76 379.44L347.76 379.92L347.28 379.92z" stroke="none" fill="#000000" fill-rule="nonzero" /><path transform="matrix(1 0 0 -1 0 792)" d="M347.76 379.44L406.32 379.44L406.32 379.92L347.76 379.92z" stroke="none" fill="#000000" fill-rule="nonzero" /><path transform="matrix(1 0 0 -1 0 792)" d="M406.32 379.44L406.8 379.44L406.8 379.92L406.32 379.92z" stroke="none" fill="#000000" fill-rule="nonzero" /><path transform="matrix(1 0 0 -1 0 792)" d="M406.8 379.44L531.84 379.44L531.84 379.92L406.8 379.92z" stroke="none" fill="#000000" fill-rule="nonzero" /><path transform="matrix(1 0 0 -1 0 792)" d="M531.84 379.44L532.32 379.44L532.32 379.92L531.84 379.92z" stroke="none" fill="#000000" fill-rule="nonzero" /><path transform="matrix(1 0 0 -1 0 792)" d="M99.6 364.32L100.08 364.32L100.08 379.44L99.6 379.44z" stroke="none" fill="#000000" fill-rule="nonzero" /><path transform="matrix(1 0 0 -1 0 792)" d="M130.56 364.32L131.04 364.32L131.04 379.44L130.56 379.44z" stroke="none" fill="#000000" fill-rule="nonzero" /><path transform="matrix(1 0 0 -1 0 792)" d="M280.32 364.32L280.8 364.32L280.8 379.44L280.32 379.44z" stroke="none" fill="#000000" fill-rule="nonzero" /><path transform="matrix(1 0 0 -1 0 792)" d="M347.28 364.32L347.76 364.32L347.76 379.44L347.28 379.44z" stroke="none" fill="#000000" fill-rule="nonzero" /><path transform="matrix(1 0 0 -1 0 792)" d="M406.32 364.32L406.8 364.32L406.8 379.44L406.32 379.44z" stroke="none" fill="#000000" fill-rule="nonzero" /><path transform="matrix(1 0 0 -1 0 792)" d="M531.84 364.32L532.32 364.32L532.32 379.44L531.84 379.44z" stroke="none" fill="#000000" fill-rule="nonzero" /><path transform="matrix(1 0 0 -1 0 792)" d="M99.6 363.84L100.08 363.84L100.08 364.32L99.6 364.32z" stroke="none" fill="#000000" fill-rule="nonzero" /><path transform="matrix(1 0 0 -1 0 792)" d="M100.08 363.84L130.56 363.84L130.56 364.32L100.08 364.32z" stroke="none" fill="#000000" fill-rule="nonzero" /><path transform="matrix(1 0 0 -1 0 792)" d="M130.56 363.84L131.04 363.84L131.04 364.32L130.56 364.32z" stroke="none" fill="#000000" fill-rule="nonzero" /><path transform="matrix(1 0 0 -1 0 792)" d="M131.04 363.84L280.32 363.84L280.32 364.32L131.04 364.32z" stroke="none" fill="#000000" fill-rule="nonzero" /><path transform="matrix(1 0 0 -1 0 792)" d="M280.32 363.84L280.8 363.84L280.8 364.32L280.32 364.32z" stroke="none" fill="#000000" fill-rule="nonzero" /><path transform="matrix(1 0 0 -1 0 792)" d="M280.8 363.84L347.28 363.84L347.28 364.32L280.8 364.32z" stroke="none" fill="#000000" fill-rule="nonzero" /><path transform="matrix(1 0 0 -1 0 792)" d="M347.28 363.84L347.76 363.84L347.76 364.32L347.28 364.32z" stroke="none" fill="#000000" fill-rule="nonzero" /><path transform="matrix(1 0 0 -1 0 792)" d="M347.76 363.84L406.32 363.84L406.32 364.32L347.76 364.32z" stroke="none" fill="#000000" fill-rule="nonzero" /><path transform="matrix(1 0 0 -1 0 792)" d="M406.32 363.84L406.8 363.84L406.8 364.32L406.32 364.32z" stroke="none" fill="#000000" fill-rule="nonzero" /><path transform="matrix(1 0 0 -1 0 792)" d="M406.8 363.84L531.84 363.84L531.84 364.32L406.8 364.32z" stroke="none" fill="#000000" fill-rule="nonzero" /><path transform="matrix(1 0 0 -1 0 792)" d="M531.84 363.84L532.32 363.84L532.32 364.32L531.84 364.32z" stroke="none" fill="#000000" fill-rule="nonzero" /><path transform="matrix(1 0 0 -1 0 792)" d="M99.6 348.72L100.08 348.72L100.08 363.84L99.6 363.84z" stroke="none" fill="#000000" fill-rule="nonzero" /><path transform="matrix(1 0 0 -1 0 792)" d="M130.56 348.72L131.04 348.72L131.04 363.84L130.56 363.84z" stroke="none" fill="#000000" fill-rule="nonzero" /><path transform="matrix(1 0 0 -1 0 792)" d="M280.32 348.72L280.8 348.72L280.8 363.84L280.32 363.84z" stroke="none" fill="#000000" fill-rule="nonzero" /><path transform="matrix(1 0 0 -1 0 792)" d="M347.28 348.72L347.76 348.72L347.76 363.84L347.28 363.84z" stroke="none" fill="#000000" fill-rule="nonzero" /><path transform="matrix(1 0 0 -1 0 792)" d="M406.32 348.72L406.8 348.72L406.8 363.84L406.32 363.84z" stroke="none" fill="#000000" fill-rule="nonzero" /><path transform="matrix(1 0 0 -1 0 792)" d="M531.84 348.72L532.32 348.72L532.32 363.84L531.84 363.84z" stroke="none" fill="#000000" fill-rule="nonzero" /><path transform="matrix(1 0 0 -1 0 792)" d="M99.6 348.24L100.08 348.24L100.08 348.72L99.6 348.72z" stroke="none" fill="#000000" fill-rule="nonzero" /><path transform="matrix(1 0 0 -1 0 792)" d="M100.08 348.24L130.56 348.24L130.56 348.72L100.08 348.72z" stroke="none" fill="#000000" fill-rule="nonzero" /><path transform="matrix(1 0 0 -1 0 792)" d="M130.56 348.24L131.04 348.24L131.04 348.72L130.56 348.72z" stroke="none" fill="#000000" fill-rule="nonzero" /><path transform="matrix(1 0 0 -1 0 792)" d="M131.04 348.24L280.32 348.24L280.32 348.72L131.04 348.72z" stroke="none" fill="#000000" fill-rule="nonzero" /><path transform="matrix(1 0 0 -1 0 792)" d="M280.32 348.24L280.8 348.24L280.8 348.72L280.32 348.72z" stroke="none" fill="#000000" fill-rule="nonzero" /><path transform="matrix(1 0 0 -1 0 792)" d="M280.8 348.24L347.28 348.24L347.28 348.72L280.8 348.72z" stroke="none" fill="#000000" fill-rule="nonzero" /><path transform="matrix(1 0 0 -1 0 792)" d="M347.28 348.24L347.76 348.24L347.76 348.72L347.28 348.72z" stroke="none" fill="#000000" fill-rule="nonzero" /><path transform="matrix(1 0 0 -1 0 792)" d="M347.76 348.24L406.32 348.24L406.32 348.72L347.76 348.72z" stroke="none" fill="#000000" fill-rule="nonzero" /><path transform="matrix(1 0 0 -1 0 792)" d="M406.32 348.24L406.8 348.24L406.8 348.72L406.32 348.72z" stroke="none" fill="#000000" fill-rule="nonzero" /><path transform="matrix(1 0 0 -1 0 792)" d="M406.8 348.24L531.84 348.24L531.84 348.72L406.8 348.72z" stroke="none" fill="#000000" fill-rule="nonzero" /><path transform="matrix(1 0 0 -1 0 792)" d="M531.84 348.24L532.32 348.24L532.32 348.72L531.84 348.72z" stroke="none" fill="#000000" fill-rule="nonzero" /><path transform="matrix(1 0 0 -1 0 792)" d="M99.6 318L100.08 318L100.08 348.24L99.6 348.24z" stroke="none" fill="#000000" fill-rule="nonzero" /><path transform="matrix(1 0 0 -1 0 792)" d="M130.56 318L131.04 318L131.04 348.24L130.56 348.24z" stroke="none" fill="#000000" fill-rule="nonzero" /><path transform="matrix(1 0 0 -1 0 792)" d="M280.32 318L280.8 318L280.8 348.24L280.32 348.24z" stroke="none" fill="#000000" fill-rule="nonzero" /><path transform="matrix(1 0 0 -1 0 792)" d="M347.28 318L347.76 318L347.76 348.24L347.28 348.24z" stroke="none" fill="#000000" fill-rule="nonzero" /><path transform="matrix(1 0 0 -1 0 792)" d="M406.32 318L406.8 318L406.8 348.24L406.32 348.24z" stroke="none" fill="#000000" fill-rule="nonzero" /><path transform="matrix(1 0 0 -1 0 792)" d="M531.84 318L532.32 318L532.32 348.24L531.84 348.24z" stroke="none" fill="#000000" fill-rule="nonzero" /><path transform="matrix(1 0 0 -1 0 792)" d="M99.6 317.52L100.08 317.52L100.08 318L99.6 318z" stroke="none" fill="#000000" fill-rule="nonzero" /><path transform="matrix(1 0 0 -1 0 792)" d="M100.08 317.52L130.56 317.52L130.56 318L100.08 318z" stroke="none" fill="#000000" fill-rule="nonzero" /><path transform="matrix(1 0 0 -1 0 792)" d="M130.56 317.52L131.04 317.52L131.04 318L130.56 318z" stroke="none" fill="#000000" fill-rule="nonzero" /><path transform="matrix(1 0 0 -1 0 792)" d="M131.04 317.52L280.32 317.52L280.32 318L131.04 318z" stroke="none" fill="#000000" fill-rule="nonzero" /><path transform="matrix(1 0 0 -1 0 792)" d="M280.32 317.52L280.8 317.52L280.8 318L280.32 318z" stroke="none" fill="#000000" fill-rule="nonzero" /><path transform="matrix(1 0 0 -1 0 792)" d="M280.8 317.52L347.28 317.52L347.28 318L280.8 318z" stroke="none" fill="#000000" fill-rule="nonzero" /><path transform="matrix(1 0 0 -1 0 792)" d="M347.28 317.52L347.76 317.52L347.76 318L347.28 318z" stroke="none" fill="#000000" fill-rule="nonzero" /><path transform="matrix(1 0 0 -1 0 792)" d="M347.76 317.52L406.32 317.52L406.32 318L347.76 318z" stroke="none" fill="#000000" fill-rule="nonzero" /><path transform="matrix(1 0 0 -1 0 792)" d="M406.32 317.52L406.8 317.52L406.8 318L406.32 318z" stroke="none" fill="#000000" fill-rule="nonzero" /><path transform="matrix(1 0 0 -1 0 792)" d="M406.8 317.52L531.84 317.52L531.84 318L406.8 318z" stroke="none" fill="#000000" fill-rule="nonzero" /><path transform="matrix(1 0 0 -1 0 792)" d="M531.84 317.52L532.32 317.52L532.32 318L531.84 318z" stroke="none" fill="#000000" fill-rule="nonzero" /><path transform="matrix(1 0 0 -1 0 792)" d="M99.6 302.4L100.08 302.4L100.08 317.52L99.6 317.52z" stroke="none" fill="#000000" fill-rule="nonzero" /><path transform="matrix(1 0 0 -1 0 792)" d="M130.56 302.4L131.04 302.4L131.04 317.52L130.56 317.52z" stroke="none" fill="#000000" fill-rule="nonzero" /><path transform="matrix(1 0 0 -1 0 792)" d="M280.32 302.4L280.8 302.4L280.8 317.52L280.32 317.52z" stroke="none" fill="#000000" fill-rule="nonzero" /><path transform="matrix(1 0 0 -1 0 792)" d="M347.28 302.4L347.76 302.4L347.76 317.52L347.28 317.52z" stroke="none" fill="#000000" fill-rule="nonzero" /><path transform="matrix(1 0 0 -1 0 792)" d="M406.32 302.4L406.8 302.4L406.8 317.52L406.32 317.52z" stroke="none" fill="#000000" fill-rule="nonzero" /><path transform="matrix(1 0 0 -1 0 792)" d="M531.84 302.4L532.32 302.4L532.32 317.52L531.84 317.52z" stroke="none" fill="#000000" fill-rule="nonzero" /><path transform="matrix(1 0 0 -1 0 792)" d="M99.6 301.92L100.08 301.92L100.08 302.4L99.6 302.4z" stroke="none" fill="#000000" fill-rule="nonzero" /><path transform="matrix(1 0 0 -1 0 792)" d="M100.08 301.92L130.56 301.92L130.56 302.4L100.08 302.4z" stroke="none" fill="#000000" fill-rule="nonzero" /><path transform="matrix(1 0 0 -1 0 792)" d="M130.56 301.92L131.04 301.92L131.04 302.4L130.56 302.4z" stroke="none" fill="#000000" fill-rule="nonzero" /><path transform="matrix(1 0 0 -1 0 792)" d="M131.04 301.92L280.32 301.92L280.32 302.4L131.04 302.4z" stroke="none" fill="#000000" fill-rule="nonzero" /><path transform="matrix(1 0 0 -1 0 792)" d="M280.32 301.92L280.8 301.92L280.8 302.4L280.32 302.4z" stroke="none" fill="#000000" fill-rule="nonzero" /><path transform="matrix(1 0 0 -1 0 792)" d="M280.8 301.92L347.28 301.92L347.28 302.4L280.8 302.4z" stroke="none" fill="#000000" fill-rule="nonzero" /><path transform="matrix(1 0 0 -1 0 792)" d="M347.28 301.92L347.76 301.92L347.76 302.4L347.28 302.4z" stroke="none" fill="#000000" fill-rule="nonzero" /><path transform="matrix(1 0 0 -1 0 792)" d="M347.76 301.92L406.32 301.92L406.32 302.4L347.76 302.4z" stroke="none" fill="#000000" fill-rule="nonzero" /><path transform="matrix(1 0 0 -1 0 792)" d="M406.32 301.92L406.8 301.92L406.8 302.4L406.32 302.4z" stroke="none" fill="#000000" fill-rule="nonzero" /><path transform="matrix(1 0 0 -1 0 792)" d="M406.8 301.92L531.84 301.92L531.84 302.4L406.8 302.4z" stroke="none" fill="#000000" fill-rule="nonzero" /><path transform="matrix(1 0 0 -1 0 792)" d="M531.84 301.92L532.32 301.92L532.32 302.4L531.84 302.4z" stroke="none" fill="#000000" fill-rule="nonzero" /><path transform="matrix(1 0 0 -1 0 792)" d="M99.6 286.56L100.08 286.56L100.08 301.92L99.6 301.92z" stroke="none" fill="#000000" fill-rule="nonzero" /><path transform="matrix(1 0 0 -1 0 792)" d="M130.56 286.56L131.04 286.56L131.04 301.92L130.56 301.92z" stroke="none" fill="#000000" fill-rule="nonzero" /><path transform="matrix(1 0 0 -1 0 792)" d="M280.32 286.56L280.8 286.56L280.8 301.92L280.32 301.92z" stroke="none" fill="#000000" fill-rule="nonzero" /><path transform="matrix(1 0 0 -1 0 792)" d="M347.28 286.56L347.76 286.56L347.76 301.92L347.28 301.92z" stroke="none" fill="#000000" fill-rule="nonzero" /><path transform="matrix(1 0 0 -1 0 792)" d="M406.32 286.56L406.8 286.56L406.8 301.92L406.32 301.92z" stroke="none" fill="#000000" fill-rule="nonzero" /><path transform="matrix(1 0 0 -1 0 792)" d="M531.84 286.56L532.32 286.56L532.32 301.92L531.84 301.92z" stroke="none" fill="#000000" fill-rule="nonzero" /><path transform="matrix(1 0 0 -1 0 792)" d="M99.6 286.32L100.08 286.32L100.08 286.56L99.6 286.56z" stroke="none" fill="#000000" fill-rule="nonzero" /><path transform="matrix(1 0 0 -1 0 792)" d="M100.08 286.32L130.56 286.32L130.56 286.56L100.08 286.56z" stroke="none" fill="#000000" fill-rule="nonzero" /><path transform="matrix(1 0 0 -1 0 792)" d="M130.56 286.32L131.04 286.32L131.04 286.56L130.56 286.56z" stroke="none" fill="#000000" fill-rule="nonzero" /><path transform="matrix(1 0 0 -1 0 792)" d="M131.04 286.32L280.32 286.32L280.32 286.56L131.04 286.56z" stroke="none" fill="#000000" fill-rule="nonzero" /><path transform="matrix(1 0 0 -1 0 792)" d="M280.32 286.32L280.8 286.32L280.8 286.56L280.32 286.56z" stroke="none" fill="#000000" fill-rule="nonzero" /><path transform="matrix(1 0 0 -1 0 792)" d="M280.8 286.32L347.28 286.32L347.28 286.56L280.8 286.56z" stroke="none" fill="#000000" fill-rule="nonzero" /><path transform="matrix(1 0 0 -1 0 792)" d="M347.28 286.32L347.76 286.32L347.76 286.56L347.28 286.56z" stroke="none" fill="#000000" fill-rule="nonzero" /><path transform="matrix(1 0 0 -1 0 792)" d="M347.76 286.32L406.32 286.32L406.32 286.56L347.76 286.56z" stroke="none" fill="#000000" fill-rule="nonzero" /><path transform="matrix(1 0 0 -1 0 792)" d="M406.32 286.32L406.8 286.32L406.8 286.56L406.32 286.56z" stroke="none" fill="#000000" fill-rule="nonzero" /><path transform="matrix(1 0 0 -1 0 792)" d="M406.8 286.32L531.84 286.32L531.84 286.56L406.8 286.56z" stroke="none" fill="#000000" fill-rule="nonzero" /><path transform="matrix(1 0 0 -1 0 792)" d="M531.84 286.32L532.32 286.32L532.32 286.56L531.84 286.56z" stroke="none" fill="#000000" fill-rule="nonzero" /><path transform="matrix(1 0 0 -1 0 792)" d="M99.6 271.2L100.08 271.2L100.08 286.32L99.6 286.32z" stroke="none" fill="#000000" fill-rule="nonzero" /><path transform="matrix(1 0 0 -1 0 792)" d="M130.56 271.2L131.04 271.2L131.04 286.32L130.56 286.32z" stroke="none" fill="#000000" fill-rule="nonzero" /><path transform="matrix(1 0 0 -1 0 792)" d="M280.32 271.2L280.8 271.2L280.8 286.32L280.32 286.32z" stroke="none" fill="#000000" fill-rule="nonzero" /><path transform="matrix(1 0 0 -1 0 792)" d="M347.28 271.2L347.76 271.2L347.76 286.32L347.28 286.32z" stroke="none" fill="#000000" fill-rule="nonzero" /><path transform="matrix(1 0 0 -1 0 792)" d="M406.32 271.2L406.8 271.2L406.8 286.32L406.32 286.32z" stroke="none" fill="#000000" fill-rule="nonzero" /><path transform="matrix(1 0 0 -1 0 792)" d="M531.84 271.2L532.32 271.2L532.32 286.32L531.84 286.32z" stroke="none" fill="#000000" fill-rule="nonzero" /><path transform="matrix(1 0 0 -1 0 792)" d="M99.6 270.72L100.08 270.72L100.08 271.2L99.6 271.2z" stroke="none" fill="#000000" fill-rule="nonzero" /><path transform="matrix(1 0 0 -1 0 792)" d="M100.08 270.72L130.56 270.72L130.56 271.2L100.08 271.2z" stroke="none" fill="#000000" fill-rule="nonzero" /><path transform="matrix(1 0 0 -1 0 792)" d="M130.56 270.72L131.04 270.72L131.04 271.2L130.56 271.2z" stroke="none" fill="#000000" fill-rule="nonzero" /><path transform="matrix(1 0 0 -1 0 792)" d="M131.04 270.72L280.32 270.72L280.32 271.2L131.04 271.2z" stroke="none" fill="#000000" fill-rule="nonzero" /><path transform="matrix(1 0 0 -1 0 792)" d="M280.32 270.72L280.8 270.72L280.8 271.2L280.32 271.2z" stroke="none" fill="#000000" fill-rule="nonzero" /><path transform="matrix(1 0 0 -1 0 792)" d="M280.8 270.72L347.28 270.72L347.28 271.2L280.8 271.2z" stroke="none" fill="#000000" fill-rule="nonzero" /><path transform="matrix(1 0 0 -1 0 792)" d="M347.28 270.72L347.76 270.72L347.76 271.2L347.28 271.2z" stroke="none" fill="#000000" fill-rule="nonzero" /><path transform="matrix(1 0 0 -1 0 792)" d="M347.76 270.72L406.32 270.72L406.32 271.2L347.76 271.2z" stroke="none" fill="#000000" fill-rule="nonzero" /><path transform="matrix(1 0 0 -1 0 792)" d="M406.32 270.72L406.8 270.72L406.8 271.2L406.32 271.2z" stroke="none" fill="#000000" fill-rule="nonzero" /><path transform="matrix(1 0 0 -1 0 792)" d="M406.8 270.72L531.84 270.72L531.84 271.2L406.8 271.2z" stroke="none" fill="#000000" fill-rule="nonzero" /><path transform="matrix(1 0 0 -1 0 792)" d="M531.84 270.72L532.32 270.72L532.32 271.2L531.84 271.2z" stroke="none" fill="#000000" fill-rule="nonzero" /><path transform="matrix(1 0 0 -1 0 792)" d="M99.6 255.6L100.08 255.6L100.08 270.72L99.6 270.72z" stroke="none" fill="#000000" fill-rule="nonzero" /><path transform="matrix(1 0 0 -1 0 792)" d="M130.56 255.6L131.04 255.6L131.04 270.72L130.56 270.72z" stroke="none" fill="#000000" fill-rule="nonzero" /><path transform="matrix(1 0 0 -1 0 792)" d="M280.32 255.6L280.8 255.6L280.8 270.72L280.32 270.72z" stroke="none" fill="#000000" fill-rule="nonzero" /><path transform="matrix(1 0 0 -1 0 792)" d="M347.28 255.6L347.76 255.6L347.76 270.72L347.28 270.72z" stroke="none" fill="#000000" fill-rule="nonzero" /><path transform="matrix(1 0 0 -1 0 792)" d="M406.32 255.6L406.8 255.6L406.8 270.72L406.32 270.72z" stroke="none" fill="#000000" fill-rule="nonzero" /><path transform="matrix(1 0 0 -1 0 792)" d="M531.84 255.6L532.32 255.6L532.32 270.72L531.84 270.72z" stroke="none" fill="#000000" fill-rule="nonzero" /><path transform="matrix(1 0 0 -1 0 792)" d="M99.6 255.12L100.08 255.12L100.08 255.6L99.6 255.6z" stroke="none" fill="#000000" fill-rule="nonzero" /><path transform="matrix(1 0 0 -1 0 792)" d="M100.08 255.12L130.56 255.12L130.56 255.6L100.08 255.6z" stroke="none" fill="#000000" fill-rule="nonzero" /><path transform="matrix(1 0 0 -1 0 792)" d="M130.56 255.12L131.04 255.12L131.04 255.6L130.56 255.6z" stroke="none" fill="#000000" fill-rule="nonzero" /><path transform="matrix(1 0 0 -1 0 792)" d="M131.04 255.12L280.32 255.12L280.32 255.6L131.04 255.6z" stroke="none" fill="#000000" fill-rule="nonzero" /><path transform="matrix(1 0 0 -1 0 792)" d="M280.32 255.12L280.8 255.12L280.8 255.6L280.32 255.6z" stroke="none" fill="#000000" fill-rule="nonzero" /><path transform="matrix(1 0 0 -1 0 792)" d="M280.8 255.12L347.28 255.12L347.28 255.6L280.8 255.6z" stroke="none" fill="#000000" fill-rule="nonzero" /><path transform="matrix(1 0 0 -1 0 792)" d="M347.28 255.12L347.76 255.12L347.76 255.6L347.28 255.6z" stroke="none" fill="#000000" fill-rule="nonzero" /><path transform="matrix(1 0 0 -1 0 792)" d="M347.76 255.12L406.32 255.12L406.32 255.6L347.76 255.6z" stroke="none" fill="#000000" fill-rule="nonzero" /><path transform="matrix(1 0 0 -1 0 792)" d="M406.32 255.12L406.8 255.12L406.8 255.6L406.32 255.6z" stroke="none" fill="#000000" fill-rule="nonzero" /><path transform="matrix(1 0 0 -1 0 792)" d="M406.8 255.12L531.84 255.12L531.84 255.6L406.8 255.6z" stroke="none" fill="#000000" fill-rule="nonzero" /><path transform="matrix(1 0 0 -1 0 792)" d="M531.84 255.12L532.32 255.12L532.32 255.6L531.84 255.6z" stroke="none" fill="#000000" fill-rule="nonzero" /><path transform="matrix(1 0 0 -1 0 792)" d="M99.6 240L100.08 240L100.08 255.12L99.6 255.12z" stroke="none" fill="#000000" fill-rule="nonzero" /><path transform="matrix(1 0 0 -1 0 792)" d="M130.56 240L131.04 240L131.04 255.12L130.56 255.12z" stroke="none" fill="#000000" fill-rule="nonzero" /><path transform="matrix(1 0 0 -1 0 792)" d="M280.32 240L280.8 240L280.8 255.12L280.32 255.12z" stroke="none" fill="#000000" fill-rule="nonzero" /><path transform="matrix(1 0 0 -1 0 792)" d="M347.28 240L347.76 240L347.76 255.12L347.28 255.12z" stroke="none" fill="#000000" fill-rule="nonzero" /><path transform="matrix(1 0 0 -1 0 792)" d="M406.32 240L406.8 240L406.8 255.12L406.32 255.12z" stroke="none" fill="#000000" fill-rule="nonzero" /><path transform="matrix(1 0 0 -1 0 792)" d="M531.84 240L532.32 240L532.32 255.12L531.84 255.12z" stroke="none" fill="#000000" fill-rule="nonzero" /><path transform="matrix(1 0 0 -1 0 792)" d="M99.6 239.52L100.08 239.52L100.08 240L99.6 240z" stroke="none" fill="#000000" fill-rule="nonzero" /><path transform="matrix(1 0 0 -1 0 792)" d="M100.08 239.52L130.56 239.52L130.56 240L100.08 240z" stroke="none" fill="#000000" fill-rule="nonzero" /><path transform="matrix(1 0 0 -1 0 792)" d="M130.56 239.52L131.04 239.52L131.04 240L130.56 240z" stroke="none" fill="#000000" fill-rule="nonzero" /><path transform="matrix(1 0 0 -1 0 792)" d="M131.04 239.52L280.32 239.52L280.32 240L131.04 240z" stroke="none" fill="#000000" fill-rule="nonzero" /><path transform="matrix(1 0 0 -1 0 792)" d="M280.32 239.52L280.8 239.52L280.8 240L280.32 240z" stroke="none" fill="#000000" fill-rule="nonzero" /><path transform="matrix(1 0 0 -1 0 792)" d="M280.8 239.52L347.28 239.52L347.28 240L280.8 240z" stroke="none" fill="#000000" fill-rule="nonzero" /><path transform="matrix(1 0 0 -1 0 792)" d="M347.28 239.52L347.76 239.52L347.76 240L347.28 240z" stroke="none" fill="#000000" fill-rule="nonzero" /><path transform="matrix(1 0 0 -1 0 792)" d="M347.76 239.52L406.32 239.52L406.32 240L347.76 240z" stroke="none" fill="#000000" fill-rule="nonzero" /><path transform="matrix(1 0 0 -1 0 792)" d="M406.32 239.52L406.8 239.52L406.8 240L406.32 240z" stroke="none" fill="#000000" fill-rule="nonzero" /><path transform="matrix(1 0 0 -1 0 792)" d="M406.8 239.52L531.84 239.52L531.84 240L406.8 240z" stroke="none" fill="#000000" fill-rule="nonzero" /><path transform="matrix(1 0 0 -1 0 792)" d="M531.84 239.52L532.32 239.52L532.32 240L531.84 240z" stroke="none" fill="#000000" fill-rule="nonzero" /><path transform="matrix(1 0 0 -1 0 792)" d="M99.6 224.4L100.08 224.4L100.08 239.52L99.6 239.52z" stroke="none" fill="#000000" fill-rule="nonzero" /><path transform="matrix(1 0 0 -1 0 792)" d="M99.6 223.92L100.08 223.92L100.08 224.4L99.6 224.4z" stroke="none" fill="#000000" fill-rule="nonzero" /><path transform="matrix(1 0 0 -1 0 792)" d="M99.6 223.92L100.08 223.92L100.08 224.4L99.6 224.4z" stroke="none" fill="#000000" fill-rule="nonzero" /><path transform="matrix(1 0 0 -1 0 792)" d="M100.08 223.92L130.56 223.92L130.56 224.4L100.08 224.4z" stroke="none" fill="#000000" fill-rule="nonzero" /><path transform="matrix(1 0 0 -1 0 792)" d="M130.56 224.4L131.04 224.4L131.04 239.52L130.56 239.52z" stroke="none" fill="#000000" fill-rule="nonzero" /><path transform="matrix(1 0 0 -1 0 792)" d="M130.56 223.92L131.04 223.92L131.04 224.4L130.56 224.4z" stroke="none" fill="#000000" fill-rule="nonzero" /><path transform="matrix(1 0 0 -1 0 792)" d="M131.04 223.92L280.32 223.92L280.32 224.4L131.04 224.4z" stroke="none" fill="#000000" fill-rule="nonzero" /><path transform="matrix(1 0 0 -1 0 792)" d="M280.32 224.4L280.8 224.4L280.8 239.52L280.32 239.52z" stroke="none" fill="#000000" fill-rule="nonzero" /><path transform="matrix(1 0 0 -1 0 792)" d="M280.32 223.92L280.8 223.92L280.8 224.4L280.32 224.4z" stroke="none" fill="#000000" fill-rule="nonzero" /><path transform="matrix(1 0 0 -1 0 792)" d="M280.8 223.92L347.28 223.92L347.28 224.4L280.8 224.4z" stroke="none" fill="#000000" fill-rule="nonzero" /><path transform="matrix(1 0 0 -1 0 792)" d="M347.28 224.4L347.76 224.4L347.76 239.52L347.28 239.52z" stroke="none" fill="#000000" fill-rule="nonzero" /><path transform="matrix(1 0 0 -1 0 792)" d="M347.28 223.92L347.76 223.92L347.76 224.4L347.28 224.4z" stroke="none" fill="#000000" fill-rule="nonzero" /><path transform="matrix(1 0 0 -1 0 792)" d="M347.76 223.92L406.32 223.92L406.32 224.4L347.76 224.4z" stroke="none" fill="#000000" fill-rule="nonzero" /><path transform="matrix(1 0 0 -1 0 792)" d="M406.32 224.4L406.8 224.4L406.8 239.52L406.32 239.52z" stroke="none" fill="#000000" fill-rule="nonzero" /><path transform="matrix(1 0 0 -1 0 792)" d="M406.32 223.92L406.8 223.92L406.8 224.4L406.32 224.4z" stroke="none" fill="#000000" fill-rule="nonzero" /><path transform="matrix(1 0 0 -1 0 792)" d="M406.8 223.92L531.84 223.92L531.84 224.4L406.8 224.4z" stroke="none" fill="#000000" fill-rule="nonzero" /><path transform="matrix(1 0 0 -1 0 792)" d="M531.84 224.4L532.32 224.4L532.32 239.52L531.84 239.52z" stroke="none" fill="#000000" fill-rule="nonzero" /><path transform="matrix(1 0 0 -1 0 792)" d="M531.84 223.92L532.32 223.92L532.32 224.4L531.84 224.4z" stroke="none" fill="#000000" fill-rule="nonzero" /><path transform="matrix(1 0 0 -1 0 792)" d="M531.84 223.92L532.32 223.92L532.32 224.4L531.84 224.4z" stroke="none" fill="#000000" fill-rule="nonzero" /><g clip-path="url(#7)"></g><g clip-path="url(#8)"></g><g clip-path="url(#9)"></g></g></g></g></svg>