<svg xmlns="http://www.w3.org/2000/svg" xmlns:xlink="http://www.w3.org/1999/xlink" id="body_1" preserveAspectRatio="xMinYMin meet" viewBox="0 0 1056 816"><defs><clipPath id="1"><path clip-rule="evenodd" d="M0 612L0 0L0 0L792 0L792 0L792 612L792 612L0 612z" /></clipPath><clipPath id="2"><path clip-rule="evenodd" d="M725.76 101.52L731.04 101.52L731.04 101.52L731.04 88.79999L731.04 88.79999L725.76 88.79999z" /></clipPath><clipPath id="3"><path clip-rule="evenodd" d="M454.56 218.64L462.24 218.64L462.24 218.64L462.24 207.12L462.24 207.12L454.56 207.12z" /></clipPath><clipPath id="4"><path clip-rule="evenodd" d="M462.24 218.64L467.04 218.64L467.04 218.64L467.04 207.12L467.04 207.12L462.24 207.12z" /></clipPath><clipPath id="5"><path clip-rule="evenodd" d="M467.04 218.64L477.84 218.64L477.84 218.64L477.84 207.12L477.84 207.12L467.04 207.12z" /></clipPath><clipPath id="6"><path clip-rule="evenodd" d="M498.24 218.64L505.92 218.64L505.92 218.64L505.92 207.12L505.92 207.12L498.24 207.12z" /></clipPath><clipPath id="7"><path clip-rule="evenodd" d="M505.92 218.64L510.72 218.64L510.72 218.64L510.72 207.12L510.72 207.12L505.92 207.12z" /></clipPath><clipPath id="8"><path clip-rule="evenodd" d="M510.72 218.64L526.32 218.64L526.32 218.64L526.32 207.12L526.32 207.12L510.72 207.12z" /></clipPath><clipPath id="9"><path clip-rule="evenodd" d="M526.32 218.64L536.16 218.64L536.16 218.64L536.16 207.12L536.16 207.12L526.32 207.12z" /></clipPath><clipPath id="10"><path clip-rule="evenodd" d="M535.92 218.64L538.8 218.64L538.8 218.64L538.8 207.12L538.8 207.12L535.92 207.12z" /></clipPath><clipPath id="11"><path clip-rule="evenodd" d="M54.24 287.52L60.24 287.52L60.24 287.52L60.24 275.04L60.24 275.04L54.24 275.04z" /></clipPath><clipPath id="12"><path clip-rule="evenodd" d="M78 287.52L84 287.52L84 287.52L84 275.04L84 275.04L78 275.04z" /></clipPath><clipPath id="13"><path clip-rule="evenodd" d="M185.52 287.52L191.52 287.52L191.52 287.52L191.52 275.04L191.52 275.04L185.52 275.04z" /></clipPath><clipPath id="14"><path clip-rule="evenodd" d="M231.36 287.52L237.36 287.52L237.36 287.52L237.36 275.04L237.36 275.04L231.36 275.04z" /></clipPath><clipPath id="15"><path clip-rule="evenodd" d="M271.68 287.52L277.68 287.52L277.68 287.52L277.68 275.04L277.68 275.04L271.68 275.04z" /></clipPath><clipPath id="16"><path clip-rule="evenodd" d="M302.88 287.52L308.88 287.52L308.88 287.52L308.88 275.04L308.88 275.04L302.88 275.04z" /></clipPath><clipPath id="17"><path clip-rule="evenodd" d="M361.2 287.52L367.2 287.52L367.2 287.52L367.2 275.04L367.2 275.04L361.2 275.04z" /></clipPath><clipPath id="18"><path clip-rule="evenodd" d="M454.8 287.52L460.8 287.52L460.8 287.52L460.8 275.04L460.8 275.04L454.8 275.04z" /></clipPath><clipPath id="19"><path clip-rule="evenodd" d="M498.48 287.52L504.48 287.52L504.48 287.52L504.48 275.04L504.48 275.04L498.48 275.04z" /></clipPath><clipPath id="20"><path clip-rule="evenodd" d="M551.28 287.52L557.28 287.52L557.28 287.52L557.28 275.04L557.28 275.04L551.28 275.04z" /></clipPath><clipPath id="21"><path clip-rule="evenodd" d="M630.48 287.52L636.48 287.52L636.48 287.52L636.48 275.04L636.48 275.04L630.48 275.04z" /></clipPath><clipPath id="22"><path clip-rule="evenodd" d="M54.24 344.88L60.24 344.88L60.24 344.88L60.24 332.4L60.24 332.4L54.24 332.4z" /></clipPath><clipPath id="23"><path clip-rule="evenodd" d="M78 344.88L84 344.88L84 344.88L84 332.4L84 332.4L78 332.4z" /></clipPath><clipPath id="24"><path clip-rule="evenodd" d="M185.52 344.88L191.52 344.88L191.52 344.88L191.52 332.4L191.52 332.4L185.52 332.4z" /></clipPath><clipPath id="25"><path clip-rule="evenodd" d="M231.36 344.88L237.36 344.88L237.36 344.88L237.36 332.4L237.36 332.4L231.36 332.4z" /></clipPath><clipPath id="26"><path clip-rule="evenodd" d="M271.68 344.88L277.68 344.88L277.68 344.88L277.68 332.4L277.68 332.4L271.68 332.4z" /></clipPath><clipPath id="27"><path clip-rule="evenodd" d="M302.88 344.88L308.88 344.88L308.88 344.88L308.88 332.4L308.88 332.4L302.88 332.4z" /></clipPath><clipPath id="28"><path clip-rule="evenodd" d="M361.2 344.88L367.2 344.88L367.2 344.88L367.2 332.4L367.2 332.4L361.2 332.4z" /></clipPath><clipPath id="29"><path clip-rule="evenodd" d="M454.8 344.88L460.8 344.88L460.8 344.88L460.8 332.4L460.8 332.4L454.8 332.4z" /></clipPath><clipPath id="30"><path clip-rule="evenodd" d="M498.48 344.88L504.48 344.88L504.48 344.88L504.48 332.4L504.48 332.4L498.48 332.4z" /></clipPath><clipPath id="31"><path clip-rule="evenodd" d="M551.28 344.88L557.28 344.88L557.28 344.88L557.28 332.4L557.28 332.4L551.28 332.4z" /></clipPath><clipPath id="32"><path clip-rule="evenodd" d="M630.48 344.88L636.48 344.88L636.48 344.88L636.48 332.4L636.48 332.4L630.48 332.4z" /></clipPath><clipPath id="33"><path clip-rule="evenodd" d="M54.24 383.04L60.24 383.04L60.24 383.04L60.24 370.56L60.24 370.56L54.24 370.56z" /></clipPath><clipPath id="34"><path clip-rule="evenodd" d="M78 383.04L84 383.04L84 383.04L84 370.56L84 370.56L78 370.56z" /></clipPath><clipPath id="35"><path clip-rule="evenodd" d="M185.52 383.04L191.52 383.04L191.52 383.04L191.52 370.56L191.52 370.56L185.52 370.56z" /></clipPath><clipPath id="36"><path clip-rule="evenodd" d="M231.36 383.04L237.36 383.04L237.36 383.04L237.36 370.56L237.36 370.56L231.36 370.56z" /></clipPath><clipPath id="37"><path clip-rule="evenodd" d="M271.68 383.04L277.68 383.04L277.68 383.04L277.68 370.56L277.68 370.56L271.68 370.56z" /></clipPath><clipPath id="38"><path clip-rule="evenodd" d="M302.88 383.04L308.88 383.04L308.88 383.04L308.88 370.56L308.88 370.56L302.88 370.56z" /></clipPath><clipPath id="39"><path clip-rule="evenodd" d="M361.2 383.04L367.2 383.04L367.2 383.04L367.2 370.56L367.2 370.56L361.2 370.56z" /></clipPath><clipPath id="40"><path clip-rule="evenodd" d="M454.8 383.04L460.8 383.04L460.8 383.04L460.8 370.56L460.8 370.56L454.8 370.56z" /></clipPath><clipPath id="41"><path clip-rule="evenodd" d="M498.48 383.04L504.48 383.04L504.48 383.04L504.48 370.56L504.48 370.56L498.48 370.56z" /></clipPath><clipPath id="42"><path clip-rule="evenodd" d="M551.28 383.04L557.28 383.04L557.28 383.04L557.28 370.56L557.28 370.56L551.28 370.56z" /></clipPath><clipPath id="43"><path clip-rule="evenodd" d="M630.48 383.04L636.48 383.04L636.48 383.04L636.48 370.56L636.48 370.56L630.48 370.56z" /></clipPath><clipPath id="44"><path clip-rule="evenodd" d="M54.24 421.2L60.24 421.2L60.24 421.2L60.24 408.72L60.24 408.72L54.24 408.72z" /></clipPath><clipPath id="45"><path clip-rule="evenodd" d="M78 421.2L84 421.2L84 421.2L84 408.72L84 408.72L78 408.72z" /></clipPath><clipPath id="46"><path clip-rule="evenodd" d="M185.52 421.2L191.52 421.2L191.52 421.2L191.52 408.72L191.52 408.72L185.52 408.72z" /></clipPath><clipPath id="47"><path clip-rule="evenodd" d="M231.36 421.2L237.36 421.2L237.36 421.2L237.36 408.72L237.36 408.72L231.36 408.72z" /></clipPath><clipPath id="48"><path clip-rule="evenodd" d="M271.68 421.2L277.68 421.2L277.68 421.2L277.68 408.72L277.68 408.72L271.68 408.72z" /></clipPath><clipPath id="49"><path clip-rule="evenodd" d="M302.88 421.2L308.88 421.2L308.88 421.2L308.88 408.72L308.88 408.72L302.88 408.72z" /></clipPath><clipPath id="50"><path clip-rule="evenodd" d="M361.2 421.2L367.2 421.2L367.2 421.2L367.2 408.72L367.2 408.72L361.2 408.72z" /></clipPath><clipPath id="51"><path clip-rule="evenodd" d="M454.8 421.2L460.8 421.2L460.8 421.2L460.8 408.72L460.8 408.72L454.8 408.72z" /></clipPath><clipPath id="52"><path clip-rule="evenodd" d="M498.48 421.2L504.48 421.2L504.48 421.2L504.48 408.72L504.48 408.72L498.48 408.72z" /></clipPath><clipPath id="53"><path clip-rule="evenodd" d="M551.28 421.2L557.28 421.2L557.28 421.2L557.28 408.72L557.28 408.72L551.28 408.72z" /></clipPath><clipPath id="54"><path clip-rule="evenodd" d="M630.48 421.2L636.48 421.2L636.48 421.2L636.48 408.72L636.48 408.72L630.48 408.72z" /></clipPath></defs><g transform="matrix(1.333333 0 0 1.333333 0 0)"><g><g clip-path="url(#1)"><g clip-path="url(#2)"></g><path transform="matrix(1 0 0 -1 0 612)" d="M48.72 429.12L49.2 429.12L49.2 429.6L48.72 429.6z" stroke="none" fill="#000000" fill-rule="nonzero" /><path transform="matrix(1 0 0 -1 0 612)" d="M48.72 429.12L49.2 429.12L49.2 429.6L48.72 429.6z" stroke="none" fill="#000000" fill-rule="nonzero" /><path transform="matrix(1 0 0 -1 0 612)" d="M49.2 429.12L72.96 429.12L72.96 429.6L49.2 429.6z" stroke="none" fill="#000000" fill-rule="nonzero" /><path transform="matrix(1 0 0 -1 0 612)" d="M72.9599 429.12L73.1999 429.12L73.1999 429.6L72.9599 429.6z" stroke="none" fill="#000000" fill-rule="nonzero" /><path transform="matrix(1 0 0 -1 0 612)" d="M73.2 429.12L180 429.12L180 429.6L73.2 429.6z" stroke="none" fill="#000000" fill-rule="nonzero" /><path transform="matrix(1 0 0 -1 0 612)" d="M180 429.12L180.48 429.12L180.48 429.6L180 429.6z" stroke="none" fill="#000000" fill-rule="nonzero" /><path transform="matrix(1 0 0 -1 0 612)" d="M180.48 429.12L226.32 429.12L226.32 429.6L180.48 429.6z" stroke="none" fill="#000000" fill-rule="nonzero" /><path transform="matrix(1 0 0 -1 0 612)" d="M226.32 429.12L226.8 429.12L226.8 429.6L226.32 429.6z" stroke="none" fill="#000000" fill-rule="nonzero" /><path transform="matrix(1 0 0 -1 0 612)" d="M226.8 429.12L266.16 429.12L266.16 429.6L226.8 429.6z" stroke="none" fill="#000000" fill-rule="nonzero" /><path transform="matrix(1 0 0 -1 0 612)" d="M266.16 429.12L266.64 429.12L266.64 429.6L266.16 429.6z" stroke="none" fill="#000000" fill-rule="nonzero" /><path transform="matrix(1 0 0 -1 0 612)" d="M266.64 429.12L297.84 429.12L297.84 429.6L266.64 429.6z" stroke="none" fill="#000000" fill-rule="nonzero" /><path transform="matrix(1 0 0 -1 0 612)" d="M297.84 429.12L298.32 429.12L298.32 429.6L297.84 429.6z" stroke="none" fill="#000000" fill-rule="nonzero" /><path transform="matrix(1 0 0 -1 0 612)" d="M298.32 429.12L355.68 429.12L355.68 429.6L298.32 429.6z" stroke="none" fill="#000000" fill-rule="nonzero" /><path transform="matrix(1 0 0 -1 0 612)" d="M355.68 429.12L356.16 429.12L356.16 429.6L355.68 429.6z" stroke="none" fill="#000000" fill-rule="nonzero" /><path transform="matrix(1 0 0 -1 0 612)" d="M356.16 429.12L449.28 429.12L449.28 429.6L356.16 429.6z" stroke="none" fill="#000000" fill-rule="nonzero" /><path transform="matrix(1 0 0 -1 0 612)" d="M449.28 429.12L449.76 429.12L449.76 429.6L449.28 429.6z" stroke="none" fill="#000000" fill-rule="nonzero" /><path transform="matrix(1 0 0 -1 0 612)" d="M449.76 429.12L546.24 429.12L546.24 429.6L449.76 429.6z" stroke="none" fill="#000000" fill-rule="nonzero" /><path transform="matrix(1 0 0 -1 0 612)" d="M546.24 429.12L546.72 429.12L546.72 429.6L546.24 429.6z" stroke="none" fill="#000000" fill-rule="nonzero" /><path transform="matrix(1 0 0 -1 0 612)" d="M546.72 429.12L625.2 429.12L625.2 429.6L546.72 429.6z" stroke="none" fill="#000000" fill-rule="nonzero" /><path transform="matrix(1 0 0 -1 0 612)" d="M625.2 429.12L625.68 429.12L625.68 429.6L625.2 429.6z" stroke="none" fill="#000000" fill-rule="nonzero" /><path transform="matrix(1 0 0 -1 0 612)" d="M625.68 429.12L730.8 429.12L730.8 429.6L625.68 429.6z" stroke="none" fill="#000000" fill-rule="nonzero" /><path transform="matrix(1 0 0 -1 0 612)" d="M730.8 429.12L731.28 429.12L731.28 429.6L730.8 429.6z" stroke="none" fill="#000000" fill-rule="nonzero" /><path transform="matrix(1 0 0 -1 0 612)" d="M730.8 429.12L731.28 429.12L731.28 429.6L730.8 429.6z" stroke="none" fill="#000000" fill-rule="nonzero" /><path transform="matrix(1 0 0 -1 0 612)" d="M48.72 405.36L49.2 405.36L49.2 429.12L48.72 429.12z" stroke="none" fill="#000000" fill-rule="nonzero" /><path transform="matrix(1 0 0 -1 0 612)" d="M72.9599 405.36L73.1999 405.36L73.1999 429.12L72.9599 429.12z" stroke="none" fill="#000000" fill-rule="nonzero" /><path transform="matrix(1 0 0 -1 0 612)" d="M180 405.36L180.48 405.36L180.48 429.12L180 429.12z" stroke="none" fill="#000000" fill-rule="nonzero" /><path transform="matrix(1 0 0 -1 0 612)" d="M226.32 405.36L226.8 405.36L226.8 429.12L226.32 429.12z" stroke="none" fill="#000000" fill-rule="nonzero" /><path transform="matrix(1 0 0 -1 0 612)" d="M266.16 405.36L266.64 405.36L266.64 429.12L266.16 429.12z" stroke="none" fill="#000000" fill-rule="nonzero" /><path transform="matrix(1 0 0 -1 0 612)" d="M297.84 405.36L298.32 405.36L298.32 429.12L297.84 429.12z" stroke="none" fill="#000000" fill-rule="nonzero" /><path transform="matrix(1 0 0 -1 0 612)" d="M355.68 405.36L356.16 405.36L356.16 429.12L355.68 429.12z" stroke="none" fill="#000000" fill-rule="nonzero" /><path transform="matrix(1 0 0 -1 0 612)" d="M449.28 405.36L449.76 405.36L449.76 429.12L449.28 429.12z" stroke="none" fill="#000000" fill-rule="nonzero" /><path transform="matrix(1 0 0 -1 0 612)" d="M546.24 405.36L546.72 405.36L546.72 429.12L546.24 429.12z" stroke="none" fill="#000000" fill-rule="nonzero" /><path transform="matrix(1 0 0 -1 0 612)" d="M625.2 405.36L625.68 405.36L625.68 429.12L625.2 429.12z" stroke="none" fill="#000000" fill-rule="nonzero" /><path transform="matrix(1 0 0 -1 0 612)" d="M730.8 405.36L731.28 405.36L731.28 429.12L730.8 429.12z" stroke="none" fill="#000000" fill-rule="nonzero" /><g clip-path="url(#3)"></g><g clip-path="url(#4)"></g><g clip-path="url(#5)"></g><g clip-path="url(#6)"></g><g clip-path="url(#7)"></g><g clip-path="url(#8)"></g><g clip-path="url(#9)"></g><g clip-path="url(#10)"></g><path transform="matrix(1 0 0 -1 0 612)" d="M48.72 404.88L49.2 404.88L49.2 405.36L48.72 405.36z" stroke="none" fill="#000000" fill-rule="nonzero" /><path transform="matrix(1 0 0 -1 0 612)" d="M72.9599 404.88L73.1999 404.88L73.1999 405.36L72.9599 405.36z" stroke="none" fill="#000000" fill-rule="nonzero" /><path transform="matrix(1 0 0 -1 0 612)" d="M180 404.88L180.48 404.88L180.48 405.36L180 405.36z" stroke="none" fill="#000000" fill-rule="nonzero" /><path transform="matrix(1 0 0 -1 0 612)" d="M226.32 404.88L226.8 404.88L226.8 405.36L226.32 405.36z" stroke="none" fill="#000000" fill-rule="nonzero" /><path transform="matrix(1 0 0 -1 0 612)" d="M266.16 404.88L266.64 404.88L266.64 405.36L266.16 405.36z" stroke="none" fill="#000000" fill-rule="nonzero" /><path transform="matrix(1 0 0 -1 0 612)" d="M297.84 404.88L298.32 404.88L298.32 405.36L297.84 405.36z" stroke="none" fill="#000000" fill-rule="nonzero" /><path transform="matrix(1 0 0 -1 0 612)" d="M355.68 404.88L356.16 404.88L356.16 405.36L355.68 405.36z" stroke="none" fill="#000000" fill-rule="nonzero" /><path transform="matrix(1 0 0 -1 0 612)" d="M449.28 404.88L449.76 404.88L449.76 405.36L449.28 405.36z" stroke="none" fill="#000000" fill-rule="nonzero" /><path transform="matrix(1 0 0 -1 0 612)" d="M449.76 404.88L493.44 404.88L493.44 405.36L449.76 405.36z" stroke="none" fill="#000000" fill-rule="nonzero" /><path transform="matrix(1 0 0 -1 0 612)" d="M493.44 404.88L493.92 404.88L493.92 405.36L493.44 405.36z" stroke="none" fill="#000000" fill-rule="nonzero" /><path transform="matrix(1 0 0 -1 0 612)" d="M493.92 404.88L546.24 404.88L546.24 405.36L493.92 405.36z" stroke="none" fill="#000000" fill-rule="nonzero" /><path transform="matrix(1 0 0 -1 0 612)" d="M546.24 404.88L546.72 404.88L546.72 405.36L546.24 405.36z" stroke="none" fill="#000000" fill-rule="nonzero" /><path transform="matrix(1 0 0 -1 0 612)" d="M625.2 404.88L625.68 404.88L625.68 405.36L625.2 405.36z" stroke="none" fill="#000000" fill-rule="nonzero" /><path transform="matrix(1 0 0 -1 0 612)" d="M730.8 404.88L731.28 404.88L731.28 405.36L730.8 405.36z" stroke="none" fill="#000000" fill-rule="nonzero" /><path transform="matrix(1 0 0 -1 0 612)" d="M48.72 375.84L49.2 375.84L49.2 404.88L48.72 404.88z" stroke="none" fill="#000000" fill-rule="nonzero" /><path transform="matrix(1 0 0 -1 0 612)" d="M72.9599 375.84L73.1999 375.84L73.1999 404.88L72.9599 404.88z" stroke="none" fill="#000000" fill-rule="nonzero" /><path transform="matrix(1 0 0 -1 0 612)" d="M180 375.84L180.48 375.84L180.48 404.88L180 404.88z" stroke="none" fill="#000000" fill-rule="nonzero" /><path transform="matrix(1 0 0 -1 0 612)" d="M226.32 375.84L226.8 375.84L226.8 404.88L226.32 404.88z" stroke="none" fill="#000000" fill-rule="nonzero" /><path transform="matrix(1 0 0 -1 0 612)" d="M266.16 375.84L266.64 375.84L266.64 404.88L266.16 404.88z" stroke="none" fill="#000000" fill-rule="nonzero" /><path transform="matrix(1 0 0 -1 0 612)" d="M297.84 375.84L298.32 375.84L298.32 404.88L297.84 404.88z" stroke="none" fill="#000000" fill-rule="nonzero" /><path transform="matrix(1 0 0 -1 0 612)" d="M355.68 375.84L356.16 375.84L356.16 404.88L355.68 404.88z" stroke="none" fill="#000000" fill-rule="nonzero" /><path transform="matrix(1 0 0 -1 0 612)" d="M449.28 375.84L449.76 375.84L449.76 404.88L449.28 404.88z" stroke="none" fill="#000000" fill-rule="nonzero" /><path transform="matrix(1 0 0 -1 0 612)" d="M493.44 375.84L493.92 375.84L493.92 404.88L493.44 404.88z" stroke="none" fill="#000000" fill-rule="nonzero" /><path transform="matrix(1 0 0 -1 0 612)" d="M546.24 375.84L546.72 375.84L546.72 404.88L546.24 404.88z" stroke="none" fill="#000000" fill-rule="nonzero" /><path transform="matrix(1 0 0 -1 0 612)" d="M625.2 375.84L625.68 375.84L625.68 404.88L625.2 404.88z" stroke="none" fill="#000000" fill-rule="nonzero" /><path transform="matrix(1 0 0 -1 0 612)" d="M730.8 375.84L731.28 375.84L731.28 404.88L730.8 404.88z" stroke="none" fill="#000000" fill-rule="nonzero" /><path transform="matrix(1 0 0 -1 0 612)" d="M48.72 375.36L49.2 375.36L49.2 375.84L48.72 375.84z" stroke="none" fill="#000000" fill-rule="nonzero" /><path transform="matrix(1 0 0 -1 0 612)" d="M49.2 375.36L72.96 375.36L72.96 375.84L49.2 375.84z" stroke="none" fill="#000000" fill-rule="nonzero" /><path transform="matrix(1 0 0 -1 0 612)" d="M72.9599 375.36L73.1999 375.36L73.1999 375.84L72.9599 375.84z" stroke="none" fill="#000000" fill-rule="nonzero" /><path transform="matrix(1 0 0 -1 0 612)" d="M73.2 375.36L180 375.36L180 375.84L73.2 375.84z" stroke="none" fill="#000000" fill-rule="nonzero" /><path transform="matrix(1 0 0 -1 0 612)" d="M180 375.36L180.48 375.36L180.48 375.84L180 375.84z" stroke="none" fill="#000000" fill-rule="nonzero" /><path transform="matrix(1 0 0 -1 0 612)" d="M180.48 375.36L226.32 375.36L226.32 375.84L180.48 375.84z" stroke="none" fill="#000000" fill-rule="nonzero" /><path transform="matrix(1 0 0 -1 0 612)" d="M226.32 375.36L226.8 375.36L226.8 375.84L226.32 375.84z" stroke="none" fill="#000000" fill-rule="nonzero" /><path transform="matrix(1 0 0 -1 0 612)" d="M226.8 375.36L266.16 375.36L266.16 375.84L226.8 375.84z" stroke="none" fill="#000000" fill-rule="nonzero" /><path transform="matrix(1 0 0 -1 0 612)" d="M266.16 375.36L266.64 375.36L266.64 375.84L266.16 375.84z" stroke="none" fill="#000000" fill-rule="nonzero" /><path transform="matrix(1 0 0 -1 0 612)" d="M266.64 375.36L297.84 375.36L297.84 375.84L266.64 375.84z" stroke="none" fill="#000000" fill-rule="nonzero" /><path transform="matrix(1 0 0 -1 0 612)" d="M297.84 375.36L298.32 375.36L298.32 375.84L297.84 375.84z" stroke="none" fill="#000000" fill-rule="nonzero" /><path transform="matrix(1 0 0 -1 0 612)" d="M298.32 375.36L355.68 375.36L355.68 375.84L298.32 375.84z" stroke="none" fill="#000000" fill-rule="nonzero" /><path transform="matrix(1 0 0 -1 0 612)" d="M355.68 375.36L356.16 375.36L356.16 375.84L355.68 375.84z" stroke="none" fill="#000000" fill-rule="nonzero" /><path transform="matrix(1 0 0 -1 0 612)" d="M356.16 375.36L449.28 375.36L449.28 375.84L356.16 375.84z" stroke="none" fill="#000000" fill-rule="nonzero" /><path transform="matrix(1 0 0 -1 0 612)" d="M449.28 375.36L449.76 375.36L449.76 375.84L449.28 375.84z" stroke="none" fill="#000000" fill-rule="nonzero" /><path transform="matrix(1 0 0 -1 0 612)" d="M449.76 375.36L493.44 375.36L493.44 375.84L449.76 375.84z" stroke="none" fill="#000000" fill-rule="nonzero" /><path transform="matrix(1 0 0 -1 0 612)" d="M493.44 375.36L493.92 375.36L493.92 375.84L493.44 375.84z" stroke="none" fill="#000000" fill-rule="nonzero" /><path transform="matrix(1 0 0 -1 0 612)" d="M493.92 375.36L546.24 375.36L546.24 375.84L493.92 375.84z" stroke="none" fill="#000000" fill-rule="nonzero" /><path transform="matrix(1 0 0 -1 0 612)" d="M546.24 375.36L546.72 375.36L546.72 375.84L546.24 375.84z" stroke="none" fill="#000000" fill-rule="nonzero" /><path transform="matrix(1 0 0 -1 0 612)" d="M546.72 375.36L625.2 375.36L625.2 375.84L546.72 375.84z" stroke="none" fill="#000000" fill-rule="nonzero" /><path transform="matrix(1 0 0 -1 0 612)" d="M625.2 375.36L625.68 375.36L625.68 375.84L625.2 375.84z" stroke="none" fill="#000000" fill-rule="nonzero" /><path transform="matrix(1 0 0 -1 0 612)" d="M625.68 375.36L730.8 375.36L730.8 375.84L625.68 375.84z" stroke="none" fill="#000000" fill-rule="nonzero" /><path transform="matrix(1 0 0 -1 0 612)" d="M730.8 375.36L731.28 375.36L731.28 375.84L730.8 375.84z" stroke="none" fill="#000000" fill-rule="nonzero" /><path transform="matrix(1 0 0 -1 0 612)" d="M48.72 362.4L49.2 362.4L49.2 375.36L48.72 375.36z" stroke="none" fill="#000000" fill-rule="nonzero" /><path transform="matrix(1 0 0 -1 0 612)" d="M72.9599 362.4L73.1999 362.4L73.1999 375.36L72.9599 375.36z" stroke="none" fill="#000000" fill-rule="nonzero" /><path transform="matrix(1 0 0 -1 0 612)" d="M180 362.4L180.48 362.4L180.48 375.36L180 375.36z" stroke="none" fill="#000000" fill-rule="nonzero" /><path transform="matrix(1 0 0 -1 0 612)" d="M226.32 362.4L226.8 362.4L226.8 375.36L226.32 375.36z" stroke="none" fill="#000000" fill-rule="nonzero" /><path transform="matrix(1 0 0 -1 0 612)" d="M266.16 362.4L266.64 362.4L266.64 375.36L266.16 375.36z" stroke="none" fill="#000000" fill-rule="nonzero" /><path transform="matrix(1 0 0 -1 0 612)" d="M297.84 362.4L298.32 362.4L298.32 375.36L297.84 375.36z" stroke="none" fill="#000000" fill-rule="nonzero" /><path transform="matrix(1 0 0 -1 0 612)" d="M355.68 362.4L356.16 362.4L356.16 375.36L355.68 375.36z" stroke="none" fill="#000000" fill-rule="nonzero" /><path transform="matrix(1 0 0 -1 0 612)" d="M449.28 362.4L449.76 362.4L449.76 375.36L449.28 375.36z" stroke="none" fill="#000000" fill-rule="nonzero" /><path transform="matrix(1 0 0 -1 0 612)" d="M493.44 362.4L493.92 362.4L493.92 375.36L493.44 375.36z" stroke="none" fill="#000000" fill-rule="nonzero" /><path transform="matrix(1 0 0 -1 0 612)" d="M546.24 362.4L546.72 362.4L546.72 375.36L546.24 375.36z" stroke="none" fill="#000000" fill-rule="nonzero" /><path transform="matrix(1 0 0 -1 0 612)" d="M625.2 362.4L625.68 362.4L625.68 375.36L625.2 375.36z" stroke="none" fill="#000000" fill-rule="nonzero" /><path transform="matrix(1 0 0 -1 0 612)" d="M730.8 362.4L731.28 362.4L731.28 375.36L730.8 375.36z" stroke="none" fill="#000000" fill-rule="nonzero" /><path transform="matrix(1 0 0 -1 0 612)" d="M48.72 362.16L49.2 362.16L49.2 362.4L48.72 362.4z" stroke="none" fill="#000000" fill-rule="nonzero" /><path transform="matrix(1 0 0 -1 0 612)" d="M49.2 362.16L72.96 362.16L72.96 362.4L49.2 362.4z" stroke="none" fill="#000000" fill-rule="nonzero" /><path transform="matrix(1 0 0 -1 0 612)" d="M72.9599 362.16L73.1999 362.16L73.1999 362.4L72.9599 362.4z" stroke="none" fill="#000000" fill-rule="nonzero" /><path transform="matrix(1 0 0 -1 0 612)" d="M73.2 362.16L180 362.16L180 362.4L73.2 362.4z" stroke="none" fill="#000000" fill-rule="nonzero" /><path transform="matrix(1 0 0 -1 0 612)" d="M180 362.16L180.48 362.16L180.48 362.4L180 362.4z" stroke="none" fill="#000000" fill-rule="nonzero" /><path transform="matrix(1 0 0 -1 0 612)" d="M180.48 362.16L226.32 362.16L226.32 362.4L180.48 362.4z" stroke="none" fill="#000000" fill-rule="nonzero" /><path transform="matrix(1 0 0 -1 0 612)" d="M226.32 362.16L226.8 362.16L226.8 362.4L226.32 362.4z" stroke="none" fill="#000000" fill-rule="nonzero" /><path transform="matrix(1 0 0 -1 0 612)" d="M226.8 362.16L266.16 362.16L266.16 362.4L226.8 362.4z" stroke="none" fill="#000000" fill-rule="nonzero" /><path transform="matrix(1 0 0 -1 0 612)" d="M266.16 362.16L266.64 362.16L266.64 362.4L266.16 362.4z" stroke="none" fill="#000000" fill-rule="nonzero" /><path transform="matrix(1 0 0 -1 0 612)" d="M266.64 362.16L297.84 362.16L297.84 362.4L266.64 362.4z" stroke="none" fill="#000000" fill-rule="nonzero" /><path transform="matrix(1 0 0 -1 0 612)" d="M297.84 362.16L298.32 362.16L298.32 362.4L297.84 362.4z" stroke="none" fill="#000000" fill-rule="nonzero" /><path transform="matrix(1 0 0 -1 0 612)" d="M298.32 362.16L355.68 362.16L355.68 362.4L298.32 362.4z" stroke="none" fill="#000000" fill-rule="nonzero" /><path transform="matrix(1 0 0 -1 0 612)" d="M355.68 362.16L356.16 362.16L356.16 362.4L355.68 362.4z" stroke="none" fill="#000000" fill-rule="nonzero" /><path transform="matrix(1 0 0 -1 0 612)" d="M356.16 362.16L449.28 362.16L449.28 362.4L356.16 362.4z" stroke="none" fill="#000000" fill-rule="nonzero" /><path transform="matrix(1 0 0 -1 0 612)" d="M449.28 362.16L449.76 362.16L449.76 362.4L449.28 362.4z" stroke="none" fill="#000000" fill-rule="nonzero" /><path transform="matrix(1 0 0 -1 0 612)" d="M449.76 362.16L493.44 362.16L493.44 362.4L449.76 362.4z" stroke="none" fill="#000000" fill-rule="nonzero" /><path transform="matrix(1 0 0 -1 0 612)" d="M493.44 362.16L493.92 362.16L493.92 362.4L493.44 362.4z" stroke="none" fill="#000000" fill-rule="nonzero" /><path transform="matrix(1 0 0 -1 0 612)" d="M493.92 362.16L546.24 362.16L546.24 362.4L493.92 362.4z" stroke="none" fill="#000000" fill-rule="nonzero" /><path transform="matrix(1 0 0 -1 0 612)" d="M546.24 362.16L546.72 362.16L546.72 362.4L546.24 362.4z" stroke="none" fill="#000000" fill-rule="nonzero" /><path transform="matrix(1 0 0 -1 0 612)" d="M546.72 362.16L625.2 362.16L625.2 362.4L546.72 362.4z" stroke="none" fill="#000000" fill-rule="nonzero" /><path transform="matrix(1 0 0 -1 0 612)" d="M625.2 362.16L625.68 362.16L625.68 362.4L625.2 362.4z" stroke="none" fill="#000000" fill-rule="nonzero" /><path transform="matrix(1 0 0 -1 0 612)" d="M625.68 362.16L730.8 362.16L730.8 362.4L625.68 362.4z" stroke="none" fill="#000000" fill-rule="nonzero" /><path transform="matrix(1 0 0 -1 0 612)" d="M730.8 362.16L731.28 362.16L731.28 362.4L730.8 362.4z" stroke="none" fill="#000000" fill-rule="nonzero" /><path transform="matrix(1 0 0 -1 0 612)" d="M48.72 343.44L49.2 343.44L49.2 362.16L48.72 362.16z" stroke="none" fill="#000000" fill-rule="nonzero" /><path transform="matrix(1 0 0 -1 0 612)" d="M72.9599 343.44L73.1999 343.44L73.1999 362.16L72.9599 362.16z" stroke="none" fill="#000000" fill-rule="nonzero" /><path transform="matrix(1 0 0 -1 0 612)" d="M180 343.44L180.48 343.44L180.48 362.16L180 362.16z" stroke="none" fill="#000000" fill-rule="nonzero" /><path transform="matrix(1 0 0 -1 0 612)" d="M226.32 343.44L226.8 343.44L226.8 362.16L226.32 362.16z" stroke="none" fill="#000000" fill-rule="nonzero" /><path transform="matrix(1 0 0 -1 0 612)" d="M266.16 343.44L266.64 343.44L266.64 362.16L266.16 362.16z" stroke="none" fill="#000000" fill-rule="nonzero" /><path transform="matrix(1 0 0 -1 0 612)" d="M297.84 343.44L298.32 343.44L298.32 362.16L297.84 362.16z" stroke="none" fill="#000000" fill-rule="nonzero" /><path transform="matrix(1 0 0 -1 0 612)" d="M355.68 343.44L356.16 343.44L356.16 362.16L355.68 362.16z" stroke="none" fill="#000000" fill-rule="nonzero" /><path transform="matrix(1 0 0 -1 0 612)" d="M449.28 343.44L449.76 343.44L449.76 362.16L449.28 362.16z" stroke="none" fill="#000000" fill-rule="nonzero" /><path transform="matrix(1 0 0 -1 0 612)" d="M493.44 343.44L493.92 343.44L493.92 362.16L493.44 362.16z" stroke="none" fill="#000000" fill-rule="nonzero" /><path transform="matrix(1 0 0 -1 0 612)" d="M546.24 343.44L546.72 343.44L546.72 362.16L546.24 362.16z" stroke="none" fill="#000000" fill-rule="nonzero" /><path transform="matrix(1 0 0 -1 0 612)" d="M625.2 343.44L625.68 343.44L625.68 362.16L625.2 362.16z" stroke="none" fill="#000000" fill-rule="nonzero" /><path transform="matrix(1 0 0 -1 0 612)" d="M730.8 343.44L731.28 343.44L731.28 362.16L730.8 362.16z" stroke="none" fill="#000000" fill-rule="nonzero" /><g clip-path="url(#11)"></g><g clip-path="url(#12)"></g><g clip-path="url(#13)"></g><g clip-path="url(#14)"></g><g clip-path="url(#15)"></g><g clip-path="url(#16)"></g><g clip-path="url(#17)"></g><g clip-path="url(#18)"></g><g clip-path="url(#19)"></g><g clip-path="url(#20)"></g><g clip-path="url(#21)"></g><path transform="matrix(1 0 0 -1 0 612)" d="M48.72 342.96L49.2 342.96L49.2 343.44L48.72 343.44z" stroke="none" fill="#000000" fill-rule="nonzero" /><path transform="matrix(1 0 0 -1 0 612)" d="M49.2 342.96L72.96 342.96L72.96 343.44L49.2 343.44z" stroke="none" fill="#000000" fill-rule="nonzero" /><path transform="matrix(1 0 0 -1 0 612)" d="M72.9599 342.96L73.1999 342.96L73.1999 343.44L72.9599 343.44z" stroke="none" fill="#000000" fill-rule="nonzero" /><path transform="matrix(1 0 0 -1 0 612)" d="M73.2 342.96L180 342.96L180 343.44L73.2 343.44z" stroke="none" fill="#000000" fill-rule="nonzero" /><path transform="matrix(1 0 0 -1 0 612)" d="M180 342.96L180.48 342.96L180.48 343.44L180 343.44z" stroke="none" fill="#000000" fill-rule="nonzero" /><path transform="matrix(1 0 0 -1 0 612)" d="M180.48 342.96L226.32 342.96L226.32 343.44L180.48 343.44z" stroke="none" fill="#000000" fill-rule="nonzero" /><path transform="matrix(1 0 0 -1 0 612)" d="M226.32 342.96L226.8 342.96L226.8 343.44L226.32 343.44z" stroke="none" fill="#000000" fill-rule="nonzero" /><path transform="matrix(1 0 0 -1 0 612)" d="M226.8 342.96L266.16 342.96L266.16 343.44L226.8 343.44z" stroke="none" fill="#000000" fill-rule="nonzero" /><path transform="matrix(1 0 0 -1 0 612)" d="M266.16 342.96L266.64 342.96L266.64 343.44L266.16 343.44z" stroke="none" fill="#000000" fill-rule="nonzero" /><path transform="matrix(1 0 0 -1 0 612)" d="M266.64 342.96L297.84 342.96L297.84 343.44L266.64 343.44z" stroke="none" fill="#000000" fill-rule="nonzero" /><path transform="matrix(1 0 0 -1 0 612)" d="M297.84 342.96L298.32 342.96L298.32 343.44L297.84 343.44z" stroke="none" fill="#000000" fill-rule="nonzero" /><path transform="matrix(1 0 0 -1 0 612)" d="M298.32 342.96L355.68 342.96L355.68 343.44L298.32 343.44z" stroke="none" fill="#000000" fill-rule="nonzero" /><path transform="matrix(1 0 0 -1 0 612)" d="M355.68 342.96L356.16 342.96L356.16 343.44L355.68 343.44z" stroke="none" fill="#000000" fill-rule="nonzero" /><path transform="matrix(1 0 0 -1 0 612)" d="M356.16 342.96L449.28 342.96L449.28 343.44L356.16 343.44z" stroke="none" fill="#000000" fill-rule="nonzero" /><path transform="matrix(1 0 0 -1 0 612)" d="M449.28 342.96L449.76 342.96L449.76 343.44L449.28 343.44z" stroke="none" fill="#000000" fill-rule="nonzero" /><path transform="matrix(1 0 0 -1 0 612)" d="M449.76 342.96L493.44 342.96L493.44 343.44L449.76 343.44z" stroke="none" fill="#000000" fill-rule="nonzero" /><path transform="matrix(1 0 0 -1 0 612)" d="M493.44 342.96L493.92 342.96L493.92 343.44L493.44 343.44z" stroke="none" fill="#000000" fill-rule="nonzero" /><path transform="matrix(1 0 0 -1 0 612)" d="M493.92 342.96L546.24 342.96L546.24 343.44L493.92 343.44z" stroke="none" fill="#000000" fill-rule="nonzero" /><path transform="matrix(1 0 0 -1 0 612)" d="M546.24 342.96L546.72 342.96L546.72 343.44L546.24 343.44z" stroke="none" fill="#000000" fill-rule="nonzero" /><path transform="matrix(1 0 0 -1 0 612)" d="M546.72 342.96L625.2 342.96L625.2 343.44L546.72 343.44z" stroke="none" fill="#000000" fill-rule="nonzero" /><path transform="matrix(1 0 0 -1 0 612)" d="M625.2 342.96L625.68 342.96L625.68 343.44L625.2 343.44z" stroke="none" fill="#000000" fill-rule="nonzero" /><path transform="matrix(1 0 0 -1 0 612)" d="M625.68 342.96L730.8 342.96L730.8 343.44L625.68 343.44z" stroke="none" fill="#000000" fill-rule="nonzero" /><path transform="matrix(1 0 0 -1 0 612)" d="M730.8 342.96L731.28 342.96L731.28 343.44L730.8 343.44z" stroke="none" fill="#000000" fill-rule="nonzero" /><path transform="matrix(1 0 0 -1 0 612)" d="M48.72 324.48L49.2 324.48L49.2 342.96L48.72 342.96z" stroke="none" fill="#000000" fill-rule="nonzero" /><path transform="matrix(1 0 0 -1 0 612)" d="M72.9599 324.48L73.1999 324.48L73.1999 342.96L72.9599 342.96z" stroke="none" fill="#000000" fill-rule="nonzero" /><path transform="matrix(1 0 0 -1 0 612)" d="M180 324.48L180.48 324.48L180.48 342.96L180 342.96z" stroke="none" fill="#000000" fill-rule="nonzero" /><path transform="matrix(1 0 0 -1 0 612)" d="M226.32 324.48L226.8 324.48L226.8 342.96L226.32 342.96z" stroke="none" fill="#000000" fill-rule="nonzero" /><path transform="matrix(1 0 0 -1 0 612)" d="M266.16 324.48L266.64 324.48L266.64 342.96L266.16 342.96z" stroke="none" fill="#000000" fill-rule="nonzero" /><path transform="matrix(1 0 0 -1 0 612)" d="M297.84 324.48L298.32 324.48L298.32 342.96L297.84 342.96z" stroke="none" fill="#000000" fill-rule="nonzero" /><path transform="matrix(1 0 0 -1 0 612)" d="M355.68 324.48L356.16 324.48L356.16 342.96L355.68 342.96z" stroke="none" fill="#000000" fill-rule="nonzero" /><path transform="matrix(1 0 0 -1 0 612)" d="M449.28 324.48L449.76 324.48L449.76 342.96L449.28 342.96z" stroke="none" fill="#000000" fill-rule="nonzero" /><path transform="matrix(1 0 0 -1 0 612)" d="M493.44 324.48L493.92 324.48L493.92 342.96L493.44 342.96z" stroke="none" fill="#000000" fill-rule="nonzero" /><path transform="matrix(1 0 0 -1 0 612)" d="M546.24 324.48L546.72 324.48L546.72 342.96L546.24 342.96z" stroke="none" fill="#000000" fill-rule="nonzero" /><path transform="matrix(1 0 0 -1 0 612)" d="M625.2 324.48L625.68 324.48L625.68 342.96L625.2 342.96z" stroke="none" fill="#000000" fill-rule="nonzero" /><path transform="matrix(1 0 0 -1 0 612)" d="M730.8 324.48L731.28 324.48L731.28 342.96L730.8 342.96z" stroke="none" fill="#000000" fill-rule="nonzero" /><path transform="matrix(1 0 0 -1 0 612)" d="M48.72 324L49.2 324L49.2 324.48L48.72 324.48z" stroke="none" fill="#000000" fill-rule="nonzero" /><path transform="matrix(1 0 0 -1 0 612)" d="M49.2 324L72.96 324L72.96 324.48L49.2 324.48z" stroke="none" fill="#000000" fill-rule="nonzero" /><path transform="matrix(1 0 0 -1 0 612)" d="M72.9599 324L73.1999 324L73.1999 324.48L72.9599 324.48z" stroke="none" fill="#000000" fill-rule="nonzero" /><path transform="matrix(1 0 0 -1 0 612)" d="M73.2 324L180 324L180 324.48L73.2 324.48z" stroke="none" fill="#000000" fill-rule="nonzero" /><path transform="matrix(1 0 0 -1 0 612)" d="M180 324L180.48 324L180.48 324.48L180 324.48z" stroke="none" fill="#000000" fill-rule="nonzero" /><path transform="matrix(1 0 0 -1 0 612)" d="M180.48 324L226.32 324L226.32 324.48L180.48 324.48z" stroke="none" fill="#000000" fill-rule="nonzero" /><path transform="matrix(1 0 0 -1 0 612)" d="M226.32 324L226.8 324L226.8 324.48L226.32 324.48z" stroke="none" fill="#000000" fill-rule="nonzero" /><path transform="matrix(1 0 0 -1 0 612)" d="M226.8 324L266.16 324L266.16 324.48L226.8 324.48z" stroke="none" fill="#000000" fill-rule="nonzero" /><path transform="matrix(1 0 0 -1 0 612)" d="M266.16 324L266.64 324L266.64 324.48L266.16 324.48z" stroke="none" fill="#000000" fill-rule="nonzero" /><path transform="matrix(1 0 0 -1 0 612)" d="M266.64 324L297.84 324L297.84 324.48L266.64 324.48z" stroke="none" fill="#000000" fill-rule="nonzero" /><path transform="matrix(1 0 0 -1 0 612)" d="M297.84 324L298.32 324L298.32 324.48L297.84 324.48z" stroke="none" fill="#000000" fill-rule="nonzero" /><path transform="matrix(1 0 0 -1 0 612)" d="M298.32 324L355.68 324L355.68 324.48L298.32 324.48z" stroke="none" fill="#000000" fill-rule="nonzero" /><path transform="matrix(1 0 0 -1 0 612)" d="M355.68 324L356.16 324L356.16 324.48L355.68 324.48z" stroke="none" fill="#000000" fill-rule="nonzero" /><path transform="matrix(1 0 0 -1 0 612)" d="M356.16 324L449.28 324L449.28 324.48L356.16 324.48z" stroke="none" fill="#000000" fill-rule="nonzero" /><path transform="matrix(1 0 0 -1 0 612)" d="M449.28 324L449.76 324L449.76 324.48L449.28 324.48z" stroke="none" fill="#000000" fill-rule="nonzero" /><path transform="matrix(1 0 0 -1 0 612)" d="M449.76 324L493.44 324L493.44 324.48L449.76 324.48z" stroke="none" fill="#000000" fill-rule="nonzero" /><path transform="matrix(1 0 0 -1 0 612)" d="M493.44 324L493.92 324L493.92 324.48L493.44 324.48z" stroke="none" fill="#000000" fill-rule="nonzero" /><path transform="matrix(1 0 0 -1 0 612)" d="M493.92 324L546.24 324L546.24 324.48L493.92 324.48z" stroke="none" fill="#000000" fill-rule="nonzero" /><path transform="matrix(1 0 0 -1 0 612)" d="M546.24 324L546.72 324L546.72 324.48L546.24 324.48z" stroke="none" fill="#000000" fill-rule="nonzero" /><path transform="matrix(1 0 0 -1 0 612)" d="M546.72 324L625.2 324L625.2 324.48L546.72 324.48z" stroke="none" fill="#000000" fill-rule="nonzero" /><path transform="matrix(1 0 0 -1 0 612)" d="M625.2 324L625.68 324L625.68 324.48L625.2 324.48z" stroke="none" fill="#000000" fill-rule="nonzero" /><path transform="matrix(1 0 0 -1 0 612)" d="M625.68 324L730.8 324L730.8 324.48L625.68 324.48z" stroke="none" fill="#000000" fill-rule="nonzero" /><path transform="matrix(1 0 0 -1 0 612)" d="M730.8 324L731.28 324L731.28 324.48L730.8 324.48z" stroke="none" fill="#000000" fill-rule="nonzero" /><path transform="matrix(1 0 0 -1 0 612)" d="M48.72 305.28L49.2 305.28L49.2 324L48.72 324z" stroke="none" fill="#000000" fill-rule="nonzero" /><path transform="matrix(1 0 0 -1 0 612)" d="M72.9599 305.28L73.1999 305.28L73.1999 324L72.9599 324z" stroke="none" fill="#000000" fill-rule="nonzero" /><path transform="matrix(1 0 0 -1 0 612)" d="M180 305.28L180.48 305.28L180.48 324L180 324z" stroke="none" fill="#000000" fill-rule="nonzero" /><path transform="matrix(1 0 0 -1 0 612)" d="M226.32 305.28L226.8 305.28L226.8 324L226.32 324z" stroke="none" fill="#000000" fill-rule="nonzero" /><path transform="matrix(1 0 0 -1 0 612)" d="M266.16 305.28L266.64 305.28L266.64 324L266.16 324z" stroke="none" fill="#000000" fill-rule="nonzero" /><path transform="matrix(1 0 0 -1 0 612)" d="M297.84 305.28L298.32 305.28L298.32 324L297.84 324z" stroke="none" fill="#000000" fill-rule="nonzero" /><path transform="matrix(1 0 0 -1 0 612)" d="M355.68 305.28L356.16 305.28L356.16 324L355.68 324z" stroke="none" fill="#000000" fill-rule="nonzero" /><path transform="matrix(1 0 0 -1 0 612)" d="M449.28 305.28L449.76 305.28L449.76 324L449.28 324z" stroke="none" fill="#000000" fill-rule="nonzero" /><path transform="matrix(1 0 0 -1 0 612)" d="M493.44 305.28L493.92 305.28L493.92 324L493.44 324z" stroke="none" fill="#000000" fill-rule="nonzero" /><path transform="matrix(1 0 0 -1 0 612)" d="M546.24 305.28L546.72 305.28L546.72 324L546.24 324z" stroke="none" fill="#000000" fill-rule="nonzero" /><path transform="matrix(1 0 0 -1 0 612)" d="M625.2 305.28L625.68 305.28L625.68 324L625.2 324z" stroke="none" fill="#000000" fill-rule="nonzero" /><path transform="matrix(1 0 0 -1 0 612)" d="M730.8 305.28L731.28 305.28L731.28 324L730.8 324z" stroke="none" fill="#000000" fill-rule="nonzero" /><path transform="matrix(1 0 0 -1 0 612)" d="M48.72 304.8L49.2 304.8L49.2 305.28L48.72 305.28z" stroke="none" fill="#000000" fill-rule="nonzero" /><path transform="matrix(1 0 0 -1 0 612)" d="M49.2 304.8L72.96 304.8L72.96 305.28L49.2 305.28z" stroke="none" fill="#000000" fill-rule="nonzero" /><path transform="matrix(1 0 0 -1 0 612)" d="M72.9599 304.8L73.1999 304.8L73.1999 305.28L72.9599 305.28z" stroke="none" fill="#000000" fill-rule="nonzero" /><path transform="matrix(1 0 0 -1 0 612)" d="M73.2 304.8L180 304.8L180 305.28L73.2 305.28z" stroke="none" fill="#000000" fill-rule="nonzero" /><path transform="matrix(1 0 0 -1 0 612)" d="M180 304.8L180.48 304.8L180.48 305.28L180 305.28z" stroke="none" fill="#000000" fill-rule="nonzero" /><path transform="matrix(1 0 0 -1 0 612)" d="M180.48 304.8L226.32 304.8L226.32 305.28L180.48 305.28z" stroke="none" fill="#000000" fill-rule="nonzero" /><path transform="matrix(1 0 0 -1 0 612)" d="M226.32 304.8L226.8 304.8L226.8 305.28L226.32 305.28z" stroke="none" fill="#000000" fill-rule="nonzero" /><path transform="matrix(1 0 0 -1 0 612)" d="M226.8 304.8L266.16 304.8L266.16 305.28L226.8 305.28z" stroke="none" fill="#000000" fill-rule="nonzero" /><path transform="matrix(1 0 0 -1 0 612)" d="M266.16 304.8L266.64 304.8L266.64 305.28L266.16 305.28z" stroke="none" fill="#000000" fill-rule="nonzero" /><path transform="matrix(1 0 0 -1 0 612)" d="M266.64 304.8L297.84 304.8L297.84 305.28L266.64 305.28z" stroke="none" fill="#000000" fill-rule="nonzero" /><path transform="matrix(1 0 0 -1 0 612)" d="M297.84 304.8L298.32 304.8L298.32 305.28L297.84 305.28z" stroke="none" fill="#000000" fill-rule="nonzero" /><path transform="matrix(1 0 0 -1 0 612)" d="M298.32 304.8L355.68 304.8L355.68 305.28L298.32 305.28z" stroke="none" fill="#000000" fill-rule="nonzero" /><path transform="matrix(1 0 0 -1 0 612)" d="M355.68 304.8L356.16 304.8L356.16 305.28L355.68 305.28z" stroke="none" fill="#000000" fill-rule="nonzero" /><path transform="matrix(1 0 0 -1 0 612)" d="M356.16 304.8L449.28 304.8L449.28 305.28L356.16 305.28z" stroke="none" fill="#000000" fill-rule="nonzero" /><path transform="matrix(1 0 0 -1 0 612)" d="M449.28 304.8L449.76 304.8L449.76 305.28L449.28 305.28z" stroke="none" fill="#000000" fill-rule="nonzero" /><path transform="matrix(1 0 0 -1 0 612)" d="M449.76 304.8L493.44 304.8L493.44 305.28L449.76 305.28z" stroke="none" fill="#000000" fill-rule="nonzero" /><path transform="matrix(1 0 0 -1 0 612)" d="M493.44 304.8L493.92 304.8L493.92 305.28L493.44 305.28z" stroke="none" fill="#000000" fill-rule="nonzero" /><path transform="matrix(1 0 0 -1 0 612)" d="M493.92 304.8L546.24 304.8L546.24 305.28L493.92 305.28z" stroke="none" fill="#000000" fill-rule="nonzero" /><path transform="matrix(1 0 0 -1 0 612)" d="M546.24 304.8L546.72 304.8L546.72 305.28L546.24 305.28z" stroke="none" fill="#000000" fill-rule="nonzero" /><path transform="matrix(1 0 0 -1 0 612)" d="M546.72 304.8L625.2 304.8L625.2 305.28L546.72 305.28z" stroke="none" fill="#000000" fill-rule="nonzero" /><path transform="matrix(1 0 0 -1 0 612)" d="M625.2 304.8L625.68 304.8L625.68 305.28L625.2 305.28z" stroke="none" fill="#000000" fill-rule="nonzero" /><path transform="matrix(1 0 0 -1 0 612)" d="M625.68 304.8L730.8 304.8L730.8 305.28L625.68 305.28z" stroke="none" fill="#000000" fill-rule="nonzero" /><path transform="matrix(1 0 0 -1 0 612)" d="M730.8 304.8L731.28 304.8L731.28 305.28L730.8 305.28z" stroke="none" fill="#000000" fill-rule="nonzero" /><path transform="matrix(1 0 0 -1 0 612)" d="M48.72 286.08L49.2 286.08L49.2 304.8L48.72 304.8z" stroke="none" fill="#000000" fill-rule="nonzero" /><path transform="matrix(1 0 0 -1 0 612)" d="M72.9599 286.08L73.1999 286.08L73.1999 304.8L72.9599 304.8z" stroke="none" fill="#000000" fill-rule="nonzero" /><path transform="matrix(1 0 0 -1 0 612)" d="M180 286.08L180.48 286.08L180.48 304.8L180 304.8z" stroke="none" fill="#000000" fill-rule="nonzero" /><path transform="matrix(1 0 0 -1 0 612)" d="M226.32 286.08L226.8 286.08L226.8 304.8L226.32 304.8z" stroke="none" fill="#000000" fill-rule="nonzero" /><path transform="matrix(1 0 0 -1 0 612)" d="M266.16 286.08L266.64 286.08L266.64 304.8L266.16 304.8z" stroke="none" fill="#000000" fill-rule="nonzero" /><path transform="matrix(1 0 0 -1 0 612)" d="M297.84 286.08L298.32 286.08L298.32 304.8L297.84 304.8z" stroke="none" fill="#000000" fill-rule="nonzero" /><path transform="matrix(1 0 0 -1 0 612)" d="M355.68 286.08L356.16 286.08L356.16 304.8L355.68 304.8z" stroke="none" fill="#000000" fill-rule="nonzero" /><path transform="matrix(1 0 0 -1 0 612)" d="M449.28 286.08L449.76 286.08L449.76 304.8L449.28 304.8z" stroke="none" fill="#000000" fill-rule="nonzero" /><path transform="matrix(1 0 0 -1 0 612)" d="M493.44 286.08L493.92 286.08L493.92 304.8L493.44 304.8z" stroke="none" fill="#000000" fill-rule="nonzero" /><path transform="matrix(1 0 0 -1 0 612)" d="M546.24 286.08L546.72 286.08L546.72 304.8L546.24 304.8z" stroke="none" fill="#000000" fill-rule="nonzero" /><path transform="matrix(1 0 0 -1 0 612)" d="M625.2 286.08L625.68 286.08L625.68 304.8L625.2 304.8z" stroke="none" fill="#000000" fill-rule="nonzero" /><path transform="matrix(1 0 0 -1 0 612)" d="M730.8 286.08L731.28 286.08L731.28 304.8L730.8 304.8z" stroke="none" fill="#000000" fill-rule="nonzero" /><g clip-path="url(#22)"></g><g clip-path="url(#23)"></g><g clip-path="url(#24)"></g><g clip-path="url(#25)"></g><g clip-path="url(#26)"></g><g clip-path="url(#27)"></g><g clip-path="url(#28)"></g><g clip-path="url(#29)"></g><g clip-path="url(#30)"></g><g clip-path="url(#31)"></g><g clip-path="url(#32)"></g><path transform="matrix(1 0 0 -1 0 612)" d="M48.72 285.6L49.2 285.6L49.2 286.08L48.72 286.08z" stroke="none" fill="#000000" fill-rule="nonzero" /><path transform="matrix(1 0 0 -1 0 612)" d="M49.2 285.6L72.96 285.6L72.96 286.08L49.2 286.08z" stroke="none" fill="#000000" fill-rule="nonzero" /><path transform="matrix(1 0 0 -1 0 612)" d="M72.9599 285.6L73.1999 285.6L73.1999 286.08L72.9599 286.08z" stroke="none" fill="#000000" fill-rule="nonzero" /><path transform="matrix(1 0 0 -1 0 612)" d="M73.2 285.6L180 285.6L180 286.08L73.2 286.08z" stroke="none" fill="#000000" fill-rule="nonzero" /><path transform="matrix(1 0 0 -1 0 612)" d="M180 285.6L180.48 285.6L180.48 286.08L180 286.08z" stroke="none" fill="#000000" fill-rule="nonzero" /><path transform="matrix(1 0 0 -1 0 612)" d="M180.48 285.6L226.32 285.6L226.32 286.08L180.48 286.08z" stroke="none" fill="#000000" fill-rule="nonzero" /><path transform="matrix(1 0 0 -1 0 612)" d="M226.32 285.6L226.8 285.6L226.8 286.08L226.32 286.08z" stroke="none" fill="#000000" fill-rule="nonzero" /><path transform="matrix(1 0 0 -1 0 612)" d="M226.8 285.6L266.16 285.6L266.16 286.08L226.8 286.08z" stroke="none" fill="#000000" fill-rule="nonzero" /><path transform="matrix(1 0 0 -1 0 612)" d="M266.16 285.6L266.64 285.6L266.64 286.08L266.16 286.08z" stroke="none" fill="#000000" fill-rule="nonzero" /><path transform="matrix(1 0 0 -1 0 612)" d="M266.64 285.6L297.84 285.6L297.84 286.08L266.64 286.08z" stroke="none" fill="#000000" fill-rule="nonzero" /><path transform="matrix(1 0 0 -1 0 612)" d="M297.84 285.6L298.32 285.6L298.32 286.08L297.84 286.08z" stroke="none" fill="#000000" fill-rule="nonzero" /><path transform="matrix(1 0 0 -1 0 612)" d="M298.32 285.6L355.68 285.6L355.68 286.08L298.32 286.08z" stroke="none" fill="#000000" fill-rule="nonzero" /><path transform="matrix(1 0 0 -1 0 612)" d="M355.68 285.6L356.16 285.6L356.16 286.08L355.68 286.08z" stroke="none" fill="#000000" fill-rule="nonzero" /><path transform="matrix(1 0 0 -1 0 612)" d="M356.16 285.6L449.28 285.6L449.28 286.08L356.16 286.08z" stroke="none" fill="#000000" fill-rule="nonzero" /><path transform="matrix(1 0 0 -1 0 612)" d="M449.28 285.6L449.76 285.6L449.76 286.08L449.28 286.08z" stroke="none" fill="#000000" fill-rule="nonzero" /><path transform="matrix(1 0 0 -1 0 612)" d="M449.76 285.6L493.44 285.6L493.44 286.08L449.76 286.08z" stroke="none" fill="#000000" fill-rule="nonzero" /><path transform="matrix(1 0 0 -1 0 612)" d="M493.44 285.6L493.92 285.6L493.92 286.08L493.44 286.08z" stroke="none" fill="#000000" fill-rule="nonzero" /><path transform="matrix(1 0 0 -1 0 612)" d="M493.92 285.6L546.24 285.6L546.24 286.08L493.92 286.08z" stroke="none" fill="#000000" fill-rule="nonzero" /><path transform="matrix(1 0 0 -1 0 612)" d="M546.24 285.6L546.72 285.6L546.72 286.08L546.24 286.08z" stroke="none" fill="#000000" fill-rule="nonzero" /><path transform="matrix(1 0 0 -1 0 612)" d="M546.72 285.6L625.2 285.6L625.2 286.08L546.72 286.08z" stroke="none" fill="#000000" fill-rule="nonzero" /><path transform="matrix(1 0 0 -1 0 612)" d="M625.2 285.6L625.68 285.6L625.68 286.08L625.2 286.08z" stroke="none" fill="#000000" fill-rule="nonzero" /><path transform="matrix(1 0 0 -1 0 612)" d="M625.68 285.6L730.8 285.6L730.8 286.08L625.68 286.08z" stroke="none" fill="#000000" fill-rule="nonzero" /><path transform="matrix(1 0 0 -1 0 612)" d="M730.8 285.6L731.28 285.6L731.28 286.08L730.8 286.08z" stroke="none" fill="#000000" fill-rule="nonzero" /><path transform="matrix(1 0 0 -1 0 612)" d="M48.72 267.12L49.2 267.12L49.2 285.6L48.72 285.6z" stroke="none" fill="#000000" fill-rule="nonzero" /><path transform="matrix(1 0 0 -1 0 612)" d="M72.9599 267.12L73.1999 267.12L73.1999 285.6L72.9599 285.6z" stroke="none" fill="#000000" fill-rule="nonzero" /><path transform="matrix(1 0 0 -1 0 612)" d="M180 267.12L180.48 267.12L180.48 285.6L180 285.6z" stroke="none" fill="#000000" fill-rule="nonzero" /><path transform="matrix(1 0 0 -1 0 612)" d="M226.32 267.12L226.8 267.12L226.8 285.6L226.32 285.6z" stroke="none" fill="#000000" fill-rule="nonzero" /><path transform="matrix(1 0 0 -1 0 612)" d="M266.16 267.12L266.64 267.12L266.64 285.6L266.16 285.6z" stroke="none" fill="#000000" fill-rule="nonzero" /><path transform="matrix(1 0 0 -1 0 612)" d="M297.84 267.12L298.32 267.12L298.32 285.6L297.84 285.6z" stroke="none" fill="#000000" fill-rule="nonzero" /><path transform="matrix(1 0 0 -1 0 612)" d="M355.68 267.12L356.16 267.12L356.16 285.6L355.68 285.6z" stroke="none" fill="#000000" fill-rule="nonzero" /><path transform="matrix(1 0 0 -1 0 612)" d="M449.28 267.12L449.76 267.12L449.76 285.6L449.28 285.6z" stroke="none" fill="#000000" fill-rule="nonzero" /><path transform="matrix(1 0 0 -1 0 612)" d="M493.44 267.12L493.92 267.12L493.92 285.6L493.44 285.6z" stroke="none" fill="#000000" fill-rule="nonzero" /><path transform="matrix(1 0 0 -1 0 612)" d="M546.24 267.12L546.72 267.12L546.72 285.6L546.24 285.6z" stroke="none" fill="#000000" fill-rule="nonzero" /><path transform="matrix(1 0 0 -1 0 612)" d="M625.2 267.12L625.68 267.12L625.68 285.6L625.2 285.6z" stroke="none" fill="#000000" fill-rule="nonzero" /><path transform="matrix(1 0 0 -1 0 612)" d="M730.8 267.12L731.28 267.12L731.28 285.6L730.8 285.6z" stroke="none" fill="#000000" fill-rule="nonzero" /><path transform="matrix(1 0 0 -1 0 612)" d="M48.72 266.64L49.2 266.64L49.2 267.12L48.72 267.12z" stroke="none" fill="#000000" fill-rule="nonzero" /><path transform="matrix(1 0 0 -1 0 612)" d="M49.2 266.64L72.96 266.64L72.96 267.12L49.2 267.12z" stroke="none" fill="#000000" fill-rule="nonzero" /><path transform="matrix(1 0 0 -1 0 612)" d="M72.9599 266.64L73.1999 266.64L73.1999 267.12L72.9599 267.12z" stroke="none" fill="#000000" fill-rule="nonzero" /><path transform="matrix(1 0 0 -1 0 612)" d="M73.2 266.64L180 266.64L180 267.12L73.2 267.12z" stroke="none" fill="#000000" fill-rule="nonzero" /><path transform="matrix(1 0 0 -1 0 612)" d="M180 266.64L180.48 266.64L180.48 267.12L180 267.12z" stroke="none" fill="#000000" fill-rule="nonzero" /><path transform="matrix(1 0 0 -1 0 612)" d="M180.48 266.64L226.32 266.64L226.32 267.12L180.48 267.12z" stroke="none" fill="#000000" fill-rule="nonzero" /><path transform="matrix(1 0 0 -1 0 612)" d="M226.32 266.64L226.8 266.64L226.8 267.12L226.32 267.12z" stroke="none" fill="#000000" fill-rule="nonzero" /><path transform="matrix(1 0 0 -1 0 612)" d="M226.8 266.64L266.16 266.64L266.16 267.12L226.8 267.12z" stroke="none" fill="#000000" fill-rule="nonzero" /><path transform="matrix(1 0 0 -1 0 612)" d="M266.16 266.64L266.64 266.64L266.64 267.12L266.16 267.12z" stroke="none" fill="#000000" fill-rule="nonzero" /><path transform="matrix(1 0 0 -1 0 612)" d="M266.64 266.64L297.84 266.64L297.84 267.12L266.64 267.12z" stroke="none" fill="#000000" fill-rule="nonzero" /><path transform="matrix(1 0 0 -1 0 612)" d="M297.84 266.64L298.32 266.64L298.32 267.12L297.84 267.12z" stroke="none" fill="#000000" fill-rule="nonzero" /><path transform="matrix(1 0 0 -1 0 612)" d="M298.32 266.64L355.68 266.64L355.68 267.12L298.32 267.12z" stroke="none" fill="#000000" fill-rule="nonzero" /><path transform="matrix(1 0 0 -1 0 612)" d="M355.68 266.64L356.16 266.64L356.16 267.12L355.68 267.12z" stroke="none" fill="#000000" fill-rule="nonzero" /><path transform="matrix(1 0 0 -1 0 612)" d="M356.16 266.64L449.28 266.64L449.28 267.12L356.16 267.12z" stroke="none" fill="#000000" fill-rule="nonzero" /><path transform="matrix(1 0 0 -1 0 612)" d="M449.28 266.64L449.76 266.64L449.76 267.12L449.28 267.12z" stroke="none" fill="#000000" fill-rule="nonzero" /><path transform="matrix(1 0 0 -1 0 612)" d="M449.76 266.64L493.44 266.64L493.44 267.12L449.76 267.12z" stroke="none" fill="#000000" fill-rule="nonzero" /><path transform="matrix(1 0 0 -1 0 612)" d="M493.44 266.64L493.92 266.64L493.92 267.12L493.44 267.12z" stroke="none" fill="#000000" fill-rule="nonzero" /><path transform="matrix(1 0 0 -1 0 612)" d="M493.92 266.64L546.24 266.64L546.24 267.12L493.92 267.12z" stroke="none" fill="#000000" fill-rule="nonzero" /><path transform="matrix(1 0 0 -1 0 612)" d="M546.24 266.64L546.72 266.64L546.72 267.12L546.24 267.12z" stroke="none" fill="#000000" fill-rule="nonzero" /><path transform="matrix(1 0 0 -1 0 612)" d="M546.72 266.64L625.2 266.64L625.2 267.12L546.72 267.12z" stroke="none" fill="#000000" fill-rule="nonzero" /><path transform="matrix(1 0 0 -1 0 612)" d="M625.2 266.64L625.68 266.64L625.68 267.12L625.2 267.12z" stroke="none" fill="#000000" fill-rule="nonzero" /><path transform="matrix(1 0 0 -1 0 612)" d="M625.68 266.64L730.8 266.64L730.8 267.12L625.68 267.12z" stroke="none" fill="#000000" fill-rule="nonzero" /><path transform="matrix(1 0 0 -1 0 612)" d="M730.8 266.64L731.28 266.64L731.28 267.12L730.8 267.12z" stroke="none" fill="#000000" fill-rule="nonzero" /><path transform="matrix(1 0 0 -1 0 612)" d="M48.72 247.92L49.2 247.92L49.2 266.64L48.72 266.64z" stroke="none" fill="#000000" fill-rule="nonzero" /><path transform="matrix(1 0 0 -1 0 612)" d="M72.9599 247.92L73.1999 247.92L73.1999 266.64L72.9599 266.64z" stroke="none" fill="#000000" fill-rule="nonzero" /><path transform="matrix(1 0 0 -1 0 612)" d="M180 247.92L180.48 247.92L180.48 266.64L180 266.64z" stroke="none" fill="#000000" fill-rule="nonzero" /><path transform="matrix(1 0 0 -1 0 612)" d="M226.32 247.92L226.8 247.92L226.8 266.64L226.32 266.64z" stroke="none" fill="#000000" fill-rule="nonzero" /><path transform="matrix(1 0 0 -1 0 612)" d="M266.16 247.92L266.64 247.92L266.64 266.64L266.16 266.64z" stroke="none" fill="#000000" fill-rule="nonzero" /><path transform="matrix(1 0 0 -1 0 612)" d="M297.84 247.92L298.32 247.92L298.32 266.64L297.84 266.64z" stroke="none" fill="#000000" fill-rule="nonzero" /><path transform="matrix(1 0 0 -1 0 612)" d="M355.68 247.92L356.16 247.92L356.16 266.64L355.68 266.64z" stroke="none" fill="#000000" fill-rule="nonzero" /><path transform="matrix(1 0 0 -1 0 612)" d="M449.28 247.92L449.76 247.92L449.76 266.64L449.28 266.64z" stroke="none" fill="#000000" fill-rule="nonzero" /><path transform="matrix(1 0 0 -1 0 612)" d="M493.44 247.92L493.92 247.92L493.92 266.64L493.44 266.64z" stroke="none" fill="#000000" fill-rule="nonzero" /><path transform="matrix(1 0 0 -1 0 612)" d="M546.24 247.92L546.72 247.92L546.72 266.64L546.24 266.64z" stroke="none" fill="#000000" fill-rule="nonzero" /><path transform="matrix(1 0 0 -1 0 612)" d="M625.2 247.92L625.68 247.92L625.68 266.64L625.2 266.64z" stroke="none" fill="#000000" fill-rule="nonzero" /><path transform="matrix(1 0 0 -1 0 612)" d="M730.8 247.92L731.28 247.92L731.28 266.64L730.8 266.64z" stroke="none" fill="#000000" fill-rule="nonzero" /><g clip-path="url(#33)"></g><g clip-path="url(#34)"></g><g clip-path="url(#35)"></g><g clip-path="url(#36)"></g><g clip-path="url(#37)"></g><g clip-path="url(#38)"></g><g clip-path="url(#39)"></g><g clip-path="url(#40)"></g><g clip-path="url(#41)"></g><g clip-path="url(#42)"></g><g clip-path="url(#43)"></g><path transform="matrix(1 0 0 -1 0 612)" d="M48.72 247.44L49.2 247.44L49.2 247.92L48.72 247.92z" stroke="none" fill="#000000" fill-rule="nonzero" /><path transform="matrix(1 0 0 -1 0 612)" d="M49.2 247.44L72.96 247.44L72.96 247.92L49.2 247.92z" stroke="none" fill="#000000" fill-rule="nonzero" /><path transform="matrix(1 0 0 -1 0 612)" d="M72.9599 247.44L73.1999 247.44L73.1999 247.92L72.9599 247.92z" stroke="none" fill="#000000" fill-rule="nonzero" /><path transform="matrix(1 0 0 -1 0 612)" d="M73.2 247.44L180 247.44L180 247.92L73.2 247.92z" stroke="none" fill="#000000" fill-rule="nonzero" /><path transform="matrix(1 0 0 -1 0 612)" d="M180 247.44L180.48 247.44L180.48 247.92L180 247.92z" stroke="none" fill="#000000" fill-rule="nonzero" /><path transform="matrix(1 0 0 -1 0 612)" d="M180.48 247.44L226.32 247.44L226.32 247.92L180.48 247.92z" stroke="none" fill="#000000" fill-rule="nonzero" /><path transform="matrix(1 0 0 -1 0 612)" d="M226.32 247.44L226.8 247.44L226.8 247.92L226.32 247.92z" stroke="none" fill="#000000" fill-rule="nonzero" /><path transform="matrix(1 0 0 -1 0 612)" d="M226.8 247.44L266.16 247.44L266.16 247.92L226.8 247.92z" stroke="none" fill="#000000" fill-rule="nonzero" /><path transform="matrix(1 0 0 -1 0 612)" d="M266.16 247.44L266.64 247.44L266.64 247.92L266.16 247.92z" stroke="none" fill="#000000" fill-rule="nonzero" /><path transform="matrix(1 0 0 -1 0 612)" d="M266.64 247.44L297.84 247.44L297.84 247.92L266.64 247.92z" stroke="none" fill="#000000" fill-rule="nonzero" /><path transform="matrix(1 0 0 -1 0 612)" d="M297.84 247.44L298.32 247.44L298.32 247.92L297.84 247.92z" stroke="none" fill="#000000" fill-rule="nonzero" /><path transform="matrix(1 0 0 -1 0 612)" d="M298.32 247.44L355.68 247.44L355.68 247.92L298.32 247.92z" stroke="none" fill="#000000" fill-rule="nonzero" /><path transform="matrix(1 0 0 -1 0 612)" d="M355.68 247.44L356.16 247.44L356.16 247.92L355.68 247.92z" stroke="none" fill="#000000" fill-rule="nonzero" /><path transform="matrix(1 0 0 -1 0 612)" d="M356.16 247.44L449.28 247.44L449.28 247.92L356.16 247.92z" stroke="none" fill="#000000" fill-rule="nonzero" /><path transform="matrix(1 0 0 -1 0 612)" d="M449.28 247.44L449.76 247.44L449.76 247.92L449.28 247.92z" stroke="none" fill="#000000" fill-rule="nonzero" /><path transform="matrix(1 0 0 -1 0 612)" d="M449.76 247.44L493.44 247.44L493.44 247.92L449.76 247.92z" stroke="none" fill="#000000" fill-rule="nonzero" /><path transform="matrix(1 0 0 -1 0 612)" d="M493.44 247.44L493.92 247.44L493.92 247.92L493.44 247.92z" stroke="none" fill="#000000" fill-rule="nonzero" /><path transform="matrix(1 0 0 -1 0 612)" d="M493.92 247.44L546.24 247.44L546.24 247.92L493.92 247.92z" stroke="none" fill="#000000" fill-rule="nonzero" /><path transform="matrix(1 0 0 -1 0 612)" d="M546.24 247.44L546.72 247.44L546.72 247.92L546.24 247.92z" stroke="none" fill="#000000" fill-rule="nonzero" /><path transform="matrix(1 0 0 -1 0 612)" d="M546.72 247.44L625.2 247.44L625.2 247.92L546.72 247.92z" stroke="none" fill="#000000" fill-rule="nonzero" /><path transform="matrix(1 0 0 -1 0 612)" d="M625.2 247.44L625.68 247.44L625.68 247.92L625.2 247.92z" stroke="none" fill="#000000" fill-rule="nonzero" /><path transform="matrix(1 0 0 -1 0 612)" d="M625.68 247.44L730.8 247.44L730.8 247.92L625.68 247.92z" stroke="none" fill="#000000" fill-rule="nonzero" /><path transform="matrix(1 0 0 -1 0 612)" d="M730.8 247.44L731.28 247.44L731.28 247.92L730.8 247.92z" stroke="none" fill="#000000" fill-rule="nonzero" /><path transform="matrix(1 0 0 -1 0 612)" d="M48.72 228.96L49.2 228.96L49.2 247.44L48.72 247.44z" stroke="none" fill="#000000" fill-rule="nonzero" /><path transform="matrix(1 0 0 -1 0 612)" d="M72.9599 228.96L73.1999 228.96L73.1999 247.44L72.9599 247.44z" stroke="none" fill="#000000" fill-rule="nonzero" /><path transform="matrix(1 0 0 -1 0 612)" d="M180 228.96L180.48 228.96L180.48 247.44L180 247.44z" stroke="none" fill="#000000" fill-rule="nonzero" /><path transform="matrix(1 0 0 -1 0 612)" d="M226.32 228.96L226.8 228.96L226.8 247.44L226.32 247.44z" stroke="none" fill="#000000" fill-rule="nonzero" /><path transform="matrix(1 0 0 -1 0 612)" d="M266.16 228.96L266.64 228.96L266.64 247.44L266.16 247.44z" stroke="none" fill="#000000" fill-rule="nonzero" /><path transform="matrix(1 0 0 -1 0 612)" d="M297.84 228.96L298.32 228.96L298.32 247.44L297.84 247.44z" stroke="none" fill="#000000" fill-rule="nonzero" /><path transform="matrix(1 0 0 -1 0 612)" d="M355.68 228.96L356.16 228.96L356.16 247.44L355.68 247.44z" stroke="none" fill="#000000" fill-rule="nonzero" /><path transform="matrix(1 0 0 -1 0 612)" d="M449.28 228.96L449.76 228.96L449.76 247.44L449.28 247.44z" stroke="none" fill="#000000" fill-rule="nonzero" /><path transform="matrix(1 0 0 -1 0 612)" d="M493.44 228.96L493.92 228.96L493.92 247.44L493.44 247.44z" stroke="none" fill="#000000" fill-rule="nonzero" /><path transform="matrix(1 0 0 -1 0 612)" d="M546.24 228.96L546.72 228.96L546.72 247.44L546.24 247.44z" stroke="none" fill="#000000" fill-rule="nonzero" /><path transform="matrix(1 0 0 -1 0 612)" d="M625.2 228.96L625.68 228.96L625.68 247.44L625.2 247.44z" stroke="none" fill="#000000" fill-rule="nonzero" /><path transform="matrix(1 0 0 -1 0 612)" d="M730.8 228.96L731.28 228.96L731.28 247.44L730.8 247.44z" stroke="none" fill="#000000" fill-rule="nonzero" /><path transform="matrix(1 0 0 -1 0 612)" d="M48.72 228.48L49.2 228.48L49.2 228.96L48.72 228.96z" stroke="none" fill="#000000" fill-rule="nonzero" /><path transform="matrix(1 0 0 -1 0 612)" d="M49.2 228.48L72.96 228.48L72.96 228.96L49.2 228.96z" stroke="none" fill="#000000" fill-rule="nonzero" /><path transform="matrix(1 0 0 -1 0 612)" d="M72.9599 228.48L73.1999 228.48L73.1999 228.96L72.9599 228.96z" stroke="none" fill="#000000" fill-rule="nonzero" /><path transform="matrix(1 0 0 -1 0 612)" d="M73.2 228.48L180 228.48L180 228.96L73.2 228.96z" stroke="none" fill="#000000" fill-rule="nonzero" /><path transform="matrix(1 0 0 -1 0 612)" d="M180 228.48L180.48 228.48L180.48 228.96L180 228.96z" stroke="none" fill="#000000" fill-rule="nonzero" /><path transform="matrix(1 0 0 -1 0 612)" d="M180.48 228.48L226.32 228.48L226.32 228.96L180.48 228.96z" stroke="none" fill="#000000" fill-rule="nonzero" /><path transform="matrix(1 0 0 -1 0 612)" d="M226.32 228.48L226.8 228.48L226.8 228.96L226.32 228.96z" stroke="none" fill="#000000" fill-rule="nonzero" /><path transform="matrix(1 0 0 -1 0 612)" d="M226.8 228.48L266.16 228.48L266.16 228.96L226.8 228.96z" stroke="none" fill="#000000" fill-rule="nonzero" /><path transform="matrix(1 0 0 -1 0 612)" d="M266.16 228.48L266.64 228.48L266.64 228.96L266.16 228.96z" stroke="none" fill="#000000" fill-rule="nonzero" /><path transform="matrix(1 0 0 -1 0 612)" d="M266.64 228.48L297.84 228.48L297.84 228.96L266.64 228.96z" stroke="none" fill="#000000" fill-rule="nonzero" /><path transform="matrix(1 0 0 -1 0 612)" d="M297.84 228.48L298.32 228.48L298.32 228.96L297.84 228.96z" stroke="none" fill="#000000" fill-rule="nonzero" /><path transform="matrix(1 0 0 -1 0 612)" d="M298.32 228.48L355.68 228.48L355.68 228.96L298.32 228.96z" stroke="none" fill="#000000" fill-rule="nonzero" /><path transform="matrix(1 0 0 -1 0 612)" d="M355.68 228.48L356.16 228.48L356.16 228.96L355.68 228.96z" stroke="none" fill="#000000" fill-rule="nonzero" /><path transform="matrix(1 0 0 -1 0 612)" d="M356.16 228.48L449.28 228.48L449.28 228.96L356.16 228.96z" stroke="none" fill="#000000" fill-rule="nonzero" /><path transform="matrix(1 0 0 -1 0 612)" d="M449.28 228.48L449.76 228.48L449.76 228.96L449.28 228.96z" stroke="none" fill="#000000" fill-rule="nonzero" /><path transform="matrix(1 0 0 -1 0 612)" d="M449.76 228.48L493.44 228.48L493.44 228.96L449.76 228.96z" stroke="none" fill="#000000" fill-rule="nonzero" /><path transform="matrix(1 0 0 -1 0 612)" d="M493.44 228.48L493.92 228.48L493.92 228.96L493.44 228.96z" stroke="none" fill="#000000" fill-rule="nonzero" /><path transform="matrix(1 0 0 -1 0 612)" d="M493.92 228.48L546.24 228.48L546.24 228.96L493.92 228.96z" stroke="none" fill="#000000" fill-rule="nonzero" /><path transform="matrix(1 0 0 -1 0 612)" d="M546.24 228.48L546.72 228.48L546.72 228.96L546.24 228.96z" stroke="none" fill="#000000" fill-rule="nonzero" /><path transform="matrix(1 0 0 -1 0 612)" d="M546.72 228.48L625.2 228.48L625.2 228.96L546.72 228.96z" stroke="none" fill="#000000" fill-rule="nonzero" /><path transform="matrix(1 0 0 -1 0 612)" d="M625.2 228.48L625.68 228.48L625.68 228.96L625.2 228.96z" stroke="none" fill="#000000" fill-rule="nonzero" /><path transform="matrix(1 0 0 -1 0 612)" d="M625.68 228.48L730.8 228.48L730.8 228.96L625.68 228.96z" stroke="none" fill="#000000" fill-rule="nonzero" /><path transform="matrix(1 0 0 -1 0 612)" d="M730.8 228.48L731.28 228.48L731.28 228.96L730.8 228.96z" stroke="none" fill="#000000" fill-rule="nonzero" /><path transform="matrix(1 0 0 -1 0 612)" d="M48.72 209.76L49.2 209.76L49.2 228.48L48.72 228.48z" stroke="none" fill="#000000" fill-rule="nonzero" /><path transform="matrix(1 0 0 -1 0 612)" d="M72.9599 209.76L73.1999 209.76L73.1999 228.48L72.9599 228.48z" stroke="none" fill="#000000" fill-rule="nonzero" /><path transform="matrix(1 0 0 -1 0 612)" d="M180 209.76L180.48 209.76L180.48 228.48L180 228.48z" stroke="none" fill="#000000" fill-rule="nonzero" /><path transform="matrix(1 0 0 -1 0 612)" d="M226.32 209.76L226.8 209.76L226.8 228.48L226.32 228.48z" stroke="none" fill="#000000" fill-rule="nonzero" /><path transform="matrix(1 0 0 -1 0 612)" d="M266.16 209.76L266.64 209.76L266.64 228.48L266.16 228.48z" stroke="none" fill="#000000" fill-rule="nonzero" /><path transform="matrix(1 0 0 -1 0 612)" d="M297.84 209.76L298.32 209.76L298.32 228.48L297.84 228.48z" stroke="none" fill="#000000" fill-rule="nonzero" /><path transform="matrix(1 0 0 -1 0 612)" d="M355.68 209.76L356.16 209.76L356.16 228.48L355.68 228.48z" stroke="none" fill="#000000" fill-rule="nonzero" /><path transform="matrix(1 0 0 -1 0 612)" d="M449.28 209.76L449.76 209.76L449.76 228.48L449.28 228.48z" stroke="none" fill="#000000" fill-rule="nonzero" /><path transform="matrix(1 0 0 -1 0 612)" d="M493.44 209.76L493.92 209.76L493.92 228.48L493.44 228.48z" stroke="none" fill="#000000" fill-rule="nonzero" /><path transform="matrix(1 0 0 -1 0 612)" d="M546.24 209.76L546.72 209.76L546.72 228.48L546.24 228.48z" stroke="none" fill="#000000" fill-rule="nonzero" /><path transform="matrix(1 0 0 -1 0 612)" d="M625.2 209.76L625.68 209.76L625.68 228.48L625.2 228.48z" stroke="none" fill="#000000" fill-rule="nonzero" /><path transform="matrix(1 0 0 -1 0 612)" d="M730.8 209.76L731.28 209.76L731.28 228.48L730.8 228.48z" stroke="none" fill="#000000" fill-rule="nonzero" /><g clip-path="url(#44)"></g><g clip-path="url(#45)"></g><g clip-path="url(#46)"></g><g clip-path="url(#47)"></g><g clip-path="url(#48)"></g><g clip-path="url(#49)"></g><g clip-path="url(#50)"></g><g clip-path="url(#51)"></g><g clip-path="url(#52)"></g><g clip-path="url(#53)"></g><g clip-path="url(#54)"></g><path transform="matrix(1 0 0 -1 0 612)" d="M48.72 209.28L49.2 209.28L49.2 209.76L48.72 209.76z" stroke="none" fill="#000000" fill-rule="nonzero" /><path transform="matrix(1 0 0 -1 0 612)" d="M49.2 209.28L72.96 209.28L72.96 209.76L49.2 209.76z" stroke="none" fill="#000000" fill-rule="nonzero" /><path transform="matrix(1 0 0 -1 0 612)" d="M72.9599 209.28L73.1999 209.28L73.1999 209.76L72.9599 209.76z" stroke="none" fill="#000000" fill-rule="nonzero" /><path transform="matrix(1 0 0 -1 0 612)" d="M73.2 209.28L180 209.28L180 209.76L73.2 209.76z" stroke="none" fill="#000000" fill-rule="nonzero" /><path transform="matrix(1 0 0 -1 0 612)" d="M180 209.28L180.48 209.28L180.48 209.76L180 209.76z" stroke="none" fill="#000000" fill-rule="nonzero" /><path transform="matrix(1 0 0 -1 0 612)" d="M180.48 209.28L226.32 209.28L226.32 209.76L180.48 209.76z" stroke="none" fill="#000000" fill-rule="nonzero" /><path transform="matrix(1 0 0 -1 0 612)" d="M226.32 209.28L226.8 209.28L226.8 209.76L226.32 209.76z" stroke="none" fill="#000000" fill-rule="nonzero" /><path transform="matrix(1 0 0 -1 0 612)" d="M226.8 209.28L266.16 209.28L266.16 209.76L226.8 209.76z" stroke="none" fill="#000000" fill-rule="nonzero" /><path transform="matrix(1 0 0 -1 0 612)" d="M266.16 209.28L266.64 209.28L266.64 209.76L266.16 209.76z" stroke="none" fill="#000000" fill-rule="nonzero" /><path transform="matrix(1 0 0 -1 0 612)" d="M266.64 209.28L297.84 209.28L297.84 209.76L266.64 209.76z" stroke="none" fill="#000000" fill-rule="nonzero" /><path transform="matrix(1 0 0 -1 0 612)" d="M297.84 209.28L298.32 209.28L298.32 209.76L297.84 209.76z" stroke="none" fill="#000000" fill-rule="nonzero" /><path transform="matrix(1 0 0 -1 0 612)" d="M298.32 209.28L355.68 209.28L355.68 209.76L298.32 209.76z" stroke="none" fill="#000000" fill-rule="nonzero" /><path transform="matrix(1 0 0 -1 0 612)" d="M355.68 209.28L356.16 209.28L356.16 209.76L355.68 209.76z" stroke="none" fill="#000000" fill-rule="nonzero" /><path transform="matrix(1 0 0 -1 0 612)" d="M356.16 209.28L449.28 209.28L449.28 209.76L356.16 209.76z" stroke="none" fill="#000000" fill-rule="nonzero" /><path transform="matrix(1 0 0 -1 0 612)" d="M449.28 209.28L449.76 209.28L449.76 209.76L449.28 209.76z" stroke="none" fill="#000000" fill-rule="nonzero" /><path transform="matrix(1 0 0 -1 0 612)" d="M449.76 209.28L493.44 209.28L493.44 209.76L449.76 209.76z" stroke="none" fill="#000000" fill-rule="nonzero" /><path transform="matrix(1 0 0 -1 0 612)" d="M493.44 209.28L493.92 209.28L493.92 209.76L493.44 209.76z" stroke="none" fill="#000000" fill-rule="nonzero" /><path transform="matrix(1 0 0 -1 0 612)" d="M493.92 209.28L546.24 209.28L546.24 209.76L493.92 209.76z" stroke="none" fill="#000000" fill-rule="nonzero" /><path transform="matrix(1 0 0 -1 0 612)" d="M546.24 209.28L546.72 209.28L546.72 209.76L546.24 209.76z" stroke="none" fill="#000000" fill-rule="nonzero" /><path transform="matrix(1 0 0 -1 0 612)" d="M546.72 209.28L625.2 209.28L625.2 209.76L546.72 209.76z" stroke="none" fill="#000000" fill-rule="nonzero" /><path transform="matrix(1 0 0 -1 0 612)" d="M625.2 209.28L625.68 209.28L625.68 209.76L625.2 209.76z" stroke="none" fill="#000000" fill-rule="nonzero" /><path transform="matrix(1 0 0 -1 0 612)" d="M625.68 209.28L730.8 209.28L730.8 209.76L625.68 209.76z" stroke="none" fill="#000000" fill-rule="nonzero" /><path transform="matrix(1 0 0 -1 0 612)" d="M730.8 209.28L731.28 209.28L731.28 209.76L730.8 209.76z" stroke="none" fill="#000000" fill-rule="nonzero" /><path transform="matrix(1 0 0 -1 0 612)" d="M48.72 190.8L49.2 190.8L49.2 209.28L48.72 209.28z" stroke="none" fill="#000000" fill-rule="nonzero" /><path transform="matrix(1 0 0 -1 0 612)" d="M72.9599 190.8L73.1999 190.8L73.1999 209.28L72.9599 209.28z" stroke="none" fill="#000000" fill-rule="nonzero" /><path transform="matrix(1 0 0 -1 0 612)" d="M180 190.8L180.48 190.8L180.48 209.28L180 209.28z" stroke="none" fill="#000000" fill-rule="nonzero" /><path transform="matrix(1 0 0 -1 0 612)" d="M226.32 190.8L226.8 190.8L226.8 209.28L226.32 209.28z" stroke="none" fill="#000000" fill-rule="nonzero" /><path transform="matrix(1 0 0 -1 0 612)" d="M266.16 190.8L266.64 190.8L266.64 209.28L266.16 209.28z" stroke="none" fill="#000000" fill-rule="nonzero" /><path transform="matrix(1 0 0 -1 0 612)" d="M297.84 190.8L298.32 190.8L298.32 209.28L297.84 209.28z" stroke="none" fill="#000000" fill-rule="nonzero" /><path transform="matrix(1 0 0 -1 0 612)" d="M355.68 190.8L356.16 190.8L356.16 209.28L355.68 209.28z" stroke="none" fill="#000000" fill-rule="nonzero" /><path transform="matrix(1 0 0 -1 0 612)" d="M449.28 190.8L449.76 190.8L449.76 209.28L449.28 209.28z" stroke="none" fill="#000000" fill-rule="nonzero" /><path transform="matrix(1 0 0 -1 0 612)" d="M493.44 190.8L493.92 190.8L493.92 209.28L493.44 209.28z" stroke="none" fill="#000000" fill-rule="nonzero" /><path transform="matrix(1 0 0 -1 0 612)" d="M546.24 190.8L546.72 190.8L546.72 209.28L546.24 209.28z" stroke="none" fill="#000000" fill-rule="nonzero" /><path transform="matrix(1 0 0 -1 0 612)" d="M625.2 190.8L625.68 190.8L625.68 209.28L625.2 209.28z" stroke="none" fill="#000000" fill-rule="nonzero" /><path transform="matrix(1 0 0 -1 0 612)" d="M730.8 190.8L731.28 190.8L731.28 209.28L730.8 209.28z" stroke="none" fill="#000000" fill-rule="nonzero" /><path transform="matrix(1 0 0 -1 0 612)" d="M48.72 190.32L49.2 190.32L49.2 190.8L48.72 190.8z" stroke="none" fill="#000000" fill-rule="nonzero" /><path transform="matrix(1 0 0 -1 0 612)" d="M49.2 190.32L72.96 190.32L72.96 190.8L49.2 190.8z" stroke="none" fill="#000000" fill-rule="nonzero" /><path transform="matrix(1 0 0 -1 0 612)" d="M72.9599 190.32L73.1999 190.32L73.1999 190.8L72.9599 190.8z" stroke="none" fill="#000000" fill-rule="nonzero" /><path transform="matrix(1 0 0 -1 0 612)" d="M73.2 190.32L180 190.32L180 190.8L73.2 190.8z" stroke="none" fill="#000000" fill-rule="nonzero" /><path transform="matrix(1 0 0 -1 0 612)" d="M180 190.32L180.48 190.32L180.48 190.8L180 190.8z" stroke="none" fill="#000000" fill-rule="nonzero" /><path transform="matrix(1 0 0 -1 0 612)" d="M180.48 190.32L226.32 190.32L226.32 190.8L180.48 190.8z" stroke="none" fill="#000000" fill-rule="nonzero" /><path transform="matrix(1 0 0 -1 0 612)" d="M226.32 190.32L226.8 190.32L226.8 190.8L226.32 190.8z" stroke="none" fill="#000000" fill-rule="nonzero" /><path transform="matrix(1 0 0 -1 0 612)" d="M226.8 190.32L266.16 190.32L266.16 190.8L226.8 190.8z" stroke="none" fill="#000000" fill-rule="nonzero" /><path transform="matrix(1 0 0 -1 0 612)" d="M266.16 190.32L266.64 190.32L266.64 190.8L266.16 190.8z" stroke="none" fill="#000000" fill-rule="nonzero" /><path transform="matrix(1 0 0 -1 0 612)" d="M266.64 190.32L297.84 190.32L297.84 190.8L266.64 190.8z" stroke="none" fill="#000000" fill-rule="nonzero" /><path transform="matrix(1 0 0 -1 0 612)" d="M297.84 190.32L298.32 190.32L298.32 190.8L297.84 190.8z" stroke="none" fill="#000000" fill-rule="nonzero" /><path transform="matrix(1 0 0 -1 0 612)" d="M298.32 190.32L355.68 190.32L355.68 190.8L298.32 190.8z" stroke="none" fill="#000000" fill-rule="nonzero" /><path transform="matrix(1 0 0 -1 0 612)" d="M355.68 190.32L356.16 190.32L356.16 190.8L355.68 190.8z" stroke="none" fill="#000000" fill-rule="nonzero" /><path transform="matrix(1 0 0 -1 0 612)" d="M356.16 190.32L449.28 190.32L449.28 190.8L356.16 190.8z" stroke="none" fill="#000000" fill-rule="nonzero" /><path transform="matrix(1 0 0 -1 0 612)" d="M449.28 190.32L449.76 190.32L449.76 190.8L449.28 190.8z" stroke="none" fill="#000000" fill-rule="nonzero" /><path transform="matrix(1 0 0 -1 0 612)" d="M449.76 190.32L493.44 190.32L493.44 190.8L449.76 190.8z" stroke="none" fill="#000000" fill-rule="nonzero" /><path transform="matrix(1 0 0 -1 0 612)" d="M493.44 190.32L493.92 190.32L493.92 190.8L493.44 190.8z" stroke="none" fill="#000000" fill-rule="nonzero" /><path transform="matrix(1 0 0 -1 0 612)" d="M493.92 190.32L546.24 190.32L546.24 190.8L493.92 190.8z" stroke="none" fill="#000000" fill-rule="nonzero" /><path transform="matrix(1 0 0 -1 0 612)" d="M546.24 190.32L546.72 190.32L546.72 190.8L546.24 190.8z" stroke="none" fill="#000000" fill-rule="nonzero" /><path transform="matrix(1 0 0 -1 0 612)" d="M546.72 190.32L625.2 190.32L625.2 190.8L546.72 190.8z" stroke="none" fill="#000000" fill-rule="nonzero" /><path transform="matrix(1 0 0 -1 0 612)" d="M625.2 190.32L625.68 190.32L625.68 190.8L625.2 190.8z" stroke="none" fill="#000000" fill-rule="nonzero" /><path transform="matrix(1 0 0 -1 0 612)" d="M625.68 190.32L730.8 190.32L730.8 190.8L625.68 190.8z" stroke="none" fill="#000000" fill-rule="nonzero" /><path transform="matrix(1 0 0 -1 0 612)" d="M730.8 190.32L731.28 190.32L731.28 190.8L730.8 190.8z" stroke="none" fill="#000000" fill-rule="nonzero" /><path transform="matrix(1 0 0 -1 0 612)" d="M48.72 171.6L49.2 171.6L49.2 190.32L48.72 190.32z" stroke="none" fill="#000000" fill-rule="nonzero" /><path transform="matrix(1 0 0 -1 0 612)" d="M72.9599 171.6L73.1999 171.6L73.1999 190.32L72.9599 190.32z" stroke="none" fill="#000000" fill-rule="nonzero" /><path transform="matrix(1 0 0 -1 0 612)" d="M180 171.6L180.48 171.6L180.48 190.32L180 190.32z" stroke="none" fill="#000000" fill-rule="nonzero" /><path transform="matrix(1 0 0 -1 0 612)" d="M226.32 171.6L226.8 171.6L226.8 190.32L226.32 190.32z" stroke="none" fill="#000000" fill-rule="nonzero" /><path transform="matrix(1 0 0 -1 0 612)" d="M266.16 171.6L266.64 171.6L266.64 190.32L266.16 190.32z" stroke="none" fill="#000000" fill-rule="nonzero" /><path transform="matrix(1 0 0 -1 0 612)" d="M297.84 171.6L298.32 171.6L298.32 190.32L297.84 190.32z" stroke="none" fill="#000000" fill-rule="nonzero" /><path transform="matrix(1 0 0 -1 0 612)" d="M355.68 171.6L356.16 171.6L356.16 190.32L355.68 190.32z" stroke="none" fill="#000000" fill-rule="nonzero" /><path transform="matrix(1 0 0 -1 0 612)" d="M449.28 171.6L449.76 171.6L449.76 190.32L449.28 190.32z" stroke="none" fill="#000000" fill-rule="nonzero" /><path transform="matrix(1 0 0 -1 0 612)" d="M493.44 171.6L493.92 171.6L493.92 190.32L493.44 190.32z" stroke="none" fill="#000000" fill-rule="nonzero" /><path transform="matrix(1 0 0 -1 0 612)" d="M546.24 171.6L546.72 171.6L546.72 190.32L546.24 190.32z" stroke="none" fill="#000000" fill-rule="nonzero" /><path transform="matrix(1 0 0 -1 0 612)" d="M625.2 171.6L625.68 171.6L625.68 190.32L625.2 190.32z" stroke="none" fill="#000000" fill-rule="nonzero" /><path transform="matrix(1 0 0 -1 0 612)" d="M730.8 171.6L731.28 171.6L731.28 190.32L730.8 190.32z" stroke="none" fill="#000000" fill-rule="nonzero" /><path transform="matrix(1 0 0 -1 0 612)" d="M48.72 171.12L49.2 171.12L49.2 171.6L48.72 171.6z" stroke="none" fill="#000000" fill-rule="nonzero" /><path transform="matrix(1 0 0 -1 0 612)" d="M49.2 171.12L72.96 171.12L72.96 171.6L49.2 171.6z" stroke="none" fill="#000000" fill-rule="nonzero" /><path transform="matrix(1 0 0 -1 0 612)" d="M72.9599 171.12L73.1999 171.12L73.1999 171.6L72.9599 171.6z" stroke="none" fill="#000000" fill-rule="nonzero" /><path transform="matrix(1 0 0 -1 0 612)" d="M73.2 171.12L180 171.12L180 171.6L73.2 171.6z" stroke="none" fill="#000000" fill-rule="nonzero" /><path transform="matrix(1 0 0 -1 0 612)" d="M180 171.12L180.48 171.12L180.48 171.6L180 171.6z" stroke="none" fill="#000000" fill-rule="nonzero" /><path transform="matrix(1 0 0 -1 0 612)" d="M180.48 171.12L226.32 171.12L226.32 171.6L180.48 171.6z" stroke="none" fill="#000000" fill-rule="nonzero" /><path transform="matrix(1 0 0 -1 0 612)" d="M226.32 171.12L226.8 171.12L226.8 171.6L226.32 171.6z" stroke="none" fill="#000000" fill-rule="nonzero" /><path transform="matrix(1 0 0 -1 0 612)" d="M226.8 171.12L266.16 171.12L266.16 171.6L226.8 171.6z" stroke="none" fill="#000000" fill-rule="nonzero" /><path transform="matrix(1 0 0 -1 0 612)" d="M266.16 171.12L266.64 171.12L266.64 171.6L266.16 171.6z" stroke="none" fill="#000000" fill-rule="nonzero" /><path transform="matrix(1 0 0 -1 0 612)" d="M266.64 171.12L297.84 171.12L297.84 171.6L266.64 171.6z" stroke="none" fill="#000000" fill-rule="nonzero" /><path transform="matrix(1 0 0 -1 0 612)" d="M297.84 171.12L298.32 171.12L298.32 171.6L297.84 171.6z" stroke="none" fill="#000000" fill-rule="nonzero" /><path transform="matrix(1 0 0 -1 0 612)" d="M298.32 171.12L355.68 171.12L355.68 171.6L298.32 171.6z" stroke="none" fill="#000000" fill-rule="nonzero" /><path transform="matrix(1 0 0 -1 0 612)" d="M355.68 171.12L356.16 171.12L356.16 171.6L355.68 171.6z" stroke="none" fill="#000000" fill-rule="nonzero" /><path transform="matrix(1 0 0 -1 0 612)" d="M356.16 171.12L449.28 171.12L449.28 171.6L356.16 171.6z" stroke="none" fill="#000000" fill-rule="nonzero" /><path transform="matrix(1 0 0 -1 0 612)" d="M449.28 171.12L449.76 171.12L449.76 171.6L449.28 171.6z" stroke="none" fill="#000000" fill-rule="nonzero" /><path transform="matrix(1 0 0 -1 0 612)" d="M449.76 171.12L493.44 171.12L493.44 171.6L449.76 171.6z" stroke="none" fill="#000000" fill-rule="nonzero" /><path transform="matrix(1 0 0 -1 0 612)" d="M493.44 171.12L493.92 171.12L493.92 171.6L493.44 171.6z" stroke="none" fill="#000000" fill-rule="nonzero" /><path transform="matrix(1 0 0 -1 0 612)" d="M493.92 171.12L546.24 171.12L546.24 171.6L493.92 171.6z" stroke="none" fill="#000000" fill-rule="nonzero" /><path transform="matrix(1 0 0 -1 0 612)" d="M546.24 171.12L546.72 171.12L546.72 171.6L546.24 171.6z" stroke="none" fill="#000000" fill-rule="nonzero" /><path transform="matrix(1 0 0 -1 0 612)" d="M546.72 171.12L625.2 171.12L625.2 171.6L546.72 171.6z" stroke="none" fill="#000000" fill-rule="nonzero" /><path transform="matrix(1 0 0 -1 0 612)" d="M625.2 171.12L625.68 171.12L625.68 171.6L625.2 171.6z" stroke="none" fill="#000000" fill-rule="nonzero" /><path transform="matrix(1 0 0 -1 0 612)" d="M625.68 171.12L730.8 171.12L730.8 171.6L625.68 171.6z" stroke="none" fill="#000000" fill-rule="nonzero" /><path transform="matrix(1 0 0 -1 0 612)" d="M730.8 171.12L731.28 171.12L731.28 171.6L730.8 171.6z" stroke="none" fill="#000000" fill-rule="nonzero" /><path transform="matrix(1 0 0 -1 0 612)" d="M48.72 152.4L49.2 152.4L49.2 171.12L48.72 171.12z" stroke="none" fill="#000000" fill-rule="nonzero" /><path transform="matrix(1 0 0 -1 0 612)" d="M72.9599 152.4L73.1999 152.4L73.1999 171.12L72.9599 171.12z" stroke="none" fill="#000000" fill-rule="nonzero" /><path transform="matrix(1 0 0 -1 0 612)" d="M180 152.4L180.48 152.4L180.48 171.12L180 171.12z" stroke="none" fill="#000000" fill-rule="nonzero" /><path transform="matrix(1 0 0 -1 0 612)" d="M226.32 152.4L226.8 152.4L226.8 171.12L226.32 171.12z" stroke="none" fill="#000000" fill-rule="nonzero" /><path transform="matrix(1 0 0 -1 0 612)" d="M266.16 152.4L266.64 152.4L266.64 171.12L266.16 171.12z" stroke="none" fill="#000000" fill-rule="nonzero" /><path transform="matrix(1 0 0 -1 0 612)" d="M297.84 152.4L298.32 152.4L298.32 171.12L297.84 171.12z" stroke="none" fill="#000000" fill-rule="nonzero" /><path transform="matrix(1 0 0 -1 0 612)" d="M355.68 152.4L356.16 152.4L356.16 171.12L355.68 171.12z" stroke="none" fill="#000000" fill-rule="nonzero" /><path transform="matrix(1 0 0 -1 0 612)" d="M449.28 152.4L449.76 152.4L449.76 171.12L449.28 171.12z" stroke="none" fill="#000000" fill-rule="nonzero" /><path transform="matrix(1 0 0 -1 0 612)" d="M493.44 152.4L493.92 152.4L493.92 171.12L493.44 171.12z" stroke="none" fill="#000000" fill-rule="nonzero" /><path transform="matrix(1 0 0 -1 0 612)" d="M546.24 152.4L546.72 152.4L546.72 171.12L546.24 171.12z" stroke="none" fill="#000000" fill-rule="nonzero" /><path transform="matrix(1 0 0 -1 0 612)" d="M625.2 152.4L625.68 152.4L625.68 171.12L625.2 171.12z" stroke="none" fill="#000000" fill-rule="nonzero" /><path transform="matrix(1 0 0 -1 0 612)" d="M730.8 152.4L731.28 152.4L731.28 171.12L730.8 171.12z" stroke="none" fill="#000000" fill-rule="nonzero" /><path transform="matrix(1 0 0 -1 0 612)" d="M48.72 151.92L49.2 151.92L49.2 152.4L48.72 152.4z" stroke="none" fill="#000000" fill-rule="nonzero" /><path transform="matrix(1 0 0 -1 0 612)" d="M49.2 151.92L72.96 151.92L72.96 152.4L49.2 152.4z" stroke="none" fill="#000000" fill-rule="nonzero" /><path transform="matrix(1 0 0 -1 0 612)" d="M72.9599 151.92L73.1999 151.92L73.1999 152.4L72.9599 152.4z" stroke="none" fill="#000000" fill-rule="nonzero" /><path transform="matrix(1 0 0 -1 0 612)" d="M73.2 151.92L180 151.92L180 152.4L73.2 152.4z" stroke="none" fill="#000000" fill-rule="nonzero" /><path transform="matrix(1 0 0 -1 0 612)" d="M180 151.92L180.48 151.92L180.48 152.4L180 152.4z" stroke="none" fill="#000000" fill-rule="nonzero" /><path transform="matrix(1 0 0 -1 0 612)" d="M180.48 151.92L226.32 151.92L226.32 152.4L180.48 152.4z" stroke="none" fill="#000000" fill-rule="nonzero" /><path transform="matrix(1 0 0 -1 0 612)" d="M226.32 151.92L226.8 151.92L226.8 152.4L226.32 152.4z" stroke="none" fill="#000000" fill-rule="nonzero" /><path transform="matrix(1 0 0 -1 0 612)" d="M226.8 151.92L266.16 151.92L266.16 152.4L226.8 152.4z" stroke="none" fill="#000000" fill-rule="nonzero" /><path transform="matrix(1 0 0 -1 0 612)" d="M266.16 151.92L266.64 151.92L266.64 152.4L266.16 152.4z" stroke="none" fill="#000000" fill-rule="nonzero" /><path transform="matrix(1 0 0 -1 0 612)" d="M266.64 151.92L297.84 151.92L297.84 152.4L266.64 152.4z" stroke="none" fill="#000000" fill-rule="nonzero" /><path transform="matrix(1 0 0 -1 0 612)" d="M297.84 151.92L298.32 151.92L298.32 152.4L297.84 152.4z" stroke="none" fill="#000000" fill-rule="nonzero" /><path transform="matrix(1 0 0 -1 0 612)" d="M298.32 151.92L355.68 151.92L355.68 152.4L298.32 152.4z" stroke="none" fill="#000000" fill-rule="nonzero" /><path transform="matrix(1 0 0 -1 0 612)" d="M355.68 151.92L356.16 151.92L356.16 152.4L355.68 152.4z" stroke="none" fill="#000000" fill-rule="nonzero" /><path transform="matrix(1 0 0 -1 0 612)" d="M356.16 151.92L449.28 151.92L449.28 152.4L356.16 152.4z" stroke="none" fill="#000000" fill-rule="nonzero" /><path transform="matrix(1 0 0 -1 0 612)" d="M449.28 151.92L449.76 151.92L449.76 152.4L449.28 152.4z" stroke="none" fill="#000000" fill-rule="nonzero" /><path transform="matrix(1 0 0 -1 0 612)" d="M449.76 151.92L493.44 151.92L493.44 152.4L449.76 152.4z" stroke="none" fill="#000000" fill-rule="nonzero" /><path transform="matrix(1 0 0 -1 0 612)" d="M493.44 151.92L493.92 151.92L493.92 152.4L493.44 152.4z" stroke="none" fill="#000000" fill-rule="nonzero" /><path transform="matrix(1 0 0 -1 0 612)" d="M493.92 151.92L546.24 151.92L546.24 152.4L493.92 152.4z" stroke="none" fill="#000000" fill-rule="nonzero" /><path transform="matrix(1 0 0 -1 0 612)" d="M546.24 151.92L546.72 151.92L546.72 152.4L546.24 152.4z" stroke="none" fill="#000000" fill-rule="nonzero" /><path transform="matrix(1 0 0 -1 0 612)" d="M546.72 151.92L625.2 151.92L625.2 152.4L546.72 152.4z" stroke="none" fill="#000000" fill-rule="nonzero" /><path transform="matrix(1 0 0 -1 0 612)" d="M625.2 151.92L625.68 151.92L625.68 152.4L625.2 152.4z" stroke="none" fill="#000000" fill-rule="nonzero" /><path transform="matrix(1 0 0 -1 0 612)" d="M625.68 151.92L730.8 151.92L730.8 152.4L625.68 152.4z" stroke="none" fill="#000000" fill-rule="nonzero" /><path transform="matrix(1 0 0 -1 0 612)" d="M730.8 151.92L731.28 151.92L731.28 152.4L730.8 152.4z" stroke="none" fill="#000000" fill-rule="nonzero" /><path transform="matrix(1 0 0 -1 0 612)" d="M48.72 133.44L49.2 133.44L49.2 151.92L48.72 151.92z" stroke="none" fill="#000000" fill-rule="nonzero" /><path transform="matrix(1 0 0 -1 0 612)" d="M48.72 132.96L49.2 132.96L49.2 133.44L48.72 133.44z" stroke="none" fill="#000000" fill-rule="nonzero" /><path transform="matrix(1 0 0 -1 0 612)" d="M48.72 132.96L49.2 132.96L49.2 133.44L48.72 133.44z" stroke="none" fill="#000000" fill-rule="nonzero" /><path transform="matrix(1 0 0 -1 0 612)" d="M49.2 132.96L72.96 132.96L72.96 133.44L49.2 133.44z" stroke="none" fill="#000000" fill-rule="nonzero" /><path transform="matrix(1 0 0 -1 0 612)" d="M72.9599 133.44L73.1999 133.44L73.1999 151.92L72.9599 151.92z" stroke="none" fill="#000000" fill-rule="nonzero" /><path transform="matrix(1 0 0 -1 0 612)" d="M72.9599 132.96L73.1999 132.96L73.1999 133.44L72.9599 133.44z" stroke="none" fill="#000000" fill-rule="nonzero" /><path transform="matrix(1 0 0 -1 0 612)" d="M73.2 132.96L180 132.96L180 133.44L73.2 133.44z" stroke="none" fill="#000000" fill-rule="nonzero" /><path transform="matrix(1 0 0 -1 0 612)" d="M180 133.44L180.48 133.44L180.48 151.92L180 151.92z" stroke="none" fill="#000000" fill-rule="nonzero" /><path transform="matrix(1 0 0 -1 0 612)" d="M180 132.96L180.48 132.96L180.48 133.44L180 133.44z" stroke="none" fill="#000000" fill-rule="nonzero" /><path transform="matrix(1 0 0 -1 0 612)" d="M180.48 132.96L226.32 132.96L226.32 133.44L180.48 133.44z" stroke="none" fill="#000000" fill-rule="nonzero" /><path transform="matrix(1 0 0 -1 0 612)" d="M226.32 133.44L226.8 133.44L226.8 151.92L226.32 151.92z" stroke="none" fill="#000000" fill-rule="nonzero" /><path transform="matrix(1 0 0 -1 0 612)" d="M226.32 132.96L226.8 132.96L226.8 133.44L226.32 133.44z" stroke="none" fill="#000000" fill-rule="nonzero" /><path transform="matrix(1 0 0 -1 0 612)" d="M226.8 132.96L266.16 132.96L266.16 133.44L226.8 133.44z" stroke="none" fill="#000000" fill-rule="nonzero" /><path transform="matrix(1 0 0 -1 0 612)" d="M266.16 133.44L266.64 133.44L266.64 151.92L266.16 151.92z" stroke="none" fill="#000000" fill-rule="nonzero" /><path transform="matrix(1 0 0 -1 0 612)" d="M266.16 132.96L266.64 132.96L266.64 133.44L266.16 133.44z" stroke="none" fill="#000000" fill-rule="nonzero" /><path transform="matrix(1 0 0 -1 0 612)" d="M266.64 132.96L297.84 132.96L297.84 133.44L266.64 133.44z" stroke="none" fill="#000000" fill-rule="nonzero" /><path transform="matrix(1 0 0 -1 0 612)" d="M297.84 133.44L298.32 133.44L298.32 151.92L297.84 151.92z" stroke="none" fill="#000000" fill-rule="nonzero" /><path transform="matrix(1 0 0 -1 0 612)" d="M297.84 132.96L298.32 132.96L298.32 133.44L297.84 133.44z" stroke="none" fill="#000000" fill-rule="nonzero" /><path transform="matrix(1 0 0 -1 0 612)" d="M298.32 132.96L355.68 132.96L355.68 133.44L298.32 133.44z" stroke="none" fill="#000000" fill-rule="nonzero" /><path transform="matrix(1 0 0 -1 0 612)" d="M355.68 133.44L356.16 133.44L356.16 151.92L355.68 151.92z" stroke="none" fill="#000000" fill-rule="nonzero" /><path transform="matrix(1 0 0 -1 0 612)" d="M355.68 132.96L356.16 132.96L356.16 133.44L355.68 133.44z" stroke="none" fill="#000000" fill-rule="nonzero" /><path transform="matrix(1 0 0 -1 0 612)" d="M356.16 132.96L449.28 132.96L449.28 133.44L356.16 133.44z" stroke="none" fill="#000000" fill-rule="nonzero" /><path transform="matrix(1 0 0 -1 0 612)" d="M449.28 133.44L449.76 133.44L449.76 151.92L449.28 151.92z" stroke="none" fill="#000000" fill-rule="nonzero" /><path transform="matrix(1 0 0 -1 0 612)" d="M449.28 132.96L449.76 132.96L449.76 133.44L449.28 133.44z" stroke="none" fill="#000000" fill-rule="nonzero" /><path transform="matrix(1 0 0 -1 0 612)" d="M449.76 132.96L493.44 132.96L493.44 133.44L449.76 133.44z" stroke="none" fill="#000000" fill-rule="nonzero" /><path transform="matrix(1 0 0 -1 0 612)" d="M493.44 133.44L493.92 133.44L493.92 151.92L493.44 151.92z" stroke="none" fill="#000000" fill-rule="nonzero" /><path transform="matrix(1 0 0 -1 0 612)" d="M493.44 132.96L493.92 132.96L493.92 133.44L493.44 133.44z" stroke="none" fill="#000000" fill-rule="nonzero" /><path transform="matrix(1 0 0 -1 0 612)" d="M493.92 132.96L546.24 132.96L546.24 133.44L493.92 133.44z" stroke="none" fill="#000000" fill-rule="nonzero" /><path transform="matrix(1 0 0 -1 0 612)" d="M546.24 133.44L546.72 133.44L546.72 151.92L546.24 151.92z" stroke="none" fill="#000000" fill-rule="nonzero" /><path transform="matrix(1 0 0 -1 0 612)" d="M546.24 132.96L546.72 132.96L546.72 133.44L546.24 133.44z" stroke="none" fill="#000000" fill-rule="nonzero" /><path transform="matrix(1 0 0 -1 0 612)" d="M546.72 132.96L625.2 132.96L625.2 133.44L546.72 133.44z" stroke="none" fill="#000000" fill-rule="nonzero" /><path transform="matrix(1 0 0 -1 0 612)" d="M625.2 133.44L625.68 133.44L625.68 151.92L625.2 151.92z" stroke="none" fill="#000000" fill-rule="nonzero" /><path transform="matrix(1 0 0 -1 0 612)" d="M625.2 132.96L625.68 132.96L625.68 133.44L625.2 133.44z" stroke="none" fill="#000000" fill-rule="nonzero" /><path transform="matrix(1 0 0 -1 0 612)" d="M625.68 132.96L730.8 132.96L730.8 133.44L625.68 133.44z" stroke="none" fill="#000000" fill-rule="nonzero" /><path transform="matrix(1 0 0 -1 0 612)" d="M730.8 133.44L731.28 133.44L731.28 151.92L730.8 151.92z" stroke="none" fill="#000000" fill-rule="nonzero" /><path transform="matrix(1 0 0 -1 0 612)" d="M730.8 132.96L731.28 132.96L731.28 133.44L730.8 133.44z" stroke="none" fill="#000000" fill-rule="nonzero" /><path transform="matrix(1 0 0 -1 0 612)" d="M730.8 132.96L731.28 132.96L731.28 133.44L730.8 133.44z" stroke="none" fill="#000000" fill-rule="nonzero" /></g></g></g></svg>