<svg xmlns="http://www.w3.org/2000/svg" xmlns:xlink="http://www.w3.org/1999/xlink" id="body_1" preserveAspectRatio="xMinYMin meet" viewBox="0 0 1056 816"><defs><clipPath id="1"><path clip-rule="evenodd" d="M0 612L0 0L0 0L792 0L792 0L792 612L792 612L0 612z" /></clipPath><clipPath id="2"><path clip-rule="evenodd" d="M710.64 101.52L715.68 101.52L715.68 101.52L715.68 88.79999L715.68 88.79999L710.64 88.79999z" /></clipPath><clipPath id="3"><path clip-rule="evenodd" d="M408.48 219.84L414.96 219.84L414.96 219.84L414.96 208.32L414.96 208.32L408.48 208.32z" /></clipPath><clipPath id="4"><path clip-rule="evenodd" d="M414.96 219.84L422.4 219.84L422.4 219.84L422.4 208.32L422.4 208.32L414.96 208.32z" /></clipPath><clipPath id="5"><path clip-rule="evenodd" d="M422.4 219.84L425.28 219.84L425.28 219.84L425.28 208.32L425.28 208.32L422.4 208.32z" /></clipPath><clipPath id="6"><path clip-rule="evenodd" d="M425.04 219.84L435.84 219.84L435.84 219.84L435.84 208.32L435.84 208.32L425.04 208.32z" /></clipPath><clipPath id="7"><path clip-rule="evenodd" d="M435.6 219.84L443.28 219.84L443.28 219.84L443.28 208.32L443.28 208.32L435.6 208.32z" /></clipPath><clipPath id="8"><path clip-rule="evenodd" d="M452.64 219.84L455.76 219.84L455.76 219.84L455.76 208.32L455.76 208.32L452.64 208.32z" /></clipPath><clipPath id="9"><path clip-rule="evenodd" d="M455.52 219.84L462.96 219.84L462.96 219.84L462.96 208.32L462.96 208.32L455.52 208.32z" /></clipPath><clipPath id="10"><path clip-rule="evenodd" d="M462.96 219.84L465.84 219.84L465.84 219.84L465.84 208.32L465.84 208.32L462.96 208.32z" /></clipPath><clipPath id="11"><path clip-rule="evenodd" d="M465.6 219.84L470.64 219.84L470.64 219.84L470.64 208.32L470.64 208.32L465.6 208.32z" /></clipPath><clipPath id="12"><path clip-rule="evenodd" d="M470.64 219.84L476.1599 219.84L476.1599 219.84L476.1599 208.32L476.1599 208.32L470.64 208.32z" /></clipPath><clipPath id="13"><path clip-rule="evenodd" d="M475.92 219.84L481.68 219.84L481.68 219.84L481.68 208.32L481.68 208.32L475.92 208.32z" /></clipPath><clipPath id="14"><path clip-rule="evenodd" d="M58.32 251.04L64.08 251.04L64.08 251.04L64.08 238.56L64.08 238.56L58.32 238.56z" /></clipPath><clipPath id="15"><path clip-rule="evenodd" d="M63.84 251.04L69.84 251.04L69.84 251.04L69.84 238.56L69.84 238.56L63.84 238.56z" /></clipPath><clipPath id="16"><path clip-rule="evenodd" d="M123.84 251.04L129.6 251.04L129.6 251.04L129.6 238.56L129.6 238.56L123.84 238.56z" /></clipPath><clipPath id="17"><path clip-rule="evenodd" d="M129.6 251.04L135.6 251.04L135.6 251.04L135.6 238.56L135.6 238.56L129.6 238.56z" /></clipPath><clipPath id="18"><path clip-rule="evenodd" d="M197.52 251.04L203.28 251.04L203.28 251.04L203.28 238.56L203.28 238.56L197.52 238.56z" /></clipPath><clipPath id="19"><path clip-rule="evenodd" d="M203.28 251.04L209.28 251.04L209.28 251.04L209.28 238.56L209.28 238.56L203.28 238.56z" /></clipPath><clipPath id="20"><path clip-rule="evenodd" d="M233.28 251.04L239.04 251.04L239.04 251.04L239.04 238.56L239.04 238.56L233.28 238.56z" /></clipPath><clipPath id="21"><path clip-rule="evenodd" d="M238.8 251.04L244.8 251.04L244.8 251.04L244.8 238.56L244.8 238.56L238.8 238.56z" /></clipPath><clipPath id="22"><path clip-rule="evenodd" d="M278.16 251.04L283.92 251.04L283.92 251.04L283.92 238.56L283.92 238.56L278.16 238.56z" /></clipPath><clipPath id="23"><path clip-rule="evenodd" d="M283.92 251.04L289.92 251.04L289.92 251.04L289.92 238.56L289.92 238.56L283.92 238.56z" /></clipPath><clipPath id="24"><path clip-rule="evenodd" d="M353.76 251.04L359.52 251.04L359.52 251.04L359.52 238.56L359.52 238.56L353.76 238.56z" /></clipPath><clipPath id="25"><path clip-rule="evenodd" d="M359.28 251.04L365.28 251.04L365.28 251.04L365.28 238.56L365.28 238.56L359.28 238.56z" /></clipPath><clipPath id="26"><path clip-rule="evenodd" d="M422.64 251.04L428.4 251.04L428.4 251.04L428.4 238.56L428.4 238.56L422.64 238.56z" /></clipPath><clipPath id="27"><path clip-rule="evenodd" d="M428.16 251.04L434.16 251.04L434.16 251.04L434.16 238.56L434.16 238.56L428.16 238.56z" /></clipPath><clipPath id="28"><path clip-rule="evenodd" d="M471.12 251.04L476.88 251.04L476.88 251.04L476.88 238.56L476.88 238.56L471.12 238.56z" /></clipPath><clipPath id="29"><path clip-rule="evenodd" d="M476.64 251.04L482.64 251.04L482.64 251.04L482.64 238.56L482.64 238.56L476.64 238.56z" /></clipPath><clipPath id="30"><path clip-rule="evenodd" d="M534.24 251.04L545.52 251.04L545.52 251.04L545.52 238.56L545.52 238.56L534.24 238.56z" /></clipPath><clipPath id="31"><path clip-rule="evenodd" d="M545.52 251.04L551.52 251.04L551.52 251.04L551.52 238.56L551.52 238.56L545.52 238.56z" /></clipPath><clipPath id="32"><path clip-rule="evenodd" d="M649.2 251.04L660.48 251.04L660.48 251.04L660.48 238.56L660.48 238.56L649.2 238.56z" /></clipPath><clipPath id="33"><path clip-rule="evenodd" d="M660.48 251.04L666.48 251.04L666.48 251.04L666.48 238.56L666.48 238.56L660.48 238.56z" /></clipPath><clipPath id="34"><path clip-rule="evenodd" d="M54.24 289.2L60.24 289.2L60.24 289.2L60.24 276.72L60.24 276.72L54.24 276.72z" /></clipPath><clipPath id="35"><path clip-rule="evenodd" d="M78 289.2L84 289.2L84 289.2L84 276.72L84 276.72L78 276.72z" /></clipPath><clipPath id="36"><path clip-rule="evenodd" d="M185.52 289.2L191.52 289.2L191.52 289.2L191.52 276.72L191.52 276.72L185.52 276.72z" /></clipPath><clipPath id="37"><path clip-rule="evenodd" d="M225.6 289.2L231.6 289.2L231.6 289.2L231.6 276.72L231.6 276.72L225.6 276.72z" /></clipPath><clipPath id="38"><path clip-rule="evenodd" d="M257.04 289.2L263.04 289.2L263.04 289.2L263.04 276.72L263.04 276.72L257.04 276.72z" /></clipPath><clipPath id="39"><path clip-rule="evenodd" d="M314.88 289.2L320.88 289.2L320.88 289.2L320.88 276.72L320.88 276.72L314.88 276.72z" /></clipPath><clipPath id="40"><path clip-rule="evenodd" d="M408.48 289.2L414.48 289.2L414.48 289.2L414.48 276.72L414.48 276.72L408.48 276.72z" /></clipPath><clipPath id="41"><path clip-rule="evenodd" d="M452.64 289.2L458.64 289.2L458.64 289.2L458.64 276.72L458.64 276.72L452.64 276.72z" /></clipPath><clipPath id="42"><path clip-rule="evenodd" d="M505.44 289.2L511.44 289.2L511.44 289.2L511.44 276.72L511.44 276.72L505.44 276.72z" /></clipPath><clipPath id="43"><path clip-rule="evenodd" d="M584.4 289.2L590.4 289.2L590.4 289.2L590.4 276.72L590.4 276.72L584.4 276.72z" /></clipPath><clipPath id="44"><path clip-rule="evenodd" d="M54.24 327.36L60.24 327.36L60.24 327.36L60.24 314.88L60.24 314.88L54.24 314.88z" /></clipPath><clipPath id="45"><path clip-rule="evenodd" d="M78 327.36L84 327.36L84 327.36L84 314.88L84 314.88L78 314.88z" /></clipPath><clipPath id="46"><path clip-rule="evenodd" d="M185.52 327.36L191.52 327.36L191.52 327.36L191.52 314.88L191.52 314.88L185.52 314.88z" /></clipPath><clipPath id="47"><path clip-rule="evenodd" d="M225.6 327.36L231.6 327.36L231.6 327.36L231.6 314.88L231.6 314.88L225.6 314.88z" /></clipPath><clipPath id="48"><path clip-rule="evenodd" d="M257.04 327.36L263.04 327.36L263.04 327.36L263.04 314.88L263.04 314.88L257.04 314.88z" /></clipPath><clipPath id="49"><path clip-rule="evenodd" d="M314.88 327.36L320.88 327.36L320.88 327.36L320.88 314.88L320.88 314.88L314.88 314.88z" /></clipPath><clipPath id="50"><path clip-rule="evenodd" d="M408.48 327.36L414.48 327.36L414.48 327.36L414.48 314.88L414.48 314.88L408.48 314.88z" /></clipPath><clipPath id="51"><path clip-rule="evenodd" d="M452.64 327.36L458.64 327.36L458.64 327.36L458.64 314.88L458.64 314.88L452.64 314.88z" /></clipPath><clipPath id="52"><path clip-rule="evenodd" d="M505.44 327.36L511.44 327.36L511.44 327.36L511.44 314.88L511.44 314.88L505.44 314.88z" /></clipPath><clipPath id="53"><path clip-rule="evenodd" d="M584.4 327.36L590.4 327.36L590.4 327.36L590.4 314.88L590.4 314.88L584.4 314.88z" /></clipPath><clipPath id="54"><path clip-rule="evenodd" d="M54.24 422.64L60.24 422.64L60.24 422.64L60.24 410.16L60.24 410.16L54.24 410.16z" /></clipPath><clipPath id="55"><path clip-rule="evenodd" d="M78 422.64L84 422.64L84 422.64L84 410.16L84 410.16L78 410.16z" /></clipPath><clipPath id="56"><path clip-rule="evenodd" d="M185.52 422.64L191.52 422.64L191.52 422.64L191.52 410.16L191.52 410.16L185.52 410.16z" /></clipPath><clipPath id="57"><path clip-rule="evenodd" d="M225.6 422.64L231.6 422.64L231.6 422.64L231.6 410.16L231.6 410.16L225.6 410.16z" /></clipPath><clipPath id="58"><path clip-rule="evenodd" d="M257.04 422.64L263.04 422.64L263.04 422.64L263.04 410.16L263.04 410.16L257.04 410.16z" /></clipPath><clipPath id="59"><path clip-rule="evenodd" d="M314.88 422.64L320.88 422.64L320.88 422.64L320.88 410.16L320.88 410.16L314.88 410.16z" /></clipPath><clipPath id="60"><path clip-rule="evenodd" d="M408.48 422.64L414.48 422.64L414.48 422.64L414.48 410.16L414.48 410.16L408.48 410.16z" /></clipPath><clipPath id="61"><path clip-rule="evenodd" d="M452.64 422.64L458.64 422.64L458.64 422.64L458.64 410.16L458.64 410.16L452.64 410.16z" /></clipPath><clipPath id="62"><path clip-rule="evenodd" d="M505.44 422.64L511.44 422.64L511.44 422.64L511.44 410.16L511.44 410.16L505.44 410.16z" /></clipPath><clipPath id="63"><path clip-rule="evenodd" d="M584.4 422.64L590.4 422.64L590.4 422.64L590.4 410.16L590.4 410.16L584.4 410.16z" /></clipPath></defs><g transform="matrix(1.333333 0 0 1.333333 0 0)"><g><g clip-path="url(#1)"><g clip-path="url(#2)"></g><path transform="matrix(1 0 0 -1 0 612)" d="M48.72 427.92L49.2 427.92L49.2 428.4L48.72 428.4z" stroke="none" fill="#000000" fill-rule="nonzero" /><path transform="matrix(1 0 0 -1 0 612)" d="M48.72 427.92L49.2 427.92L49.2 428.4L48.72 428.4z" stroke="none" fill="#000000" fill-rule="nonzero" /><path transform="matrix(1 0 0 -1 0 612)" d="M49.2 427.92L72.96 427.92L72.96 428.4L49.2 428.4z" stroke="none" fill="#000000" fill-rule="nonzero" /><path transform="matrix(1 0 0 -1 0 612)" d="M72.9599 427.92L73.1999 427.92L73.1999 428.4L72.9599 428.4z" stroke="none" fill="#000000" fill-rule="nonzero" /><path transform="matrix(1 0 0 -1 0 612)" d="M73.2 427.92L180 427.92L180 428.4L73.2 428.4z" stroke="none" fill="#000000" fill-rule="nonzero" /><path transform="matrix(1 0 0 -1 0 612)" d="M180 427.92L180.48 427.92L180.48 428.4L180 428.4z" stroke="none" fill="#000000" fill-rule="nonzero" /><path transform="matrix(1 0 0 -1 0 612)" d="M180.48 427.92L251.52 427.92L251.52 428.4L180.48 428.4z" stroke="none" fill="#000000" fill-rule="nonzero" /><path transform="matrix(1 0 0 -1 0 612)" d="M251.52 427.92L252 427.92L252 428.4L251.52 428.4z" stroke="none" fill="#000000" fill-rule="nonzero" /><path transform="matrix(1 0 0 -1 0 612)" d="M252 427.92L309.84 427.92L309.84 428.4L252 428.4z" stroke="none" fill="#000000" fill-rule="nonzero" /><path transform="matrix(1 0 0 -1 0 612)" d="M309.84 427.92L310.08 427.92L310.08 428.4L309.84 428.4z" stroke="none" fill="#000000" fill-rule="nonzero" /><path transform="matrix(1 0 0 -1 0 612)" d="M310.08 427.92L403.44 427.92L403.44 428.4L310.08 428.4z" stroke="none" fill="#000000" fill-rule="nonzero" /><path transform="matrix(1 0 0 -1 0 612)" d="M403.44 427.92L403.92 427.92L403.92 428.4L403.44 428.4z" stroke="none" fill="#000000" fill-rule="nonzero" /><path transform="matrix(1 0 0 -1 0 612)" d="M403.92 427.92L499.92 427.92L499.92 428.4L403.92 428.4z" stroke="none" fill="#000000" fill-rule="nonzero" /><path transform="matrix(1 0 0 -1 0 612)" d="M499.92 427.92L500.4 427.92L500.4 428.4L499.92 428.4z" stroke="none" fill="#000000" fill-rule="nonzero" /><path transform="matrix(1 0 0 -1 0 612)" d="M500.4 427.92L579.12 427.92L579.12 428.4L500.4 428.4z" stroke="none" fill="#000000" fill-rule="nonzero" /><path transform="matrix(1 0 0 -1 0 612)" d="M579.12 427.92L579.6 427.92L579.6 428.4L579.12 428.4z" stroke="none" fill="#000000" fill-rule="nonzero" /><path transform="matrix(1 0 0 -1 0 612)" d="M579.6 427.92L730.8 427.92L730.8 428.4L579.6 428.4z" stroke="none" fill="#000000" fill-rule="nonzero" /><path transform="matrix(1 0 0 -1 0 612)" d="M730.8 427.92L731.28 427.92L731.28 428.4L730.8 428.4z" stroke="none" fill="#000000" fill-rule="nonzero" /><path transform="matrix(1 0 0 -1 0 612)" d="M730.8 427.92L731.28 427.92L731.28 428.4L730.8 428.4z" stroke="none" fill="#000000" fill-rule="nonzero" /><path transform="matrix(1 0 0 -1 0 612)" d="M48.72 404.16L49.2 404.16L49.2 427.92L48.72 427.92z" stroke="none" fill="#000000" fill-rule="nonzero" /><path transform="matrix(1 0 0 -1 0 612)" d="M72.9599 404.16L73.1999 404.16L73.1999 427.92L72.9599 427.92z" stroke="none" fill="#000000" fill-rule="nonzero" /><path transform="matrix(1 0 0 -1 0 612)" d="M180 404.16L180.48 404.16L180.48 427.92L180 427.92z" stroke="none" fill="#000000" fill-rule="nonzero" /><path transform="matrix(1 0 0 -1 0 612)" d="M251.52 404.16L252 404.16L252 427.92L251.52 427.92z" stroke="none" fill="#000000" fill-rule="nonzero" /><path transform="matrix(1 0 0 -1 0 612)" d="M309.84 404.16L310.08 404.16L310.08 427.92L309.84 427.92z" stroke="none" fill="#000000" fill-rule="nonzero" /><path transform="matrix(1 0 0 -1 0 612)" d="M403.44 404.16L403.92 404.16L403.92 427.92L403.44 427.92z" stroke="none" fill="#000000" fill-rule="nonzero" /><path transform="matrix(1 0 0 -1 0 612)" d="M499.92 404.16L500.4 404.16L500.4 427.92L499.92 427.92z" stroke="none" fill="#000000" fill-rule="nonzero" /><path transform="matrix(1 0 0 -1 0 612)" d="M579.12 404.16L579.6 404.16L579.6 427.92L579.12 427.92z" stroke="none" fill="#000000" fill-rule="nonzero" /><path transform="matrix(1 0 0 -1 0 612)" d="M730.8 404.16L731.28 404.16L731.28 427.92L730.8 427.92z" stroke="none" fill="#000000" fill-rule="nonzero" /><g clip-path="url(#3)"></g><g clip-path="url(#4)"></g><g clip-path="url(#5)"></g><g clip-path="url(#6)"></g><g clip-path="url(#7)"></g><g clip-path="url(#8)"></g><g clip-path="url(#9)"></g><g clip-path="url(#10)"></g><g clip-path="url(#11)"></g><g clip-path="url(#12)"></g><g clip-path="url(#13)"></g><path transform="matrix(1 0 0 -1 0 612)" d="M48.72 403.68L49.2 403.68L49.2 404.16L48.72 404.16z" stroke="none" fill="#000000" fill-rule="nonzero" /><path transform="matrix(1 0 0 -1 0 612)" d="M72.9599 403.68L73.1999 403.68L73.1999 404.16L72.9599 404.16z" stroke="none" fill="#000000" fill-rule="nonzero" /><path transform="matrix(1 0 0 -1 0 612)" d="M180 403.68L180.48 403.68L180.48 404.16L180 404.16z" stroke="none" fill="#000000" fill-rule="nonzero" /><path transform="matrix(1 0 0 -1 0 612)" d="M180.48 403.68L220.08 403.68L220.08 404.16L180.48 404.16z" stroke="none" fill="#000000" fill-rule="nonzero" /><path transform="matrix(1 0 0 -1 0 612)" d="M220.08 403.68L220.56 403.68L220.56 404.16L220.08 404.16z" stroke="none" fill="#000000" fill-rule="nonzero" /><path transform="matrix(1 0 0 -1 0 612)" d="M220.56 403.68L251.52 403.68L251.52 404.16L220.56 404.16z" stroke="none" fill="#000000" fill-rule="nonzero" /><path transform="matrix(1 0 0 -1 0 612)" d="M251.52 403.68L252 403.68L252 404.16L251.52 404.16z" stroke="none" fill="#000000" fill-rule="nonzero" /><path transform="matrix(1 0 0 -1 0 612)" d="M309.84 403.68L310.08 403.68L310.08 404.16L309.84 404.16z" stroke="none" fill="#000000" fill-rule="nonzero" /><path transform="matrix(1 0 0 -1 0 612)" d="M403.44 403.68L403.92 403.68L403.92 404.16L403.44 404.16z" stroke="none" fill="#000000" fill-rule="nonzero" /><path transform="matrix(1 0 0 -1 0 612)" d="M403.92 403.68L447.36 403.68L447.36 404.16L403.92 404.16z" stroke="none" fill="#000000" fill-rule="nonzero" /><path transform="matrix(1 0 0 -1 0 612)" d="M447.36 403.68L447.84 403.68L447.84 404.16L447.36 404.16z" stroke="none" fill="#000000" fill-rule="nonzero" /><path transform="matrix(1 0 0 -1 0 612)" d="M447.84 403.68L499.92 403.68L499.92 404.16L447.84 404.16z" stroke="none" fill="#000000" fill-rule="nonzero" /><path transform="matrix(1 0 0 -1 0 612)" d="M499.92 403.68L500.4 403.68L500.4 404.16L499.92 404.16z" stroke="none" fill="#000000" fill-rule="nonzero" /><path transform="matrix(1 0 0 -1 0 612)" d="M579.12 403.68L579.6 403.68L579.6 404.16L579.12 404.16z" stroke="none" fill="#000000" fill-rule="nonzero" /><path transform="matrix(1 0 0 -1 0 612)" d="M730.8 403.68L731.28 403.68L731.28 404.16L730.8 404.16z" stroke="none" fill="#000000" fill-rule="nonzero" /><path transform="matrix(1 0 0 -1 0 612)" d="M48.72 374.4L49.2 374.4L49.2 403.68L48.72 403.68z" stroke="none" fill="#000000" fill-rule="nonzero" /><path transform="matrix(1 0 0 -1 0 612)" d="M72.9599 374.4L73.1999 374.4L73.1999 403.68L72.9599 403.68z" stroke="none" fill="#000000" fill-rule="nonzero" /><path transform="matrix(1 0 0 -1 0 612)" d="M180 374.4L180.48 374.4L180.48 403.68L180 403.68z" stroke="none" fill="#000000" fill-rule="nonzero" /><path transform="matrix(1 0 0 -1 0 612)" d="M220.08 374.4L220.56 374.4L220.56 403.68L220.08 403.68z" stroke="none" fill="#000000" fill-rule="nonzero" /><path transform="matrix(1 0 0 -1 0 612)" d="M251.52 374.4L252 374.4L252 403.68L251.52 403.68z" stroke="none" fill="#000000" fill-rule="nonzero" /><path transform="matrix(1 0 0 -1 0 612)" d="M309.84 374.4L310.08 374.4L310.08 403.68L309.84 403.68z" stroke="none" fill="#000000" fill-rule="nonzero" /><path transform="matrix(1 0 0 -1 0 612)" d="M403.44 374.4L403.92 374.4L403.92 403.68L403.44 403.68z" stroke="none" fill="#000000" fill-rule="nonzero" /><path transform="matrix(1 0 0 -1 0 612)" d="M447.36 374.4L447.84 374.4L447.84 403.68L447.36 403.68z" stroke="none" fill="#000000" fill-rule="nonzero" /><path transform="matrix(1 0 0 -1 0 612)" d="M499.92 374.4L500.4 374.4L500.4 403.68L499.92 403.68z" stroke="none" fill="#000000" fill-rule="nonzero" /><path transform="matrix(1 0 0 -1 0 612)" d="M579.12 374.4L579.6 374.4L579.6 403.68L579.12 403.68z" stroke="none" fill="#000000" fill-rule="nonzero" /><path transform="matrix(1 0 0 -1 0 612)" d="M730.8 374.4L731.28 374.4L731.28 403.68L730.8 403.68z" stroke="none" fill="#000000" fill-rule="nonzero" /><g clip-path="url(#14)"></g><g clip-path="url(#15)"></g><g clip-path="url(#16)"></g><g clip-path="url(#17)"></g><g clip-path="url(#18)"></g><g clip-path="url(#19)"></g><g clip-path="url(#20)"></g><g clip-path="url(#21)"></g><g clip-path="url(#22)"></g><g clip-path="url(#23)"></g><g clip-path="url(#24)"></g><g clip-path="url(#25)"></g><g clip-path="url(#26)"></g><g clip-path="url(#27)"></g><g clip-path="url(#28)"></g><g clip-path="url(#29)"></g><g clip-path="url(#30)"></g><g clip-path="url(#31)"></g><g clip-path="url(#32)"></g><g clip-path="url(#33)"></g><path transform="matrix(1 0 0 -1 0 612)" d="M48.72 373.92L49.2 373.92L49.2 374.4L48.72 374.4z" stroke="none" fill="#000000" fill-rule="nonzero" /><path transform="matrix(1 0 0 -1 0 612)" d="M49.2 373.92L72.96 373.92L72.96 374.4L49.2 374.4z" stroke="none" fill="#000000" fill-rule="nonzero" /><path transform="matrix(1 0 0 -1 0 612)" d="M72.9599 373.92L73.1999 373.92L73.1999 374.4L72.9599 374.4z" stroke="none" fill="#000000" fill-rule="nonzero" /><path transform="matrix(1 0 0 -1 0 612)" d="M73.2 373.92L180 373.92L180 374.4L73.2 374.4z" stroke="none" fill="#000000" fill-rule="nonzero" /><path transform="matrix(1 0 0 -1 0 612)" d="M180 373.92L180.48 373.92L180.48 374.4L180 374.4z" stroke="none" fill="#000000" fill-rule="nonzero" /><path transform="matrix(1 0 0 -1 0 612)" d="M180.48 373.92L220.08 373.92L220.08 374.4L180.48 374.4z" stroke="none" fill="#000000" fill-rule="nonzero" /><path transform="matrix(1 0 0 -1 0 612)" d="M220.08 373.92L220.56 373.92L220.56 374.4L220.08 374.4z" stroke="none" fill="#000000" fill-rule="nonzero" /><path transform="matrix(1 0 0 -1 0 612)" d="M220.56 373.92L251.52 373.92L251.52 374.4L220.56 374.4z" stroke="none" fill="#000000" fill-rule="nonzero" /><path transform="matrix(1 0 0 -1 0 612)" d="M251.52 373.92L252 373.92L252 374.4L251.52 374.4z" stroke="none" fill="#000000" fill-rule="nonzero" /><path transform="matrix(1 0 0 -1 0 612)" d="M252 373.92L309.84 373.92L309.84 374.4L252 374.4z" stroke="none" fill="#000000" fill-rule="nonzero" /><path transform="matrix(1 0 0 -1 0 612)" d="M309.84 373.92L310.08 373.92L310.08 374.4L309.84 374.4z" stroke="none" fill="#000000" fill-rule="nonzero" /><path transform="matrix(1 0 0 -1 0 612)" d="M310.08 373.92L403.44 373.92L403.44 374.4L310.08 374.4z" stroke="none" fill="#000000" fill-rule="nonzero" /><path transform="matrix(1 0 0 -1 0 612)" d="M403.44 373.92L403.92 373.92L403.92 374.4L403.44 374.4z" stroke="none" fill="#000000" fill-rule="nonzero" /><path transform="matrix(1 0 0 -1 0 612)" d="M403.92 373.92L447.36 373.92L447.36 374.4L403.92 374.4z" stroke="none" fill="#000000" fill-rule="nonzero" /><path transform="matrix(1 0 0 -1 0 612)" d="M447.36 373.92L447.84 373.92L447.84 374.4L447.36 374.4z" stroke="none" fill="#000000" fill-rule="nonzero" /><path transform="matrix(1 0 0 -1 0 612)" d="M447.84 373.92L499.92 373.92L499.92 374.4L447.84 374.4z" stroke="none" fill="#000000" fill-rule="nonzero" /><path transform="matrix(1 0 0 -1 0 612)" d="M499.92 373.92L500.4 373.92L500.4 374.4L499.92 374.4z" stroke="none" fill="#000000" fill-rule="nonzero" /><path transform="matrix(1 0 0 -1 0 612)" d="M500.4 373.92L579.12 373.92L579.12 374.4L500.4 374.4z" stroke="none" fill="#000000" fill-rule="nonzero" /><path transform="matrix(1 0 0 -1 0 612)" d="M579.12 373.92L579.6 373.92L579.6 374.4L579.12 374.4z" stroke="none" fill="#000000" fill-rule="nonzero" /><path transform="matrix(1 0 0 -1 0 612)" d="M579.6 373.92L730.8 373.92L730.8 374.4L579.6 374.4z" stroke="none" fill="#000000" fill-rule="nonzero" /><path transform="matrix(1 0 0 -1 0 612)" d="M730.8 373.92L731.28 373.92L731.28 374.4L730.8 374.4z" stroke="none" fill="#000000" fill-rule="nonzero" /><path transform="matrix(1 0 0 -1 0 612)" d="M48.72 360.96L49.2 360.96L49.2 373.92L48.72 373.92z" stroke="none" fill="#000000" fill-rule="nonzero" /><path transform="matrix(1 0 0 -1 0 612)" d="M72.9599 360.96L73.1999 360.96L73.1999 373.92L72.9599 373.92z" stroke="none" fill="#000000" fill-rule="nonzero" /><path transform="matrix(1 0 0 -1 0 612)" d="M180 360.96L180.48 360.96L180.48 373.92L180 373.92z" stroke="none" fill="#000000" fill-rule="nonzero" /><path transform="matrix(1 0 0 -1 0 612)" d="M220.08 360.96L220.56 360.96L220.56 373.92L220.08 373.92z" stroke="none" fill="#000000" fill-rule="nonzero" /><path transform="matrix(1 0 0 -1 0 612)" d="M251.52 360.96L252 360.96L252 373.92L251.52 373.92z" stroke="none" fill="#000000" fill-rule="nonzero" /><path transform="matrix(1 0 0 -1 0 612)" d="M309.84 360.96L310.08 360.96L310.08 373.92L309.84 373.92z" stroke="none" fill="#000000" fill-rule="nonzero" /><path transform="matrix(1 0 0 -1 0 612)" d="M403.44 360.96L403.92 360.96L403.92 373.92L403.44 373.92z" stroke="none" fill="#000000" fill-rule="nonzero" /><path transform="matrix(1 0 0 -1 0 612)" d="M447.36 360.96L447.84 360.96L447.84 373.92L447.36 373.92z" stroke="none" fill="#000000" fill-rule="nonzero" /><path transform="matrix(1 0 0 -1 0 612)" d="M499.92 360.96L500.4 360.96L500.4 373.92L499.92 373.92z" stroke="none" fill="#000000" fill-rule="nonzero" /><path transform="matrix(1 0 0 -1 0 612)" d="M579.12 360.96L579.6 360.96L579.6 373.92L579.12 373.92z" stroke="none" fill="#000000" fill-rule="nonzero" /><path transform="matrix(1 0 0 -1 0 612)" d="M730.8 360.96L731.28 360.96L731.28 373.92L730.8 373.92z" stroke="none" fill="#000000" fill-rule="nonzero" /><path transform="matrix(1 0 0 -1 0 612)" d="M48.72 360.48L49.2 360.48L49.2 360.96L48.72 360.96z" stroke="none" fill="#000000" fill-rule="nonzero" /><path transform="matrix(1 0 0 -1 0 612)" d="M49.2 360.48L72.96 360.48L72.96 360.96L49.2 360.96z" stroke="none" fill="#000000" fill-rule="nonzero" /><path transform="matrix(1 0 0 -1 0 612)" d="M72.9599 360.48L73.1999 360.48L73.1999 360.96L72.9599 360.96z" stroke="none" fill="#000000" fill-rule="nonzero" /><path transform="matrix(1 0 0 -1 0 612)" d="M73.2 360.48L180 360.48L180 360.96L73.2 360.96z" stroke="none" fill="#000000" fill-rule="nonzero" /><path transform="matrix(1 0 0 -1 0 612)" d="M180 360.48L180.48 360.48L180.48 360.96L180 360.96z" stroke="none" fill="#000000" fill-rule="nonzero" /><path transform="matrix(1 0 0 -1 0 612)" d="M180.48 360.48L220.08 360.48L220.08 360.96L180.48 360.96z" stroke="none" fill="#000000" fill-rule="nonzero" /><path transform="matrix(1 0 0 -1 0 612)" d="M220.08 360.48L220.56 360.48L220.56 360.96L220.08 360.96z" stroke="none" fill="#000000" fill-rule="nonzero" /><path transform="matrix(1 0 0 -1 0 612)" d="M220.56 360.48L251.52 360.48L251.52 360.96L220.56 360.96z" stroke="none" fill="#000000" fill-rule="nonzero" /><path transform="matrix(1 0 0 -1 0 612)" d="M251.52 360.48L252 360.48L252 360.96L251.52 360.96z" stroke="none" fill="#000000" fill-rule="nonzero" /><path transform="matrix(1 0 0 -1 0 612)" d="M252 360.48L309.84 360.48L309.84 360.96L252 360.96z" stroke="none" fill="#000000" fill-rule="nonzero" /><path transform="matrix(1 0 0 -1 0 612)" d="M309.84 360.48L310.08 360.48L310.08 360.96L309.84 360.96z" stroke="none" fill="#000000" fill-rule="nonzero" /><path transform="matrix(1 0 0 -1 0 612)" d="M310.08 360.48L403.44 360.48L403.44 360.96L310.08 360.96z" stroke="none" fill="#000000" fill-rule="nonzero" /><path transform="matrix(1 0 0 -1 0 612)" d="M403.44 360.48L403.92 360.48L403.92 360.96L403.44 360.96z" stroke="none" fill="#000000" fill-rule="nonzero" /><path transform="matrix(1 0 0 -1 0 612)" d="M403.92 360.48L447.36 360.48L447.36 360.96L403.92 360.96z" stroke="none" fill="#000000" fill-rule="nonzero" /><path transform="matrix(1 0 0 -1 0 612)" d="M447.36 360.48L447.84 360.48L447.84 360.96L447.36 360.96z" stroke="none" fill="#000000" fill-rule="nonzero" /><path transform="matrix(1 0 0 -1 0 612)" d="M447.84 360.48L499.92 360.48L499.92 360.96L447.84 360.96z" stroke="none" fill="#000000" fill-rule="nonzero" /><path transform="matrix(1 0 0 -1 0 612)" d="M499.92 360.48L500.4 360.48L500.4 360.96L499.92 360.96z" stroke="none" fill="#000000" fill-rule="nonzero" /><path transform="matrix(1 0 0 -1 0 612)" d="M500.4 360.48L579.12 360.48L579.12 360.96L500.4 360.96z" stroke="none" fill="#000000" fill-rule="nonzero" /><path transform="matrix(1 0 0 -1 0 612)" d="M579.12 360.48L579.6 360.48L579.6 360.96L579.12 360.96z" stroke="none" fill="#000000" fill-rule="nonzero" /><path transform="matrix(1 0 0 -1 0 612)" d="M579.6 360.48L730.8 360.48L730.8 360.96L579.6 360.96z" stroke="none" fill="#000000" fill-rule="nonzero" /><path transform="matrix(1 0 0 -1 0 612)" d="M730.8 360.48L731.28 360.48L731.28 360.96L730.8 360.96z" stroke="none" fill="#000000" fill-rule="nonzero" /><path transform="matrix(1 0 0 -1 0 612)" d="M48.72 341.76L49.2 341.76L49.2 360.48L48.72 360.48z" stroke="none" fill="#000000" fill-rule="nonzero" /><path transform="matrix(1 0 0 -1 0 612)" d="M72.9599 341.76L73.1999 341.76L73.1999 360.48L72.9599 360.48z" stroke="none" fill="#000000" fill-rule="nonzero" /><path transform="matrix(1 0 0 -1 0 612)" d="M180 341.76L180.48 341.76L180.48 360.48L180 360.48z" stroke="none" fill="#000000" fill-rule="nonzero" /><path transform="matrix(1 0 0 -1 0 612)" d="M220.08 341.76L220.56 341.76L220.56 360.48L220.08 360.48z" stroke="none" fill="#000000" fill-rule="nonzero" /><path transform="matrix(1 0 0 -1 0 612)" d="M251.52 341.76L252 341.76L252 360.48L251.52 360.48z" stroke="none" fill="#000000" fill-rule="nonzero" /><path transform="matrix(1 0 0 -1 0 612)" d="M309.84 341.76L310.08 341.76L310.08 360.48L309.84 360.48z" stroke="none" fill="#000000" fill-rule="nonzero" /><path transform="matrix(1 0 0 -1 0 612)" d="M403.44 341.76L403.92 341.76L403.92 360.48L403.44 360.48z" stroke="none" fill="#000000" fill-rule="nonzero" /><path transform="matrix(1 0 0 -1 0 612)" d="M447.36 341.76L447.84 341.76L447.84 360.48L447.36 360.48z" stroke="none" fill="#000000" fill-rule="nonzero" /><path transform="matrix(1 0 0 -1 0 612)" d="M499.92 341.76L500.4 341.76L500.4 360.48L499.92 360.48z" stroke="none" fill="#000000" fill-rule="nonzero" /><path transform="matrix(1 0 0 -1 0 612)" d="M579.12 341.76L579.6 341.76L579.6 360.48L579.12 360.48z" stroke="none" fill="#000000" fill-rule="nonzero" /><path transform="matrix(1 0 0 -1 0 612)" d="M730.8 341.76L731.28 341.76L731.28 360.48L730.8 360.48z" stroke="none" fill="#000000" fill-rule="nonzero" /><g clip-path="url(#34)"></g><g clip-path="url(#35)"></g><g clip-path="url(#36)"></g><g clip-path="url(#37)"></g><g clip-path="url(#38)"></g><g clip-path="url(#39)"></g><g clip-path="url(#40)"></g><g clip-path="url(#41)"></g><g clip-path="url(#42)"></g><g clip-path="url(#43)"></g><path transform="matrix(1 0 0 -1 0 612)" d="M48.72 341.28L49.2 341.28L49.2 341.76L48.72 341.76z" stroke="none" fill="#000000" fill-rule="nonzero" /><path transform="matrix(1 0 0 -1 0 612)" d="M49.2 341.28L72.96 341.28L72.96 341.76L49.2 341.76z" stroke="none" fill="#000000" fill-rule="nonzero" /><path transform="matrix(1 0 0 -1 0 612)" d="M72.9599 341.28L73.1999 341.28L73.1999 341.76L72.9599 341.76z" stroke="none" fill="#000000" fill-rule="nonzero" /><path transform="matrix(1 0 0 -1 0 612)" d="M73.2 341.28L180 341.28L180 341.76L73.2 341.76z" stroke="none" fill="#000000" fill-rule="nonzero" /><path transform="matrix(1 0 0 -1 0 612)" d="M180 341.28L180.48 341.28L180.48 341.76L180 341.76z" stroke="none" fill="#000000" fill-rule="nonzero" /><path transform="matrix(1 0 0 -1 0 612)" d="M180.48 341.28L220.08 341.28L220.08 341.76L180.48 341.76z" stroke="none" fill="#000000" fill-rule="nonzero" /><path transform="matrix(1 0 0 -1 0 612)" d="M220.08 341.28L220.56 341.28L220.56 341.76L220.08 341.76z" stroke="none" fill="#000000" fill-rule="nonzero" /><path transform="matrix(1 0 0 -1 0 612)" d="M220.56 341.28L251.52 341.28L251.52 341.76L220.56 341.76z" stroke="none" fill="#000000" fill-rule="nonzero" /><path transform="matrix(1 0 0 -1 0 612)" d="M251.52 341.28L252 341.28L252 341.76L251.52 341.76z" stroke="none" fill="#000000" fill-rule="nonzero" /><path transform="matrix(1 0 0 -1 0 612)" d="M252 341.28L309.84 341.28L309.84 341.76L252 341.76z" stroke="none" fill="#000000" fill-rule="nonzero" /><path transform="matrix(1 0 0 -1 0 612)" d="M309.84 341.28L310.08 341.28L310.08 341.76L309.84 341.76z" stroke="none" fill="#000000" fill-rule="nonzero" /><path transform="matrix(1 0 0 -1 0 612)" d="M310.08 341.28L403.44 341.28L403.44 341.76L310.08 341.76z" stroke="none" fill="#000000" fill-rule="nonzero" /><path transform="matrix(1 0 0 -1 0 612)" d="M403.44 341.28L403.92 341.28L403.92 341.76L403.44 341.76z" stroke="none" fill="#000000" fill-rule="nonzero" /><path transform="matrix(1 0 0 -1 0 612)" d="M403.92 341.28L447.36 341.28L447.36 341.76L403.92 341.76z" stroke="none" fill="#000000" fill-rule="nonzero" /><path transform="matrix(1 0 0 -1 0 612)" d="M447.36 341.28L447.84 341.28L447.84 341.76L447.36 341.76z" stroke="none" fill="#000000" fill-rule="nonzero" /><path transform="matrix(1 0 0 -1 0 612)" d="M447.84 341.28L499.92 341.28L499.92 341.76L447.84 341.76z" stroke="none" fill="#000000" fill-rule="nonzero" /><path transform="matrix(1 0 0 -1 0 612)" d="M499.92 341.28L500.4 341.28L500.4 341.76L499.92 341.76z" stroke="none" fill="#000000" fill-rule="nonzero" /><path transform="matrix(1 0 0 -1 0 612)" d="M500.4 341.28L579.12 341.28L579.12 341.76L500.4 341.76z" stroke="none" fill="#000000" fill-rule="nonzero" /><path transform="matrix(1 0 0 -1 0 612)" d="M579.12 341.28L579.6 341.28L579.6 341.76L579.12 341.76z" stroke="none" fill="#000000" fill-rule="nonzero" /><path transform="matrix(1 0 0 -1 0 612)" d="M579.6 341.28L730.8 341.28L730.8 341.76L579.6 341.76z" stroke="none" fill="#000000" fill-rule="nonzero" /><path transform="matrix(1 0 0 -1 0 612)" d="M730.8 341.28L731.28 341.28L731.28 341.76L730.8 341.76z" stroke="none" fill="#000000" fill-rule="nonzero" /><path transform="matrix(1 0 0 -1 0 612)" d="M48.72 322.8L49.2 322.8L49.2 341.28L48.72 341.28z" stroke="none" fill="#000000" fill-rule="nonzero" /><path transform="matrix(1 0 0 -1 0 612)" d="M72.9599 322.8L73.1999 322.8L73.1999 341.28L72.9599 341.28z" stroke="none" fill="#000000" fill-rule="nonzero" /><path transform="matrix(1 0 0 -1 0 612)" d="M180 322.8L180.48 322.8L180.48 341.28L180 341.28z" stroke="none" fill="#000000" fill-rule="nonzero" /><path transform="matrix(1 0 0 -1 0 612)" d="M220.08 322.8L220.56 322.8L220.56 341.28L220.08 341.28z" stroke="none" fill="#000000" fill-rule="nonzero" /><path transform="matrix(1 0 0 -1 0 612)" d="M251.52 322.8L252 322.8L252 341.28L251.52 341.28z" stroke="none" fill="#000000" fill-rule="nonzero" /><path transform="matrix(1 0 0 -1 0 612)" d="M309.84 322.8L310.08 322.8L310.08 341.28L309.84 341.28z" stroke="none" fill="#000000" fill-rule="nonzero" /><path transform="matrix(1 0 0 -1 0 612)" d="M403.44 322.8L403.92 322.8L403.92 341.28L403.44 341.28z" stroke="none" fill="#000000" fill-rule="nonzero" /><path transform="matrix(1 0 0 -1 0 612)" d="M447.36 322.8L447.84 322.8L447.84 341.28L447.36 341.28z" stroke="none" fill="#000000" fill-rule="nonzero" /><path transform="matrix(1 0 0 -1 0 612)" d="M499.92 322.8L500.4 322.8L500.4 341.28L499.92 341.28z" stroke="none" fill="#000000" fill-rule="nonzero" /><path transform="matrix(1 0 0 -1 0 612)" d="M579.12 322.8L579.6 322.8L579.6 341.28L579.12 341.28z" stroke="none" fill="#000000" fill-rule="nonzero" /><path transform="matrix(1 0 0 -1 0 612)" d="M730.8 322.8L731.28 322.8L731.28 341.28L730.8 341.28z" stroke="none" fill="#000000" fill-rule="nonzero" /><path transform="matrix(1 0 0 -1 0 612)" d="M48.72 322.32L49.2 322.32L49.2 322.8L48.72 322.8z" stroke="none" fill="#000000" fill-rule="nonzero" /><path transform="matrix(1 0 0 -1 0 612)" d="M49.2 322.32L72.96 322.32L72.96 322.8L49.2 322.8z" stroke="none" fill="#000000" fill-rule="nonzero" /><path transform="matrix(1 0 0 -1 0 612)" d="M72.9599 322.32L73.1999 322.32L73.1999 322.8L72.9599 322.8z" stroke="none" fill="#000000" fill-rule="nonzero" /><path transform="matrix(1 0 0 -1 0 612)" d="M73.2 322.32L180 322.32L180 322.8L73.2 322.8z" stroke="none" fill="#000000" fill-rule="nonzero" /><path transform="matrix(1 0 0 -1 0 612)" d="M180 322.32L180.48 322.32L180.48 322.8L180 322.8z" stroke="none" fill="#000000" fill-rule="nonzero" /><path transform="matrix(1 0 0 -1 0 612)" d="M180.48 322.32L220.08 322.32L220.08 322.8L180.48 322.8z" stroke="none" fill="#000000" fill-rule="nonzero" /><path transform="matrix(1 0 0 -1 0 612)" d="M220.08 322.32L220.56 322.32L220.56 322.8L220.08 322.8z" stroke="none" fill="#000000" fill-rule="nonzero" /><path transform="matrix(1 0 0 -1 0 612)" d="M220.56 322.32L251.52 322.32L251.52 322.8L220.56 322.8z" stroke="none" fill="#000000" fill-rule="nonzero" /><path transform="matrix(1 0 0 -1 0 612)" d="M251.52 322.32L252 322.32L252 322.8L251.52 322.8z" stroke="none" fill="#000000" fill-rule="nonzero" /><path transform="matrix(1 0 0 -1 0 612)" d="M252 322.32L309.84 322.32L309.84 322.8L252 322.8z" stroke="none" fill="#000000" fill-rule="nonzero" /><path transform="matrix(1 0 0 -1 0 612)" d="M309.84 322.32L310.08 322.32L310.08 322.8L309.84 322.8z" stroke="none" fill="#000000" fill-rule="nonzero" /><path transform="matrix(1 0 0 -1 0 612)" d="M310.08 322.32L403.44 322.32L403.44 322.8L310.08 322.8z" stroke="none" fill="#000000" fill-rule="nonzero" /><path transform="matrix(1 0 0 -1 0 612)" d="M403.44 322.32L403.92 322.32L403.92 322.8L403.44 322.8z" stroke="none" fill="#000000" fill-rule="nonzero" /><path transform="matrix(1 0 0 -1 0 612)" d="M403.92 322.32L447.36 322.32L447.36 322.8L403.92 322.8z" stroke="none" fill="#000000" fill-rule="nonzero" /><path transform="matrix(1 0 0 -1 0 612)" d="M447.36 322.32L447.84 322.32L447.84 322.8L447.36 322.8z" stroke="none" fill="#000000" fill-rule="nonzero" /><path transform="matrix(1 0 0 -1 0 612)" d="M447.84 322.32L499.92 322.32L499.92 322.8L447.84 322.8z" stroke="none" fill="#000000" fill-rule="nonzero" /><path transform="matrix(1 0 0 -1 0 612)" d="M499.92 322.32L500.4 322.32L500.4 322.8L499.92 322.8z" stroke="none" fill="#000000" fill-rule="nonzero" /><path transform="matrix(1 0 0 -1 0 612)" d="M500.4 322.32L579.12 322.32L579.12 322.8L500.4 322.8z" stroke="none" fill="#000000" fill-rule="nonzero" /><path transform="matrix(1 0 0 -1 0 612)" d="M579.12 322.32L579.6 322.32L579.6 322.8L579.12 322.8z" stroke="none" fill="#000000" fill-rule="nonzero" /><path transform="matrix(1 0 0 -1 0 612)" d="M579.6 322.32L730.8 322.32L730.8 322.8L579.6 322.8z" stroke="none" fill="#000000" fill-rule="nonzero" /><path transform="matrix(1 0 0 -1 0 612)" d="M730.8 322.32L731.28 322.32L731.28 322.8L730.8 322.8z" stroke="none" fill="#000000" fill-rule="nonzero" /><path transform="matrix(1 0 0 -1 0 612)" d="M48.72 303.6L49.2 303.6L49.2 322.32L48.72 322.32z" stroke="none" fill="#000000" fill-rule="nonzero" /><path transform="matrix(1 0 0 -1 0 612)" d="M72.9599 303.6L73.1999 303.6L73.1999 322.32L72.9599 322.32z" stroke="none" fill="#000000" fill-rule="nonzero" /><path transform="matrix(1 0 0 -1 0 612)" d="M180 303.6L180.48 303.6L180.48 322.32L180 322.32z" stroke="none" fill="#000000" fill-rule="nonzero" /><path transform="matrix(1 0 0 -1 0 612)" d="M220.08 303.6L220.56 303.6L220.56 322.32L220.08 322.32z" stroke="none" fill="#000000" fill-rule="nonzero" /><path transform="matrix(1 0 0 -1 0 612)" d="M251.52 303.6L252 303.6L252 322.32L251.52 322.32z" stroke="none" fill="#000000" fill-rule="nonzero" /><path transform="matrix(1 0 0 -1 0 612)" d="M309.84 303.6L310.08 303.6L310.08 322.32L309.84 322.32z" stroke="none" fill="#000000" fill-rule="nonzero" /><path transform="matrix(1 0 0 -1 0 612)" d="M403.44 303.6L403.92 303.6L403.92 322.32L403.44 322.32z" stroke="none" fill="#000000" fill-rule="nonzero" /><path transform="matrix(1 0 0 -1 0 612)" d="M447.36 303.6L447.84 303.6L447.84 322.32L447.36 322.32z" stroke="none" fill="#000000" fill-rule="nonzero" /><path transform="matrix(1 0 0 -1 0 612)" d="M499.92 303.6L500.4 303.6L500.4 322.32L499.92 322.32z" stroke="none" fill="#000000" fill-rule="nonzero" /><path transform="matrix(1 0 0 -1 0 612)" d="M579.12 303.6L579.6 303.6L579.6 322.32L579.12 322.32z" stroke="none" fill="#000000" fill-rule="nonzero" /><path transform="matrix(1 0 0 -1 0 612)" d="M730.8 303.6L731.28 303.6L731.28 322.32L730.8 322.32z" stroke="none" fill="#000000" fill-rule="nonzero" /><g clip-path="url(#44)"></g><g clip-path="url(#45)"></g><g clip-path="url(#46)"></g><g clip-path="url(#47)"></g><g clip-path="url(#48)"></g><g clip-path="url(#49)"></g><g clip-path="url(#50)"></g><g clip-path="url(#51)"></g><g clip-path="url(#52)"></g><g clip-path="url(#53)"></g><path transform="matrix(1 0 0 -1 0 612)" d="M48.72 303.12L49.2 303.12L49.2 303.6L48.72 303.6z" stroke="none" fill="#000000" fill-rule="nonzero" /><path transform="matrix(1 0 0 -1 0 612)" d="M49.2 303.12L72.96 303.12L72.96 303.6L49.2 303.6z" stroke="none" fill="#000000" fill-rule="nonzero" /><path transform="matrix(1 0 0 -1 0 612)" d="M72.9599 303.12L73.1999 303.12L73.1999 303.6L72.9599 303.6z" stroke="none" fill="#000000" fill-rule="nonzero" /><path transform="matrix(1 0 0 -1 0 612)" d="M73.2 303.12L180 303.12L180 303.6L73.2 303.6z" stroke="none" fill="#000000" fill-rule="nonzero" /><path transform="matrix(1 0 0 -1 0 612)" d="M180 303.12L180.48 303.12L180.48 303.6L180 303.6z" stroke="none" fill="#000000" fill-rule="nonzero" /><path transform="matrix(1 0 0 -1 0 612)" d="M180.48 303.12L220.08 303.12L220.08 303.6L180.48 303.6z" stroke="none" fill="#000000" fill-rule="nonzero" /><path transform="matrix(1 0 0 -1 0 612)" d="M220.08 303.12L220.56 303.12L220.56 303.6L220.08 303.6z" stroke="none" fill="#000000" fill-rule="nonzero" /><path transform="matrix(1 0 0 -1 0 612)" d="M220.56 303.12L251.52 303.12L251.52 303.6L220.56 303.6z" stroke="none" fill="#000000" fill-rule="nonzero" /><path transform="matrix(1 0 0 -1 0 612)" d="M251.52 303.12L252 303.12L252 303.6L251.52 303.6z" stroke="none" fill="#000000" fill-rule="nonzero" /><path transform="matrix(1 0 0 -1 0 612)" d="M252 303.12L309.84 303.12L309.84 303.6L252 303.6z" stroke="none" fill="#000000" fill-rule="nonzero" /><path transform="matrix(1 0 0 -1 0 612)" d="M309.84 303.12L310.08 303.12L310.08 303.6L309.84 303.6z" stroke="none" fill="#000000" fill-rule="nonzero" /><path transform="matrix(1 0 0 -1 0 612)" d="M310.08 303.12L403.44 303.12L403.44 303.6L310.08 303.6z" stroke="none" fill="#000000" fill-rule="nonzero" /><path transform="matrix(1 0 0 -1 0 612)" d="M403.44 303.12L403.92 303.12L403.92 303.6L403.44 303.6z" stroke="none" fill="#000000" fill-rule="nonzero" /><path transform="matrix(1 0 0 -1 0 612)" d="M403.92 303.12L447.36 303.12L447.36 303.6L403.92 303.6z" stroke="none" fill="#000000" fill-rule="nonzero" /><path transform="matrix(1 0 0 -1 0 612)" d="M447.36 303.12L447.84 303.12L447.84 303.6L447.36 303.6z" stroke="none" fill="#000000" fill-rule="nonzero" /><path transform="matrix(1 0 0 -1 0 612)" d="M447.84 303.12L499.92 303.12L499.92 303.6L447.84 303.6z" stroke="none" fill="#000000" fill-rule="nonzero" /><path transform="matrix(1 0 0 -1 0 612)" d="M499.92 303.12L500.4 303.12L500.4 303.6L499.92 303.6z" stroke="none" fill="#000000" fill-rule="nonzero" /><path transform="matrix(1 0 0 -1 0 612)" d="M500.4 303.12L579.12 303.12L579.12 303.6L500.4 303.6z" stroke="none" fill="#000000" fill-rule="nonzero" /><path transform="matrix(1 0 0 -1 0 612)" d="M579.12 303.12L579.6 303.12L579.6 303.6L579.12 303.6z" stroke="none" fill="#000000" fill-rule="nonzero" /><path transform="matrix(1 0 0 -1 0 612)" d="M579.6 303.12L730.8 303.12L730.8 303.6L579.6 303.6z" stroke="none" fill="#000000" fill-rule="nonzero" /><path transform="matrix(1 0 0 -1 0 612)" d="M730.8 303.12L731.28 303.12L731.28 303.6L730.8 303.6z" stroke="none" fill="#000000" fill-rule="nonzero" /><path transform="matrix(1 0 0 -1 0 612)" d="M48.72 284.64L49.2 284.64L49.2 303.12L48.72 303.12z" stroke="none" fill="#000000" fill-rule="nonzero" /><path transform="matrix(1 0 0 -1 0 612)" d="M72.9599 284.64L73.1999 284.64L73.1999 303.12L72.9599 303.12z" stroke="none" fill="#000000" fill-rule="nonzero" /><path transform="matrix(1 0 0 -1 0 612)" d="M180 284.64L180.48 284.64L180.48 303.12L180 303.12z" stroke="none" fill="#000000" fill-rule="nonzero" /><path transform="matrix(1 0 0 -1 0 612)" d="M220.08 284.64L220.56 284.64L220.56 303.12L220.08 303.12z" stroke="none" fill="#000000" fill-rule="nonzero" /><path transform="matrix(1 0 0 -1 0 612)" d="M251.52 284.64L252 284.64L252 303.12L251.52 303.12z" stroke="none" fill="#000000" fill-rule="nonzero" /><path transform="matrix(1 0 0 -1 0 612)" d="M309.84 284.64L310.08 284.64L310.08 303.12L309.84 303.12z" stroke="none" fill="#000000" fill-rule="nonzero" /><path transform="matrix(1 0 0 -1 0 612)" d="M403.44 284.64L403.92 284.64L403.92 303.12L403.44 303.12z" stroke="none" fill="#000000" fill-rule="nonzero" /><path transform="matrix(1 0 0 -1 0 612)" d="M447.36 284.64L447.84 284.64L447.84 303.12L447.36 303.12z" stroke="none" fill="#000000" fill-rule="nonzero" /><path transform="matrix(1 0 0 -1 0 612)" d="M499.92 284.64L500.4 284.64L500.4 303.12L499.92 303.12z" stroke="none" fill="#000000" fill-rule="nonzero" /><path transform="matrix(1 0 0 -1 0 612)" d="M579.12 284.64L579.6 284.64L579.6 303.12L579.12 303.12z" stroke="none" fill="#000000" fill-rule="nonzero" /><path transform="matrix(1 0 0 -1 0 612)" d="M730.8 284.64L731.28 284.64L731.28 303.12L730.8 303.12z" stroke="none" fill="#000000" fill-rule="nonzero" /><path transform="matrix(1 0 0 -1 0 612)" d="M48.72 284.16L49.2 284.16L49.2 284.64L48.72 284.64z" stroke="none" fill="#000000" fill-rule="nonzero" /><path transform="matrix(1 0 0 -1 0 612)" d="M49.2 284.16L72.96 284.16L72.96 284.64L49.2 284.64z" stroke="none" fill="#000000" fill-rule="nonzero" /><path transform="matrix(1 0 0 -1 0 612)" d="M72.9599 284.16L73.1999 284.16L73.1999 284.64L72.9599 284.64z" stroke="none" fill="#000000" fill-rule="nonzero" /><path transform="matrix(1 0 0 -1 0 612)" d="M73.2 284.16L180 284.16L180 284.64L73.2 284.64z" stroke="none" fill="#000000" fill-rule="nonzero" /><path transform="matrix(1 0 0 -1 0 612)" d="M180 284.16L180.48 284.16L180.48 284.64L180 284.64z" stroke="none" fill="#000000" fill-rule="nonzero" /><path transform="matrix(1 0 0 -1 0 612)" d="M180.48 284.16L220.08 284.16L220.08 284.64L180.48 284.64z" stroke="none" fill="#000000" fill-rule="nonzero" /><path transform="matrix(1 0 0 -1 0 612)" d="M220.08 284.16L220.56 284.16L220.56 284.64L220.08 284.64z" stroke="none" fill="#000000" fill-rule="nonzero" /><path transform="matrix(1 0 0 -1 0 612)" d="M220.56 284.16L251.52 284.16L251.52 284.64L220.56 284.64z" stroke="none" fill="#000000" fill-rule="nonzero" /><path transform="matrix(1 0 0 -1 0 612)" d="M251.52 284.16L252 284.16L252 284.64L251.52 284.64z" stroke="none" fill="#000000" fill-rule="nonzero" /><path transform="matrix(1 0 0 -1 0 612)" d="M252 284.16L309.84 284.16L309.84 284.64L252 284.64z" stroke="none" fill="#000000" fill-rule="nonzero" /><path transform="matrix(1 0 0 -1 0 612)" d="M309.84 284.16L310.08 284.16L310.08 284.64L309.84 284.64z" stroke="none" fill="#000000" fill-rule="nonzero" /><path transform="matrix(1 0 0 -1 0 612)" d="M310.08 284.16L403.44 284.16L403.44 284.64L310.08 284.64z" stroke="none" fill="#000000" fill-rule="nonzero" /><path transform="matrix(1 0 0 -1 0 612)" d="M403.44 284.16L403.92 284.16L403.92 284.64L403.44 284.64z" stroke="none" fill="#000000" fill-rule="nonzero" /><path transform="matrix(1 0 0 -1 0 612)" d="M403.92 284.16L447.36 284.16L447.36 284.64L403.92 284.64z" stroke="none" fill="#000000" fill-rule="nonzero" /><path transform="matrix(1 0 0 -1 0 612)" d="M447.36 284.16L447.84 284.16L447.84 284.64L447.36 284.64z" stroke="none" fill="#000000" fill-rule="nonzero" /><path transform="matrix(1 0 0 -1 0 612)" d="M447.84 284.16L499.92 284.16L499.92 284.64L447.84 284.64z" stroke="none" fill="#000000" fill-rule="nonzero" /><path transform="matrix(1 0 0 -1 0 612)" d="M499.92 284.16L500.4 284.16L500.4 284.64L499.92 284.64z" stroke="none" fill="#000000" fill-rule="nonzero" /><path transform="matrix(1 0 0 -1 0 612)" d="M500.4 284.16L579.12 284.16L579.12 284.64L500.4 284.64z" stroke="none" fill="#000000" fill-rule="nonzero" /><path transform="matrix(1 0 0 -1 0 612)" d="M579.12 284.16L579.6 284.16L579.6 284.64L579.12 284.64z" stroke="none" fill="#000000" fill-rule="nonzero" /><path transform="matrix(1 0 0 -1 0 612)" d="M579.6 284.16L730.8 284.16L730.8 284.64L579.6 284.64z" stroke="none" fill="#000000" fill-rule="nonzero" /><path transform="matrix(1 0 0 -1 0 612)" d="M730.8 284.16L731.28 284.16L731.28 284.64L730.8 284.64z" stroke="none" fill="#000000" fill-rule="nonzero" /><path transform="matrix(1 0 0 -1 0 612)" d="M48.72 265.44L49.2 265.44L49.2 284.16L48.72 284.16z" stroke="none" fill="#000000" fill-rule="nonzero" /><path transform="matrix(1 0 0 -1 0 612)" d="M72.9599 265.44L73.1999 265.44L73.1999 284.16L72.9599 284.16z" stroke="none" fill="#000000" fill-rule="nonzero" /><path transform="matrix(1 0 0 -1 0 612)" d="M180 265.44L180.48 265.44L180.48 284.16L180 284.16z" stroke="none" fill="#000000" fill-rule="nonzero" /><path transform="matrix(1 0 0 -1 0 612)" d="M220.08 265.44L220.56 265.44L220.56 284.16L220.08 284.16z" stroke="none" fill="#000000" fill-rule="nonzero" /><path transform="matrix(1 0 0 -1 0 612)" d="M251.52 265.44L252 265.44L252 284.16L251.52 284.16z" stroke="none" fill="#000000" fill-rule="nonzero" /><path transform="matrix(1 0 0 -1 0 612)" d="M309.84 265.44L310.08 265.44L310.08 284.16L309.84 284.16z" stroke="none" fill="#000000" fill-rule="nonzero" /><path transform="matrix(1 0 0 -1 0 612)" d="M403.44 265.44L403.92 265.44L403.92 284.16L403.44 284.16z" stroke="none" fill="#000000" fill-rule="nonzero" /><path transform="matrix(1 0 0 -1 0 612)" d="M447.36 265.44L447.84 265.44L447.84 284.16L447.36 284.16z" stroke="none" fill="#000000" fill-rule="nonzero" /><path transform="matrix(1 0 0 -1 0 612)" d="M499.92 265.44L500.4 265.44L500.4 284.16L499.92 284.16z" stroke="none" fill="#000000" fill-rule="nonzero" /><path transform="matrix(1 0 0 -1 0 612)" d="M579.12 265.44L579.6 265.44L579.6 284.16L579.12 284.16z" stroke="none" fill="#000000" fill-rule="nonzero" /><path transform="matrix(1 0 0 -1 0 612)" d="M730.8 265.44L731.28 265.44L731.28 284.16L730.8 284.16z" stroke="none" fill="#000000" fill-rule="nonzero" /><path transform="matrix(1 0 0 -1 0 612)" d="M48.72 264.96L49.2 264.96L49.2 265.44L48.72 265.44z" stroke="none" fill="#000000" fill-rule="nonzero" /><path transform="matrix(1 0 0 -1 0 612)" d="M49.2 264.96L72.96 264.96L72.96 265.44L49.2 265.44z" stroke="none" fill="#000000" fill-rule="nonzero" /><path transform="matrix(1 0 0 -1 0 612)" d="M72.9599 264.96L73.1999 264.96L73.1999 265.44L72.9599 265.44z" stroke="none" fill="#000000" fill-rule="nonzero" /><path transform="matrix(1 0 0 -1 0 612)" d="M73.2 264.96L180 264.96L180 265.44L73.2 265.44z" stroke="none" fill="#000000" fill-rule="nonzero" /><path transform="matrix(1 0 0 -1 0 612)" d="M180 264.96L180.48 264.96L180.48 265.44L180 265.44z" stroke="none" fill="#000000" fill-rule="nonzero" /><path transform="matrix(1 0 0 -1 0 612)" d="M180.48 264.96L220.08 264.96L220.08 265.44L180.48 265.44z" stroke="none" fill="#000000" fill-rule="nonzero" /><path transform="matrix(1 0 0 -1 0 612)" d="M220.08 264.96L220.56 264.96L220.56 265.44L220.08 265.44z" stroke="none" fill="#000000" fill-rule="nonzero" /><path transform="matrix(1 0 0 -1 0 612)" d="M220.56 264.96L251.52 264.96L251.52 265.44L220.56 265.44z" stroke="none" fill="#000000" fill-rule="nonzero" /><path transform="matrix(1 0 0 -1 0 612)" d="M251.52 264.96L252 264.96L252 265.44L251.52 265.44z" stroke="none" fill="#000000" fill-rule="nonzero" /><path transform="matrix(1 0 0 -1 0 612)" d="M252 264.96L309.84 264.96L309.84 265.44L252 265.44z" stroke="none" fill="#000000" fill-rule="nonzero" /><path transform="matrix(1 0 0 -1 0 612)" d="M309.84 264.96L310.08 264.96L310.08 265.44L309.84 265.44z" stroke="none" fill="#000000" fill-rule="nonzero" /><path transform="matrix(1 0 0 -1 0 612)" d="M310.08 264.96L403.44 264.96L403.44 265.44L310.08 265.44z" stroke="none" fill="#000000" fill-rule="nonzero" /><path transform="matrix(1 0 0 -1 0 612)" d="M403.44 264.96L403.92 264.96L403.92 265.44L403.44 265.44z" stroke="none" fill="#000000" fill-rule="nonzero" /><path transform="matrix(1 0 0 -1 0 612)" d="M403.92 264.96L447.36 264.96L447.36 265.44L403.92 265.44z" stroke="none" fill="#000000" fill-rule="nonzero" /><path transform="matrix(1 0 0 -1 0 612)" d="M447.36 264.96L447.84 264.96L447.84 265.44L447.36 265.44z" stroke="none" fill="#000000" fill-rule="nonzero" /><path transform="matrix(1 0 0 -1 0 612)" d="M447.84 264.96L499.92 264.96L499.92 265.44L447.84 265.44z" stroke="none" fill="#000000" fill-rule="nonzero" /><path transform="matrix(1 0 0 -1 0 612)" d="M499.92 264.96L500.4 264.96L500.4 265.44L499.92 265.44z" stroke="none" fill="#000000" fill-rule="nonzero" /><path transform="matrix(1 0 0 -1 0 612)" d="M500.4 264.96L579.12 264.96L579.12 265.44L500.4 265.44z" stroke="none" fill="#000000" fill-rule="nonzero" /><path transform="matrix(1 0 0 -1 0 612)" d="M579.12 264.96L579.6 264.96L579.6 265.44L579.12 265.44z" stroke="none" fill="#000000" fill-rule="nonzero" /><path transform="matrix(1 0 0 -1 0 612)" d="M579.6 264.96L730.8 264.96L730.8 265.44L579.6 265.44z" stroke="none" fill="#000000" fill-rule="nonzero" /><path transform="matrix(1 0 0 -1 0 612)" d="M730.8 264.96L731.28 264.96L731.28 265.44L730.8 265.44z" stroke="none" fill="#000000" fill-rule="nonzero" /><path transform="matrix(1 0 0 -1 0 612)" d="M48.72 246.24L49.2 246.24L49.2 264.96L48.72 264.96z" stroke="none" fill="#000000" fill-rule="nonzero" /><path transform="matrix(1 0 0 -1 0 612)" d="M72.9599 246.24L73.1999 246.24L73.1999 264.96L72.9599 264.96z" stroke="none" fill="#000000" fill-rule="nonzero" /><path transform="matrix(1 0 0 -1 0 612)" d="M180 246.24L180.48 246.24L180.48 264.96L180 264.96z" stroke="none" fill="#000000" fill-rule="nonzero" /><path transform="matrix(1 0 0 -1 0 612)" d="M220.08 246.24L220.56 246.24L220.56 264.96L220.08 264.96z" stroke="none" fill="#000000" fill-rule="nonzero" /><path transform="matrix(1 0 0 -1 0 612)" d="M251.52 246.24L252 246.24L252 264.96L251.52 264.96z" stroke="none" fill="#000000" fill-rule="nonzero" /><path transform="matrix(1 0 0 -1 0 612)" d="M309.84 246.24L310.08 246.24L310.08 264.96L309.84 264.96z" stroke="none" fill="#000000" fill-rule="nonzero" /><path transform="matrix(1 0 0 -1 0 612)" d="M403.44 246.24L403.92 246.24L403.92 264.96L403.44 264.96z" stroke="none" fill="#000000" fill-rule="nonzero" /><path transform="matrix(1 0 0 -1 0 612)" d="M447.36 246.24L447.84 246.24L447.84 264.96L447.36 264.96z" stroke="none" fill="#000000" fill-rule="nonzero" /><path transform="matrix(1 0 0 -1 0 612)" d="M499.92 246.24L500.4 246.24L500.4 264.96L499.92 264.96z" stroke="none" fill="#000000" fill-rule="nonzero" /><path transform="matrix(1 0 0 -1 0 612)" d="M579.12 246.24L579.6 246.24L579.6 264.96L579.12 264.96z" stroke="none" fill="#000000" fill-rule="nonzero" /><path transform="matrix(1 0 0 -1 0 612)" d="M730.8 246.24L731.28 246.24L731.28 264.96L730.8 264.96z" stroke="none" fill="#000000" fill-rule="nonzero" /><path transform="matrix(1 0 0 -1 0 612)" d="M48.72 245.76L49.2 245.76L49.2 246.24L48.72 246.24z" stroke="none" fill="#000000" fill-rule="nonzero" /><path transform="matrix(1 0 0 -1 0 612)" d="M49.2 245.76L72.96 245.76L72.96 246.24L49.2 246.24z" stroke="none" fill="#000000" fill-rule="nonzero" /><path transform="matrix(1 0 0 -1 0 612)" d="M72.9599 245.76L73.1999 245.76L73.1999 246.24L72.9599 246.24z" stroke="none" fill="#000000" fill-rule="nonzero" /><path transform="matrix(1 0 0 -1 0 612)" d="M73.2 245.76L180 245.76L180 246.24L73.2 246.24z" stroke="none" fill="#000000" fill-rule="nonzero" /><path transform="matrix(1 0 0 -1 0 612)" d="M180 245.76L180.48 245.76L180.48 246.24L180 246.24z" stroke="none" fill="#000000" fill-rule="nonzero" /><path transform="matrix(1 0 0 -1 0 612)" d="M180.48 245.76L220.08 245.76L220.08 246.24L180.48 246.24z" stroke="none" fill="#000000" fill-rule="nonzero" /><path transform="matrix(1 0 0 -1 0 612)" d="M220.08 245.76L220.56 245.76L220.56 246.24L220.08 246.24z" stroke="none" fill="#000000" fill-rule="nonzero" /><path transform="matrix(1 0 0 -1 0 612)" d="M220.56 245.76L251.52 245.76L251.52 246.24L220.56 246.24z" stroke="none" fill="#000000" fill-rule="nonzero" /><path transform="matrix(1 0 0 -1 0 612)" d="M251.52 245.76L252 245.76L252 246.24L251.52 246.24z" stroke="none" fill="#000000" fill-rule="nonzero" /><path transform="matrix(1 0 0 -1 0 612)" d="M252 245.76L309.84 245.76L309.84 246.24L252 246.24z" stroke="none" fill="#000000" fill-rule="nonzero" /><path transform="matrix(1 0 0 -1 0 612)" d="M309.84 245.76L310.08 245.76L310.08 246.24L309.84 246.24z" stroke="none" fill="#000000" fill-rule="nonzero" /><path transform="matrix(1 0 0 -1 0 612)" d="M310.08 245.76L403.44 245.76L403.44 246.24L310.08 246.24z" stroke="none" fill="#000000" fill-rule="nonzero" /><path transform="matrix(1 0 0 -1 0 612)" d="M403.44 245.76L403.92 245.76L403.92 246.24L403.44 246.24z" stroke="none" fill="#000000" fill-rule="nonzero" /><path transform="matrix(1 0 0 -1 0 612)" d="M403.92 245.76L447.36 245.76L447.36 246.24L403.92 246.24z" stroke="none" fill="#000000" fill-rule="nonzero" /><path transform="matrix(1 0 0 -1 0 612)" d="M447.36 245.76L447.84 245.76L447.84 246.24L447.36 246.24z" stroke="none" fill="#000000" fill-rule="nonzero" /><path transform="matrix(1 0 0 -1 0 612)" d="M447.84 245.76L499.92 245.76L499.92 246.24L447.84 246.24z" stroke="none" fill="#000000" fill-rule="nonzero" /><path transform="matrix(1 0 0 -1 0 612)" d="M499.92 245.76L500.4 245.76L500.4 246.24L499.92 246.24z" stroke="none" fill="#000000" fill-rule="nonzero" /><path transform="matrix(1 0 0 -1 0 612)" d="M500.4 245.76L579.12 245.76L579.12 246.24L500.4 246.24z" stroke="none" fill="#000000" fill-rule="nonzero" /><path transform="matrix(1 0 0 -1 0 612)" d="M579.12 245.76L579.6 245.76L579.6 246.24L579.12 246.24z" stroke="none" fill="#000000" fill-rule="nonzero" /><path transform="matrix(1 0 0 -1 0 612)" d="M579.6 245.76L730.8 245.76L730.8 246.24L579.6 246.24z" stroke="none" fill="#000000" fill-rule="nonzero" /><path transform="matrix(1 0 0 -1 0 612)" d="M730.8 245.76L731.28 245.76L731.28 246.24L730.8 246.24z" stroke="none" fill="#000000" fill-rule="nonzero" /><path transform="matrix(1 0 0 -1 0 612)" d="M48.72 227.28L49.2 227.28L49.2 245.76L48.72 245.76z" stroke="none" fill="#000000" fill-rule="nonzero" /><path transform="matrix(1 0 0 -1 0 612)" d="M72.9599 227.28L73.1999 227.28L73.1999 245.76L72.9599 245.76z" stroke="none" fill="#000000" fill-rule="nonzero" /><path transform="matrix(1 0 0 -1 0 612)" d="M180 227.28L180.48 227.28L180.48 245.76L180 245.76z" stroke="none" fill="#000000" fill-rule="nonzero" /><path transform="matrix(1 0 0 -1 0 612)" d="M220.08 227.28L220.56 227.28L220.56 245.76L220.08 245.76z" stroke="none" fill="#000000" fill-rule="nonzero" /><path transform="matrix(1 0 0 -1 0 612)" d="M251.52 227.28L252 227.28L252 245.76L251.52 245.76z" stroke="none" fill="#000000" fill-rule="nonzero" /><path transform="matrix(1 0 0 -1 0 612)" d="M309.84 227.28L310.08 227.28L310.08 245.76L309.84 245.76z" stroke="none" fill="#000000" fill-rule="nonzero" /><path transform="matrix(1 0 0 -1 0 612)" d="M403.44 227.28L403.92 227.28L403.92 245.76L403.44 245.76z" stroke="none" fill="#000000" fill-rule="nonzero" /><path transform="matrix(1 0 0 -1 0 612)" d="M447.36 227.28L447.84 227.28L447.84 245.76L447.36 245.76z" stroke="none" fill="#000000" fill-rule="nonzero" /><path transform="matrix(1 0 0 -1 0 612)" d="M499.92 227.28L500.4 227.28L500.4 245.76L499.92 245.76z" stroke="none" fill="#000000" fill-rule="nonzero" /><path transform="matrix(1 0 0 -1 0 612)" d="M579.12 227.28L579.6 227.28L579.6 245.76L579.12 245.76z" stroke="none" fill="#000000" fill-rule="nonzero" /><path transform="matrix(1 0 0 -1 0 612)" d="M730.8 227.28L731.28 227.28L731.28 245.76L730.8 245.76z" stroke="none" fill="#000000" fill-rule="nonzero" /><path transform="matrix(1 0 0 -1 0 612)" d="M48.72 227.04L49.2 227.04L49.2 227.28L48.72 227.28z" stroke="none" fill="#000000" fill-rule="nonzero" /><path transform="matrix(1 0 0 -1 0 612)" d="M49.2 227.04L72.96 227.04L72.96 227.28L49.2 227.28z" stroke="none" fill="#000000" fill-rule="nonzero" /><path transform="matrix(1 0 0 -1 0 612)" d="M72.9599 227.04L73.1999 227.04L73.1999 227.28L72.9599 227.28z" stroke="none" fill="#000000" fill-rule="nonzero" /><path transform="matrix(1 0 0 -1 0 612)" d="M73.2 227.04L180 227.04L180 227.28L73.2 227.28z" stroke="none" fill="#000000" fill-rule="nonzero" /><path transform="matrix(1 0 0 -1 0 612)" d="M180 227.04L180.48 227.04L180.48 227.28L180 227.28z" stroke="none" fill="#000000" fill-rule="nonzero" /><path transform="matrix(1 0 0 -1 0 612)" d="M180.48 227.04L220.08 227.04L220.08 227.28L180.48 227.28z" stroke="none" fill="#000000" fill-rule="nonzero" /><path transform="matrix(1 0 0 -1 0 612)" d="M220.08 227.04L220.56 227.04L220.56 227.28L220.08 227.28z" stroke="none" fill="#000000" fill-rule="nonzero" /><path transform="matrix(1 0 0 -1 0 612)" d="M220.56 227.04L251.52 227.04L251.52 227.28L220.56 227.28z" stroke="none" fill="#000000" fill-rule="nonzero" /><path transform="matrix(1 0 0 -1 0 612)" d="M251.52 227.04L252 227.04L252 227.28L251.52 227.28z" stroke="none" fill="#000000" fill-rule="nonzero" /><path transform="matrix(1 0 0 -1 0 612)" d="M252 227.04L309.84 227.04L309.84 227.28L252 227.28z" stroke="none" fill="#000000" fill-rule="nonzero" /><path transform="matrix(1 0 0 -1 0 612)" d="M309.84 227.04L310.08 227.04L310.08 227.28L309.84 227.28z" stroke="none" fill="#000000" fill-rule="nonzero" /><path transform="matrix(1 0 0 -1 0 612)" d="M310.08 227.04L403.44 227.04L403.44 227.28L310.08 227.28z" stroke="none" fill="#000000" fill-rule="nonzero" /><path transform="matrix(1 0 0 -1 0 612)" d="M403.44 227.04L403.92 227.04L403.92 227.28L403.44 227.28z" stroke="none" fill="#000000" fill-rule="nonzero" /><path transform="matrix(1 0 0 -1 0 612)" d="M403.92 227.04L447.36 227.04L447.36 227.28L403.92 227.28z" stroke="none" fill="#000000" fill-rule="nonzero" /><path transform="matrix(1 0 0 -1 0 612)" d="M447.36 227.04L447.84 227.04L447.84 227.28L447.36 227.28z" stroke="none" fill="#000000" fill-rule="nonzero" /><path transform="matrix(1 0 0 -1 0 612)" d="M447.84 227.04L499.92 227.04L499.92 227.28L447.84 227.28z" stroke="none" fill="#000000" fill-rule="nonzero" /><path transform="matrix(1 0 0 -1 0 612)" d="M499.92 227.04L500.4 227.04L500.4 227.28L499.92 227.28z" stroke="none" fill="#000000" fill-rule="nonzero" /><path transform="matrix(1 0 0 -1 0 612)" d="M500.4 227.04L579.12 227.04L579.12 227.28L500.4 227.28z" stroke="none" fill="#000000" fill-rule="nonzero" /><path transform="matrix(1 0 0 -1 0 612)" d="M579.12 227.04L579.6 227.04L579.6 227.28L579.12 227.28z" stroke="none" fill="#000000" fill-rule="nonzero" /><path transform="matrix(1 0 0 -1 0 612)" d="M579.6 227.04L730.8 227.04L730.8 227.28L579.6 227.28z" stroke="none" fill="#000000" fill-rule="nonzero" /><path transform="matrix(1 0 0 -1 0 612)" d="M730.8 227.04L731.28 227.04L731.28 227.28L730.8 227.28z" stroke="none" fill="#000000" fill-rule="nonzero" /><path transform="matrix(1 0 0 -1 0 612)" d="M48.72 208.32L49.2 208.32L49.2 227.04L48.72 227.04z" stroke="none" fill="#000000" fill-rule="nonzero" /><path transform="matrix(1 0 0 -1 0 612)" d="M72.9599 208.32L73.1999 208.32L73.1999 227.04L72.9599 227.04z" stroke="none" fill="#000000" fill-rule="nonzero" /><path transform="matrix(1 0 0 -1 0 612)" d="M180 208.32L180.48 208.32L180.48 227.04L180 227.04z" stroke="none" fill="#000000" fill-rule="nonzero" /><path transform="matrix(1 0 0 -1 0 612)" d="M220.08 208.32L220.56 208.32L220.56 227.04L220.08 227.04z" stroke="none" fill="#000000" fill-rule="nonzero" /><path transform="matrix(1 0 0 -1 0 612)" d="M251.52 208.32L252 208.32L252 227.04L251.52 227.04z" stroke="none" fill="#000000" fill-rule="nonzero" /><path transform="matrix(1 0 0 -1 0 612)" d="M309.84 208.32L310.08 208.32L310.08 227.04L309.84 227.04z" stroke="none" fill="#000000" fill-rule="nonzero" /><path transform="matrix(1 0 0 -1 0 612)" d="M403.44 208.32L403.92 208.32L403.92 227.04L403.44 227.04z" stroke="none" fill="#000000" fill-rule="nonzero" /><path transform="matrix(1 0 0 -1 0 612)" d="M447.36 208.32L447.84 208.32L447.84 227.04L447.36 227.04z" stroke="none" fill="#000000" fill-rule="nonzero" /><path transform="matrix(1 0 0 -1 0 612)" d="M499.92 208.32L500.4 208.32L500.4 227.04L499.92 227.04z" stroke="none" fill="#000000" fill-rule="nonzero" /><path transform="matrix(1 0 0 -1 0 612)" d="M579.12 208.32L579.6 208.32L579.6 227.04L579.12 227.04z" stroke="none" fill="#000000" fill-rule="nonzero" /><path transform="matrix(1 0 0 -1 0 612)" d="M730.8 208.32L731.28 208.32L731.28 227.04L730.8 227.04z" stroke="none" fill="#000000" fill-rule="nonzero" /><g clip-path="url(#54)"></g><g clip-path="url(#55)"></g><g clip-path="url(#56)"></g><g clip-path="url(#57)"></g><g clip-path="url(#58)"></g><g clip-path="url(#59)"></g><g clip-path="url(#60)"></g><g clip-path="url(#61)"></g><g clip-path="url(#62)"></g><g clip-path="url(#63)"></g><path transform="matrix(1 0 0 -1 0 612)" d="M48.72 207.84L49.2 207.84L49.2 208.32L48.72 208.32z" stroke="none" fill="#000000" fill-rule="nonzero" /><path transform="matrix(1 0 0 -1 0 612)" d="M49.2 207.84L72.96 207.84L72.96 208.32L49.2 208.32z" stroke="none" fill="#000000" fill-rule="nonzero" /><path transform="matrix(1 0 0 -1 0 612)" d="M72.9599 207.84L73.1999 207.84L73.1999 208.32L72.9599 208.32z" stroke="none" fill="#000000" fill-rule="nonzero" /><path transform="matrix(1 0 0 -1 0 612)" d="M73.2 207.84L180 207.84L180 208.32L73.2 208.32z" stroke="none" fill="#000000" fill-rule="nonzero" /><path transform="matrix(1 0 0 -1 0 612)" d="M180 207.84L180.48 207.84L180.48 208.32L180 208.32z" stroke="none" fill="#000000" fill-rule="nonzero" /><path transform="matrix(1 0 0 -1 0 612)" d="M180.48 207.84L220.08 207.84L220.08 208.32L180.48 208.32z" stroke="none" fill="#000000" fill-rule="nonzero" /><path transform="matrix(1 0 0 -1 0 612)" d="M220.08 207.84L220.56 207.84L220.56 208.32L220.08 208.32z" stroke="none" fill="#000000" fill-rule="nonzero" /><path transform="matrix(1 0 0 -1 0 612)" d="M220.56 207.84L251.52 207.84L251.52 208.32L220.56 208.32z" stroke="none" fill="#000000" fill-rule="nonzero" /><path transform="matrix(1 0 0 -1 0 612)" d="M251.52 207.84L252 207.84L252 208.32L251.52 208.32z" stroke="none" fill="#000000" fill-rule="nonzero" /><path transform="matrix(1 0 0 -1 0 612)" d="M252 207.84L309.84 207.84L309.84 208.32L252 208.32z" stroke="none" fill="#000000" fill-rule="nonzero" /><path transform="matrix(1 0 0 -1 0 612)" d="M309.84 207.84L310.08 207.84L310.08 208.32L309.84 208.32z" stroke="none" fill="#000000" fill-rule="nonzero" /><path transform="matrix(1 0 0 -1 0 612)" d="M310.08 207.84L403.44 207.84L403.44 208.32L310.08 208.32z" stroke="none" fill="#000000" fill-rule="nonzero" /><path transform="matrix(1 0 0 -1 0 612)" d="M403.44 207.84L403.92 207.84L403.92 208.32L403.44 208.32z" stroke="none" fill="#000000" fill-rule="nonzero" /><path transform="matrix(1 0 0 -1 0 612)" d="M403.92 207.84L447.36 207.84L447.36 208.32L403.92 208.32z" stroke="none" fill="#000000" fill-rule="nonzero" /><path transform="matrix(1 0 0 -1 0 612)" d="M447.36 207.84L447.84 207.84L447.84 208.32L447.36 208.32z" stroke="none" fill="#000000" fill-rule="nonzero" /><path transform="matrix(1 0 0 -1 0 612)" d="M447.84 207.84L499.92 207.84L499.92 208.32L447.84 208.32z" stroke="none" fill="#000000" fill-rule="nonzero" /><path transform="matrix(1 0 0 -1 0 612)" d="M499.92 207.84L500.4 207.84L500.4 208.32L499.92 208.32z" stroke="none" fill="#000000" fill-rule="nonzero" /><path transform="matrix(1 0 0 -1 0 612)" d="M500.4 207.84L579.12 207.84L579.12 208.32L500.4 208.32z" stroke="none" fill="#000000" fill-rule="nonzero" /><path transform="matrix(1 0 0 -1 0 612)" d="M579.12 207.84L579.6 207.84L579.6 208.32L579.12 208.32z" stroke="none" fill="#000000" fill-rule="nonzero" /><path transform="matrix(1 0 0 -1 0 612)" d="M579.6 207.84L730.8 207.84L730.8 208.32L579.6 208.32z" stroke="none" fill="#000000" fill-rule="nonzero" /><path transform="matrix(1 0 0 -1 0 612)" d="M730.8 207.84L731.28 207.84L731.28 208.32L730.8 208.32z" stroke="none" fill="#000000" fill-rule="nonzero" /><path transform="matrix(1 0 0 -1 0 612)" d="M48.72 189.36L49.2 189.36L49.2 207.84L48.72 207.84z" stroke="none" fill="#000000" fill-rule="nonzero" /><path transform="matrix(1 0 0 -1 0 612)" d="M72.9599 189.36L73.1999 189.36L73.1999 207.84L72.9599 207.84z" stroke="none" fill="#000000" fill-rule="nonzero" /><path transform="matrix(1 0 0 -1 0 612)" d="M180 189.36L180.48 189.36L180.48 207.84L180 207.84z" stroke="none" fill="#000000" fill-rule="nonzero" /><path transform="matrix(1 0 0 -1 0 612)" d="M220.08 189.36L220.56 189.36L220.56 207.84L220.08 207.84z" stroke="none" fill="#000000" fill-rule="nonzero" /><path transform="matrix(1 0 0 -1 0 612)" d="M251.52 189.36L252 189.36L252 207.84L251.52 207.84z" stroke="none" fill="#000000" fill-rule="nonzero" /><path transform="matrix(1 0 0 -1 0 612)" d="M309.84 189.36L310.08 189.36L310.08 207.84L309.84 207.84z" stroke="none" fill="#000000" fill-rule="nonzero" /><path transform="matrix(1 0 0 -1 0 612)" d="M403.44 189.36L403.92 189.36L403.92 207.84L403.44 207.84z" stroke="none" fill="#000000" fill-rule="nonzero" /><path transform="matrix(1 0 0 -1 0 612)" d="M447.36 189.36L447.84 189.36L447.84 207.84L447.36 207.84z" stroke="none" fill="#000000" fill-rule="nonzero" /><path transform="matrix(1 0 0 -1 0 612)" d="M499.92 189.36L500.4 189.36L500.4 207.84L499.92 207.84z" stroke="none" fill="#000000" fill-rule="nonzero" /><path transform="matrix(1 0 0 -1 0 612)" d="M579.12 189.36L579.6 189.36L579.6 207.84L579.12 207.84z" stroke="none" fill="#000000" fill-rule="nonzero" /><path transform="matrix(1 0 0 -1 0 612)" d="M730.8 189.36L731.28 189.36L731.28 207.84L730.8 207.84z" stroke="none" fill="#000000" fill-rule="nonzero" /><path transform="matrix(1 0 0 -1 0 612)" d="M48.72 188.88L49.2 188.88L49.2 189.36L48.72 189.36z" stroke="none" fill="#000000" fill-rule="nonzero" /><path transform="matrix(1 0 0 -1 0 612)" d="M49.2 188.88L72.96 188.88L72.96 189.36L49.2 189.36z" stroke="none" fill="#000000" fill-rule="nonzero" /><path transform="matrix(1 0 0 -1 0 612)" d="M72.9599 188.88L73.1999 188.88L73.1999 189.36L72.9599 189.36z" stroke="none" fill="#000000" fill-rule="nonzero" /><path transform="matrix(1 0 0 -1 0 612)" d="M73.2 188.88L180 188.88L180 189.36L73.2 189.36z" stroke="none" fill="#000000" fill-rule="nonzero" /><path transform="matrix(1 0 0 -1 0 612)" d="M180 188.88L180.48 188.88L180.48 189.36L180 189.36z" stroke="none" fill="#000000" fill-rule="nonzero" /><path transform="matrix(1 0 0 -1 0 612)" d="M180.48 188.88L220.08 188.88L220.08 189.36L180.48 189.36z" stroke="none" fill="#000000" fill-rule="nonzero" /><path transform="matrix(1 0 0 -1 0 612)" d="M220.08 188.88L220.56 188.88L220.56 189.36L220.08 189.36z" stroke="none" fill="#000000" fill-rule="nonzero" /><path transform="matrix(1 0 0 -1 0 612)" d="M220.56 188.88L251.52 188.88L251.52 189.36L220.56 189.36z" stroke="none" fill="#000000" fill-rule="nonzero" /><path transform="matrix(1 0 0 -1 0 612)" d="M251.52 188.88L252 188.88L252 189.36L251.52 189.36z" stroke="none" fill="#000000" fill-rule="nonzero" /><path transform="matrix(1 0 0 -1 0 612)" d="M252 188.88L309.84 188.88L309.84 189.36L252 189.36z" stroke="none" fill="#000000" fill-rule="nonzero" /><path transform="matrix(1 0 0 -1 0 612)" d="M309.84 188.88L310.08 188.88L310.08 189.36L309.84 189.36z" stroke="none" fill="#000000" fill-rule="nonzero" /><path transform="matrix(1 0 0 -1 0 612)" d="M310.08 188.88L403.44 188.88L403.44 189.36L310.08 189.36z" stroke="none" fill="#000000" fill-rule="nonzero" /><path transform="matrix(1 0 0 -1 0 612)" d="M403.44 188.88L403.92 188.88L403.92 189.36L403.44 189.36z" stroke="none" fill="#000000" fill-rule="nonzero" /><path transform="matrix(1 0 0 -1 0 612)" d="M403.92 188.88L447.36 188.88L447.36 189.36L403.92 189.36z" stroke="none" fill="#000000" fill-rule="nonzero" /><path transform="matrix(1 0 0 -1 0 612)" d="M447.36 188.88L447.84 188.88L447.84 189.36L447.36 189.36z" stroke="none" fill="#000000" fill-rule="nonzero" /><path transform="matrix(1 0 0 -1 0 612)" d="M447.84 188.88L499.92 188.88L499.92 189.36L447.84 189.36z" stroke="none" fill="#000000" fill-rule="nonzero" /><path transform="matrix(1 0 0 -1 0 612)" d="M499.92 188.88L500.4 188.88L500.4 189.36L499.92 189.36z" stroke="none" fill="#000000" fill-rule="nonzero" /><path transform="matrix(1 0 0 -1 0 612)" d="M500.4 188.88L579.12 188.88L579.12 189.36L500.4 189.36z" stroke="none" fill="#000000" fill-rule="nonzero" /><path transform="matrix(1 0 0 -1 0 612)" d="M579.12 188.88L579.6 188.88L579.6 189.36L579.12 189.36z" stroke="none" fill="#000000" fill-rule="nonzero" /><path transform="matrix(1 0 0 -1 0 612)" d="M579.6 188.88L730.8 188.88L730.8 189.36L579.6 189.36z" stroke="none" fill="#000000" fill-rule="nonzero" /><path transform="matrix(1 0 0 -1 0 612)" d="M730.8 188.88L731.28 188.88L731.28 189.36L730.8 189.36z" stroke="none" fill="#000000" fill-rule="nonzero" /><path transform="matrix(1 0 0 -1 0 612)" d="M48.72 170.16L49.2 170.16L49.2 188.88L48.72 188.88z" stroke="none" fill="#000000" fill-rule="nonzero" /><path transform="matrix(1 0 0 -1 0 612)" d="M48.72 169.68L49.2 169.68L49.2 170.16L48.72 170.16z" stroke="none" fill="#000000" fill-rule="nonzero" /><path transform="matrix(1 0 0 -1 0 612)" d="M48.72 169.68L49.2 169.68L49.2 170.16L48.72 170.16z" stroke="none" fill="#000000" fill-rule="nonzero" /><path transform="matrix(1 0 0 -1 0 612)" d="M49.2 169.68L72.96 169.68L72.96 170.16L49.2 170.16z" stroke="none" fill="#000000" fill-rule="nonzero" /><path transform="matrix(1 0 0 -1 0 612)" d="M72.9599 170.16L73.1999 170.16L73.1999 188.88L72.9599 188.88z" stroke="none" fill="#000000" fill-rule="nonzero" /><path transform="matrix(1 0 0 -1 0 612)" d="M72.9599 169.68L73.1999 169.68L73.1999 170.16L72.9599 170.16z" stroke="none" fill="#000000" fill-rule="nonzero" /><path transform="matrix(1 0 0 -1 0 612)" d="M73.2 169.68L180 169.68L180 170.16L73.2 170.16z" stroke="none" fill="#000000" fill-rule="nonzero" /><path transform="matrix(1 0 0 -1 0 612)" d="M180 170.16L180.48 170.16L180.48 188.88L180 188.88z" stroke="none" fill="#000000" fill-rule="nonzero" /><path transform="matrix(1 0 0 -1 0 612)" d="M180 169.68L180.48 169.68L180.48 170.16L180 170.16z" stroke="none" fill="#000000" fill-rule="nonzero" /><path transform="matrix(1 0 0 -1 0 612)" d="M180.48 169.68L220.08 169.68L220.08 170.16L180.48 170.16z" stroke="none" fill="#000000" fill-rule="nonzero" /><path transform="matrix(1 0 0 -1 0 612)" d="M220.08 170.16L220.56 170.16L220.56 188.88L220.08 188.88z" stroke="none" fill="#000000" fill-rule="nonzero" /><path transform="matrix(1 0 0 -1 0 612)" d="M220.08 169.68L220.56 169.68L220.56 170.16L220.08 170.16z" stroke="none" fill="#000000" fill-rule="nonzero" /><path transform="matrix(1 0 0 -1 0 612)" d="M220.56 169.68L251.52 169.68L251.52 170.16L220.56 170.16z" stroke="none" fill="#000000" fill-rule="nonzero" /><path transform="matrix(1 0 0 -1 0 612)" d="M251.52 170.16L252 170.16L252 188.88L251.52 188.88z" stroke="none" fill="#000000" fill-rule="nonzero" /><path transform="matrix(1 0 0 -1 0 612)" d="M251.52 169.68L252 169.68L252 170.16L251.52 170.16z" stroke="none" fill="#000000" fill-rule="nonzero" /><path transform="matrix(1 0 0 -1 0 612)" d="M252 169.68L309.84 169.68L309.84 170.16L252 170.16z" stroke="none" fill="#000000" fill-rule="nonzero" /><path transform="matrix(1 0 0 -1 0 612)" d="M309.84 170.16L310.08 170.16L310.08 188.88L309.84 188.88z" stroke="none" fill="#000000" fill-rule="nonzero" /><path transform="matrix(1 0 0 -1 0 612)" d="M309.84 169.68L310.08 169.68L310.08 170.16L309.84 170.16z" stroke="none" fill="#000000" fill-rule="nonzero" /><path transform="matrix(1 0 0 -1 0 612)" d="M310.08 169.68L403.44 169.68L403.44 170.16L310.08 170.16z" stroke="none" fill="#000000" fill-rule="nonzero" /><path transform="matrix(1 0 0 -1 0 612)" d="M403.44 170.16L403.92 170.16L403.92 188.88L403.44 188.88z" stroke="none" fill="#000000" fill-rule="nonzero" /><path transform="matrix(1 0 0 -1 0 612)" d="M403.44 169.68L403.92 169.68L403.92 170.16L403.44 170.16z" stroke="none" fill="#000000" fill-rule="nonzero" /><path transform="matrix(1 0 0 -1 0 612)" d="M403.92 169.68L447.36 169.68L447.36 170.16L403.92 170.16z" stroke="none" fill="#000000" fill-rule="nonzero" /><path transform="matrix(1 0 0 -1 0 612)" d="M447.36 170.16L447.84 170.16L447.84 188.88L447.36 188.88z" stroke="none" fill="#000000" fill-rule="nonzero" /><path transform="matrix(1 0 0 -1 0 612)" d="M447.36 169.68L447.84 169.68L447.84 170.16L447.36 170.16z" stroke="none" fill="#000000" fill-rule="nonzero" /><path transform="matrix(1 0 0 -1 0 612)" d="M447.84 169.68L499.92 169.68L499.92 170.16L447.84 170.16z" stroke="none" fill="#000000" fill-rule="nonzero" /><path transform="matrix(1 0 0 -1 0 612)" d="M499.92 170.16L500.4 170.16L500.4 188.88L499.92 188.88z" stroke="none" fill="#000000" fill-rule="nonzero" /><path transform="matrix(1 0 0 -1 0 612)" d="M499.92 169.68L500.4 169.68L500.4 170.16L499.92 170.16z" stroke="none" fill="#000000" fill-rule="nonzero" /><path transform="matrix(1 0 0 -1 0 612)" d="M500.4 169.68L579.12 169.68L579.12 170.16L500.4 170.16z" stroke="none" fill="#000000" fill-rule="nonzero" /><path transform="matrix(1 0 0 -1 0 612)" d="M579.12 170.16L579.6 170.16L579.6 188.88L579.12 188.88z" stroke="none" fill="#000000" fill-rule="nonzero" /><path transform="matrix(1 0 0 -1 0 612)" d="M579.12 169.68L579.6 169.68L579.6 170.16L579.12 170.16z" stroke="none" fill="#000000" fill-rule="nonzero" /><path transform="matrix(1 0 0 -1 0 612)" d="M579.6 169.68L730.8 169.68L730.8 170.16L579.6 170.16z" stroke="none" fill="#000000" fill-rule="nonzero" /><path transform="matrix(1 0 0 -1 0 612)" d="M730.8 170.16L731.28 170.16L731.28 188.88L730.8 188.88z" stroke="none" fill="#000000" fill-rule="nonzero" /><path transform="matrix(1 0 0 -1 0 612)" d="M730.8 169.68L731.28 169.68L731.28 170.16L730.8 170.16z" stroke="none" fill="#000000" fill-rule="nonzero" /><path transform="matrix(1 0 0 -1 0 612)" d="M730.8 169.68L731.28 169.68L731.28 170.16L730.8 170.16z" stroke="none" fill="#000000" fill-rule="nonzero" /></g></g></g></svg>