<svg xmlns="http://www.w3.org/2000/svg" xmlns:xlink="http://www.w3.org/1999/xlink" id="body_1" preserveAspectRatio="xMinYMin meet" viewBox="0 0 816 1056"><defs><clipPath id="1"><path clip-rule="evenodd" d="M0 792L0 0L0 0L612 0L612 0L612 792L612 792L0 792z" /></clipPath><clipPath id="2"><path clip-rule="evenodd" d="M313.2 757.68L318.7199 757.68L318.7199 757.68L318.7199 744.96L318.7199 744.96L313.2 744.96z" /></clipPath><clipPath id="3"><path clip-rule="evenodd" d="M275.52 101.76L309.6 101.76L309.6 101.76L309.6 89.28003L309.6 89.28003L275.52 89.28003z" /></clipPath><clipPath id="4"><path clip-rule="evenodd" d="M309.6 101.76L326.16 101.76L326.16 101.76L326.16 89.28003L326.16 89.28003L309.6 89.28003z" /></clipPath><clipPath id="5"><path clip-rule="evenodd" d="M325.92 101.76L331.92 101.76L331.92 101.76L331.92 89.28003L331.92 89.28003L325.92 89.28003z" /></clipPath><clipPath id="6"><path clip-rule="evenodd" d="M432 146.88L443.28 146.88L443.28 146.88L443.28 134.4L443.28 134.4L432 134.4z" /></clipPath><clipPath id="7"><path clip-rule="evenodd" d="M443.28 146.88L512.64 146.88L512.64 146.88L512.64 134.4L512.64 134.4L443.28 134.4z" /></clipPath><clipPath id="8"><path clip-rule="evenodd" d="M512.64 146.88L518.64 146.88L518.64 146.88L518.64 134.4L518.64 134.4L512.64 134.4z" /></clipPath></defs><g transform="matrix(1.333333 0 0 1.333333 0 0)"><g><g clip-path="url(#1)"><g clip-path="url(#2)"></g><g clip-path="url(#3)"></g><g clip-path="url(#4)"></g><g clip-path="url(#5)"></g><path transform="matrix(1 0 0 -1 0 792)" d="M99.6 721.92L100.08 721.92L100.08 722.4L99.6 722.4z" stroke="none" fill="#000000" fill-rule="nonzero" /><path transform="matrix(1 0 0 -1 0 792)" d="M99.6 721.92L100.08 721.92L100.08 722.4L99.6 722.4z" stroke="none" fill="#000000" fill-rule="nonzero" /><path transform="matrix(1 0 0 -1 0 792)" d="M100.08 721.92L126.72 721.92L126.72 722.4L100.08 722.4z" stroke="none" fill="#000000" fill-rule="nonzero" /><path transform="matrix(1 0 0 -1 0 792)" d="M126.72 721.92L127.2 721.92L127.2 722.4L126.72 722.4z" stroke="none" fill="#000000" fill-rule="nonzero" /><path transform="matrix(1 0 0 -1 0 792)" d="M127.2 721.92L250.56 721.92L250.56 722.4L127.2 722.4z" stroke="none" fill="#000000" fill-rule="nonzero" /><path transform="matrix(1 0 0 -1 0 792)" d="M250.56 721.92L251.04 721.92L251.04 722.4L250.56 722.4z" stroke="none" fill="#000000" fill-rule="nonzero" /><path transform="matrix(1 0 0 -1 0 792)" d="M251.04 721.92L350.88 721.92L350.88 722.4L251.04 722.4z" stroke="none" fill="#000000" fill-rule="nonzero" /><path transform="matrix(1 0 0 -1 0 792)" d="M350.88 721.92L351.12 721.92L351.12 722.4L350.88 722.4z" stroke="none" fill="#000000" fill-rule="nonzero" /><path transform="matrix(1 0 0 -1 0 792)" d="M351.12 721.92L531.84 721.92L531.84 722.4L351.12 722.4z" stroke="none" fill="#000000" fill-rule="nonzero" /><path transform="matrix(1 0 0 -1 0 792)" d="M531.84 721.92L532.32 721.92L532.32 722.4L531.84 722.4z" stroke="none" fill="#000000" fill-rule="nonzero" /><path transform="matrix(1 0 0 -1 0 792)" d="M531.84 721.92L532.32 721.92L532.32 722.4L531.84 722.4z" stroke="none" fill="#000000" fill-rule="nonzero" /><path transform="matrix(1 0 0 -1 0 792)" d="M99.6 690.24L100.08 690.24L100.08 721.92L99.6 721.92z" stroke="none" fill="#000000" fill-rule="nonzero" /><path transform="matrix(1 0 0 -1 0 792)" d="M126.72 690.24L127.2 690.24L127.2 721.92L126.72 721.92z" stroke="none" fill="#000000" fill-rule="nonzero" /><path transform="matrix(1 0 0 -1 0 792)" d="M250.56 690.24L251.04 690.24L251.04 721.92L250.56 721.92z" stroke="none" fill="#000000" fill-rule="nonzero" /><path transform="matrix(1 0 0 -1 0 792)" d="M350.88 690.24L351.12 690.24L351.12 721.92L350.88 721.92z" stroke="none" fill="#000000" fill-rule="nonzero" /><path transform="matrix(1 0 0 -1 0 792)" d="M531.84 690.24L532.32 690.24L532.32 721.92L531.84 721.92z" stroke="none" fill="#000000" fill-rule="nonzero" /><g clip-path="url(#6)"></g><g clip-path="url(#7)"></g><g clip-path="url(#8)"></g><path transform="matrix(1 0 0 -1 0 792)" d="M99.6 689.76L100.08 689.76L100.08 690.24L99.6 690.24z" stroke="none" fill="#000000" fill-rule="nonzero" /><path transform="matrix(1 0 0 -1 0 792)" d="M126.72 689.76L127.2 689.76L127.2 690.24L126.72 690.24z" stroke="none" fill="#000000" fill-rule="nonzero" /><path transform="matrix(1 0 0 -1 0 792)" d="M250.56 689.76L251.04 689.76L251.04 690.24L250.56 690.24z" stroke="none" fill="#000000" fill-rule="nonzero" /><path transform="matrix(1 0 0 -1 0 792)" d="M251.04 689.76L300.72 689.76L300.72 690.24L251.04 690.24z" stroke="none" fill="#000000" fill-rule="nonzero" /><path transform="matrix(1 0 0 -1 0 792)" d="M300.72 689.76L301.2 689.76L301.2 690.24L300.72 690.24z" stroke="none" fill="#000000" fill-rule="nonzero" /><path transform="matrix(1 0 0 -1 0 792)" d="M301.2 689.76L350.88 689.76L350.88 690.24L301.2 690.24z" stroke="none" fill="#000000" fill-rule="nonzero" /><path transform="matrix(1 0 0 -1 0 792)" d="M350.88 689.76L351.12 689.76L351.12 690.24L350.88 690.24z" stroke="none" fill="#000000" fill-rule="nonzero" /><path transform="matrix(1 0 0 -1 0 792)" d="M351.12 689.76L412.56 689.76L412.56 690.24L351.12 690.24z" stroke="none" fill="#000000" fill-rule="nonzero" /><path transform="matrix(1 0 0 -1 0 792)" d="M412.56 689.76L413.04 689.76L413.04 690.24L412.56 690.24z" stroke="none" fill="#000000" fill-rule="nonzero" /><path transform="matrix(1 0 0 -1 0 792)" d="M413.04 689.76L531.84 689.76L531.84 690.24L413.04 690.24z" stroke="none" fill="#000000" fill-rule="nonzero" /><path transform="matrix(1 0 0 -1 0 792)" d="M531.84 689.76L532.32 689.76L532.32 690.24L531.84 690.24z" stroke="none" fill="#000000" fill-rule="nonzero" /><path transform="matrix(1 0 0 -1 0 792)" d="M99.6 645.12L100.08 645.12L100.08 689.76L99.6 689.76z" stroke="none" fill="#000000" fill-rule="nonzero" /><path transform="matrix(1 0 0 -1 0 792)" d="M126.72 645.12L127.2 645.12L127.2 689.76L126.72 689.76z" stroke="none" fill="#000000" fill-rule="nonzero" /><path transform="matrix(1 0 0 -1 0 792)" d="M250.56 645.12L251.04 645.12L251.04 689.76L250.56 689.76z" stroke="none" fill="#000000" fill-rule="nonzero" /><path transform="matrix(1 0 0 -1 0 792)" d="M300.72 645.12L301.2 645.12L301.2 689.76L300.72 689.76z" stroke="none" fill="#000000" fill-rule="nonzero" /><path transform="matrix(1 0 0 -1 0 792)" d="M350.88 645.12L351.12 645.12L351.12 689.76L350.88 689.76z" stroke="none" fill="#000000" fill-rule="nonzero" /><path transform="matrix(1 0 0 -1 0 792)" d="M412.56 645.12L413.04 645.12L413.04 689.76L412.56 689.76z" stroke="none" fill="#000000" fill-rule="nonzero" /><path transform="matrix(1 0 0 -1 0 792)" d="M531.84 645.12L532.32 645.12L532.32 689.76L531.84 689.76z" stroke="none" fill="#000000" fill-rule="nonzero" /><path transform="matrix(1 0 0 -1 0 792)" d="M99.6 644.64L100.08 644.64L100.08 645.12L99.6 645.12z" stroke="none" fill="#000000" fill-rule="nonzero" /><path transform="matrix(1 0 0 -1 0 792)" d="M126.72 644.64L127.2 644.64L127.2 645.12L126.72 645.12z" stroke="none" fill="#000000" fill-rule="nonzero" /><path transform="matrix(1 0 0 -1 0 792)" d="M250.56 644.64L251.04 644.64L251.04 645.12L250.56 645.12z" stroke="none" fill="#000000" fill-rule="nonzero" /><path transform="matrix(1 0 0 -1 0 792)" d="M300.72 644.64L301.2 644.64L301.2 645.12L300.72 645.12z" stroke="none" fill="#000000" fill-rule="nonzero" /><path transform="matrix(1 0 0 -1 0 792)" d="M350.88 644.64L351.12 644.64L351.12 645.12L350.88 645.12z" stroke="none" fill="#000000" fill-rule="nonzero" /><path transform="matrix(1 0 0 -1 0 792)" d="M412.56 644.64L413.04 644.64L413.04 645.12L412.56 645.12z" stroke="none" fill="#000000" fill-rule="nonzero" /><path transform="matrix(1 0 0 -1 0 792)" d="M413.04 644.64L476.88 644.64L476.88 645.12L413.04 645.12z" stroke="none" fill="#000000" fill-rule="nonzero" /><path transform="matrix(1 0 0 -1 0 792)" d="M476.88 644.64L477.36 644.64L477.36 645.12L476.88 645.12z" stroke="none" fill="#000000" fill-rule="nonzero" /><path transform="matrix(1 0 0 -1 0 792)" d="M477.36 644.64L531.84 644.64L531.84 645.12L477.36 645.12z" stroke="none" fill="#000000" fill-rule="nonzero" /><path transform="matrix(1 0 0 -1 0 792)" d="M531.84 644.64L532.32 644.64L532.32 645.12L531.84 645.12z" stroke="none" fill="#000000" fill-rule="nonzero" /><path transform="matrix(1 0 0 -1 0 792)" d="M99.6 561.12L100.08 561.12L100.08 644.64L99.6 644.64z" stroke="none" fill="#000000" fill-rule="nonzero" /><path transform="matrix(1 0 0 -1 0 792)" d="M126.72 561.12L127.2 561.12L127.2 644.64L126.72 644.64z" stroke="none" fill="#000000" fill-rule="nonzero" /><path transform="matrix(1 0 0 -1 0 792)" d="M250.56 561.12L251.04 561.12L251.04 644.64L250.56 644.64z" stroke="none" fill="#000000" fill-rule="nonzero" /><path transform="matrix(1 0 0 -1 0 792)" d="M300.72 561.12L301.2 561.12L301.2 644.64L300.72 644.64z" stroke="none" fill="#000000" fill-rule="nonzero" /><path transform="matrix(1 0 0 -1 0 792)" d="M350.88 561.12L351.12 561.12L351.12 644.64L350.88 644.64z" stroke="none" fill="#000000" fill-rule="nonzero" /><path transform="matrix(1 0 0 -1 0 792)" d="M412.56 561.12L413.04 561.12L413.04 644.64L412.56 644.64z" stroke="none" fill="#000000" fill-rule="nonzero" /><path transform="matrix(1 0 0 -1 0 792)" d="M476.88 561.12L477.36 561.12L477.36 644.64L476.88 644.64z" stroke="none" fill="#000000" fill-rule="nonzero" /><path transform="matrix(1 0 0 -1 0 792)" d="M531.84 561.12L532.32 561.12L532.32 644.64L531.84 644.64z" stroke="none" fill="#000000" fill-rule="nonzero" /><path transform="matrix(1 0 0 -1 0 792)" d="M99.6 560.88L100.08 560.88L100.08 561.12L99.6 561.12z" stroke="none" fill="#000000" fill-rule="nonzero" /><path transform="matrix(1 0 0 -1 0 792)" d="M100.08 560.88L126.72 560.88L126.72 561.12L100.08 561.12z" stroke="none" fill="#000000" fill-rule="nonzero" /><path transform="matrix(1 0 0 -1 0 792)" d="M126.72 560.88L127.2 560.88L127.2 561.12L126.72 561.12z" stroke="none" fill="#000000" fill-rule="nonzero" /><path transform="matrix(1 0 0 -1 0 792)" d="M127.2 560.88L250.56 560.88L250.56 561.12L127.2 561.12z" stroke="none" fill="#000000" fill-rule="nonzero" /><path transform="matrix(1 0 0 -1 0 792)" d="M250.56 560.88L251.04 560.88L251.04 561.12L250.56 561.12z" stroke="none" fill="#000000" fill-rule="nonzero" /><path transform="matrix(1 0 0 -1 0 792)" d="M251.04 560.88L300.72 560.88L300.72 561.12L251.04 561.12z" stroke="none" fill="#000000" fill-rule="nonzero" /><path transform="matrix(1 0 0 -1 0 792)" d="M300.72 560.88L301.2 560.88L301.2 561.12L300.72 561.12z" stroke="none" fill="#000000" fill-rule="nonzero" /><path transform="matrix(1 0 0 -1 0 792)" d="M301.2 560.88L350.88 560.88L350.88 561.12L301.2 561.12z" stroke="none" fill="#000000" fill-rule="nonzero" /><path transform="matrix(1 0 0 -1 0 792)" d="M350.88 560.88L351.12 560.88L351.12 561.12L350.88 561.12z" stroke="none" fill="#000000" fill-rule="nonzero" /><path transform="matrix(1 0 0 -1 0 792)" d="M351.12 560.88L412.56 560.88L412.56 561.12L351.12 561.12z" stroke="none" fill="#000000" fill-rule="nonzero" /><path transform="matrix(1 0 0 -1 0 792)" d="M412.56 560.88L413.04 560.88L413.04 561.12L412.56 561.12z" stroke="none" fill="#000000" fill-rule="nonzero" /><path transform="matrix(1 0 0 -1 0 792)" d="M413.04 560.88L476.88 560.88L476.88 561.12L413.04 561.12z" stroke="none" fill="#000000" fill-rule="nonzero" /><path transform="matrix(1 0 0 -1 0 792)" d="M476.88 560.88L477.36 560.88L477.36 561.12L476.88 561.12z" stroke="none" fill="#000000" fill-rule="nonzero" /><path transform="matrix(1 0 0 -1 0 792)" d="M477.36 560.88L531.84 560.88L531.84 561.12L477.36 561.12z" stroke="none" fill="#000000" fill-rule="nonzero" /><path transform="matrix(1 0 0 -1 0 792)" d="M531.84 560.88L532.32 560.88L532.32 561.12L531.84 561.12z" stroke="none" fill="#000000" fill-rule="nonzero" /><path transform="matrix(1 0 0 -1 0 792)" d="M99.6 509.76L100.08 509.76L100.08 560.88L99.6 560.88z" stroke="none" fill="#000000" fill-rule="nonzero" /><path transform="matrix(1 0 0 -1 0 792)" d="M126.72 509.76L127.2 509.76L127.2 560.88L126.72 560.88z" stroke="none" fill="#000000" fill-rule="nonzero" /><path transform="matrix(1 0 0 -1 0 792)" d="M250.56 509.76L251.04 509.76L251.04 560.88L250.56 560.88z" stroke="none" fill="#000000" fill-rule="nonzero" /><path transform="matrix(1 0 0 -1 0 792)" d="M300.72 509.76L301.2 509.76L301.2 560.88L300.72 560.88z" stroke="none" fill="#000000" fill-rule="nonzero" /><path transform="matrix(1 0 0 -1 0 792)" d="M350.88 509.76L351.12 509.76L351.12 560.88L350.88 560.88z" stroke="none" fill="#000000" fill-rule="nonzero" /><path transform="matrix(1 0 0 -1 0 792)" d="M412.56 509.76L413.04 509.76L413.04 560.88L412.56 560.88z" stroke="none" fill="#000000" fill-rule="nonzero" /><path transform="matrix(1 0 0 -1 0 792)" d="M476.88 509.76L477.36 509.76L477.36 560.88L476.88 560.88z" stroke="none" fill="#000000" fill-rule="nonzero" /><path transform="matrix(1 0 0 -1 0 792)" d="M531.84 509.76L532.32 509.76L532.32 560.88L531.84 560.88z" stroke="none" fill="#000000" fill-rule="nonzero" /><path transform="matrix(1 0 0 -1 0 792)" d="M99.6 509.28L100.08 509.28L100.08 509.76L99.6 509.76z" stroke="none" fill="#000000" fill-rule="nonzero" /><path transform="matrix(1 0 0 -1 0 792)" d="M100.08 509.28L126.72 509.28L126.72 509.76L100.08 509.76z" stroke="none" fill="#000000" fill-rule="nonzero" /><path transform="matrix(1 0 0 -1 0 792)" d="M126.72 509.28L127.2 509.28L127.2 509.76L126.72 509.76z" stroke="none" fill="#000000" fill-rule="nonzero" /><path transform="matrix(1 0 0 -1 0 792)" d="M127.2 509.28L250.56 509.28L250.56 509.76L127.2 509.76z" stroke="none" fill="#000000" fill-rule="nonzero" /><path transform="matrix(1 0 0 -1 0 792)" d="M250.56 509.28L251.04 509.28L251.04 509.76L250.56 509.76z" stroke="none" fill="#000000" fill-rule="nonzero" /><path transform="matrix(1 0 0 -1 0 792)" d="M251.04 509.28L300.72 509.28L300.72 509.76L251.04 509.76z" stroke="none" fill="#000000" fill-rule="nonzero" /><path transform="matrix(1 0 0 -1 0 792)" d="M300.72 509.28L301.2 509.28L301.2 509.76L300.72 509.76z" stroke="none" fill="#000000" fill-rule="nonzero" /><path transform="matrix(1 0 0 -1 0 792)" d="M301.2 509.28L350.88 509.28L350.88 509.76L301.2 509.76z" stroke="none" fill="#000000" fill-rule="nonzero" /><path transform="matrix(1 0 0 -1 0 792)" d="M350.88 509.28L351.12 509.28L351.12 509.76L350.88 509.76z" stroke="none" fill="#000000" fill-rule="nonzero" /><path transform="matrix(1 0 0 -1 0 792)" d="M351.12 509.28L412.56 509.28L412.56 509.76L351.12 509.76z" stroke="none" fill="#000000" fill-rule="nonzero" /><path transform="matrix(1 0 0 -1 0 792)" d="M412.56 509.28L413.04 509.28L413.04 509.76L412.56 509.76z" stroke="none" fill="#000000" fill-rule="nonzero" /><path transform="matrix(1 0 0 -1 0 792)" d="M413.04 509.28L476.88 509.28L476.88 509.76L413.04 509.76z" stroke="none" fill="#000000" fill-rule="nonzero" /><path transform="matrix(1 0 0 -1 0 792)" d="M476.88 509.28L477.36 509.28L477.36 509.76L476.88 509.76z" stroke="none" fill="#000000" fill-rule="nonzero" /><path transform="matrix(1 0 0 -1 0 792)" d="M477.36 509.28L531.84 509.28L531.84 509.76L477.36 509.76z" stroke="none" fill="#000000" fill-rule="nonzero" /><path transform="matrix(1 0 0 -1 0 792)" d="M531.84 509.28L532.32 509.28L532.32 509.76L531.84 509.76z" stroke="none" fill="#000000" fill-rule="nonzero" /><path transform="matrix(1 0 0 -1 0 792)" d="M99.6 488.4L100.08 488.4L100.08 509.28L99.6 509.28z" stroke="none" fill="#000000" fill-rule="nonzero" /><path transform="matrix(1 0 0 -1 0 792)" d="M126.72 488.4L127.2 488.4L127.2 509.28L126.72 509.28z" stroke="none" fill="#000000" fill-rule="nonzero" /><path transform="matrix(1 0 0 -1 0 792)" d="M250.56 488.4L251.04 488.4L251.04 509.28L250.56 509.28z" stroke="none" fill="#000000" fill-rule="nonzero" /><path transform="matrix(1 0 0 -1 0 792)" d="M300.72 488.4L301.2 488.4L301.2 509.28L300.72 509.28z" stroke="none" fill="#000000" fill-rule="nonzero" /><path transform="matrix(1 0 0 -1 0 792)" d="M350.88 488.4L351.12 488.4L351.12 509.28L350.88 509.28z" stroke="none" fill="#000000" fill-rule="nonzero" /><path transform="matrix(1 0 0 -1 0 792)" d="M412.56 488.4L413.04 488.4L413.04 509.28L412.56 509.28z" stroke="none" fill="#000000" fill-rule="nonzero" /><path transform="matrix(1 0 0 -1 0 792)" d="M476.88 488.4L477.36 488.4L477.36 509.28L476.88 509.28z" stroke="none" fill="#000000" fill-rule="nonzero" /><path transform="matrix(1 0 0 -1 0 792)" d="M531.84 488.4L532.32 488.4L532.32 509.28L531.84 509.28z" stroke="none" fill="#000000" fill-rule="nonzero" /><path transform="matrix(1 0 0 -1 0 792)" d="M99.6 487.92L100.08 487.92L100.08 488.4L99.6 488.4z" stroke="none" fill="#000000" fill-rule="nonzero" /><path transform="matrix(1 0 0 -1 0 792)" d="M100.08 487.92L126.72 487.92L126.72 488.4L100.08 488.4z" stroke="none" fill="#000000" fill-rule="nonzero" /><path transform="matrix(1 0 0 -1 0 792)" d="M126.72 487.92L127.2 487.92L127.2 488.4L126.72 488.4z" stroke="none" fill="#000000" fill-rule="nonzero" /><path transform="matrix(1 0 0 -1 0 792)" d="M127.2 487.92L250.56 487.92L250.56 488.4L127.2 488.4z" stroke="none" fill="#000000" fill-rule="nonzero" /><path transform="matrix(1 0 0 -1 0 792)" d="M250.56 487.92L251.04 487.92L251.04 488.4L250.56 488.4z" stroke="none" fill="#000000" fill-rule="nonzero" /><path transform="matrix(1 0 0 -1 0 792)" d="M251.04 487.92L300.72 487.92L300.72 488.4L251.04 488.4z" stroke="none" fill="#000000" fill-rule="nonzero" /><path transform="matrix(1 0 0 -1 0 792)" d="M300.72 487.92L301.2 487.92L301.2 488.4L300.72 488.4z" stroke="none" fill="#000000" fill-rule="nonzero" /><path transform="matrix(1 0 0 -1 0 792)" d="M301.2 487.92L350.88 487.92L350.88 488.4L301.2 488.4z" stroke="none" fill="#000000" fill-rule="nonzero" /><path transform="matrix(1 0 0 -1 0 792)" d="M350.88 487.92L351.12 487.92L351.12 488.4L350.88 488.4z" stroke="none" fill="#000000" fill-rule="nonzero" /><path transform="matrix(1 0 0 -1 0 792)" d="M351.12 487.92L412.56 487.92L412.56 488.4L351.12 488.4z" stroke="none" fill="#000000" fill-rule="nonzero" /><path transform="matrix(1 0 0 -1 0 792)" d="M412.56 487.92L413.04 487.92L413.04 488.4L412.56 488.4z" stroke="none" fill="#000000" fill-rule="nonzero" /><path transform="matrix(1 0 0 -1 0 792)" d="M413.04 487.92L476.88 487.92L476.88 488.4L413.04 488.4z" stroke="none" fill="#000000" fill-rule="nonzero" /><path transform="matrix(1 0 0 -1 0 792)" d="M476.88 487.92L477.36 487.92L477.36 488.4L476.88 488.4z" stroke="none" fill="#000000" fill-rule="nonzero" /><path transform="matrix(1 0 0 -1 0 792)" d="M477.36 487.92L531.84 487.92L531.84 488.4L477.36 488.4z" stroke="none" fill="#000000" fill-rule="nonzero" /><path transform="matrix(1 0 0 -1 0 792)" d="M531.84 487.92L532.32 487.92L532.32 488.4L531.84 488.4z" stroke="none" fill="#000000" fill-rule="nonzero" /><path transform="matrix(1 0 0 -1 0 792)" d="M99.6 436.8L100.08 436.8L100.08 487.92L99.6 487.92z" stroke="none" fill="#000000" fill-rule="nonzero" /><path transform="matrix(1 0 0 -1 0 792)" d="M126.72 436.8L127.2 436.8L127.2 487.92L126.72 487.92z" stroke="none" fill="#000000" fill-rule="nonzero" /><path transform="matrix(1 0 0 -1 0 792)" d="M250.56 436.8L251.04 436.8L251.04 487.92L250.56 487.92z" stroke="none" fill="#000000" fill-rule="nonzero" /><path transform="matrix(1 0 0 -1 0 792)" d="M300.72 436.8L301.2 436.8L301.2 487.92L300.72 487.92z" stroke="none" fill="#000000" fill-rule="nonzero" /><path transform="matrix(1 0 0 -1 0 792)" d="M350.88 436.8L351.12 436.8L351.12 487.92L350.88 487.92z" stroke="none" fill="#000000" fill-rule="nonzero" /><path transform="matrix(1 0 0 -1 0 792)" d="M412.56 436.8L413.04 436.8L413.04 487.92L412.56 487.92z" stroke="none" fill="#000000" fill-rule="nonzero" /><path transform="matrix(1 0 0 -1 0 792)" d="M476.88 436.8L477.36 436.8L477.36 487.92L476.88 487.92z" stroke="none" fill="#000000" fill-rule="nonzero" /><path transform="matrix(1 0 0 -1 0 792)" d="M531.84 436.8L532.32 436.8L532.32 487.92L531.84 487.92z" stroke="none" fill="#000000" fill-rule="nonzero" /><path transform="matrix(1 0 0 -1 0 792)" d="M99.6 436.56L100.08 436.56L100.08 436.8L99.6 436.8z" stroke="none" fill="#000000" fill-rule="nonzero" /><path transform="matrix(1 0 0 -1 0 792)" d="M100.08 436.56L126.72 436.56L126.72 436.8L100.08 436.8z" stroke="none" fill="#000000" fill-rule="nonzero" /><path transform="matrix(1 0 0 -1 0 792)" d="M126.72 436.56L127.2 436.56L127.2 436.8L126.72 436.8z" stroke="none" fill="#000000" fill-rule="nonzero" /><path transform="matrix(1 0 0 -1 0 792)" d="M127.2 436.56L250.56 436.56L250.56 436.8L127.2 436.8z" stroke="none" fill="#000000" fill-rule="nonzero" /><path transform="matrix(1 0 0 -1 0 792)" d="M250.56 436.56L251.04 436.56L251.04 436.8L250.56 436.8z" stroke="none" fill="#000000" fill-rule="nonzero" /><path transform="matrix(1 0 0 -1 0 792)" d="M251.04 436.56L300.72 436.56L300.72 436.8L251.04 436.8z" stroke="none" fill="#000000" fill-rule="nonzero" /><path transform="matrix(1 0 0 -1 0 792)" d="M300.72 436.56L301.2 436.56L301.2 436.8L300.72 436.8z" stroke="none" fill="#000000" fill-rule="nonzero" /><path transform="matrix(1 0 0 -1 0 792)" d="M301.2 436.56L350.88 436.56L350.88 436.8L301.2 436.8z" stroke="none" fill="#000000" fill-rule="nonzero" /><path transform="matrix(1 0 0 -1 0 792)" d="M350.88 436.56L351.12 436.56L351.12 436.8L350.88 436.8z" stroke="none" fill="#000000" fill-rule="nonzero" /><path transform="matrix(1 0 0 -1 0 792)" d="M351.12 436.56L412.56 436.56L412.56 436.8L351.12 436.8z" stroke="none" fill="#000000" fill-rule="nonzero" /><path transform="matrix(1 0 0 -1 0 792)" d="M412.56 436.56L413.04 436.56L413.04 436.8L412.56 436.8z" stroke="none" fill="#000000" fill-rule="nonzero" /><path transform="matrix(1 0 0 -1 0 792)" d="M413.04 436.56L476.88 436.56L476.88 436.8L413.04 436.8z" stroke="none" fill="#000000" fill-rule="nonzero" /><path transform="matrix(1 0 0 -1 0 792)" d="M476.88 436.56L477.36 436.56L477.36 436.8L476.88 436.8z" stroke="none" fill="#000000" fill-rule="nonzero" /><path transform="matrix(1 0 0 -1 0 792)" d="M477.36 436.56L531.84 436.56L531.84 436.8L477.36 436.8z" stroke="none" fill="#000000" fill-rule="nonzero" /><path transform="matrix(1 0 0 -1 0 792)" d="M531.84 436.56L532.32 436.56L532.32 436.8L531.84 436.8z" stroke="none" fill="#000000" fill-rule="nonzero" /><path transform="matrix(1 0 0 -1 0 792)" d="M99.6 400.56L100.08 400.56L100.08 436.56L99.6 436.56z" stroke="none" fill="#000000" fill-rule="nonzero" /><path transform="matrix(1 0 0 -1 0 792)" d="M126.72 400.56L127.2 400.56L127.2 436.56L126.72 436.56z" stroke="none" fill="#000000" fill-rule="nonzero" /><path transform="matrix(1 0 0 -1 0 792)" d="M250.56 400.56L251.04 400.56L251.04 436.56L250.56 436.56z" stroke="none" fill="#000000" fill-rule="nonzero" /><path transform="matrix(1 0 0 -1 0 792)" d="M300.72 400.56L301.2 400.56L301.2 436.56L300.72 436.56z" stroke="none" fill="#000000" fill-rule="nonzero" /><path transform="matrix(1 0 0 -1 0 792)" d="M350.88 400.56L351.12 400.56L351.12 436.56L350.88 436.56z" stroke="none" fill="#000000" fill-rule="nonzero" /><path transform="matrix(1 0 0 -1 0 792)" d="M412.56 400.56L413.04 400.56L413.04 436.56L412.56 436.56z" stroke="none" fill="#000000" fill-rule="nonzero" /><path transform="matrix(1 0 0 -1 0 792)" d="M476.88 400.56L477.36 400.56L477.36 436.56L476.88 436.56z" stroke="none" fill="#000000" fill-rule="nonzero" /><path transform="matrix(1 0 0 -1 0 792)" d="M531.84 400.56L532.32 400.56L532.32 436.56L531.84 436.56z" stroke="none" fill="#000000" fill-rule="nonzero" /><path transform="matrix(1 0 0 -1 0 792)" d="M99.6 400.08L100.08 400.08L100.08 400.56L99.6 400.56z" stroke="none" fill="#000000" fill-rule="nonzero" /><path transform="matrix(1 0 0 -1 0 792)" d="M100.08 400.08L126.72 400.08L126.72 400.56L100.08 400.56z" stroke="none" fill="#000000" fill-rule="nonzero" /><path transform="matrix(1 0 0 -1 0 792)" d="M126.72 400.08L127.2 400.08L127.2 400.56L126.72 400.56z" stroke="none" fill="#000000" fill-rule="nonzero" /><path transform="matrix(1 0 0 -1 0 792)" d="M127.2 400.08L250.56 400.08L250.56 400.56L127.2 400.56z" stroke="none" fill="#000000" fill-rule="nonzero" /><path transform="matrix(1 0 0 -1 0 792)" d="M250.56 400.08L251.04 400.08L251.04 400.56L250.56 400.56z" stroke="none" fill="#000000" fill-rule="nonzero" /><path transform="matrix(1 0 0 -1 0 792)" d="M251.04 400.08L300.72 400.08L300.72 400.56L251.04 400.56z" stroke="none" fill="#000000" fill-rule="nonzero" /><path transform="matrix(1 0 0 -1 0 792)" d="M300.72 400.08L301.2 400.08L301.2 400.56L300.72 400.56z" stroke="none" fill="#000000" fill-rule="nonzero" /><path transform="matrix(1 0 0 -1 0 792)" d="M301.2 400.08L350.88 400.08L350.88 400.56L301.2 400.56z" stroke="none" fill="#000000" fill-rule="nonzero" /><path transform="matrix(1 0 0 -1 0 792)" d="M350.88 400.08L351.12 400.08L351.12 400.56L350.88 400.56z" stroke="none" fill="#000000" fill-rule="nonzero" /><path transform="matrix(1 0 0 -1 0 792)" d="M351.12 400.08L412.56 400.08L412.56 400.56L351.12 400.56z" stroke="none" fill="#000000" fill-rule="nonzero" /><path transform="matrix(1 0 0 -1 0 792)" d="M412.56 400.08L413.04 400.08L413.04 400.56L412.56 400.56z" stroke="none" fill="#000000" fill-rule="nonzero" /><path transform="matrix(1 0 0 -1 0 792)" d="M413.04 400.08L476.88 400.08L476.88 400.56L413.04 400.56z" stroke="none" fill="#000000" fill-rule="nonzero" /><path transform="matrix(1 0 0 -1 0 792)" d="M476.88 400.08L477.36 400.08L477.36 400.56L476.88 400.56z" stroke="none" fill="#000000" fill-rule="nonzero" /><path transform="matrix(1 0 0 -1 0 792)" d="M477.36 400.08L531.84 400.08L531.84 400.56L477.36 400.56z" stroke="none" fill="#000000" fill-rule="nonzero" /><path transform="matrix(1 0 0 -1 0 792)" d="M531.84 400.08L532.32 400.08L532.32 400.56L531.84 400.56z" stroke="none" fill="#000000" fill-rule="nonzero" /><path transform="matrix(1 0 0 -1 0 792)" d="M99.6 318.72L100.08 318.72L100.08 400.08L99.6 400.08z" stroke="none" fill="#000000" fill-rule="nonzero" /><path transform="matrix(1 0 0 -1 0 792)" d="M126.72 318.72L127.2 318.72L127.2 400.08L126.72 400.08z" stroke="none" fill="#000000" fill-rule="nonzero" /><path transform="matrix(1 0 0 -1 0 792)" d="M250.56 318.72L251.04 318.72L251.04 400.08L250.56 400.08z" stroke="none" fill="#000000" fill-rule="nonzero" /><path transform="matrix(1 0 0 -1 0 792)" d="M300.72 318.72L301.2 318.72L301.2 400.08L300.72 400.08z" stroke="none" fill="#000000" fill-rule="nonzero" /><path transform="matrix(1 0 0 -1 0 792)" d="M350.88 318.72L351.12 318.72L351.12 400.08L350.88 400.08z" stroke="none" fill="#000000" fill-rule="nonzero" /><path transform="matrix(1 0 0 -1 0 792)" d="M412.56 318.72L413.04 318.72L413.04 400.08L412.56 400.08z" stroke="none" fill="#000000" fill-rule="nonzero" /><path transform="matrix(1 0 0 -1 0 792)" d="M476.88 318.72L477.36 318.72L477.36 400.08L476.88 400.08z" stroke="none" fill="#000000" fill-rule="nonzero" /><path transform="matrix(1 0 0 -1 0 792)" d="M531.84 318.72L532.32 318.72L532.32 400.08L531.84 400.08z" stroke="none" fill="#000000" fill-rule="nonzero" /><path transform="matrix(1 0 0 -1 0 792)" d="M99.6 318.24L100.08 318.24L100.08 318.72L99.6 318.72z" stroke="none" fill="#000000" fill-rule="nonzero" /><path transform="matrix(1 0 0 -1 0 792)" d="M100.08 318.24L126.72 318.24L126.72 318.72L100.08 318.72z" stroke="none" fill="#000000" fill-rule="nonzero" /><path transform="matrix(1 0 0 -1 0 792)" d="M126.72 318.24L127.2 318.24L127.2 318.72L126.72 318.72z" stroke="none" fill="#000000" fill-rule="nonzero" /><path transform="matrix(1 0 0 -1 0 792)" d="M127.2 318.24L250.56 318.24L250.56 318.72L127.2 318.72z" stroke="none" fill="#000000" fill-rule="nonzero" /><path transform="matrix(1 0 0 -1 0 792)" d="M250.56 318.24L251.04 318.24L251.04 318.72L250.56 318.72z" stroke="none" fill="#000000" fill-rule="nonzero" /><path transform="matrix(1 0 0 -1 0 792)" d="M251.04 318.24L300.72 318.24L300.72 318.72L251.04 318.72z" stroke="none" fill="#000000" fill-rule="nonzero" /><path transform="matrix(1 0 0 -1 0 792)" d="M300.72 318.24L301.2 318.24L301.2 318.72L300.72 318.72z" stroke="none" fill="#000000" fill-rule="nonzero" /><path transform="matrix(1 0 0 -1 0 792)" d="M301.2 318.24L350.88 318.24L350.88 318.72L301.2 318.72z" stroke="none" fill="#000000" fill-rule="nonzero" /><path transform="matrix(1 0 0 -1 0 792)" d="M350.88 318.24L351.12 318.24L351.12 318.72L350.88 318.72z" stroke="none" fill="#000000" fill-rule="nonzero" /><path transform="matrix(1 0 0 -1 0 792)" d="M351.12 318.24L412.56 318.24L412.56 318.72L351.12 318.72z" stroke="none" fill="#000000" fill-rule="nonzero" /><path transform="matrix(1 0 0 -1 0 792)" d="M412.56 318.24L413.04 318.24L413.04 318.72L412.56 318.72z" stroke="none" fill="#000000" fill-rule="nonzero" /><path transform="matrix(1 0 0 -1 0 792)" d="M413.04 318.24L476.88 318.24L476.88 318.72L413.04 318.72z" stroke="none" fill="#000000" fill-rule="nonzero" /><path transform="matrix(1 0 0 -1 0 792)" d="M476.88 318.24L477.36 318.24L477.36 318.72L476.88 318.72z" stroke="none" fill="#000000" fill-rule="nonzero" /><path transform="matrix(1 0 0 -1 0 792)" d="M477.36 318.24L531.84 318.24L531.84 318.72L477.36 318.72z" stroke="none" fill="#000000" fill-rule="nonzero" /><path transform="matrix(1 0 0 -1 0 792)" d="M531.84 318.24L532.32 318.24L532.32 318.72L531.84 318.72z" stroke="none" fill="#000000" fill-rule="nonzero" /><path transform="matrix(1 0 0 -1 0 792)" d="M99.6 267.36L100.08 267.36L100.08 318.24L99.6 318.24z" stroke="none" fill="#000000" fill-rule="nonzero" /><path transform="matrix(1 0 0 -1 0 792)" d="M126.72 267.36L127.2 267.36L127.2 318.24L126.72 318.24z" stroke="none" fill="#000000" fill-rule="nonzero" /><path transform="matrix(1 0 0 -1 0 792)" d="M250.56 267.36L251.04 267.36L251.04 318.24L250.56 318.24z" stroke="none" fill="#000000" fill-rule="nonzero" /><path transform="matrix(1 0 0 -1 0 792)" d="M300.72 267.36L301.2 267.36L301.2 318.24L300.72 318.24z" stroke="none" fill="#000000" fill-rule="nonzero" /><path transform="matrix(1 0 0 -1 0 792)" d="M350.88 267.36L351.12 267.36L351.12 318.24L350.88 318.24z" stroke="none" fill="#000000" fill-rule="nonzero" /><path transform="matrix(1 0 0 -1 0 792)" d="M412.56 267.36L413.04 267.36L413.04 318.24L412.56 318.24z" stroke="none" fill="#000000" fill-rule="nonzero" /><path transform="matrix(1 0 0 -1 0 792)" d="M476.88 267.36L477.36 267.36L477.36 318.24L476.88 318.24z" stroke="none" fill="#000000" fill-rule="nonzero" /><path transform="matrix(1 0 0 -1 0 792)" d="M531.84 267.36L532.32 267.36L532.32 318.24L531.84 318.24z" stroke="none" fill="#000000" fill-rule="nonzero" /><path transform="matrix(1 0 0 -1 0 792)" d="M99.6 266.88L100.08 266.88L100.08 267.36L99.6 267.36z" stroke="none" fill="#000000" fill-rule="nonzero" /><path transform="matrix(1 0 0 -1 0 792)" d="M100.08 266.88L126.72 266.88L126.72 267.36L100.08 267.36z" stroke="none" fill="#000000" fill-rule="nonzero" /><path transform="matrix(1 0 0 -1 0 792)" d="M126.72 266.88L127.2 266.88L127.2 267.36L126.72 267.36z" stroke="none" fill="#000000" fill-rule="nonzero" /><path transform="matrix(1 0 0 -1 0 792)" d="M127.2 266.88L250.56 266.88L250.56 267.36L127.2 267.36z" stroke="none" fill="#000000" fill-rule="nonzero" /><path transform="matrix(1 0 0 -1 0 792)" d="M250.56 266.88L251.04 266.88L251.04 267.36L250.56 267.36z" stroke="none" fill="#000000" fill-rule="nonzero" /><path transform="matrix(1 0 0 -1 0 792)" d="M251.04 266.88L300.72 266.88L300.72 267.36L251.04 267.36z" stroke="none" fill="#000000" fill-rule="nonzero" /><path transform="matrix(1 0 0 -1 0 792)" d="M300.72 266.88L301.2 266.88L301.2 267.36L300.72 267.36z" stroke="none" fill="#000000" fill-rule="nonzero" /><path transform="matrix(1 0 0 -1 0 792)" d="M301.2 266.88L350.88 266.88L350.88 267.36L301.2 267.36z" stroke="none" fill="#000000" fill-rule="nonzero" /><path transform="matrix(1 0 0 -1 0 792)" d="M350.88 266.88L351.12 266.88L351.12 267.36L350.88 267.36z" stroke="none" fill="#000000" fill-rule="nonzero" /><path transform="matrix(1 0 0 -1 0 792)" d="M351.12 266.88L412.56 266.88L412.56 267.36L351.12 267.36z" stroke="none" fill="#000000" fill-rule="nonzero" /><path transform="matrix(1 0 0 -1 0 792)" d="M412.56 266.88L413.04 266.88L413.04 267.36L412.56 267.36z" stroke="none" fill="#000000" fill-rule="nonzero" /><path transform="matrix(1 0 0 -1 0 792)" d="M413.04 266.88L476.88 266.88L476.88 267.36L413.04 267.36z" stroke="none" fill="#000000" fill-rule="nonzero" /><path transform="matrix(1 0 0 -1 0 792)" d="M476.88 266.88L477.36 266.88L477.36 267.36L476.88 267.36z" stroke="none" fill="#000000" fill-rule="nonzero" /><path transform="matrix(1 0 0 -1 0 792)" d="M477.36 266.88L531.84 266.88L531.84 267.36L477.36 267.36z" stroke="none" fill="#000000" fill-rule="nonzero" /><path transform="matrix(1 0 0 -1 0 792)" d="M531.84 266.88L532.32 266.88L532.32 267.36L531.84 267.36z" stroke="none" fill="#000000" fill-rule="nonzero" /><path transform="matrix(1 0 0 -1 0 792)" d="M99.6 170.4L100.08 170.4L100.08 266.88L99.6 266.88z" stroke="none" fill="#000000" fill-rule="nonzero" /><path transform="matrix(1 0 0 -1 0 792)" d="M126.72 170.4L127.2 170.4L127.2 266.88L126.72 266.88z" stroke="none" fill="#000000" fill-rule="nonzero" /><path transform="matrix(1 0 0 -1 0 792)" d="M250.56 170.4L251.04 170.4L251.04 266.88L250.56 266.88z" stroke="none" fill="#000000" fill-rule="nonzero" /><path transform="matrix(1 0 0 -1 0 792)" d="M300.72 170.4L301.2 170.4L301.2 266.88L300.72 266.88z" stroke="none" fill="#000000" fill-rule="nonzero" /><path transform="matrix(1 0 0 -1 0 792)" d="M350.88 170.4L351.12 170.4L351.12 266.88L350.88 266.88z" stroke="none" fill="#000000" fill-rule="nonzero" /><path transform="matrix(1 0 0 -1 0 792)" d="M412.56 170.4L413.04 170.4L413.04 266.88L412.56 266.88z" stroke="none" fill="#000000" fill-rule="nonzero" /><path transform="matrix(1 0 0 -1 0 792)" d="M476.88 170.4L477.36 170.4L477.36 266.88L476.88 266.88z" stroke="none" fill="#000000" fill-rule="nonzero" /><path transform="matrix(1 0 0 -1 0 792)" d="M531.84 170.4L532.32 170.4L532.32 266.88L531.84 266.88z" stroke="none" fill="#000000" fill-rule="nonzero" /><path transform="matrix(1 0 0 -1 0 792)" d="M99.6 169.92L100.08 169.92L100.08 170.4L99.6 170.4z" stroke="none" fill="#000000" fill-rule="nonzero" /><path transform="matrix(1 0 0 -1 0 792)" d="M100.08 169.92L126.72 169.92L126.72 170.4L100.08 170.4z" stroke="none" fill="#000000" fill-rule="nonzero" /><path transform="matrix(1 0 0 -1 0 792)" d="M126.72 169.92L127.2 169.92L127.2 170.4L126.72 170.4z" stroke="none" fill="#000000" fill-rule="nonzero" /><path transform="matrix(1 0 0 -1 0 792)" d="M127.2 169.92L250.56 169.92L250.56 170.4L127.2 170.4z" stroke="none" fill="#000000" fill-rule="nonzero" /><path transform="matrix(1 0 0 -1 0 792)" d="M250.56 169.92L251.04 169.92L251.04 170.4L250.56 170.4z" stroke="none" fill="#000000" fill-rule="nonzero" /><path transform="matrix(1 0 0 -1 0 792)" d="M251.04 169.92L300.72 169.92L300.72 170.4L251.04 170.4z" stroke="none" fill="#000000" fill-rule="nonzero" /><path transform="matrix(1 0 0 -1 0 792)" d="M300.72 169.92L301.2 169.92L301.2 170.4L300.72 170.4z" stroke="none" fill="#000000" fill-rule="nonzero" /><path transform="matrix(1 0 0 -1 0 792)" d="M301.2 169.92L350.88 169.92L350.88 170.4L301.2 170.4z" stroke="none" fill="#000000" fill-rule="nonzero" /><path transform="matrix(1 0 0 -1 0 792)" d="M350.88 169.92L351.12 169.92L351.12 170.4L350.88 170.4z" stroke="none" fill="#000000" fill-rule="nonzero" /><path transform="matrix(1 0 0 -1 0 792)" d="M351.12 169.92L412.56 169.92L412.56 170.4L351.12 170.4z" stroke="none" fill="#000000" fill-rule="nonzero" /><path transform="matrix(1 0 0 -1 0 792)" d="M412.56 169.92L413.04 169.92L413.04 170.4L412.56 170.4z" stroke="none" fill="#000000" fill-rule="nonzero" /><path transform="matrix(1 0 0 -1 0 792)" d="M413.04 169.92L476.88 169.92L476.88 170.4L413.04 170.4z" stroke="none" fill="#000000" fill-rule="nonzero" /><path transform="matrix(1 0 0 -1 0 792)" d="M476.88 169.92L477.36 169.92L477.36 170.4L476.88 170.4z" stroke="none" fill="#000000" fill-rule="nonzero" /><path transform="matrix(1 0 0 -1 0 792)" d="M477.36 169.92L531.84 169.92L531.84 170.4L477.36 170.4z" stroke="none" fill="#000000" fill-rule="nonzero" /><path transform="matrix(1 0 0 -1 0 792)" d="M531.84 169.92L532.32 169.92L532.32 170.4L531.84 170.4z" stroke="none" fill="#000000" fill-rule="nonzero" /><path transform="matrix(1 0 0 -1 0 792)" d="M99.6 149.04L100.08 149.04L100.08 169.92L99.6 169.92z" stroke="none" fill="#000000" fill-rule="nonzero" /><path transform="matrix(1 0 0 -1 0 792)" d="M99.6 148.56L100.08 148.56L100.08 149.04L99.6 149.04z" stroke="none" fill="#000000" fill-rule="nonzero" /><path transform="matrix(1 0 0 -1 0 792)" d="M99.6 148.56L100.08 148.56L100.08 149.04L99.6 149.04z" stroke="none" fill="#000000" fill-rule="nonzero" /><path transform="matrix(1 0 0 -1 0 792)" d="M100.08 148.56L126.72 148.56L126.72 149.04L100.08 149.04z" stroke="none" fill="#000000" fill-rule="nonzero" /><path transform="matrix(1 0 0 -1 0 792)" d="M126.72 149.04L127.2 149.04L127.2 169.92L126.72 169.92z" stroke="none" fill="#000000" fill-rule="nonzero" /><path transform="matrix(1 0 0 -1 0 792)" d="M126.72 148.56L127.2 148.56L127.2 149.04L126.72 149.04z" stroke="none" fill="#000000" fill-rule="nonzero" /><path transform="matrix(1 0 0 -1 0 792)" d="M127.2 148.56L250.56 148.56L250.56 149.04L127.2 149.04z" stroke="none" fill="#000000" fill-rule="nonzero" /><path transform="matrix(1 0 0 -1 0 792)" d="M250.56 149.04L251.04 149.04L251.04 169.92L250.56 169.92z" stroke="none" fill="#000000" fill-rule="nonzero" /><path transform="matrix(1 0 0 -1 0 792)" d="M250.56 148.56L251.04 148.56L251.04 149.04L250.56 149.04z" stroke="none" fill="#000000" fill-rule="nonzero" /><path transform="matrix(1 0 0 -1 0 792)" d="M251.04 148.56L300.72 148.56L300.72 149.04L251.04 149.04z" stroke="none" fill="#000000" fill-rule="nonzero" /><path transform="matrix(1 0 0 -1 0 792)" d="M300.72 149.04L301.2 149.04L301.2 169.92L300.72 169.92z" stroke="none" fill="#000000" fill-rule="nonzero" /><path transform="matrix(1 0 0 -1 0 792)" d="M300.72 148.56L301.2 148.56L301.2 149.04L300.72 149.04z" stroke="none" fill="#000000" fill-rule="nonzero" /><path transform="matrix(1 0 0 -1 0 792)" d="M301.2 148.56L350.88 148.56L350.88 149.04L301.2 149.04z" stroke="none" fill="#000000" fill-rule="nonzero" /><path transform="matrix(1 0 0 -1 0 792)" d="M350.88 149.04L351.12 149.04L351.12 169.92L350.88 169.92z" stroke="none" fill="#000000" fill-rule="nonzero" /><path transform="matrix(1 0 0 -1 0 792)" d="M350.88 148.56L351.12 148.56L351.12 149.04L350.88 149.04z" stroke="none" fill="#000000" fill-rule="nonzero" /><path transform="matrix(1 0 0 -1 0 792)" d="M351.12 148.56L412.56 148.56L412.56 149.04L351.12 149.04z" stroke="none" fill="#000000" fill-rule="nonzero" /><path transform="matrix(1 0 0 -1 0 792)" d="M412.56 149.04L413.04 149.04L413.04 169.92L412.56 169.92z" stroke="none" fill="#000000" fill-rule="nonzero" /><path transform="matrix(1 0 0 -1 0 792)" d="M412.56 148.56L413.04 148.56L413.04 149.04L412.56 149.04z" stroke="none" fill="#000000" fill-rule="nonzero" /><path transform="matrix(1 0 0 -1 0 792)" d="M413.04 148.56L476.88 148.56L476.88 149.04L413.04 149.04z" stroke="none" fill="#000000" fill-rule="nonzero" /><path transform="matrix(1 0 0 -1 0 792)" d="M476.88 149.04L477.36 149.04L477.36 169.92L476.88 169.92z" stroke="none" fill="#000000" fill-rule="nonzero" /><path transform="matrix(1 0 0 -1 0 792)" d="M476.88 148.56L477.36 148.56L477.36 149.04L476.88 149.04z" stroke="none" fill="#000000" fill-rule="nonzero" /><path transform="matrix(1 0 0 -1 0 792)" d="M477.36 148.56L531.84 148.56L531.84 149.04L477.36 149.04z" stroke="none" fill="#000000" fill-rule="nonzero" /><path transform="matrix(1 0 0 -1 0 792)" d="M531.84 149.04L532.32 149.04L532.32 169.92L531.84 169.92z" stroke="none" fill="#000000" fill-rule="nonzero" /><path transform="matrix(1 0 0 -1 0 792)" d="M531.84 148.56L532.32 148.56L532.32 149.04L531.84 149.04z" stroke="none" fill="#000000" fill-rule="nonzero" /><path transform="matrix(1 0 0 -1 0 792)" d="M531.84 148.56L532.32 148.56L532.32 149.04L531.84 149.04z" stroke="none" fill="#000000" fill-rule="nonzero" /></g></g></g></svg>