<?xml version="1.0" encoding="utf-8" standalone="yes"?><svg xmlns="http://www.w3.org/2000/svg" xmlns:xlink="http://www.w3.org/1999/xlink" version="1.1" width="625" height="111"><defs /><g transform="scale(1.33333)"><g transform="translate(0.074996948,0)"><g transform="matrix(1,0,0,1,0.5,0)"><path d="M0,0.5 L0,82.744003296 " stroke-width="0.5" stroke-miterlimit="10" stroke="#000000" fill="none" fill-rule="evenodd" /><path d="M68.199996948,0.5 L68.199996948,38.122001648 " stroke-width="0.5" stroke-miterlimit="10" stroke="#000000" fill="none" fill-rule="evenodd" /><path d="M68.199996948,38.622001648 L68.199996948,60.433002472 " stroke-width="0.5" stroke-miterlimit="10" stroke="#000000" fill="none" fill-rule="evenodd" /><path d="M68.199996948,60.933002472 L68.199996948,82.744003296 " stroke-width="0.5" stroke-miterlimit="10" stroke="#000000" fill="none" fill-rule="evenodd" /><path d="M258.950012207,0.5 L258.950012207,38.122001648 " stroke-width="0.5" stroke-miterlimit="10" stroke="#000000" fill="none" fill-rule="evenodd" /><path d="M258.950012207,38.622001648 L258.950012207,60.433002472 " stroke-width="0.5" stroke-miterlimit="10" stroke="#000000" fill="none" fill-rule="evenodd" /><path d="M258.950012207,60.933002472 L258.950012207,82.744003296 " stroke-width="0.5" stroke-miterlimit="10" stroke="#000000" fill="none" fill-rule="evenodd" /><path d="M328.400024414,0.5 L328.400024414,38.122001648 " stroke-width="0.5" stroke-miterlimit="10" stroke="#000000" fill="none" fill-rule="evenodd" /><path d="M328.400024414,38.622001648 L328.400024414,60.433002472 " stroke-width="0.5" stroke-miterlimit="10" stroke="#000000" fill="none" fill-rule="evenodd" /><path d="M328.400024414,60.933002472 L328.400024414,82.744003296 " stroke-width="0.5" stroke-miterlimit="10" stroke="#000000" fill="none" fill-rule="evenodd" /><path d="M401.700012207,0.5 L401.700012207,38.122001648 " stroke-width="0.5" stroke-miterlimit="10" stroke="#000000" fill="none" fill-rule="evenodd" /><path d="M401.700012207,38.622001648 L401.700012207,60.433002472 " stroke-width="0.5" stroke-miterlimit="10" stroke="#000000" fill="none" fill-rule="evenodd" /><path d="M401.700012207,60.933002472 L401.700012207,82.744003296 " stroke-width="0.5" stroke-miterlimit="10" stroke="#000000" fill="none" fill-rule="evenodd" /><path d="M467.600006104,0.5 L467.600006104,82.744003296 " stroke-width="0.5" stroke-miterlimit="10" stroke="#000000" fill="none" fill-rule="evenodd" /><path d="M-0.25,0.25 L467.850006104,0.25 " stroke-width="0.5" stroke-miterlimit="10" stroke="#000000" fill="none" fill-rule="evenodd" /><path d="M0.25,38.372001648 L467.350006104,38.372001648 " stroke-width="0.5" stroke-miterlimit="10" stroke="#000000" fill="none" fill-rule="evenodd" /><path d="M0.25,60.683002472 L467.350006104,60.683002472 " stroke-width="0.5" stroke-miterlimit="10" stroke="#000000" fill="none" fill-rule="evenodd" /><path d="M-0.25,82.994003296 L467.850006104,82.994003296 " stroke-width="0.5" stroke-miterlimit="10" stroke="#000000" fill="none" fill-rule="evenodd" /></g></g></g></svg>